%FSLAX45Y45*%
G04 Gerber Fmt 4.5, Leading zero omitted, Abs format (unit mm)*
G04 Created by KiCad (PCBNEW 4.0.2-stable) date 12/4/2017 4:21:01 PM*
%MOMM*%
G01*
G04 APERTURE LIST*
%ADD10C,0.127000*%
%ADD11C,0.150000*%
%ADD12C,0.200000*%
%ADD13C,0.300000*%
G04 APERTURE END LIST*
D10*
D11*
X12500000Y-4100000D02*
X17500000Y-4100000D01*
X17500000Y-14100000D02*
X12500000Y-14100000D01*
X12500000Y-14100000D02*
X12500000Y-4100000D01*
X13230000Y-7470000D02*
X16260000Y-7470000D01*
X16260000Y-7470000D02*
X16260000Y-6030000D01*
X16260000Y-6030000D02*
X13230000Y-6030000D01*
X13230000Y-6030000D02*
X13230000Y-7470000D01*
X17500000Y-4100000D02*
X17500000Y-14100000D01*
X8230000Y-6030000D02*
X8230000Y-7470000D01*
X11260000Y-6030000D02*
X8230000Y-6030000D01*
X11260000Y-7470000D02*
X11260000Y-6030000D01*
X8230000Y-7470000D02*
X11260000Y-7470000D01*
X7500000Y-14100000D02*
X7500000Y-4100000D01*
X12500000Y-14100000D02*
X7500000Y-14100000D01*
X12500000Y-4100000D02*
X12500000Y-14100000D01*
X7500000Y-4100000D02*
X12500000Y-4100000D01*
D12*
X7740000Y-6900000D02*
X7780000Y-6940000D01*
X7780000Y-6900000D02*
X7740000Y-6940000D01*
X7765100Y-7638100D02*
X7805100Y-7678100D01*
X7805100Y-7638100D02*
X7765100Y-7678100D01*
X8030000Y-7440000D02*
X8070000Y-7480000D01*
X8070000Y-7440000D02*
X8030000Y-7480000D01*
X9480000Y-8630000D02*
X9520000Y-8670000D01*
X9520000Y-8630000D02*
X9480000Y-8670000D01*
X9926640Y-5749610D02*
X9966640Y-5789610D01*
X9966640Y-5749610D02*
X9926640Y-5789610D01*
X10316530Y-5686110D02*
X10356530Y-5726110D01*
X10356530Y-5686110D02*
X10316530Y-5726110D01*
X10940100Y-9873300D02*
X10980100Y-9913300D01*
X10980100Y-9873300D02*
X10940100Y-9913300D01*
X11371900Y-12489500D02*
X11411900Y-12529500D01*
X11411900Y-12489500D02*
X11371900Y-12529500D01*
X11422700Y-5860100D02*
X11462700Y-5900100D01*
X11462700Y-5860100D02*
X11422700Y-5900100D01*
X11435400Y-7325680D02*
X11475400Y-7365680D01*
X11475400Y-7325680D02*
X11435400Y-7365680D01*
X11435400Y-11397300D02*
X11475400Y-11437300D01*
X11475400Y-11397300D02*
X11435400Y-11437300D01*
X11460800Y-6606860D02*
X11500800Y-6646860D01*
X11500800Y-6606860D02*
X11460800Y-6646860D01*
X11600500Y-6876100D02*
X11640500Y-6916100D01*
X11640500Y-6876100D02*
X11600500Y-6916100D01*
X11615740Y-8039420D02*
X11655740Y-8079420D01*
X11655740Y-8039420D02*
X11615740Y-8079420D01*
X11706314Y-8162630D02*
X11746314Y-8202630D01*
X11746314Y-8162630D02*
X11706314Y-8202630D01*
X11745280Y-8085140D02*
X11785280Y-8125140D01*
X11785280Y-8085140D02*
X11745280Y-8125140D01*
X11783380Y-6888800D02*
X11823380Y-6928800D01*
X11823380Y-6888800D02*
X11783380Y-6928800D01*
X12045000Y-5479100D02*
X12085000Y-5519100D01*
X12085000Y-5479100D02*
X12045000Y-5519100D01*
X12740000Y-6900000D02*
X12780000Y-6940000D01*
X12780000Y-6900000D02*
X12740000Y-6940000D01*
X12765100Y-7638100D02*
X12805100Y-7678100D01*
X12805100Y-7638100D02*
X12765100Y-7678100D01*
X13030000Y-7440000D02*
X13070000Y-7480000D01*
X13070000Y-7440000D02*
X13030000Y-7480000D01*
X14480000Y-8630000D02*
X14520000Y-8670000D01*
X14520000Y-8630000D02*
X14480000Y-8670000D01*
X14926640Y-5749610D02*
X14966640Y-5789610D01*
X14966640Y-5749610D02*
X14926640Y-5789610D01*
X15316530Y-5686110D02*
X15356530Y-5726110D01*
X15356530Y-5686110D02*
X15316530Y-5726110D01*
X15940100Y-9873300D02*
X15980100Y-9913300D01*
X15980100Y-9873300D02*
X15940100Y-9913300D01*
X16371900Y-12489500D02*
X16411900Y-12529500D01*
X16411900Y-12489500D02*
X16371900Y-12529500D01*
X16422700Y-5860100D02*
X16462700Y-5900100D01*
X16462700Y-5860100D02*
X16422700Y-5900100D01*
X16435400Y-7325680D02*
X16475400Y-7365680D01*
X16475400Y-7325680D02*
X16435400Y-7365680D01*
X16435400Y-11397300D02*
X16475400Y-11437300D01*
X16475400Y-11397300D02*
X16435400Y-11437300D01*
X16460800Y-6606860D02*
X16500800Y-6646860D01*
X16500800Y-6606860D02*
X16460800Y-6646860D01*
X16600500Y-6876100D02*
X16640500Y-6916100D01*
X16640500Y-6876100D02*
X16600500Y-6916100D01*
X16615740Y-8039420D02*
X16655740Y-8079420D01*
X16655740Y-8039420D02*
X16615740Y-8079420D01*
X16706314Y-8162630D02*
X16746314Y-8202630D01*
X16746314Y-8162630D02*
X16706314Y-8202630D01*
X16745280Y-8085140D02*
X16785280Y-8125140D01*
X16785280Y-8085140D02*
X16745280Y-8125140D01*
X16783380Y-6888800D02*
X16823380Y-6928800D01*
X16823380Y-6888800D02*
X16783380Y-6928800D01*
X17045000Y-5479100D02*
X17085000Y-5519100D01*
X17085000Y-5479100D02*
X17045000Y-5519100D01*
X7778900Y-10551400D02*
G75*
G03X7778900Y-10551400I-35000J0D01*
G01*
X7778900Y-11277200D02*
G75*
G03X7778900Y-11277200I-35000J0D01*
G01*
X8978900Y-10541400D02*
G75*
G03X8978900Y-10541400I-35000J0D01*
G01*
X8978900Y-11267200D02*
G75*
G03X8978900Y-11267200I-35000J0D01*
G01*
X12778900Y-10551400D02*
G75*
G03X12778900Y-10551400I-35000J0D01*
G01*
X12778900Y-11277200D02*
G75*
G03X12778900Y-11277200I-35000J0D01*
G01*
X13978900Y-10541400D02*
G75*
G03X13978900Y-10541400I-35000J0D01*
G01*
X13978900Y-11267200D02*
G75*
G03X13978900Y-11267200I-35000J0D01*
G01*
X7831200Y-4374600D02*
X7831200Y-4464600D01*
X7786200Y-4419600D02*
X7876200Y-4419600D01*
X7850000Y-8575000D02*
X7850000Y-8665000D01*
X7805000Y-8620000D02*
X7895000Y-8620000D01*
X8081200Y-4374600D02*
X8081200Y-4464600D01*
X8036200Y-4419600D02*
X8126200Y-4419600D01*
X8331200Y-4374600D02*
X8331200Y-4464600D01*
X8286200Y-4419600D02*
X8376200Y-4419600D01*
X8550000Y-8575000D02*
X8550000Y-8665000D01*
X8505000Y-8620000D02*
X8595000Y-8620000D01*
X8581200Y-4374600D02*
X8581200Y-4464600D01*
X8536200Y-4419600D02*
X8626200Y-4419600D01*
X8831200Y-4374600D02*
X8831200Y-4464600D01*
X8786200Y-4419600D02*
X8876200Y-4419600D01*
X9081200Y-4374600D02*
X9081200Y-4464600D01*
X9036200Y-4419600D02*
X9126200Y-4419600D01*
X9260000Y-8575000D02*
X9260000Y-8665000D01*
X9215000Y-8620000D02*
X9305000Y-8620000D01*
X9700000Y-4375000D02*
X9700000Y-4465000D01*
X9655000Y-4420000D02*
X9745000Y-4420000D01*
X9950000Y-4375000D02*
X9950000Y-4465000D01*
X9905000Y-4420000D02*
X9995000Y-4420000D01*
X10200000Y-4375000D02*
X10200000Y-4465000D01*
X10155000Y-4420000D02*
X10245000Y-4420000D01*
X10248900Y-13632900D02*
X10248900Y-13722900D01*
X10203900Y-13677900D02*
X10293900Y-13677900D01*
X10450000Y-4375000D02*
X10450000Y-4465000D01*
X10405000Y-4420000D02*
X10495000Y-4420000D01*
X12831200Y-4374600D02*
X12831200Y-4464600D01*
X12786200Y-4419600D02*
X12876200Y-4419600D01*
X12850000Y-8575000D02*
X12850000Y-8665000D01*
X12805000Y-8620000D02*
X12895000Y-8620000D01*
X13081200Y-4374600D02*
X13081200Y-4464600D01*
X13036200Y-4419600D02*
X13126200Y-4419600D01*
X13331200Y-4374600D02*
X13331200Y-4464600D01*
X13286200Y-4419600D02*
X13376200Y-4419600D01*
X13550000Y-8575000D02*
X13550000Y-8665000D01*
X13505000Y-8620000D02*
X13595000Y-8620000D01*
X13581200Y-4374600D02*
X13581200Y-4464600D01*
X13536200Y-4419600D02*
X13626200Y-4419600D01*
X13831200Y-4374600D02*
X13831200Y-4464600D01*
X13786200Y-4419600D02*
X13876200Y-4419600D01*
X14081200Y-4374600D02*
X14081200Y-4464600D01*
X14036200Y-4419600D02*
X14126200Y-4419600D01*
X14260000Y-8575000D02*
X14260000Y-8665000D01*
X14215000Y-8620000D02*
X14305000Y-8620000D01*
X14700000Y-4375000D02*
X14700000Y-4465000D01*
X14655000Y-4420000D02*
X14745000Y-4420000D01*
X14950000Y-4375000D02*
X14950000Y-4465000D01*
X14905000Y-4420000D02*
X14995000Y-4420000D01*
X15200000Y-4375000D02*
X15200000Y-4465000D01*
X15155000Y-4420000D02*
X15245000Y-4420000D01*
X15248900Y-13632900D02*
X15248900Y-13722900D01*
X15203900Y-13677900D02*
X15293900Y-13677900D01*
X15450000Y-4375000D02*
X15450000Y-4465000D01*
X15405000Y-4420000D02*
X15495000Y-4420000D01*
X7885356Y-8405356D02*
X7885356Y-8334644D01*
X7814644Y-8334644D01*
X7814644Y-8405356D01*
X7885356Y-8405356D01*
X8045356Y-6443356D02*
X8045356Y-6372644D01*
X7974644Y-6372644D01*
X7974644Y-6443356D01*
X8045356Y-6443356D01*
X8045356Y-6697356D02*
X8045356Y-6626644D01*
X7974644Y-6626644D01*
X7974644Y-6697356D01*
X8045356Y-6697356D01*
X8045356Y-6951356D02*
X8045356Y-6880644D01*
X7974644Y-6880644D01*
X7974644Y-6951356D01*
X8045356Y-6951356D01*
X8045356Y-7205356D02*
X8045356Y-7134644D01*
X7974644Y-7134644D01*
X7974644Y-7205356D01*
X8045356Y-7205356D01*
X8585356Y-8405356D02*
X8585356Y-8334644D01*
X8514644Y-8334644D01*
X8514644Y-8405356D01*
X8585356Y-8405356D01*
X9295356Y-8405356D02*
X9295356Y-8334644D01*
X9224644Y-8334644D01*
X9224644Y-8405356D01*
X9295356Y-8405356D01*
X10534256Y-13713256D02*
X10534256Y-13642544D01*
X10463544Y-13642544D01*
X10463544Y-13713256D01*
X10534256Y-13713256D01*
X10810036Y-10985296D02*
X10810036Y-10914584D01*
X10739324Y-10914584D01*
X10739324Y-10985296D01*
X10810036Y-10985296D01*
X10810036Y-12509296D02*
X10810036Y-12438584D01*
X10739324Y-12438584D01*
X10739324Y-12509296D01*
X10810036Y-12509296D01*
X11724436Y-10985296D02*
X11724436Y-10914584D01*
X11653724Y-10914584D01*
X11653724Y-10985296D01*
X11724436Y-10985296D01*
X11724436Y-12509296D02*
X11724436Y-12438584D01*
X11653724Y-12438584D01*
X11653724Y-12509296D01*
X11724436Y-12509296D01*
X12885356Y-8405356D02*
X12885356Y-8334644D01*
X12814644Y-8334644D01*
X12814644Y-8405356D01*
X12885356Y-8405356D01*
X13045356Y-6443356D02*
X13045356Y-6372644D01*
X12974644Y-6372644D01*
X12974644Y-6443356D01*
X13045356Y-6443356D01*
X13045356Y-6697356D02*
X13045356Y-6626644D01*
X12974644Y-6626644D01*
X12974644Y-6697356D01*
X13045356Y-6697356D01*
X13045356Y-6951356D02*
X13045356Y-6880644D01*
X12974644Y-6880644D01*
X12974644Y-6951356D01*
X13045356Y-6951356D01*
X13045356Y-7205356D02*
X13045356Y-7134644D01*
X12974644Y-7134644D01*
X12974644Y-7205356D01*
X13045356Y-7205356D01*
X13585356Y-8405356D02*
X13585356Y-8334644D01*
X13514644Y-8334644D01*
X13514644Y-8405356D01*
X13585356Y-8405356D01*
X14295356Y-8405356D02*
X14295356Y-8334644D01*
X14224644Y-8334644D01*
X14224644Y-8405356D01*
X14295356Y-8405356D01*
X15534256Y-13713256D02*
X15534256Y-13642544D01*
X15463544Y-13642544D01*
X15463544Y-13713256D01*
X15534256Y-13713256D01*
X15810036Y-10985296D02*
X15810036Y-10914584D01*
X15739324Y-10914584D01*
X15739324Y-10985296D01*
X15810036Y-10985296D01*
X15810036Y-12509296D02*
X15810036Y-12438584D01*
X15739324Y-12438584D01*
X15739324Y-12509296D01*
X15810036Y-12509296D01*
X16724436Y-10985296D02*
X16724436Y-10914584D01*
X16653724Y-10914584D01*
X16653724Y-10985296D01*
X16724436Y-10985296D01*
X16724436Y-12509296D02*
X16724436Y-12438584D01*
X16653724Y-12438584D01*
X16653724Y-12509296D01*
X16724436Y-12509296D01*
X10466000Y-8310640D02*
X10516800Y-8259840D01*
X10466000Y-8209040D01*
X10415200Y-8259840D01*
X10466000Y-8310640D01*
X10466000Y-8569720D02*
X10516800Y-8518920D01*
X10466000Y-8468120D01*
X10415200Y-8518920D01*
X10466000Y-8569720D01*
X10466000Y-8823720D02*
X10516800Y-8772920D01*
X10466000Y-8722120D01*
X10415200Y-8772920D01*
X10466000Y-8823720D01*
X10466000Y-9077720D02*
X10516800Y-9026920D01*
X10466000Y-8976120D01*
X10415200Y-9026920D01*
X10466000Y-9077720D01*
X10466000Y-9331720D02*
X10516800Y-9280920D01*
X10466000Y-9230120D01*
X10415200Y-9280920D01*
X10466000Y-9331720D01*
X10466000Y-9585720D02*
X10516800Y-9534920D01*
X10466000Y-9484120D01*
X10415200Y-9534920D01*
X10466000Y-9585720D01*
X10466000Y-9839720D02*
X10516800Y-9788920D01*
X10466000Y-9738120D01*
X10415200Y-9788920D01*
X10466000Y-9839720D01*
X10466000Y-10093720D02*
X10516800Y-10042920D01*
X10466000Y-9992120D01*
X10415200Y-10042920D01*
X10466000Y-10093720D01*
X10466000Y-10347720D02*
X10516800Y-10296920D01*
X10466000Y-10246120D01*
X10415200Y-10296920D01*
X10466000Y-10347720D01*
X10466000Y-10601720D02*
X10516800Y-10550920D01*
X10466000Y-10500120D01*
X10415200Y-10550920D01*
X10466000Y-10601720D01*
X10466000Y-10855720D02*
X10516800Y-10804920D01*
X10466000Y-10754120D01*
X10415200Y-10804920D01*
X10466000Y-10855720D01*
X10466000Y-11109720D02*
X10516800Y-11058920D01*
X10466000Y-11008120D01*
X10415200Y-11058920D01*
X10466000Y-11109720D01*
X10466000Y-11363720D02*
X10516800Y-11312920D01*
X10466000Y-11262120D01*
X10415200Y-11312920D01*
X10466000Y-11363720D01*
X10466000Y-11617720D02*
X10516800Y-11566920D01*
X10466000Y-11516120D01*
X10415200Y-11566920D01*
X10466000Y-11617720D01*
X10466000Y-11871720D02*
X10516800Y-11820920D01*
X10466000Y-11770120D01*
X10415200Y-11820920D01*
X10466000Y-11871720D01*
X10466000Y-12125720D02*
X10516800Y-12074920D01*
X10466000Y-12024120D01*
X10415200Y-12074920D01*
X10466000Y-12125720D01*
X10466000Y-12379720D02*
X10516800Y-12328920D01*
X10466000Y-12278120D01*
X10415200Y-12328920D01*
X10466000Y-12379720D01*
X10466000Y-12633720D02*
X10516800Y-12582920D01*
X10466000Y-12532120D01*
X10415200Y-12582920D01*
X10466000Y-12633720D01*
X10466000Y-12887720D02*
X10516800Y-12836920D01*
X10466000Y-12786120D01*
X10415200Y-12836920D01*
X10466000Y-12887720D01*
X10466000Y-13141720D02*
X10516800Y-13090920D01*
X10466000Y-13040120D01*
X10415200Y-13090920D01*
X10466000Y-13141720D01*
X11439600Y-4997900D02*
X11490400Y-4947100D01*
X11439600Y-4896300D01*
X11388800Y-4947100D01*
X11439600Y-4997900D01*
X11439600Y-5251900D02*
X11490400Y-5201100D01*
X11439600Y-5150300D01*
X11388800Y-5201100D01*
X11439600Y-5251900D01*
X11693600Y-4997900D02*
X11744400Y-4947100D01*
X11693600Y-4896300D01*
X11642800Y-4947100D01*
X11693600Y-4997900D01*
X11693600Y-5251900D02*
X11744400Y-5201100D01*
X11693600Y-5150300D01*
X11642800Y-5201100D01*
X11693600Y-5251900D01*
X11947600Y-4997900D02*
X11998400Y-4947100D01*
X11947600Y-4896300D01*
X11896800Y-4947100D01*
X11947600Y-4997900D01*
X11947600Y-5251900D02*
X11998400Y-5201100D01*
X11947600Y-5150300D01*
X11896800Y-5201100D01*
X11947600Y-5251900D01*
X11990000Y-8315720D02*
X12040800Y-8264920D01*
X11990000Y-8214120D01*
X11939200Y-8264920D01*
X11990000Y-8315720D01*
X11990000Y-8569720D02*
X12040800Y-8518920D01*
X11990000Y-8468120D01*
X11939200Y-8518920D01*
X11990000Y-8569720D01*
X11990000Y-8823720D02*
X12040800Y-8772920D01*
X11990000Y-8722120D01*
X11939200Y-8772920D01*
X11990000Y-8823720D01*
X11990000Y-9077720D02*
X12040800Y-9026920D01*
X11990000Y-8976120D01*
X11939200Y-9026920D01*
X11990000Y-9077720D01*
X11990000Y-9331720D02*
X12040800Y-9280920D01*
X11990000Y-9230120D01*
X11939200Y-9280920D01*
X11990000Y-9331720D01*
X11990000Y-9585720D02*
X12040800Y-9534920D01*
X11990000Y-9484120D01*
X11939200Y-9534920D01*
X11990000Y-9585720D01*
X11990000Y-9839720D02*
X12040800Y-9788920D01*
X11990000Y-9738120D01*
X11939200Y-9788920D01*
X11990000Y-9839720D01*
X11990000Y-10093720D02*
X12040800Y-10042920D01*
X11990000Y-9992120D01*
X11939200Y-10042920D01*
X11990000Y-10093720D01*
X11990000Y-10347720D02*
X12040800Y-10296920D01*
X11990000Y-10246120D01*
X11939200Y-10296920D01*
X11990000Y-10347720D01*
X11990000Y-10601720D02*
X12040800Y-10550920D01*
X11990000Y-10500120D01*
X11939200Y-10550920D01*
X11990000Y-10601720D01*
X11990000Y-10855720D02*
X12040800Y-10804920D01*
X11990000Y-10754120D01*
X11939200Y-10804920D01*
X11990000Y-10855720D01*
X11990000Y-11109720D02*
X12040800Y-11058920D01*
X11990000Y-11008120D01*
X11939200Y-11058920D01*
X11990000Y-11109720D01*
X11990000Y-11363720D02*
X12040800Y-11312920D01*
X11990000Y-11262120D01*
X11939200Y-11312920D01*
X11990000Y-11363720D01*
X11990000Y-11617720D02*
X12040800Y-11566920D01*
X11990000Y-11516120D01*
X11939200Y-11566920D01*
X11990000Y-11617720D01*
X11990000Y-11871720D02*
X12040800Y-11820920D01*
X11990000Y-11770120D01*
X11939200Y-11820920D01*
X11990000Y-11871720D01*
X11990000Y-12125720D02*
X12040800Y-12074920D01*
X11990000Y-12024120D01*
X11939200Y-12074920D01*
X11990000Y-12125720D01*
X11990000Y-12379720D02*
X12040800Y-12328920D01*
X11990000Y-12278120D01*
X11939200Y-12328920D01*
X11990000Y-12379720D01*
X11990000Y-12633720D02*
X12040800Y-12582920D01*
X11990000Y-12532120D01*
X11939200Y-12582920D01*
X11990000Y-12633720D01*
X11990000Y-12887720D02*
X12040800Y-12836920D01*
X11990000Y-12786120D01*
X11939200Y-12836920D01*
X11990000Y-12887720D01*
X11990000Y-13141720D02*
X12040800Y-13090920D01*
X11990000Y-13040120D01*
X11939200Y-13090920D01*
X11990000Y-13141720D01*
X12201600Y-4997900D02*
X12252400Y-4947100D01*
X12201600Y-4896300D01*
X12150800Y-4947100D01*
X12201600Y-4997900D01*
X12201600Y-5251900D02*
X12252400Y-5201100D01*
X12201600Y-5150300D01*
X12150800Y-5201100D01*
X12201600Y-5251900D01*
X15466000Y-8310640D02*
X15516800Y-8259840D01*
X15466000Y-8209040D01*
X15415200Y-8259840D01*
X15466000Y-8310640D01*
X15466000Y-8569720D02*
X15516800Y-8518920D01*
X15466000Y-8468120D01*
X15415200Y-8518920D01*
X15466000Y-8569720D01*
X15466000Y-8823720D02*
X15516800Y-8772920D01*
X15466000Y-8722120D01*
X15415200Y-8772920D01*
X15466000Y-8823720D01*
X15466000Y-9077720D02*
X15516800Y-9026920D01*
X15466000Y-8976120D01*
X15415200Y-9026920D01*
X15466000Y-9077720D01*
X15466000Y-9331720D02*
X15516800Y-9280920D01*
X15466000Y-9230120D01*
X15415200Y-9280920D01*
X15466000Y-9331720D01*
X15466000Y-9585720D02*
X15516800Y-9534920D01*
X15466000Y-9484120D01*
X15415200Y-9534920D01*
X15466000Y-9585720D01*
X15466000Y-9839720D02*
X15516800Y-9788920D01*
X15466000Y-9738120D01*
X15415200Y-9788920D01*
X15466000Y-9839720D01*
X15466000Y-10093720D02*
X15516800Y-10042920D01*
X15466000Y-9992120D01*
X15415200Y-10042920D01*
X15466000Y-10093720D01*
X15466000Y-10347720D02*
X15516800Y-10296920D01*
X15466000Y-10246120D01*
X15415200Y-10296920D01*
X15466000Y-10347720D01*
X15466000Y-10601720D02*
X15516800Y-10550920D01*
X15466000Y-10500120D01*
X15415200Y-10550920D01*
X15466000Y-10601720D01*
X15466000Y-10855720D02*
X15516800Y-10804920D01*
X15466000Y-10754120D01*
X15415200Y-10804920D01*
X15466000Y-10855720D01*
X15466000Y-11109720D02*
X15516800Y-11058920D01*
X15466000Y-11008120D01*
X15415200Y-11058920D01*
X15466000Y-11109720D01*
X15466000Y-11363720D02*
X15516800Y-11312920D01*
X15466000Y-11262120D01*
X15415200Y-11312920D01*
X15466000Y-11363720D01*
X15466000Y-11617720D02*
X15516800Y-11566920D01*
X15466000Y-11516120D01*
X15415200Y-11566920D01*
X15466000Y-11617720D01*
X15466000Y-11871720D02*
X15516800Y-11820920D01*
X15466000Y-11770120D01*
X15415200Y-11820920D01*
X15466000Y-11871720D01*
X15466000Y-12125720D02*
X15516800Y-12074920D01*
X15466000Y-12024120D01*
X15415200Y-12074920D01*
X15466000Y-12125720D01*
X15466000Y-12379720D02*
X15516800Y-12328920D01*
X15466000Y-12278120D01*
X15415200Y-12328920D01*
X15466000Y-12379720D01*
X15466000Y-12633720D02*
X15516800Y-12582920D01*
X15466000Y-12532120D01*
X15415200Y-12582920D01*
X15466000Y-12633720D01*
X15466000Y-12887720D02*
X15516800Y-12836920D01*
X15466000Y-12786120D01*
X15415200Y-12836920D01*
X15466000Y-12887720D01*
X15466000Y-13141720D02*
X15516800Y-13090920D01*
X15466000Y-13040120D01*
X15415200Y-13090920D01*
X15466000Y-13141720D01*
X16439600Y-4997900D02*
X16490400Y-4947100D01*
X16439600Y-4896300D01*
X16388800Y-4947100D01*
X16439600Y-4997900D01*
X16439600Y-5251900D02*
X16490400Y-5201100D01*
X16439600Y-5150300D01*
X16388800Y-5201100D01*
X16439600Y-5251900D01*
X16693600Y-4997900D02*
X16744400Y-4947100D01*
X16693600Y-4896300D01*
X16642800Y-4947100D01*
X16693600Y-4997900D01*
X16693600Y-5251900D02*
X16744400Y-5201100D01*
X16693600Y-5150300D01*
X16642800Y-5201100D01*
X16693600Y-5251900D01*
X16947600Y-4997900D02*
X16998400Y-4947100D01*
X16947600Y-4896300D01*
X16896800Y-4947100D01*
X16947600Y-4997900D01*
X16947600Y-5251900D02*
X16998400Y-5201100D01*
X16947600Y-5150300D01*
X16896800Y-5201100D01*
X16947600Y-5251900D01*
X16990000Y-8315720D02*
X17040800Y-8264920D01*
X16990000Y-8214120D01*
X16939200Y-8264920D01*
X16990000Y-8315720D01*
X16990000Y-8569720D02*
X17040800Y-8518920D01*
X16990000Y-8468120D01*
X16939200Y-8518920D01*
X16990000Y-8569720D01*
X16990000Y-8823720D02*
X17040800Y-8772920D01*
X16990000Y-8722120D01*
X16939200Y-8772920D01*
X16990000Y-8823720D01*
X16990000Y-9077720D02*
X17040800Y-9026920D01*
X16990000Y-8976120D01*
X16939200Y-9026920D01*
X16990000Y-9077720D01*
X16990000Y-9331720D02*
X17040800Y-9280920D01*
X16990000Y-9230120D01*
X16939200Y-9280920D01*
X16990000Y-9331720D01*
X16990000Y-9585720D02*
X17040800Y-9534920D01*
X16990000Y-9484120D01*
X16939200Y-9534920D01*
X16990000Y-9585720D01*
X16990000Y-9839720D02*
X17040800Y-9788920D01*
X16990000Y-9738120D01*
X16939200Y-9788920D01*
X16990000Y-9839720D01*
X16990000Y-10093720D02*
X17040800Y-10042920D01*
X16990000Y-9992120D01*
X16939200Y-10042920D01*
X16990000Y-10093720D01*
X16990000Y-10347720D02*
X17040800Y-10296920D01*
X16990000Y-10246120D01*
X16939200Y-10296920D01*
X16990000Y-10347720D01*
X16990000Y-10601720D02*
X17040800Y-10550920D01*
X16990000Y-10500120D01*
X16939200Y-10550920D01*
X16990000Y-10601720D01*
X16990000Y-10855720D02*
X17040800Y-10804920D01*
X16990000Y-10754120D01*
X16939200Y-10804920D01*
X16990000Y-10855720D01*
X16990000Y-11109720D02*
X17040800Y-11058920D01*
X16990000Y-11008120D01*
X16939200Y-11058920D01*
X16990000Y-11109720D01*
X16990000Y-11363720D02*
X17040800Y-11312920D01*
X16990000Y-11262120D01*
X16939200Y-11312920D01*
X16990000Y-11363720D01*
X16990000Y-11617720D02*
X17040800Y-11566920D01*
X16990000Y-11516120D01*
X16939200Y-11566920D01*
X16990000Y-11617720D01*
X16990000Y-11871720D02*
X17040800Y-11820920D01*
X16990000Y-11770120D01*
X16939200Y-11820920D01*
X16990000Y-11871720D01*
X16990000Y-12125720D02*
X17040800Y-12074920D01*
X16990000Y-12024120D01*
X16939200Y-12074920D01*
X16990000Y-12125720D01*
X16990000Y-12379720D02*
X17040800Y-12328920D01*
X16990000Y-12278120D01*
X16939200Y-12328920D01*
X16990000Y-12379720D01*
X16990000Y-12633720D02*
X17040800Y-12582920D01*
X16990000Y-12532120D01*
X16939200Y-12582920D01*
X16990000Y-12633720D01*
X16990000Y-12887720D02*
X17040800Y-12836920D01*
X16990000Y-12786120D01*
X16939200Y-12836920D01*
X16990000Y-12887720D01*
X16990000Y-13141720D02*
X17040800Y-13090920D01*
X16990000Y-13040120D01*
X16939200Y-13090920D01*
X16990000Y-13141720D01*
X17201600Y-4997900D02*
X17252400Y-4947100D01*
X17201600Y-4896300D01*
X17150800Y-4947100D01*
X17201600Y-4997900D01*
X17201600Y-5251900D02*
X17252400Y-5201100D01*
X17201600Y-5150300D01*
X17150800Y-5201100D01*
X17201600Y-5251900D01*
X9533500Y-10536800D02*
X9643500Y-10646800D01*
X9643500Y-10536800D02*
X9533500Y-10646800D01*
X9643500Y-10591800D02*
G75*
G03X9643500Y-10591800I-55000J0D01*
G01*
X9533500Y-10790800D02*
X9643500Y-10900800D01*
X9643500Y-10790800D02*
X9533500Y-10900800D01*
X9643500Y-10845800D02*
G75*
G03X9643500Y-10845800I-55000J0D01*
G01*
X9533500Y-11806800D02*
X9643500Y-11916800D01*
X9643500Y-11806800D02*
X9533500Y-11916800D01*
X9643500Y-11861800D02*
G75*
G03X9643500Y-11861800I-55000J0D01*
G01*
X9533500Y-12568800D02*
X9643500Y-12678800D01*
X9643500Y-12568800D02*
X9533500Y-12678800D01*
X9643500Y-12623800D02*
G75*
G03X9643500Y-12623800I-55000J0D01*
G01*
X14533500Y-10536800D02*
X14643500Y-10646800D01*
X14643500Y-10536800D02*
X14533500Y-10646800D01*
X14643500Y-10591800D02*
G75*
G03X14643500Y-10591800I-55000J0D01*
G01*
X14533500Y-10790800D02*
X14643500Y-10900800D01*
X14643500Y-10790800D02*
X14533500Y-10900800D01*
X14643500Y-10845800D02*
G75*
G03X14643500Y-10845800I-55000J0D01*
G01*
X14533500Y-11806800D02*
X14643500Y-11916800D01*
X14643500Y-11806800D02*
X14533500Y-11916800D01*
X14643500Y-11861800D02*
G75*
G03X14643500Y-11861800I-55000J0D01*
G01*
X14533500Y-12568800D02*
X14643500Y-12678800D01*
X14643500Y-12568800D02*
X14533500Y-12678800D01*
X14643500Y-12623800D02*
G75*
G03X14643500Y-12623800I-55000J0D01*
G01*
X7683900Y-9251400D02*
X7803900Y-9371400D01*
X7803900Y-9251400D02*
X7683900Y-9371400D01*
X7743900Y-9251400D02*
X7743900Y-9371400D01*
X7683900Y-9311400D02*
X7803900Y-9311400D01*
X7683900Y-12447200D02*
X7803900Y-12567200D01*
X7803900Y-12447200D02*
X7683900Y-12567200D01*
X7743900Y-12447200D02*
X7743900Y-12567200D01*
X7683900Y-12507200D02*
X7803900Y-12507200D01*
X8283900Y-10681400D02*
X8403900Y-10801400D01*
X8403900Y-10681400D02*
X8283900Y-10801400D01*
X8343900Y-10681400D02*
X8343900Y-10801400D01*
X8283900Y-10741400D02*
X8403900Y-10741400D01*
X8283900Y-11017200D02*
X8403900Y-11137200D01*
X8403900Y-11017200D02*
X8283900Y-11137200D01*
X8343900Y-11017200D02*
X8343900Y-11137200D01*
X8283900Y-11077200D02*
X8403900Y-11077200D01*
X8883900Y-9251400D02*
X9003900Y-9371400D01*
X9003900Y-9251400D02*
X8883900Y-9371400D01*
X8943900Y-9251400D02*
X8943900Y-9371400D01*
X8883900Y-9311400D02*
X9003900Y-9311400D01*
X8883900Y-12447200D02*
X9003900Y-12567200D01*
X9003900Y-12447200D02*
X8883900Y-12567200D01*
X8943900Y-12447200D02*
X8943900Y-12567200D01*
X8883900Y-12507200D02*
X9003900Y-12507200D01*
X12683900Y-9251400D02*
X12803900Y-9371400D01*
X12803900Y-9251400D02*
X12683900Y-9371400D01*
X12743900Y-9251400D02*
X12743900Y-9371400D01*
X12683900Y-9311400D02*
X12803900Y-9311400D01*
X12683900Y-12447200D02*
X12803900Y-12567200D01*
X12803900Y-12447200D02*
X12683900Y-12567200D01*
X12743900Y-12447200D02*
X12743900Y-12567200D01*
X12683900Y-12507200D02*
X12803900Y-12507200D01*
X13283900Y-10681400D02*
X13403900Y-10801400D01*
X13403900Y-10681400D02*
X13283900Y-10801400D01*
X13343900Y-10681400D02*
X13343900Y-10801400D01*
X13283900Y-10741400D02*
X13403900Y-10741400D01*
X13283900Y-11017200D02*
X13403900Y-11137200D01*
X13403900Y-11017200D02*
X13283900Y-11137200D01*
X13343900Y-11017200D02*
X13343900Y-11137200D01*
X13283900Y-11077200D02*
X13403900Y-11077200D01*
X13883900Y-9251400D02*
X14003900Y-9371400D01*
X14003900Y-9251400D02*
X13883900Y-9371400D01*
X13943900Y-9251400D02*
X13943900Y-9371400D01*
X13883900Y-9311400D02*
X14003900Y-9311400D01*
X13883900Y-12447200D02*
X14003900Y-12567200D01*
X14003900Y-12447200D02*
X13883900Y-12567200D01*
X13943900Y-12447200D02*
X13943900Y-12567200D01*
X13883900Y-12507200D02*
X14003900Y-12507200D01*
X7732100Y-13473200D02*
X7862100Y-13603200D01*
X7862100Y-13473200D02*
X7732100Y-13603200D01*
X7843062Y-13584162D02*
X7843062Y-13492238D01*
X7751138Y-13492238D01*
X7751138Y-13584162D01*
X7843062Y-13584162D01*
X8232100Y-13473200D02*
X8362100Y-13603200D01*
X8362100Y-13473200D02*
X8232100Y-13603200D01*
X8343062Y-13584162D02*
X8343062Y-13492238D01*
X8251138Y-13492238D01*
X8251138Y-13584162D01*
X8343062Y-13584162D01*
X8732100Y-13473200D02*
X8862100Y-13603200D01*
X8862100Y-13473200D02*
X8732100Y-13603200D01*
X8843062Y-13584162D02*
X8843062Y-13492238D01*
X8751138Y-13492238D01*
X8751138Y-13584162D01*
X8843062Y-13584162D01*
X9232100Y-13473200D02*
X9362100Y-13603200D01*
X9362100Y-13473200D02*
X9232100Y-13603200D01*
X9343062Y-13584162D02*
X9343062Y-13492238D01*
X9251138Y-13492238D01*
X9251138Y-13584162D01*
X9343062Y-13584162D01*
X12732100Y-13473200D02*
X12862100Y-13603200D01*
X12862100Y-13473200D02*
X12732100Y-13603200D01*
X12843062Y-13584162D02*
X12843062Y-13492238D01*
X12751138Y-13492238D01*
X12751138Y-13584162D01*
X12843062Y-13584162D01*
X13232100Y-13473200D02*
X13362100Y-13603200D01*
X13362100Y-13473200D02*
X13232100Y-13603200D01*
X13343062Y-13584162D02*
X13343062Y-13492238D01*
X13251138Y-13492238D01*
X13251138Y-13584162D01*
X13343062Y-13584162D01*
X13732100Y-13473200D02*
X13862100Y-13603200D01*
X13862100Y-13473200D02*
X13732100Y-13603200D01*
X13843062Y-13584162D02*
X13843062Y-13492238D01*
X13751138Y-13492238D01*
X13751138Y-13584162D01*
X13843062Y-13584162D01*
X14232100Y-13473200D02*
X14362100Y-13603200D01*
X14362100Y-13473200D02*
X14232100Y-13603200D01*
X14343062Y-13584162D02*
X14343062Y-13492238D01*
X14251138Y-13492238D01*
X14251138Y-13584162D01*
X14343062Y-13584162D01*
D13*
X7763928Y-14573214D02*
X7763928Y-14273214D01*
X7835357Y-14273214D01*
X7878214Y-14287500D01*
X7906786Y-14316071D01*
X7921071Y-14344643D01*
X7935357Y-14401786D01*
X7935357Y-14444643D01*
X7921071Y-14501786D01*
X7906786Y-14530357D01*
X7878214Y-14558929D01*
X7835357Y-14573214D01*
X7763928Y-14573214D01*
X8063928Y-14573214D02*
X8063928Y-14373214D01*
X8063928Y-14430357D02*
X8078214Y-14401786D01*
X8092500Y-14387500D01*
X8121071Y-14373214D01*
X8149643Y-14373214D01*
X8249643Y-14573214D02*
X8249643Y-14373214D01*
X8249643Y-14273214D02*
X8235357Y-14287500D01*
X8249643Y-14301786D01*
X8263928Y-14287500D01*
X8249643Y-14273214D01*
X8249643Y-14301786D01*
X8435357Y-14573214D02*
X8406786Y-14558929D01*
X8392500Y-14530357D01*
X8392500Y-14273214D01*
X8592500Y-14573214D02*
X8563929Y-14558929D01*
X8549643Y-14530357D01*
X8549643Y-14273214D01*
X8935357Y-14573214D02*
X8935357Y-14273214D01*
X9035357Y-14487500D01*
X9135357Y-14273214D01*
X9135357Y-14573214D01*
X9406786Y-14573214D02*
X9406786Y-14416071D01*
X9392500Y-14387500D01*
X9363929Y-14373214D01*
X9306786Y-14373214D01*
X9278214Y-14387500D01*
X9406786Y-14558929D02*
X9378214Y-14573214D01*
X9306786Y-14573214D01*
X9278214Y-14558929D01*
X9263929Y-14530357D01*
X9263929Y-14501786D01*
X9278214Y-14473214D01*
X9306786Y-14458929D01*
X9378214Y-14458929D01*
X9406786Y-14444643D01*
X9549643Y-14373214D02*
X9549643Y-14673214D01*
X9549643Y-14387500D02*
X9578214Y-14373214D01*
X9635357Y-14373214D01*
X9663929Y-14387500D01*
X9678214Y-14401786D01*
X9692500Y-14430357D01*
X9692500Y-14516071D01*
X9678214Y-14544643D01*
X9663929Y-14558929D01*
X9635357Y-14573214D01*
X9578214Y-14573214D01*
X9549643Y-14558929D01*
X9821071Y-14544643D02*
X9835357Y-14558929D01*
X9821071Y-14573214D01*
X9806786Y-14558929D01*
X9821071Y-14544643D01*
X9821071Y-14573214D01*
X9821071Y-14387500D02*
X9835357Y-14401786D01*
X9821071Y-14416071D01*
X9806786Y-14401786D01*
X9821071Y-14387500D01*
X9821071Y-14416071D01*
X7452500Y-15047500D02*
X7492500Y-15087500D01*
X7492500Y-15047500D02*
X7452500Y-15087500D01*
X7821071Y-14903214D02*
X7849643Y-14903214D01*
X7878214Y-14917500D01*
X7892500Y-14931786D01*
X7906786Y-14960357D01*
X7921071Y-15017500D01*
X7921071Y-15088929D01*
X7906786Y-15146071D01*
X7892500Y-15174643D01*
X7878214Y-15188929D01*
X7849643Y-15203214D01*
X7821071Y-15203214D01*
X7792500Y-15188929D01*
X7778214Y-15174643D01*
X7763928Y-15146071D01*
X7749643Y-15088929D01*
X7749643Y-15017500D01*
X7763928Y-14960357D01*
X7778214Y-14931786D01*
X7792500Y-14917500D01*
X7821071Y-14903214D01*
X8049643Y-15174643D02*
X8063928Y-15188929D01*
X8049643Y-15203214D01*
X8035357Y-15188929D01*
X8049643Y-15174643D01*
X8049643Y-15203214D01*
X8321071Y-15003214D02*
X8321071Y-15203214D01*
X8249643Y-14888929D02*
X8178214Y-15103214D01*
X8363928Y-15103214D01*
X8535357Y-14903214D02*
X8563929Y-14903214D01*
X8592500Y-14917500D01*
X8606786Y-14931786D01*
X8621071Y-14960357D01*
X8635357Y-15017500D01*
X8635357Y-15088929D01*
X8621071Y-15146071D01*
X8606786Y-15174643D01*
X8592500Y-15188929D01*
X8563929Y-15203214D01*
X8535357Y-15203214D01*
X8506786Y-15188929D01*
X8492500Y-15174643D01*
X8478214Y-15146071D01*
X8463929Y-15088929D01*
X8463929Y-15017500D01*
X8478214Y-14960357D01*
X8492500Y-14931786D01*
X8506786Y-14917500D01*
X8535357Y-14903214D01*
X8763929Y-15203214D02*
X8763929Y-15003214D01*
X8763929Y-15031786D02*
X8778214Y-15017500D01*
X8806786Y-15003214D01*
X8849643Y-15003214D01*
X8878214Y-15017500D01*
X8892500Y-15046071D01*
X8892500Y-15203214D01*
X8892500Y-15046071D02*
X8906786Y-15017500D01*
X8935357Y-15003214D01*
X8978214Y-15003214D01*
X9006786Y-15017500D01*
X9021071Y-15046071D01*
X9021071Y-15203214D01*
X9163929Y-15203214D02*
X9163929Y-15003214D01*
X9163929Y-15031786D02*
X9178214Y-15017500D01*
X9206786Y-15003214D01*
X9249643Y-15003214D01*
X9278214Y-15017500D01*
X9292500Y-15046071D01*
X9292500Y-15203214D01*
X9292500Y-15046071D02*
X9306786Y-15017500D01*
X9335357Y-15003214D01*
X9378214Y-15003214D01*
X9406786Y-15017500D01*
X9421071Y-15046071D01*
X9421071Y-15203214D01*
X10006786Y-14888929D02*
X9749643Y-15274643D01*
X10392500Y-14903214D02*
X10421071Y-14903214D01*
X10449643Y-14917500D01*
X10463928Y-14931786D01*
X10478214Y-14960357D01*
X10492500Y-15017500D01*
X10492500Y-15088929D01*
X10478214Y-15146071D01*
X10463928Y-15174643D01*
X10449643Y-15188929D01*
X10421071Y-15203214D01*
X10392500Y-15203214D01*
X10363928Y-15188929D01*
X10349643Y-15174643D01*
X10335357Y-15146071D01*
X10321071Y-15088929D01*
X10321071Y-15017500D01*
X10335357Y-14960357D01*
X10349643Y-14931786D01*
X10363928Y-14917500D01*
X10392500Y-14903214D01*
X10621071Y-15174643D02*
X10635357Y-15188929D01*
X10621071Y-15203214D01*
X10606786Y-15188929D01*
X10621071Y-15174643D01*
X10621071Y-15203214D01*
X10821071Y-14903214D02*
X10849643Y-14903214D01*
X10878214Y-14917500D01*
X10892500Y-14931786D01*
X10906786Y-14960357D01*
X10921071Y-15017500D01*
X10921071Y-15088929D01*
X10906786Y-15146071D01*
X10892500Y-15174643D01*
X10878214Y-15188929D01*
X10849643Y-15203214D01*
X10821071Y-15203214D01*
X10792500Y-15188929D01*
X10778214Y-15174643D01*
X10763928Y-15146071D01*
X10749643Y-15088929D01*
X10749643Y-15017500D01*
X10763928Y-14960357D01*
X10778214Y-14931786D01*
X10792500Y-14917500D01*
X10821071Y-14903214D01*
X11206785Y-15203214D02*
X11035357Y-15203214D01*
X11121071Y-15203214D02*
X11121071Y-14903214D01*
X11092500Y-14946071D01*
X11063928Y-14974643D01*
X11035357Y-14988929D01*
X11463928Y-14903214D02*
X11406785Y-14903214D01*
X11378214Y-14917500D01*
X11363928Y-14931786D01*
X11335357Y-14974643D01*
X11321071Y-15031786D01*
X11321071Y-15146071D01*
X11335357Y-15174643D01*
X11349643Y-15188929D01*
X11378214Y-15203214D01*
X11435357Y-15203214D01*
X11463928Y-15188929D01*
X11478214Y-15174643D01*
X11492500Y-15146071D01*
X11492500Y-15074643D01*
X11478214Y-15046071D01*
X11463928Y-15031786D01*
X11435357Y-15017500D01*
X11378214Y-15017500D01*
X11349643Y-15031786D01*
X11335357Y-15046071D01*
X11321071Y-15074643D01*
X11606786Y-14903214D02*
X11606786Y-14960357D01*
X11721071Y-14903214D02*
X11721071Y-14960357D01*
X12163928Y-15317500D02*
X12149643Y-15303214D01*
X12121071Y-15260357D01*
X12106785Y-15231786D01*
X12092500Y-15188929D01*
X12078214Y-15117500D01*
X12078214Y-15060357D01*
X12092500Y-14988929D01*
X12106785Y-14946071D01*
X12121071Y-14917500D01*
X12149643Y-14874643D01*
X12163928Y-14860357D01*
X12249643Y-14903214D02*
X12435357Y-14903214D01*
X12335357Y-15017500D01*
X12378214Y-15017500D01*
X12406785Y-15031786D01*
X12421071Y-15046071D01*
X12435357Y-15074643D01*
X12435357Y-15146071D01*
X12421071Y-15174643D01*
X12406785Y-15188929D01*
X12378214Y-15203214D01*
X12292500Y-15203214D01*
X12263928Y-15188929D01*
X12249643Y-15174643D01*
X12692500Y-14903214D02*
X12635357Y-14903214D01*
X12606785Y-14917500D01*
X12592500Y-14931786D01*
X12563928Y-14974643D01*
X12549643Y-15031786D01*
X12549643Y-15146071D01*
X12563928Y-15174643D01*
X12578214Y-15188929D01*
X12606785Y-15203214D01*
X12663928Y-15203214D01*
X12692500Y-15188929D01*
X12706785Y-15174643D01*
X12721071Y-15146071D01*
X12721071Y-15074643D01*
X12706785Y-15046071D01*
X12692500Y-15031786D01*
X12663928Y-15017500D01*
X12606785Y-15017500D01*
X12578214Y-15031786D01*
X12563928Y-15046071D01*
X12549643Y-15074643D01*
X13078214Y-15203214D02*
X13078214Y-14903214D01*
X13206785Y-15203214D02*
X13206785Y-15046071D01*
X13192500Y-15017500D01*
X13163928Y-15003214D01*
X13121071Y-15003214D01*
X13092500Y-15017500D01*
X13078214Y-15031786D01*
X13392500Y-15203214D02*
X13363928Y-15188929D01*
X13349643Y-15174643D01*
X13335357Y-15146071D01*
X13335357Y-15060357D01*
X13349643Y-15031786D01*
X13363928Y-15017500D01*
X13392500Y-15003214D01*
X13435357Y-15003214D01*
X13463928Y-15017500D01*
X13478214Y-15031786D01*
X13492500Y-15060357D01*
X13492500Y-15146071D01*
X13478214Y-15174643D01*
X13463928Y-15188929D01*
X13435357Y-15203214D01*
X13392500Y-15203214D01*
X13663928Y-15203214D02*
X13635357Y-15188929D01*
X13621071Y-15160357D01*
X13621071Y-14903214D01*
X13892500Y-15188929D02*
X13863928Y-15203214D01*
X13806786Y-15203214D01*
X13778214Y-15188929D01*
X13763928Y-15160357D01*
X13763928Y-15046071D01*
X13778214Y-15017500D01*
X13806786Y-15003214D01*
X13863928Y-15003214D01*
X13892500Y-15017500D01*
X13906786Y-15046071D01*
X13906786Y-15074643D01*
X13763928Y-15103214D01*
X14021071Y-15188929D02*
X14049643Y-15203214D01*
X14106786Y-15203214D01*
X14135357Y-15188929D01*
X14149643Y-15160357D01*
X14149643Y-15146071D01*
X14135357Y-15117500D01*
X14106786Y-15103214D01*
X14063928Y-15103214D01*
X14035357Y-15088929D01*
X14021071Y-15060357D01*
X14021071Y-15046071D01*
X14035357Y-15017500D01*
X14063928Y-15003214D01*
X14106786Y-15003214D01*
X14135357Y-15017500D01*
X14249643Y-15317500D02*
X14263928Y-15303214D01*
X14292500Y-15260357D01*
X14306786Y-15231786D01*
X14321071Y-15188929D01*
X14335357Y-15117500D01*
X14335357Y-15060357D01*
X14321071Y-14988929D01*
X14306786Y-14946071D01*
X14292500Y-14917500D01*
X14263928Y-14874643D01*
X14249643Y-14860357D01*
X7492500Y-15463500D02*
G75*
G03X7492500Y-15463500I-35000J0D01*
G01*
X7821071Y-15299214D02*
X7849643Y-15299214D01*
X7878214Y-15313500D01*
X7892500Y-15327786D01*
X7906786Y-15356357D01*
X7921071Y-15413500D01*
X7921071Y-15484929D01*
X7906786Y-15542071D01*
X7892500Y-15570643D01*
X7878214Y-15584929D01*
X7849643Y-15599214D01*
X7821071Y-15599214D01*
X7792500Y-15584929D01*
X7778214Y-15570643D01*
X7763928Y-15542071D01*
X7749643Y-15484929D01*
X7749643Y-15413500D01*
X7763928Y-15356357D01*
X7778214Y-15327786D01*
X7792500Y-15313500D01*
X7821071Y-15299214D01*
X8049643Y-15570643D02*
X8063928Y-15584929D01*
X8049643Y-15599214D01*
X8035357Y-15584929D01*
X8049643Y-15570643D01*
X8049643Y-15599214D01*
X8163928Y-15299214D02*
X8363928Y-15299214D01*
X8235357Y-15599214D01*
X8535357Y-15299214D02*
X8563929Y-15299214D01*
X8592500Y-15313500D01*
X8606786Y-15327786D01*
X8621071Y-15356357D01*
X8635357Y-15413500D01*
X8635357Y-15484929D01*
X8621071Y-15542071D01*
X8606786Y-15570643D01*
X8592500Y-15584929D01*
X8563929Y-15599214D01*
X8535357Y-15599214D01*
X8506786Y-15584929D01*
X8492500Y-15570643D01*
X8478214Y-15542071D01*
X8463929Y-15484929D01*
X8463929Y-15413500D01*
X8478214Y-15356357D01*
X8492500Y-15327786D01*
X8506786Y-15313500D01*
X8535357Y-15299214D01*
X8763929Y-15599214D02*
X8763929Y-15399214D01*
X8763929Y-15427786D02*
X8778214Y-15413500D01*
X8806786Y-15399214D01*
X8849643Y-15399214D01*
X8878214Y-15413500D01*
X8892500Y-15442071D01*
X8892500Y-15599214D01*
X8892500Y-15442071D02*
X8906786Y-15413500D01*
X8935357Y-15399214D01*
X8978214Y-15399214D01*
X9006786Y-15413500D01*
X9021071Y-15442071D01*
X9021071Y-15599214D01*
X9163929Y-15599214D02*
X9163929Y-15399214D01*
X9163929Y-15427786D02*
X9178214Y-15413500D01*
X9206786Y-15399214D01*
X9249643Y-15399214D01*
X9278214Y-15413500D01*
X9292500Y-15442071D01*
X9292500Y-15599214D01*
X9292500Y-15442071D02*
X9306786Y-15413500D01*
X9335357Y-15399214D01*
X9378214Y-15399214D01*
X9406786Y-15413500D01*
X9421071Y-15442071D01*
X9421071Y-15599214D01*
X10006786Y-15284929D02*
X9749643Y-15670643D01*
X10392500Y-15299214D02*
X10421071Y-15299214D01*
X10449643Y-15313500D01*
X10463928Y-15327786D01*
X10478214Y-15356357D01*
X10492500Y-15413500D01*
X10492500Y-15484929D01*
X10478214Y-15542071D01*
X10463928Y-15570643D01*
X10449643Y-15584929D01*
X10421071Y-15599214D01*
X10392500Y-15599214D01*
X10363928Y-15584929D01*
X10349643Y-15570643D01*
X10335357Y-15542071D01*
X10321071Y-15484929D01*
X10321071Y-15413500D01*
X10335357Y-15356357D01*
X10349643Y-15327786D01*
X10363928Y-15313500D01*
X10392500Y-15299214D01*
X10621071Y-15570643D02*
X10635357Y-15584929D01*
X10621071Y-15599214D01*
X10606786Y-15584929D01*
X10621071Y-15570643D01*
X10621071Y-15599214D01*
X10821071Y-15299214D02*
X10849643Y-15299214D01*
X10878214Y-15313500D01*
X10892500Y-15327786D01*
X10906786Y-15356357D01*
X10921071Y-15413500D01*
X10921071Y-15484929D01*
X10906786Y-15542071D01*
X10892500Y-15570643D01*
X10878214Y-15584929D01*
X10849643Y-15599214D01*
X10821071Y-15599214D01*
X10792500Y-15584929D01*
X10778214Y-15570643D01*
X10763928Y-15542071D01*
X10749643Y-15484929D01*
X10749643Y-15413500D01*
X10763928Y-15356357D01*
X10778214Y-15327786D01*
X10792500Y-15313500D01*
X10821071Y-15299214D01*
X11035357Y-15327786D02*
X11049643Y-15313500D01*
X11078214Y-15299214D01*
X11149643Y-15299214D01*
X11178214Y-15313500D01*
X11192500Y-15327786D01*
X11206785Y-15356357D01*
X11206785Y-15384929D01*
X11192500Y-15427786D01*
X11021071Y-15599214D01*
X11206785Y-15599214D01*
X11378214Y-15427786D02*
X11349643Y-15413500D01*
X11335357Y-15399214D01*
X11321071Y-15370643D01*
X11321071Y-15356357D01*
X11335357Y-15327786D01*
X11349643Y-15313500D01*
X11378214Y-15299214D01*
X11435357Y-15299214D01*
X11463928Y-15313500D01*
X11478214Y-15327786D01*
X11492500Y-15356357D01*
X11492500Y-15370643D01*
X11478214Y-15399214D01*
X11463928Y-15413500D01*
X11435357Y-15427786D01*
X11378214Y-15427786D01*
X11349643Y-15442071D01*
X11335357Y-15456357D01*
X11321071Y-15484929D01*
X11321071Y-15542071D01*
X11335357Y-15570643D01*
X11349643Y-15584929D01*
X11378214Y-15599214D01*
X11435357Y-15599214D01*
X11463928Y-15584929D01*
X11478214Y-15570643D01*
X11492500Y-15542071D01*
X11492500Y-15484929D01*
X11478214Y-15456357D01*
X11463928Y-15442071D01*
X11435357Y-15427786D01*
X11606786Y-15299214D02*
X11606786Y-15356357D01*
X11721071Y-15299214D02*
X11721071Y-15356357D01*
X12163928Y-15713500D02*
X12149643Y-15699214D01*
X12121071Y-15656357D01*
X12106785Y-15627786D01*
X12092500Y-15584929D01*
X12078214Y-15513500D01*
X12078214Y-15456357D01*
X12092500Y-15384929D01*
X12106785Y-15342071D01*
X12121071Y-15313500D01*
X12149643Y-15270643D01*
X12163928Y-15256357D01*
X12321071Y-15427786D02*
X12292500Y-15413500D01*
X12278214Y-15399214D01*
X12263928Y-15370643D01*
X12263928Y-15356357D01*
X12278214Y-15327786D01*
X12292500Y-15313500D01*
X12321071Y-15299214D01*
X12378214Y-15299214D01*
X12406785Y-15313500D01*
X12421071Y-15327786D01*
X12435357Y-15356357D01*
X12435357Y-15370643D01*
X12421071Y-15399214D01*
X12406785Y-15413500D01*
X12378214Y-15427786D01*
X12321071Y-15427786D01*
X12292500Y-15442071D01*
X12278214Y-15456357D01*
X12263928Y-15484929D01*
X12263928Y-15542071D01*
X12278214Y-15570643D01*
X12292500Y-15584929D01*
X12321071Y-15599214D01*
X12378214Y-15599214D01*
X12406785Y-15584929D01*
X12421071Y-15570643D01*
X12435357Y-15542071D01*
X12435357Y-15484929D01*
X12421071Y-15456357D01*
X12406785Y-15442071D01*
X12378214Y-15427786D01*
X12792500Y-15599214D02*
X12792500Y-15299214D01*
X12921071Y-15599214D02*
X12921071Y-15442071D01*
X12906785Y-15413500D01*
X12878214Y-15399214D01*
X12835357Y-15399214D01*
X12806785Y-15413500D01*
X12792500Y-15427786D01*
X13106785Y-15599214D02*
X13078214Y-15584929D01*
X13063928Y-15570643D01*
X13049643Y-15542071D01*
X13049643Y-15456357D01*
X13063928Y-15427786D01*
X13078214Y-15413500D01*
X13106785Y-15399214D01*
X13149643Y-15399214D01*
X13178214Y-15413500D01*
X13192500Y-15427786D01*
X13206785Y-15456357D01*
X13206785Y-15542071D01*
X13192500Y-15570643D01*
X13178214Y-15584929D01*
X13149643Y-15599214D01*
X13106785Y-15599214D01*
X13378214Y-15599214D02*
X13349643Y-15584929D01*
X13335357Y-15556357D01*
X13335357Y-15299214D01*
X13606786Y-15584929D02*
X13578214Y-15599214D01*
X13521071Y-15599214D01*
X13492500Y-15584929D01*
X13478214Y-15556357D01*
X13478214Y-15442071D01*
X13492500Y-15413500D01*
X13521071Y-15399214D01*
X13578214Y-15399214D01*
X13606786Y-15413500D01*
X13621071Y-15442071D01*
X13621071Y-15470643D01*
X13478214Y-15499214D01*
X13735357Y-15584929D02*
X13763928Y-15599214D01*
X13821071Y-15599214D01*
X13849643Y-15584929D01*
X13863928Y-15556357D01*
X13863928Y-15542071D01*
X13849643Y-15513500D01*
X13821071Y-15499214D01*
X13778214Y-15499214D01*
X13749643Y-15484929D01*
X13735357Y-15456357D01*
X13735357Y-15442071D01*
X13749643Y-15413500D01*
X13778214Y-15399214D01*
X13821071Y-15399214D01*
X13849643Y-15413500D01*
X13963928Y-15713500D02*
X13978214Y-15699214D01*
X14006786Y-15656357D01*
X14021071Y-15627786D01*
X14035357Y-15584929D01*
X14049643Y-15513500D01*
X14049643Y-15456357D01*
X14035357Y-15384929D01*
X14021071Y-15342071D01*
X14006786Y-15313500D01*
X13978214Y-15270643D01*
X13963928Y-15256357D01*
X7447500Y-15814500D02*
X7447500Y-15904500D01*
X7402500Y-15859500D02*
X7492500Y-15859500D01*
X7821071Y-15695214D02*
X7849643Y-15695214D01*
X7878214Y-15709500D01*
X7892500Y-15723786D01*
X7906786Y-15752357D01*
X7921071Y-15809500D01*
X7921071Y-15880929D01*
X7906786Y-15938071D01*
X7892500Y-15966643D01*
X7878214Y-15980929D01*
X7849643Y-15995214D01*
X7821071Y-15995214D01*
X7792500Y-15980929D01*
X7778214Y-15966643D01*
X7763928Y-15938071D01*
X7749643Y-15880929D01*
X7749643Y-15809500D01*
X7763928Y-15752357D01*
X7778214Y-15723786D01*
X7792500Y-15709500D01*
X7821071Y-15695214D01*
X8049643Y-15966643D02*
X8063928Y-15980929D01*
X8049643Y-15995214D01*
X8035357Y-15980929D01*
X8049643Y-15966643D01*
X8049643Y-15995214D01*
X8206786Y-15995214D02*
X8263928Y-15995214D01*
X8292500Y-15980929D01*
X8306786Y-15966643D01*
X8335357Y-15923786D01*
X8349643Y-15866643D01*
X8349643Y-15752357D01*
X8335357Y-15723786D01*
X8321071Y-15709500D01*
X8292500Y-15695214D01*
X8235357Y-15695214D01*
X8206786Y-15709500D01*
X8192500Y-15723786D01*
X8178214Y-15752357D01*
X8178214Y-15823786D01*
X8192500Y-15852357D01*
X8206786Y-15866643D01*
X8235357Y-15880929D01*
X8292500Y-15880929D01*
X8321071Y-15866643D01*
X8335357Y-15852357D01*
X8349643Y-15823786D01*
X8535357Y-15695214D02*
X8563929Y-15695214D01*
X8592500Y-15709500D01*
X8606786Y-15723786D01*
X8621071Y-15752357D01*
X8635357Y-15809500D01*
X8635357Y-15880929D01*
X8621071Y-15938071D01*
X8606786Y-15966643D01*
X8592500Y-15980929D01*
X8563929Y-15995214D01*
X8535357Y-15995214D01*
X8506786Y-15980929D01*
X8492500Y-15966643D01*
X8478214Y-15938071D01*
X8463929Y-15880929D01*
X8463929Y-15809500D01*
X8478214Y-15752357D01*
X8492500Y-15723786D01*
X8506786Y-15709500D01*
X8535357Y-15695214D01*
X8763929Y-15995214D02*
X8763929Y-15795214D01*
X8763929Y-15823786D02*
X8778214Y-15809500D01*
X8806786Y-15795214D01*
X8849643Y-15795214D01*
X8878214Y-15809500D01*
X8892500Y-15838071D01*
X8892500Y-15995214D01*
X8892500Y-15838071D02*
X8906786Y-15809500D01*
X8935357Y-15795214D01*
X8978214Y-15795214D01*
X9006786Y-15809500D01*
X9021071Y-15838071D01*
X9021071Y-15995214D01*
X9163929Y-15995214D02*
X9163929Y-15795214D01*
X9163929Y-15823786D02*
X9178214Y-15809500D01*
X9206786Y-15795214D01*
X9249643Y-15795214D01*
X9278214Y-15809500D01*
X9292500Y-15838071D01*
X9292500Y-15995214D01*
X9292500Y-15838071D02*
X9306786Y-15809500D01*
X9335357Y-15795214D01*
X9378214Y-15795214D01*
X9406786Y-15809500D01*
X9421071Y-15838071D01*
X9421071Y-15995214D01*
X10006786Y-15680929D02*
X9749643Y-16066643D01*
X10392500Y-15695214D02*
X10421071Y-15695214D01*
X10449643Y-15709500D01*
X10463928Y-15723786D01*
X10478214Y-15752357D01*
X10492500Y-15809500D01*
X10492500Y-15880929D01*
X10478214Y-15938071D01*
X10463928Y-15966643D01*
X10449643Y-15980929D01*
X10421071Y-15995214D01*
X10392500Y-15995214D01*
X10363928Y-15980929D01*
X10349643Y-15966643D01*
X10335357Y-15938071D01*
X10321071Y-15880929D01*
X10321071Y-15809500D01*
X10335357Y-15752357D01*
X10349643Y-15723786D01*
X10363928Y-15709500D01*
X10392500Y-15695214D01*
X10621071Y-15966643D02*
X10635357Y-15980929D01*
X10621071Y-15995214D01*
X10606786Y-15980929D01*
X10621071Y-15966643D01*
X10621071Y-15995214D01*
X10821071Y-15695214D02*
X10849643Y-15695214D01*
X10878214Y-15709500D01*
X10892500Y-15723786D01*
X10906786Y-15752357D01*
X10921071Y-15809500D01*
X10921071Y-15880929D01*
X10906786Y-15938071D01*
X10892500Y-15966643D01*
X10878214Y-15980929D01*
X10849643Y-15995214D01*
X10821071Y-15995214D01*
X10792500Y-15980929D01*
X10778214Y-15966643D01*
X10763928Y-15938071D01*
X10749643Y-15880929D01*
X10749643Y-15809500D01*
X10763928Y-15752357D01*
X10778214Y-15723786D01*
X10792500Y-15709500D01*
X10821071Y-15695214D01*
X11021071Y-15695214D02*
X11206785Y-15695214D01*
X11106786Y-15809500D01*
X11149643Y-15809500D01*
X11178214Y-15823786D01*
X11192500Y-15838071D01*
X11206785Y-15866643D01*
X11206785Y-15938071D01*
X11192500Y-15966643D01*
X11178214Y-15980929D01*
X11149643Y-15995214D01*
X11063928Y-15995214D01*
X11035357Y-15980929D01*
X11021071Y-15966643D01*
X11478214Y-15695214D02*
X11335357Y-15695214D01*
X11321071Y-15838071D01*
X11335357Y-15823786D01*
X11363928Y-15809500D01*
X11435357Y-15809500D01*
X11463928Y-15823786D01*
X11478214Y-15838071D01*
X11492500Y-15866643D01*
X11492500Y-15938071D01*
X11478214Y-15966643D01*
X11463928Y-15980929D01*
X11435357Y-15995214D01*
X11363928Y-15995214D01*
X11335357Y-15980929D01*
X11321071Y-15966643D01*
X11606786Y-15695214D02*
X11606786Y-15752357D01*
X11721071Y-15695214D02*
X11721071Y-15752357D01*
X12163928Y-16109500D02*
X12149643Y-16095214D01*
X12121071Y-16052357D01*
X12106785Y-16023786D01*
X12092500Y-15980929D01*
X12078214Y-15909500D01*
X12078214Y-15852357D01*
X12092500Y-15780929D01*
X12106785Y-15738071D01*
X12121071Y-15709500D01*
X12149643Y-15666643D01*
X12163928Y-15652357D01*
X12263928Y-15723786D02*
X12278214Y-15709500D01*
X12306785Y-15695214D01*
X12378214Y-15695214D01*
X12406785Y-15709500D01*
X12421071Y-15723786D01*
X12435357Y-15752357D01*
X12435357Y-15780929D01*
X12421071Y-15823786D01*
X12249643Y-15995214D01*
X12435357Y-15995214D01*
X12606785Y-15823786D02*
X12578214Y-15809500D01*
X12563928Y-15795214D01*
X12549643Y-15766643D01*
X12549643Y-15752357D01*
X12563928Y-15723786D01*
X12578214Y-15709500D01*
X12606785Y-15695214D01*
X12663928Y-15695214D01*
X12692500Y-15709500D01*
X12706785Y-15723786D01*
X12721071Y-15752357D01*
X12721071Y-15766643D01*
X12706785Y-15795214D01*
X12692500Y-15809500D01*
X12663928Y-15823786D01*
X12606785Y-15823786D01*
X12578214Y-15838071D01*
X12563928Y-15852357D01*
X12549643Y-15880929D01*
X12549643Y-15938071D01*
X12563928Y-15966643D01*
X12578214Y-15980929D01*
X12606785Y-15995214D01*
X12663928Y-15995214D01*
X12692500Y-15980929D01*
X12706785Y-15966643D01*
X12721071Y-15938071D01*
X12721071Y-15880929D01*
X12706785Y-15852357D01*
X12692500Y-15838071D01*
X12663928Y-15823786D01*
X13078214Y-15995214D02*
X13078214Y-15695214D01*
X13206785Y-15995214D02*
X13206785Y-15838071D01*
X13192500Y-15809500D01*
X13163928Y-15795214D01*
X13121071Y-15795214D01*
X13092500Y-15809500D01*
X13078214Y-15823786D01*
X13392500Y-15995214D02*
X13363928Y-15980929D01*
X13349643Y-15966643D01*
X13335357Y-15938071D01*
X13335357Y-15852357D01*
X13349643Y-15823786D01*
X13363928Y-15809500D01*
X13392500Y-15795214D01*
X13435357Y-15795214D01*
X13463928Y-15809500D01*
X13478214Y-15823786D01*
X13492500Y-15852357D01*
X13492500Y-15938071D01*
X13478214Y-15966643D01*
X13463928Y-15980929D01*
X13435357Y-15995214D01*
X13392500Y-15995214D01*
X13663928Y-15995214D02*
X13635357Y-15980929D01*
X13621071Y-15952357D01*
X13621071Y-15695214D01*
X13892500Y-15980929D02*
X13863928Y-15995214D01*
X13806786Y-15995214D01*
X13778214Y-15980929D01*
X13763928Y-15952357D01*
X13763928Y-15838071D01*
X13778214Y-15809500D01*
X13806786Y-15795214D01*
X13863928Y-15795214D01*
X13892500Y-15809500D01*
X13906786Y-15838071D01*
X13906786Y-15866643D01*
X13763928Y-15895214D01*
X14021071Y-15980929D02*
X14049643Y-15995214D01*
X14106786Y-15995214D01*
X14135357Y-15980929D01*
X14149643Y-15952357D01*
X14149643Y-15938071D01*
X14135357Y-15909500D01*
X14106786Y-15895214D01*
X14063928Y-15895214D01*
X14035357Y-15880929D01*
X14021071Y-15852357D01*
X14021071Y-15838071D01*
X14035357Y-15809500D01*
X14063928Y-15795214D01*
X14106786Y-15795214D01*
X14135357Y-15809500D01*
X14249643Y-16109500D02*
X14263928Y-16095214D01*
X14292500Y-16052357D01*
X14306786Y-16023786D01*
X14321071Y-15980929D01*
X14335357Y-15909500D01*
X14335357Y-15852357D01*
X14321071Y-15780929D01*
X14306786Y-15738071D01*
X14292500Y-15709500D01*
X14263928Y-15666643D01*
X14249643Y-15652357D01*
X7477856Y-16290856D02*
X7477856Y-16220144D01*
X7407144Y-16220144D01*
X7407144Y-16290856D01*
X7477856Y-16290856D01*
X7921071Y-16391214D02*
X7749643Y-16391214D01*
X7835357Y-16391214D02*
X7835357Y-16091214D01*
X7806786Y-16134071D01*
X7778214Y-16162643D01*
X7749643Y-16176929D01*
X8049643Y-16362643D02*
X8063928Y-16376929D01*
X8049643Y-16391214D01*
X8035357Y-16376929D01*
X8049643Y-16362643D01*
X8049643Y-16391214D01*
X8249643Y-16091214D02*
X8278214Y-16091214D01*
X8306786Y-16105500D01*
X8321071Y-16119786D01*
X8335357Y-16148357D01*
X8349643Y-16205500D01*
X8349643Y-16276929D01*
X8335357Y-16334071D01*
X8321071Y-16362643D01*
X8306786Y-16376929D01*
X8278214Y-16391214D01*
X8249643Y-16391214D01*
X8221071Y-16376929D01*
X8206786Y-16362643D01*
X8192500Y-16334071D01*
X8178214Y-16276929D01*
X8178214Y-16205500D01*
X8192500Y-16148357D01*
X8206786Y-16119786D01*
X8221071Y-16105500D01*
X8249643Y-16091214D01*
X8535357Y-16091214D02*
X8563929Y-16091214D01*
X8592500Y-16105500D01*
X8606786Y-16119786D01*
X8621071Y-16148357D01*
X8635357Y-16205500D01*
X8635357Y-16276929D01*
X8621071Y-16334071D01*
X8606786Y-16362643D01*
X8592500Y-16376929D01*
X8563929Y-16391214D01*
X8535357Y-16391214D01*
X8506786Y-16376929D01*
X8492500Y-16362643D01*
X8478214Y-16334071D01*
X8463929Y-16276929D01*
X8463929Y-16205500D01*
X8478214Y-16148357D01*
X8492500Y-16119786D01*
X8506786Y-16105500D01*
X8535357Y-16091214D01*
X8763929Y-16391214D02*
X8763929Y-16191214D01*
X8763929Y-16219786D02*
X8778214Y-16205500D01*
X8806786Y-16191214D01*
X8849643Y-16191214D01*
X8878214Y-16205500D01*
X8892500Y-16234071D01*
X8892500Y-16391214D01*
X8892500Y-16234071D02*
X8906786Y-16205500D01*
X8935357Y-16191214D01*
X8978214Y-16191214D01*
X9006786Y-16205500D01*
X9021071Y-16234071D01*
X9021071Y-16391214D01*
X9163929Y-16391214D02*
X9163929Y-16191214D01*
X9163929Y-16219786D02*
X9178214Y-16205500D01*
X9206786Y-16191214D01*
X9249643Y-16191214D01*
X9278214Y-16205500D01*
X9292500Y-16234071D01*
X9292500Y-16391214D01*
X9292500Y-16234071D02*
X9306786Y-16205500D01*
X9335357Y-16191214D01*
X9378214Y-16191214D01*
X9406786Y-16205500D01*
X9421071Y-16234071D01*
X9421071Y-16391214D01*
X10006786Y-16076929D02*
X9749643Y-16462643D01*
X10392500Y-16091214D02*
X10421071Y-16091214D01*
X10449643Y-16105500D01*
X10463928Y-16119786D01*
X10478214Y-16148357D01*
X10492500Y-16205500D01*
X10492500Y-16276929D01*
X10478214Y-16334071D01*
X10463928Y-16362643D01*
X10449643Y-16376929D01*
X10421071Y-16391214D01*
X10392500Y-16391214D01*
X10363928Y-16376929D01*
X10349643Y-16362643D01*
X10335357Y-16334071D01*
X10321071Y-16276929D01*
X10321071Y-16205500D01*
X10335357Y-16148357D01*
X10349643Y-16119786D01*
X10363928Y-16105500D01*
X10392500Y-16091214D01*
X10621071Y-16362643D02*
X10635357Y-16376929D01*
X10621071Y-16391214D01*
X10606786Y-16376929D01*
X10621071Y-16362643D01*
X10621071Y-16391214D01*
X10821071Y-16091214D02*
X10849643Y-16091214D01*
X10878214Y-16105500D01*
X10892500Y-16119786D01*
X10906786Y-16148357D01*
X10921071Y-16205500D01*
X10921071Y-16276929D01*
X10906786Y-16334071D01*
X10892500Y-16362643D01*
X10878214Y-16376929D01*
X10849643Y-16391214D01*
X10821071Y-16391214D01*
X10792500Y-16376929D01*
X10778214Y-16362643D01*
X10763928Y-16334071D01*
X10749643Y-16276929D01*
X10749643Y-16205500D01*
X10763928Y-16148357D01*
X10778214Y-16119786D01*
X10792500Y-16105500D01*
X10821071Y-16091214D01*
X11021071Y-16091214D02*
X11206785Y-16091214D01*
X11106786Y-16205500D01*
X11149643Y-16205500D01*
X11178214Y-16219786D01*
X11192500Y-16234071D01*
X11206785Y-16262643D01*
X11206785Y-16334071D01*
X11192500Y-16362643D01*
X11178214Y-16376929D01*
X11149643Y-16391214D01*
X11063928Y-16391214D01*
X11035357Y-16376929D01*
X11021071Y-16362643D01*
X11349643Y-16391214D02*
X11406785Y-16391214D01*
X11435357Y-16376929D01*
X11449643Y-16362643D01*
X11478214Y-16319786D01*
X11492500Y-16262643D01*
X11492500Y-16148357D01*
X11478214Y-16119786D01*
X11463928Y-16105500D01*
X11435357Y-16091214D01*
X11378214Y-16091214D01*
X11349643Y-16105500D01*
X11335357Y-16119786D01*
X11321071Y-16148357D01*
X11321071Y-16219786D01*
X11335357Y-16248357D01*
X11349643Y-16262643D01*
X11378214Y-16276929D01*
X11435357Y-16276929D01*
X11463928Y-16262643D01*
X11478214Y-16248357D01*
X11492500Y-16219786D01*
X11606786Y-16091214D02*
X11606786Y-16148357D01*
X11721071Y-16091214D02*
X11721071Y-16148357D01*
X12163928Y-16505500D02*
X12149643Y-16491214D01*
X12121071Y-16448357D01*
X12106785Y-16419786D01*
X12092500Y-16376929D01*
X12078214Y-16305500D01*
X12078214Y-16248357D01*
X12092500Y-16176929D01*
X12106785Y-16134071D01*
X12121071Y-16105500D01*
X12149643Y-16062643D01*
X12163928Y-16048357D01*
X12263928Y-16119786D02*
X12278214Y-16105500D01*
X12306785Y-16091214D01*
X12378214Y-16091214D01*
X12406785Y-16105500D01*
X12421071Y-16119786D01*
X12435357Y-16148357D01*
X12435357Y-16176929D01*
X12421071Y-16219786D01*
X12249643Y-16391214D01*
X12435357Y-16391214D01*
X12692500Y-16191214D02*
X12692500Y-16391214D01*
X12621071Y-16076929D02*
X12549643Y-16291214D01*
X12735357Y-16291214D01*
X13078214Y-16391214D02*
X13078214Y-16091214D01*
X13206785Y-16391214D02*
X13206785Y-16234071D01*
X13192500Y-16205500D01*
X13163928Y-16191214D01*
X13121071Y-16191214D01*
X13092500Y-16205500D01*
X13078214Y-16219786D01*
X13392500Y-16391214D02*
X13363928Y-16376929D01*
X13349643Y-16362643D01*
X13335357Y-16334071D01*
X13335357Y-16248357D01*
X13349643Y-16219786D01*
X13363928Y-16205500D01*
X13392500Y-16191214D01*
X13435357Y-16191214D01*
X13463928Y-16205500D01*
X13478214Y-16219786D01*
X13492500Y-16248357D01*
X13492500Y-16334071D01*
X13478214Y-16362643D01*
X13463928Y-16376929D01*
X13435357Y-16391214D01*
X13392500Y-16391214D01*
X13663928Y-16391214D02*
X13635357Y-16376929D01*
X13621071Y-16348357D01*
X13621071Y-16091214D01*
X13892500Y-16376929D02*
X13863928Y-16391214D01*
X13806786Y-16391214D01*
X13778214Y-16376929D01*
X13763928Y-16348357D01*
X13763928Y-16234071D01*
X13778214Y-16205500D01*
X13806786Y-16191214D01*
X13863928Y-16191214D01*
X13892500Y-16205500D01*
X13906786Y-16234071D01*
X13906786Y-16262643D01*
X13763928Y-16291214D01*
X14021071Y-16376929D02*
X14049643Y-16391214D01*
X14106786Y-16391214D01*
X14135357Y-16376929D01*
X14149643Y-16348357D01*
X14149643Y-16334071D01*
X14135357Y-16305500D01*
X14106786Y-16291214D01*
X14063928Y-16291214D01*
X14035357Y-16276929D01*
X14021071Y-16248357D01*
X14021071Y-16234071D01*
X14035357Y-16205500D01*
X14063928Y-16191214D01*
X14106786Y-16191214D01*
X14135357Y-16205500D01*
X14249643Y-16505500D02*
X14263928Y-16491214D01*
X14292500Y-16448357D01*
X14306786Y-16419786D01*
X14321071Y-16376929D01*
X14335357Y-16305500D01*
X14335357Y-16248357D01*
X14321071Y-16176929D01*
X14306786Y-16134071D01*
X14292500Y-16105500D01*
X14263928Y-16062643D01*
X14249643Y-16048357D01*
X7441700Y-16702300D02*
X7492500Y-16651500D01*
X7441700Y-16600700D01*
X7390900Y-16651500D01*
X7441700Y-16702300D01*
X7921071Y-16787214D02*
X7749643Y-16787214D01*
X7835357Y-16787214D02*
X7835357Y-16487214D01*
X7806786Y-16530071D01*
X7778214Y-16558643D01*
X7749643Y-16572929D01*
X8049643Y-16758643D02*
X8063928Y-16772929D01*
X8049643Y-16787214D01*
X8035357Y-16772929D01*
X8049643Y-16758643D01*
X8049643Y-16787214D01*
X8249643Y-16487214D02*
X8278214Y-16487214D01*
X8306786Y-16501500D01*
X8321071Y-16515786D01*
X8335357Y-16544357D01*
X8349643Y-16601500D01*
X8349643Y-16672929D01*
X8335357Y-16730071D01*
X8321071Y-16758643D01*
X8306786Y-16772929D01*
X8278214Y-16787214D01*
X8249643Y-16787214D01*
X8221071Y-16772929D01*
X8206786Y-16758643D01*
X8192500Y-16730071D01*
X8178214Y-16672929D01*
X8178214Y-16601500D01*
X8192500Y-16544357D01*
X8206786Y-16515786D01*
X8221071Y-16501500D01*
X8249643Y-16487214D01*
X8463929Y-16515786D02*
X8478214Y-16501500D01*
X8506786Y-16487214D01*
X8578214Y-16487214D01*
X8606786Y-16501500D01*
X8621071Y-16515786D01*
X8635357Y-16544357D01*
X8635357Y-16572929D01*
X8621071Y-16615786D01*
X8449643Y-16787214D01*
X8635357Y-16787214D01*
X8763929Y-16787214D02*
X8763929Y-16587214D01*
X8763929Y-16615786D02*
X8778214Y-16601500D01*
X8806786Y-16587214D01*
X8849643Y-16587214D01*
X8878214Y-16601500D01*
X8892500Y-16630071D01*
X8892500Y-16787214D01*
X8892500Y-16630071D02*
X8906786Y-16601500D01*
X8935357Y-16587214D01*
X8978214Y-16587214D01*
X9006786Y-16601500D01*
X9021071Y-16630071D01*
X9021071Y-16787214D01*
X9163929Y-16787214D02*
X9163929Y-16587214D01*
X9163929Y-16615786D02*
X9178214Y-16601500D01*
X9206786Y-16587214D01*
X9249643Y-16587214D01*
X9278214Y-16601500D01*
X9292500Y-16630071D01*
X9292500Y-16787214D01*
X9292500Y-16630071D02*
X9306786Y-16601500D01*
X9335357Y-16587214D01*
X9378214Y-16587214D01*
X9406786Y-16601500D01*
X9421071Y-16630071D01*
X9421071Y-16787214D01*
X10006786Y-16472929D02*
X9749643Y-16858643D01*
X10392500Y-16487214D02*
X10421071Y-16487214D01*
X10449643Y-16501500D01*
X10463928Y-16515786D01*
X10478214Y-16544357D01*
X10492500Y-16601500D01*
X10492500Y-16672929D01*
X10478214Y-16730071D01*
X10463928Y-16758643D01*
X10449643Y-16772929D01*
X10421071Y-16787214D01*
X10392500Y-16787214D01*
X10363928Y-16772929D01*
X10349643Y-16758643D01*
X10335357Y-16730071D01*
X10321071Y-16672929D01*
X10321071Y-16601500D01*
X10335357Y-16544357D01*
X10349643Y-16515786D01*
X10363928Y-16501500D01*
X10392500Y-16487214D01*
X10621071Y-16758643D02*
X10635357Y-16772929D01*
X10621071Y-16787214D01*
X10606786Y-16772929D01*
X10621071Y-16758643D01*
X10621071Y-16787214D01*
X10821071Y-16487214D02*
X10849643Y-16487214D01*
X10878214Y-16501500D01*
X10892500Y-16515786D01*
X10906786Y-16544357D01*
X10921071Y-16601500D01*
X10921071Y-16672929D01*
X10906786Y-16730071D01*
X10892500Y-16758643D01*
X10878214Y-16772929D01*
X10849643Y-16787214D01*
X10821071Y-16787214D01*
X10792500Y-16772929D01*
X10778214Y-16758643D01*
X10763928Y-16730071D01*
X10749643Y-16672929D01*
X10749643Y-16601500D01*
X10763928Y-16544357D01*
X10778214Y-16515786D01*
X10792500Y-16501500D01*
X10821071Y-16487214D01*
X11178214Y-16587214D02*
X11178214Y-16787214D01*
X11106786Y-16472929D02*
X11035357Y-16687214D01*
X11221071Y-16687214D01*
X11392500Y-16487214D02*
X11421071Y-16487214D01*
X11449643Y-16501500D01*
X11463928Y-16515786D01*
X11478214Y-16544357D01*
X11492500Y-16601500D01*
X11492500Y-16672929D01*
X11478214Y-16730071D01*
X11463928Y-16758643D01*
X11449643Y-16772929D01*
X11421071Y-16787214D01*
X11392500Y-16787214D01*
X11363928Y-16772929D01*
X11349643Y-16758643D01*
X11335357Y-16730071D01*
X11321071Y-16672929D01*
X11321071Y-16601500D01*
X11335357Y-16544357D01*
X11349643Y-16515786D01*
X11363928Y-16501500D01*
X11392500Y-16487214D01*
X11606786Y-16487214D02*
X11606786Y-16544357D01*
X11721071Y-16487214D02*
X11721071Y-16544357D01*
X12163928Y-16901500D02*
X12149643Y-16887214D01*
X12121071Y-16844357D01*
X12106785Y-16815786D01*
X12092500Y-16772929D01*
X12078214Y-16701500D01*
X12078214Y-16644357D01*
X12092500Y-16572929D01*
X12106785Y-16530071D01*
X12121071Y-16501500D01*
X12149643Y-16458643D01*
X12163928Y-16444357D01*
X12292500Y-16787214D02*
X12349643Y-16787214D01*
X12378214Y-16772929D01*
X12392500Y-16758643D01*
X12421071Y-16715786D01*
X12435357Y-16658643D01*
X12435357Y-16544357D01*
X12421071Y-16515786D01*
X12406785Y-16501500D01*
X12378214Y-16487214D01*
X12321071Y-16487214D01*
X12292500Y-16501500D01*
X12278214Y-16515786D01*
X12263928Y-16544357D01*
X12263928Y-16615786D01*
X12278214Y-16644357D01*
X12292500Y-16658643D01*
X12321071Y-16672929D01*
X12378214Y-16672929D01*
X12406785Y-16658643D01*
X12421071Y-16644357D01*
X12435357Y-16615786D01*
X12692500Y-16487214D02*
X12635357Y-16487214D01*
X12606785Y-16501500D01*
X12592500Y-16515786D01*
X12563928Y-16558643D01*
X12549643Y-16615786D01*
X12549643Y-16730071D01*
X12563928Y-16758643D01*
X12578214Y-16772929D01*
X12606785Y-16787214D01*
X12663928Y-16787214D01*
X12692500Y-16772929D01*
X12706785Y-16758643D01*
X12721071Y-16730071D01*
X12721071Y-16658643D01*
X12706785Y-16630071D01*
X12692500Y-16615786D01*
X12663928Y-16601500D01*
X12606785Y-16601500D01*
X12578214Y-16615786D01*
X12563928Y-16630071D01*
X12549643Y-16658643D01*
X13078214Y-16787214D02*
X13078214Y-16487214D01*
X13206785Y-16787214D02*
X13206785Y-16630071D01*
X13192500Y-16601500D01*
X13163928Y-16587214D01*
X13121071Y-16587214D01*
X13092500Y-16601500D01*
X13078214Y-16615786D01*
X13392500Y-16787214D02*
X13363928Y-16772929D01*
X13349643Y-16758643D01*
X13335357Y-16730071D01*
X13335357Y-16644357D01*
X13349643Y-16615786D01*
X13363928Y-16601500D01*
X13392500Y-16587214D01*
X13435357Y-16587214D01*
X13463928Y-16601500D01*
X13478214Y-16615786D01*
X13492500Y-16644357D01*
X13492500Y-16730071D01*
X13478214Y-16758643D01*
X13463928Y-16772929D01*
X13435357Y-16787214D01*
X13392500Y-16787214D01*
X13663928Y-16787214D02*
X13635357Y-16772929D01*
X13621071Y-16744357D01*
X13621071Y-16487214D01*
X13892500Y-16772929D02*
X13863928Y-16787214D01*
X13806786Y-16787214D01*
X13778214Y-16772929D01*
X13763928Y-16744357D01*
X13763928Y-16630071D01*
X13778214Y-16601500D01*
X13806786Y-16587214D01*
X13863928Y-16587214D01*
X13892500Y-16601500D01*
X13906786Y-16630071D01*
X13906786Y-16658643D01*
X13763928Y-16687214D01*
X14021071Y-16772929D02*
X14049643Y-16787214D01*
X14106786Y-16787214D01*
X14135357Y-16772929D01*
X14149643Y-16744357D01*
X14149643Y-16730071D01*
X14135357Y-16701500D01*
X14106786Y-16687214D01*
X14063928Y-16687214D01*
X14035357Y-16672929D01*
X14021071Y-16644357D01*
X14021071Y-16630071D01*
X14035357Y-16601500D01*
X14063928Y-16587214D01*
X14106786Y-16587214D01*
X14135357Y-16601500D01*
X14249643Y-16901500D02*
X14263928Y-16887214D01*
X14292500Y-16844357D01*
X14306786Y-16815786D01*
X14321071Y-16772929D01*
X14335357Y-16701500D01*
X14335357Y-16644357D01*
X14321071Y-16572929D01*
X14306786Y-16530071D01*
X14292500Y-16501500D01*
X14263928Y-16458643D01*
X14249643Y-16444357D01*
X7382500Y-16992500D02*
X7492500Y-17102500D01*
X7492500Y-16992500D02*
X7382500Y-17102500D01*
X7492500Y-17047500D02*
G75*
G03X7492500Y-17047500I-55000J0D01*
G01*
X7921071Y-17183214D02*
X7749643Y-17183214D01*
X7835357Y-17183214D02*
X7835357Y-16883214D01*
X7806786Y-16926072D01*
X7778214Y-16954643D01*
X7749643Y-16968929D01*
X8049643Y-17154643D02*
X8063928Y-17168929D01*
X8049643Y-17183214D01*
X8035357Y-17168929D01*
X8049643Y-17154643D01*
X8049643Y-17183214D01*
X8349643Y-17183214D02*
X8178214Y-17183214D01*
X8263928Y-17183214D02*
X8263928Y-16883214D01*
X8235357Y-16926072D01*
X8206786Y-16954643D01*
X8178214Y-16968929D01*
X8535357Y-16883214D02*
X8563929Y-16883214D01*
X8592500Y-16897500D01*
X8606786Y-16911786D01*
X8621071Y-16940357D01*
X8635357Y-16997500D01*
X8635357Y-17068929D01*
X8621071Y-17126072D01*
X8606786Y-17154643D01*
X8592500Y-17168929D01*
X8563929Y-17183214D01*
X8535357Y-17183214D01*
X8506786Y-17168929D01*
X8492500Y-17154643D01*
X8478214Y-17126072D01*
X8463929Y-17068929D01*
X8463929Y-16997500D01*
X8478214Y-16940357D01*
X8492500Y-16911786D01*
X8506786Y-16897500D01*
X8535357Y-16883214D01*
X8763929Y-17183214D02*
X8763929Y-16983214D01*
X8763929Y-17011786D02*
X8778214Y-16997500D01*
X8806786Y-16983214D01*
X8849643Y-16983214D01*
X8878214Y-16997500D01*
X8892500Y-17026072D01*
X8892500Y-17183214D01*
X8892500Y-17026072D02*
X8906786Y-16997500D01*
X8935357Y-16983214D01*
X8978214Y-16983214D01*
X9006786Y-16997500D01*
X9021071Y-17026072D01*
X9021071Y-17183214D01*
X9163929Y-17183214D02*
X9163929Y-16983214D01*
X9163929Y-17011786D02*
X9178214Y-16997500D01*
X9206786Y-16983214D01*
X9249643Y-16983214D01*
X9278214Y-16997500D01*
X9292500Y-17026072D01*
X9292500Y-17183214D01*
X9292500Y-17026072D02*
X9306786Y-16997500D01*
X9335357Y-16983214D01*
X9378214Y-16983214D01*
X9406786Y-16997500D01*
X9421071Y-17026072D01*
X9421071Y-17183214D01*
X10006786Y-16868929D02*
X9749643Y-17254643D01*
X10392500Y-16883214D02*
X10421071Y-16883214D01*
X10449643Y-16897500D01*
X10463928Y-16911786D01*
X10478214Y-16940357D01*
X10492500Y-16997500D01*
X10492500Y-17068929D01*
X10478214Y-17126072D01*
X10463928Y-17154643D01*
X10449643Y-17168929D01*
X10421071Y-17183214D01*
X10392500Y-17183214D01*
X10363928Y-17168929D01*
X10349643Y-17154643D01*
X10335357Y-17126072D01*
X10321071Y-17068929D01*
X10321071Y-16997500D01*
X10335357Y-16940357D01*
X10349643Y-16911786D01*
X10363928Y-16897500D01*
X10392500Y-16883214D01*
X10621071Y-17154643D02*
X10635357Y-17168929D01*
X10621071Y-17183214D01*
X10606786Y-17168929D01*
X10621071Y-17154643D01*
X10621071Y-17183214D01*
X10821071Y-16883214D02*
X10849643Y-16883214D01*
X10878214Y-16897500D01*
X10892500Y-16911786D01*
X10906786Y-16940357D01*
X10921071Y-16997500D01*
X10921071Y-17068929D01*
X10906786Y-17126072D01*
X10892500Y-17154643D01*
X10878214Y-17168929D01*
X10849643Y-17183214D01*
X10821071Y-17183214D01*
X10792500Y-17168929D01*
X10778214Y-17154643D01*
X10763928Y-17126072D01*
X10749643Y-17068929D01*
X10749643Y-16997500D01*
X10763928Y-16940357D01*
X10778214Y-16911786D01*
X10792500Y-16897500D01*
X10821071Y-16883214D01*
X11178214Y-16983214D02*
X11178214Y-17183214D01*
X11106786Y-16868929D02*
X11035357Y-17083214D01*
X11221071Y-17083214D01*
X11306785Y-16883214D02*
X11492500Y-16883214D01*
X11392500Y-16997500D01*
X11435357Y-16997500D01*
X11463928Y-17011786D01*
X11478214Y-17026072D01*
X11492500Y-17054643D01*
X11492500Y-17126072D01*
X11478214Y-17154643D01*
X11463928Y-17168929D01*
X11435357Y-17183214D01*
X11349643Y-17183214D01*
X11321071Y-17168929D01*
X11306785Y-17154643D01*
X11606786Y-16883214D02*
X11606786Y-16940357D01*
X11721071Y-16883214D02*
X11721071Y-16940357D01*
X12163928Y-17297500D02*
X12149643Y-17283214D01*
X12121071Y-17240357D01*
X12106785Y-17211786D01*
X12092500Y-17168929D01*
X12078214Y-17097500D01*
X12078214Y-17040357D01*
X12092500Y-16968929D01*
X12106785Y-16926072D01*
X12121071Y-16897500D01*
X12149643Y-16854643D01*
X12163928Y-16840357D01*
X12321071Y-17011786D02*
X12292500Y-16997500D01*
X12278214Y-16983214D01*
X12263928Y-16954643D01*
X12263928Y-16940357D01*
X12278214Y-16911786D01*
X12292500Y-16897500D01*
X12321071Y-16883214D01*
X12378214Y-16883214D01*
X12406785Y-16897500D01*
X12421071Y-16911786D01*
X12435357Y-16940357D01*
X12435357Y-16954643D01*
X12421071Y-16983214D01*
X12406785Y-16997500D01*
X12378214Y-17011786D01*
X12321071Y-17011786D01*
X12292500Y-17026072D01*
X12278214Y-17040357D01*
X12263928Y-17068929D01*
X12263928Y-17126072D01*
X12278214Y-17154643D01*
X12292500Y-17168929D01*
X12321071Y-17183214D01*
X12378214Y-17183214D01*
X12406785Y-17168929D01*
X12421071Y-17154643D01*
X12435357Y-17126072D01*
X12435357Y-17068929D01*
X12421071Y-17040357D01*
X12406785Y-17026072D01*
X12378214Y-17011786D01*
X12792500Y-17183214D02*
X12792500Y-16883214D01*
X12921071Y-17183214D02*
X12921071Y-17026072D01*
X12906785Y-16997500D01*
X12878214Y-16983214D01*
X12835357Y-16983214D01*
X12806785Y-16997500D01*
X12792500Y-17011786D01*
X13106785Y-17183214D02*
X13078214Y-17168929D01*
X13063928Y-17154643D01*
X13049643Y-17126072D01*
X13049643Y-17040357D01*
X13063928Y-17011786D01*
X13078214Y-16997500D01*
X13106785Y-16983214D01*
X13149643Y-16983214D01*
X13178214Y-16997500D01*
X13192500Y-17011786D01*
X13206785Y-17040357D01*
X13206785Y-17126072D01*
X13192500Y-17154643D01*
X13178214Y-17168929D01*
X13149643Y-17183214D01*
X13106785Y-17183214D01*
X13378214Y-17183214D02*
X13349643Y-17168929D01*
X13335357Y-17140357D01*
X13335357Y-16883214D01*
X13606786Y-17168929D02*
X13578214Y-17183214D01*
X13521071Y-17183214D01*
X13492500Y-17168929D01*
X13478214Y-17140357D01*
X13478214Y-17026072D01*
X13492500Y-16997500D01*
X13521071Y-16983214D01*
X13578214Y-16983214D01*
X13606786Y-16997500D01*
X13621071Y-17026072D01*
X13621071Y-17054643D01*
X13478214Y-17083214D01*
X13735357Y-17168929D02*
X13763928Y-17183214D01*
X13821071Y-17183214D01*
X13849643Y-17168929D01*
X13863928Y-17140357D01*
X13863928Y-17126072D01*
X13849643Y-17097500D01*
X13821071Y-17083214D01*
X13778214Y-17083214D01*
X13749643Y-17068929D01*
X13735357Y-17040357D01*
X13735357Y-17026072D01*
X13749643Y-16997500D01*
X13778214Y-16983214D01*
X13821071Y-16983214D01*
X13849643Y-16997500D01*
X13963928Y-17297500D02*
X13978214Y-17283214D01*
X14006786Y-17240357D01*
X14021071Y-17211786D01*
X14035357Y-17168929D01*
X14049643Y-17097500D01*
X14049643Y-17040357D01*
X14035357Y-16968929D01*
X14021071Y-16926072D01*
X14006786Y-16897500D01*
X13978214Y-16854643D01*
X13963928Y-16840357D01*
X7372500Y-17383500D02*
X7492500Y-17503500D01*
X7492500Y-17383500D02*
X7372500Y-17503500D01*
X7432500Y-17383500D02*
X7432500Y-17503500D01*
X7372500Y-17443500D02*
X7492500Y-17443500D01*
X7921071Y-17579214D02*
X7749643Y-17579214D01*
X7835357Y-17579214D02*
X7835357Y-17279214D01*
X7806786Y-17322072D01*
X7778214Y-17350643D01*
X7749643Y-17364929D01*
X8049643Y-17550643D02*
X8063928Y-17564929D01*
X8049643Y-17579214D01*
X8035357Y-17564929D01*
X8049643Y-17550643D01*
X8049643Y-17579214D01*
X8178214Y-17307786D02*
X8192500Y-17293500D01*
X8221071Y-17279214D01*
X8292500Y-17279214D01*
X8321071Y-17293500D01*
X8335357Y-17307786D01*
X8349643Y-17336357D01*
X8349643Y-17364929D01*
X8335357Y-17407786D01*
X8163928Y-17579214D01*
X8349643Y-17579214D01*
X8535357Y-17279214D02*
X8563929Y-17279214D01*
X8592500Y-17293500D01*
X8606786Y-17307786D01*
X8621071Y-17336357D01*
X8635357Y-17393500D01*
X8635357Y-17464929D01*
X8621071Y-17522072D01*
X8606786Y-17550643D01*
X8592500Y-17564929D01*
X8563929Y-17579214D01*
X8535357Y-17579214D01*
X8506786Y-17564929D01*
X8492500Y-17550643D01*
X8478214Y-17522072D01*
X8463929Y-17464929D01*
X8463929Y-17393500D01*
X8478214Y-17336357D01*
X8492500Y-17307786D01*
X8506786Y-17293500D01*
X8535357Y-17279214D01*
X8763929Y-17579214D02*
X8763929Y-17379214D01*
X8763929Y-17407786D02*
X8778214Y-17393500D01*
X8806786Y-17379214D01*
X8849643Y-17379214D01*
X8878214Y-17393500D01*
X8892500Y-17422072D01*
X8892500Y-17579214D01*
X8892500Y-17422072D02*
X8906786Y-17393500D01*
X8935357Y-17379214D01*
X8978214Y-17379214D01*
X9006786Y-17393500D01*
X9021071Y-17422072D01*
X9021071Y-17579214D01*
X9163929Y-17579214D02*
X9163929Y-17379214D01*
X9163929Y-17407786D02*
X9178214Y-17393500D01*
X9206786Y-17379214D01*
X9249643Y-17379214D01*
X9278214Y-17393500D01*
X9292500Y-17422072D01*
X9292500Y-17579214D01*
X9292500Y-17422072D02*
X9306786Y-17393500D01*
X9335357Y-17379214D01*
X9378214Y-17379214D01*
X9406786Y-17393500D01*
X9421071Y-17422072D01*
X9421071Y-17579214D01*
X10006786Y-17264929D02*
X9749643Y-17650643D01*
X10392500Y-17279214D02*
X10421071Y-17279214D01*
X10449643Y-17293500D01*
X10463928Y-17307786D01*
X10478214Y-17336357D01*
X10492500Y-17393500D01*
X10492500Y-17464929D01*
X10478214Y-17522072D01*
X10463928Y-17550643D01*
X10449643Y-17564929D01*
X10421071Y-17579214D01*
X10392500Y-17579214D01*
X10363928Y-17564929D01*
X10349643Y-17550643D01*
X10335357Y-17522072D01*
X10321071Y-17464929D01*
X10321071Y-17393500D01*
X10335357Y-17336357D01*
X10349643Y-17307786D01*
X10363928Y-17293500D01*
X10392500Y-17279214D01*
X10621071Y-17550643D02*
X10635357Y-17564929D01*
X10621071Y-17579214D01*
X10606786Y-17564929D01*
X10621071Y-17550643D01*
X10621071Y-17579214D01*
X10821071Y-17279214D02*
X10849643Y-17279214D01*
X10878214Y-17293500D01*
X10892500Y-17307786D01*
X10906786Y-17336357D01*
X10921071Y-17393500D01*
X10921071Y-17464929D01*
X10906786Y-17522072D01*
X10892500Y-17550643D01*
X10878214Y-17564929D01*
X10849643Y-17579214D01*
X10821071Y-17579214D01*
X10792500Y-17564929D01*
X10778214Y-17550643D01*
X10763928Y-17522072D01*
X10749643Y-17464929D01*
X10749643Y-17393500D01*
X10763928Y-17336357D01*
X10778214Y-17307786D01*
X10792500Y-17293500D01*
X10821071Y-17279214D01*
X11178214Y-17379214D02*
X11178214Y-17579214D01*
X11106786Y-17264929D02*
X11035357Y-17479214D01*
X11221071Y-17479214D01*
X11306785Y-17279214D02*
X11506785Y-17279214D01*
X11378214Y-17579214D01*
X11606786Y-17279214D02*
X11606786Y-17336357D01*
X11721071Y-17279214D02*
X11721071Y-17336357D01*
X12163928Y-17693500D02*
X12149643Y-17679214D01*
X12121071Y-17636357D01*
X12106785Y-17607786D01*
X12092500Y-17564929D01*
X12078214Y-17493500D01*
X12078214Y-17436357D01*
X12092500Y-17364929D01*
X12106785Y-17322072D01*
X12121071Y-17293500D01*
X12149643Y-17250643D01*
X12163928Y-17236357D01*
X12435357Y-17579214D02*
X12263928Y-17579214D01*
X12349643Y-17579214D02*
X12349643Y-17279214D01*
X12321071Y-17322072D01*
X12292500Y-17350643D01*
X12263928Y-17364929D01*
X12549643Y-17307786D02*
X12563928Y-17293500D01*
X12592500Y-17279214D01*
X12663928Y-17279214D01*
X12692500Y-17293500D01*
X12706785Y-17307786D01*
X12721071Y-17336357D01*
X12721071Y-17364929D01*
X12706785Y-17407786D01*
X12535357Y-17579214D01*
X12721071Y-17579214D01*
X13078214Y-17579214D02*
X13078214Y-17279214D01*
X13206785Y-17579214D02*
X13206785Y-17422072D01*
X13192500Y-17393500D01*
X13163928Y-17379214D01*
X13121071Y-17379214D01*
X13092500Y-17393500D01*
X13078214Y-17407786D01*
X13392500Y-17579214D02*
X13363928Y-17564929D01*
X13349643Y-17550643D01*
X13335357Y-17522072D01*
X13335357Y-17436357D01*
X13349643Y-17407786D01*
X13363928Y-17393500D01*
X13392500Y-17379214D01*
X13435357Y-17379214D01*
X13463928Y-17393500D01*
X13478214Y-17407786D01*
X13492500Y-17436357D01*
X13492500Y-17522072D01*
X13478214Y-17550643D01*
X13463928Y-17564929D01*
X13435357Y-17579214D01*
X13392500Y-17579214D01*
X13663928Y-17579214D02*
X13635357Y-17564929D01*
X13621071Y-17536357D01*
X13621071Y-17279214D01*
X13892500Y-17564929D02*
X13863928Y-17579214D01*
X13806786Y-17579214D01*
X13778214Y-17564929D01*
X13763928Y-17536357D01*
X13763928Y-17422072D01*
X13778214Y-17393500D01*
X13806786Y-17379214D01*
X13863928Y-17379214D01*
X13892500Y-17393500D01*
X13906786Y-17422072D01*
X13906786Y-17450643D01*
X13763928Y-17479214D01*
X14021071Y-17564929D02*
X14049643Y-17579214D01*
X14106786Y-17579214D01*
X14135357Y-17564929D01*
X14149643Y-17536357D01*
X14149643Y-17522072D01*
X14135357Y-17493500D01*
X14106786Y-17479214D01*
X14063928Y-17479214D01*
X14035357Y-17464929D01*
X14021071Y-17436357D01*
X14021071Y-17422072D01*
X14035357Y-17393500D01*
X14063928Y-17379214D01*
X14106786Y-17379214D01*
X14135357Y-17393500D01*
X14249643Y-17693500D02*
X14263928Y-17679214D01*
X14292500Y-17636357D01*
X14306786Y-17607786D01*
X14321071Y-17564929D01*
X14335357Y-17493500D01*
X14335357Y-17436357D01*
X14321071Y-17364929D01*
X14306786Y-17322072D01*
X14292500Y-17293500D01*
X14263928Y-17250643D01*
X14249643Y-17236357D01*
X7362500Y-17774500D02*
X7492500Y-17904500D01*
X7492500Y-17774500D02*
X7362500Y-17904500D01*
X7473462Y-17885463D02*
X7473462Y-17793538D01*
X7381537Y-17793538D01*
X7381537Y-17885463D01*
X7473462Y-17885463D01*
X7921071Y-17975214D02*
X7749643Y-17975214D01*
X7835357Y-17975214D02*
X7835357Y-17675214D01*
X7806786Y-17718072D01*
X7778214Y-17746643D01*
X7749643Y-17760929D01*
X8049643Y-17946643D02*
X8063928Y-17960929D01*
X8049643Y-17975214D01*
X8035357Y-17960929D01*
X8049643Y-17946643D01*
X8049643Y-17975214D01*
X8163928Y-17675214D02*
X8349643Y-17675214D01*
X8249643Y-17789500D01*
X8292500Y-17789500D01*
X8321071Y-17803786D01*
X8335357Y-17818072D01*
X8349643Y-17846643D01*
X8349643Y-17918072D01*
X8335357Y-17946643D01*
X8321071Y-17960929D01*
X8292500Y-17975214D01*
X8206786Y-17975214D01*
X8178214Y-17960929D01*
X8163928Y-17946643D01*
X8535357Y-17675214D02*
X8563929Y-17675214D01*
X8592500Y-17689500D01*
X8606786Y-17703786D01*
X8621071Y-17732357D01*
X8635357Y-17789500D01*
X8635357Y-17860929D01*
X8621071Y-17918072D01*
X8606786Y-17946643D01*
X8592500Y-17960929D01*
X8563929Y-17975214D01*
X8535357Y-17975214D01*
X8506786Y-17960929D01*
X8492500Y-17946643D01*
X8478214Y-17918072D01*
X8463929Y-17860929D01*
X8463929Y-17789500D01*
X8478214Y-17732357D01*
X8492500Y-17703786D01*
X8506786Y-17689500D01*
X8535357Y-17675214D01*
X8763929Y-17975214D02*
X8763929Y-17775214D01*
X8763929Y-17803786D02*
X8778214Y-17789500D01*
X8806786Y-17775214D01*
X8849643Y-17775214D01*
X8878214Y-17789500D01*
X8892500Y-17818072D01*
X8892500Y-17975214D01*
X8892500Y-17818072D02*
X8906786Y-17789500D01*
X8935357Y-17775214D01*
X8978214Y-17775214D01*
X9006786Y-17789500D01*
X9021071Y-17818072D01*
X9021071Y-17975214D01*
X9163929Y-17975214D02*
X9163929Y-17775214D01*
X9163929Y-17803786D02*
X9178214Y-17789500D01*
X9206786Y-17775214D01*
X9249643Y-17775214D01*
X9278214Y-17789500D01*
X9292500Y-17818072D01*
X9292500Y-17975214D01*
X9292500Y-17818072D02*
X9306786Y-17789500D01*
X9335357Y-17775214D01*
X9378214Y-17775214D01*
X9406786Y-17789500D01*
X9421071Y-17818072D01*
X9421071Y-17975214D01*
X10006786Y-17660929D02*
X9749643Y-18046643D01*
X10392500Y-17675214D02*
X10421071Y-17675214D01*
X10449643Y-17689500D01*
X10463928Y-17703786D01*
X10478214Y-17732357D01*
X10492500Y-17789500D01*
X10492500Y-17860929D01*
X10478214Y-17918072D01*
X10463928Y-17946643D01*
X10449643Y-17960929D01*
X10421071Y-17975214D01*
X10392500Y-17975214D01*
X10363928Y-17960929D01*
X10349643Y-17946643D01*
X10335357Y-17918072D01*
X10321071Y-17860929D01*
X10321071Y-17789500D01*
X10335357Y-17732357D01*
X10349643Y-17703786D01*
X10363928Y-17689500D01*
X10392500Y-17675214D01*
X10621071Y-17946643D02*
X10635357Y-17960929D01*
X10621071Y-17975214D01*
X10606786Y-17960929D01*
X10621071Y-17946643D01*
X10621071Y-17975214D01*
X10821071Y-17675214D02*
X10849643Y-17675214D01*
X10878214Y-17689500D01*
X10892500Y-17703786D01*
X10906786Y-17732357D01*
X10921071Y-17789500D01*
X10921071Y-17860929D01*
X10906786Y-17918072D01*
X10892500Y-17946643D01*
X10878214Y-17960929D01*
X10849643Y-17975214D01*
X10821071Y-17975214D01*
X10792500Y-17960929D01*
X10778214Y-17946643D01*
X10763928Y-17918072D01*
X10749643Y-17860929D01*
X10749643Y-17789500D01*
X10763928Y-17732357D01*
X10778214Y-17703786D01*
X10792500Y-17689500D01*
X10821071Y-17675214D01*
X11192500Y-17675214D02*
X11049643Y-17675214D01*
X11035357Y-17818072D01*
X11049643Y-17803786D01*
X11078214Y-17789500D01*
X11149643Y-17789500D01*
X11178214Y-17803786D01*
X11192500Y-17818072D01*
X11206785Y-17846643D01*
X11206785Y-17918072D01*
X11192500Y-17946643D01*
X11178214Y-17960929D01*
X11149643Y-17975214D01*
X11078214Y-17975214D01*
X11049643Y-17960929D01*
X11035357Y-17946643D01*
X11492500Y-17975214D02*
X11321071Y-17975214D01*
X11406785Y-17975214D02*
X11406785Y-17675214D01*
X11378214Y-17718072D01*
X11349643Y-17746643D01*
X11321071Y-17760929D01*
X11606786Y-17675214D02*
X11606786Y-17732357D01*
X11721071Y-17675214D02*
X11721071Y-17732357D01*
X12163928Y-18089500D02*
X12149643Y-18075214D01*
X12121071Y-18032357D01*
X12106785Y-18003786D01*
X12092500Y-17960929D01*
X12078214Y-17889500D01*
X12078214Y-17832357D01*
X12092500Y-17760929D01*
X12106785Y-17718072D01*
X12121071Y-17689500D01*
X12149643Y-17646643D01*
X12163928Y-17632357D01*
X12321071Y-17803786D02*
X12292500Y-17789500D01*
X12278214Y-17775214D01*
X12263928Y-17746643D01*
X12263928Y-17732357D01*
X12278214Y-17703786D01*
X12292500Y-17689500D01*
X12321071Y-17675214D01*
X12378214Y-17675214D01*
X12406785Y-17689500D01*
X12421071Y-17703786D01*
X12435357Y-17732357D01*
X12435357Y-17746643D01*
X12421071Y-17775214D01*
X12406785Y-17789500D01*
X12378214Y-17803786D01*
X12321071Y-17803786D01*
X12292500Y-17818072D01*
X12278214Y-17832357D01*
X12263928Y-17860929D01*
X12263928Y-17918072D01*
X12278214Y-17946643D01*
X12292500Y-17960929D01*
X12321071Y-17975214D01*
X12378214Y-17975214D01*
X12406785Y-17960929D01*
X12421071Y-17946643D01*
X12435357Y-17918072D01*
X12435357Y-17860929D01*
X12421071Y-17832357D01*
X12406785Y-17818072D01*
X12378214Y-17803786D01*
X12792500Y-17975214D02*
X12792500Y-17675214D01*
X12921071Y-17975214D02*
X12921071Y-17818072D01*
X12906785Y-17789500D01*
X12878214Y-17775214D01*
X12835357Y-17775214D01*
X12806785Y-17789500D01*
X12792500Y-17803786D01*
X13106785Y-17975214D02*
X13078214Y-17960929D01*
X13063928Y-17946643D01*
X13049643Y-17918072D01*
X13049643Y-17832357D01*
X13063928Y-17803786D01*
X13078214Y-17789500D01*
X13106785Y-17775214D01*
X13149643Y-17775214D01*
X13178214Y-17789500D01*
X13192500Y-17803786D01*
X13206785Y-17832357D01*
X13206785Y-17918072D01*
X13192500Y-17946643D01*
X13178214Y-17960929D01*
X13149643Y-17975214D01*
X13106785Y-17975214D01*
X13378214Y-17975214D02*
X13349643Y-17960929D01*
X13335357Y-17932357D01*
X13335357Y-17675214D01*
X13606786Y-17960929D02*
X13578214Y-17975214D01*
X13521071Y-17975214D01*
X13492500Y-17960929D01*
X13478214Y-17932357D01*
X13478214Y-17818072D01*
X13492500Y-17789500D01*
X13521071Y-17775214D01*
X13578214Y-17775214D01*
X13606786Y-17789500D01*
X13621071Y-17818072D01*
X13621071Y-17846643D01*
X13478214Y-17875214D01*
X13735357Y-17960929D02*
X13763928Y-17975214D01*
X13821071Y-17975214D01*
X13849643Y-17960929D01*
X13863928Y-17932357D01*
X13863928Y-17918072D01*
X13849643Y-17889500D01*
X13821071Y-17875214D01*
X13778214Y-17875214D01*
X13749643Y-17860929D01*
X13735357Y-17832357D01*
X13735357Y-17818072D01*
X13749643Y-17789500D01*
X13778214Y-17775214D01*
X13821071Y-17775214D01*
X13849643Y-17789500D01*
X13963928Y-18089500D02*
X13978214Y-18075214D01*
X14006786Y-18032357D01*
X14021071Y-18003786D01*
X14035357Y-17960929D01*
X14049643Y-17889500D01*
X14049643Y-17832357D01*
X14035357Y-17760929D01*
X14021071Y-17718072D01*
X14006786Y-17689500D01*
X13978214Y-17646643D01*
X13963928Y-17632357D01*
M02*
