G04 #@! TF.FileFunction,Soldermask,Bot*
%FSLAX46Y46*%
G04 Gerber Fmt 4.6, Leading zero omitted, Abs format (unit mm)*
G04 Created by KiCad (PCBNEW 4.0.2-stable) date 12/2/2017 12:12:34 PM*
%MOMM*%
G01*
G04 APERTURE LIST*
%ADD10C,0.100000*%
%ADD11R,2.250000X1.727200*%
%ADD12O,2.250000X1.727200*%
%ADD13O,1.500000X4.000000*%
%ADD14O,3.000000X1.500000*%
%ADD15C,2.200000*%
%ADD16C,1.400000*%
%ADD17R,1.727200X1.727200*%
%ADD18O,1.727200X1.727200*%
%ADD19C,2.500000*%
%ADD20C,1.800000*%
%ADD21R,1.500000X1.500000*%
%ADD22C,1.500000*%
G04 APERTURE END LIST*
D10*
D11*
X169900000Y-82649200D03*
D12*
X169900000Y-85189200D03*
X169900000Y-87729200D03*
X169900000Y-90269200D03*
X169900000Y-92809200D03*
X169900000Y-95349200D03*
X169900000Y-97889200D03*
X169900000Y-100429200D03*
X169900000Y-102969200D03*
X169900000Y-105509200D03*
X169900000Y-108049200D03*
X169900000Y-110589200D03*
X169900000Y-113129200D03*
X169900000Y-115669200D03*
X169900000Y-118209200D03*
X169900000Y-120749200D03*
X169900000Y-123289200D03*
X169900000Y-125829200D03*
X169900000Y-128369200D03*
X169900000Y-130909200D03*
X154660000Y-130909200D03*
X154660000Y-128369200D03*
X154660000Y-125829200D03*
X154660000Y-123289200D03*
X154660000Y-120749200D03*
X154660000Y-118209200D03*
X154660000Y-115669200D03*
X154660000Y-113129200D03*
X154660000Y-110589200D03*
X154660000Y-108049200D03*
X154660000Y-105509200D03*
X154660000Y-102969200D03*
X154660000Y-100429200D03*
X154660000Y-97889200D03*
X154660000Y-95349200D03*
X154660000Y-92809200D03*
X154660000Y-90269200D03*
X154660000Y-87729200D03*
X154660000Y-85189200D03*
X154660000Y-82598400D03*
D13*
X168313200Y-73837800D03*
X165773200Y-73837800D03*
X170853200Y-73837800D03*
D14*
X130100000Y-71700000D03*
X130100000Y-69160000D03*
X130100000Y-66620000D03*
X130100000Y-64080000D03*
D15*
X139439000Y-93114000D03*
X127439000Y-93114000D03*
D16*
X127439000Y-105514000D03*
X139439000Y-105414000D03*
D15*
X133439000Y-107414000D03*
D17*
X164396000Y-52011000D03*
D18*
X164396000Y-49471000D03*
X166936000Y-52011000D03*
X166936000Y-49471000D03*
X169476000Y-52011000D03*
X169476000Y-49471000D03*
X172016000Y-52011000D03*
X172016000Y-49471000D03*
D19*
X127971000Y-135382000D03*
X132971000Y-135382000D03*
X142971000Y-135382000D03*
X137971000Y-135382000D03*
D15*
X127439000Y-125072000D03*
X139439000Y-125072000D03*
D16*
X139439000Y-112672000D03*
X127439000Y-112772000D03*
D15*
X133439000Y-110772000D03*
D20*
X145885000Y-105918000D03*
X145885000Y-108458000D03*
X145885000Y-126238000D03*
X145885000Y-118618000D03*
D21*
X152489000Y-136779000D03*
D22*
X154989000Y-136779000D03*
D20*
X166890800Y-124739400D03*
X157746800Y-124739400D03*
X157746800Y-109499400D03*
X166890800Y-109499400D03*
D21*
X128500000Y-86200000D03*
D22*
X128500000Y-83700000D03*
D21*
X142600000Y-86200000D03*
D22*
X142600000Y-83700000D03*
D21*
X135500000Y-86200000D03*
D22*
X135500000Y-83700000D03*
D21*
X128312000Y-44196000D03*
D22*
X130812000Y-44196000D03*
X133312000Y-44196000D03*
X135812000Y-44196000D03*
X138312000Y-44196000D03*
X140812000Y-44196000D03*
D21*
X147000000Y-44200000D03*
D22*
X149500000Y-44200000D03*
X152000000Y-44200000D03*
X154500000Y-44200000D03*
D13*
X118313200Y-73837800D03*
X115773200Y-73837800D03*
X120853200Y-73837800D03*
D15*
X77439000Y-125072000D03*
X89439000Y-125072000D03*
D16*
X89439000Y-112672000D03*
X77439000Y-112772000D03*
D15*
X83439000Y-110772000D03*
X89439000Y-93114000D03*
X77439000Y-93114000D03*
D16*
X77439000Y-105514000D03*
X89439000Y-105414000D03*
D15*
X83439000Y-107414000D03*
D21*
X102489000Y-136779000D03*
D22*
X104989000Y-136779000D03*
D21*
X97000000Y-44200000D03*
D22*
X99500000Y-44200000D03*
X102000000Y-44200000D03*
X104500000Y-44200000D03*
D19*
X77971000Y-135382000D03*
X82971000Y-135382000D03*
X92971000Y-135382000D03*
X87971000Y-135382000D03*
D21*
X78312000Y-44196000D03*
D22*
X80812000Y-44196000D03*
X83312000Y-44196000D03*
X85812000Y-44196000D03*
X88312000Y-44196000D03*
X90812000Y-44196000D03*
D21*
X78500000Y-86200000D03*
D22*
X78500000Y-83700000D03*
D21*
X85500000Y-86200000D03*
D22*
X85500000Y-83700000D03*
D21*
X92600000Y-86200000D03*
D22*
X92600000Y-83700000D03*
D20*
X95885000Y-105918000D03*
X95885000Y-108458000D03*
X95885000Y-126238000D03*
X95885000Y-118618000D03*
X116890800Y-124739400D03*
X107746800Y-124739400D03*
X107746800Y-109499400D03*
X116890800Y-109499400D03*
D17*
X114396000Y-52011000D03*
D18*
X114396000Y-49471000D03*
X116936000Y-52011000D03*
X116936000Y-49471000D03*
X119476000Y-52011000D03*
X119476000Y-49471000D03*
X122016000Y-52011000D03*
X122016000Y-49471000D03*
D14*
X80100000Y-71700000D03*
X80100000Y-69160000D03*
X80100000Y-66620000D03*
X80100000Y-64080000D03*
D11*
X119900000Y-82649200D03*
D12*
X119900000Y-85189200D03*
X119900000Y-87729200D03*
X119900000Y-90269200D03*
X119900000Y-92809200D03*
X119900000Y-95349200D03*
X119900000Y-97889200D03*
X119900000Y-100429200D03*
X119900000Y-102969200D03*
X119900000Y-105509200D03*
X119900000Y-108049200D03*
X119900000Y-110589200D03*
X119900000Y-113129200D03*
X119900000Y-115669200D03*
X119900000Y-118209200D03*
X119900000Y-120749200D03*
X119900000Y-123289200D03*
X119900000Y-125829200D03*
X119900000Y-128369200D03*
X119900000Y-130909200D03*
X104660000Y-130909200D03*
X104660000Y-128369200D03*
X104660000Y-125829200D03*
X104660000Y-123289200D03*
X104660000Y-120749200D03*
X104660000Y-118209200D03*
X104660000Y-115669200D03*
X104660000Y-113129200D03*
X104660000Y-110589200D03*
X104660000Y-108049200D03*
X104660000Y-105509200D03*
X104660000Y-102969200D03*
X104660000Y-100429200D03*
X104660000Y-97889200D03*
X104660000Y-95349200D03*
X104660000Y-92809200D03*
X104660000Y-90269200D03*
X104660000Y-87729200D03*
X104660000Y-85189200D03*
X104660000Y-82598400D03*
M02*
