M48
;DRILL file {KiCad 4.0.2-stable} date 12/4/2017 4:21:01 PM
;FORMAT={3:3/ absolute / metric / suppress leading zeros}
FMAT,2
METRIC,TZ
T1C0.400
T2C0.700
T3C0.900
T4C1.000
T5C1.016
T6C1.100
T7C1.200
T8C1.300
%
G90
G05
M71
T1
X77600Y-69200
X77851Y-76581
X80500Y-74600
X95000Y-86500
X99466Y-57696
X103365Y-57061
X109601Y-98933
X113919Y-125095
X114427Y-58801
X114554Y-73457
X114554Y-114173
X114808Y-66269
X116205Y-68961
X116357Y-80594
X117263Y-81826
X117653Y-81051
X118034Y-69088
X120650Y-54991
X127600Y-69200
X127851Y-76581
X130500Y-74600
X145000Y-86500
X149466Y-57696
X153365Y-57061
X159601Y-98933
X163919Y-125095
X164427Y-58801
X164554Y-73457
X164554Y-114173
X164808Y-66269
X166205Y-68961
X166357Y-80594
X167263Y-81826
X167653Y-81051
X168034Y-69088
X170650Y-54991
T2
X77439Y-105514
X77439Y-112772
X89439Y-105414
X89439Y-112672
X127439Y-105514
X127439Y-112772
X139439Y-105414
X139439Y-112672
T3
X78312Y-44196
X78500Y-86200
X80812Y-44196
X83312Y-44196
X85500Y-86200
X85812Y-44196
X88312Y-44196
X90812Y-44196
X92600Y-86200
X97000Y-44200
X99500Y-44200
X102000Y-44200
X102489Y-136779
X104500Y-44200
X128312Y-44196
X128500Y-86200
X130812Y-44196
X133312Y-44196
X135500Y-86200
X135812Y-44196
X138312Y-44196
X140812Y-44196
X142600Y-86200
X147000Y-44200
X149500Y-44200
X152000Y-44200
X152489Y-136779
X154500Y-44200
T4
X78500Y-83700
X80100Y-64080
X80100Y-66620
X80100Y-69160
X80100Y-71700
X85500Y-83700
X92600Y-83700
X104989Y-136779
X107747Y-109499
X107747Y-124739
X116891Y-109499
X116891Y-124739
X128500Y-83700
X130100Y-64080
X130100Y-66620
X130100Y-69160
X130100Y-71700
X135500Y-83700
X142600Y-83700
X154989Y-136779
X157747Y-109499
X157747Y-124739
X166891Y-109499
X166891Y-124739
T5
X104660Y-82598
X104660Y-85189
X104660Y-87729
X104660Y-90269
X104660Y-92809
X104660Y-95349
X104660Y-97889
X104660Y-100429
X104660Y-102969
X104660Y-105509
X104660Y-108049
X104660Y-110589
X104660Y-113129
X104660Y-115669
X104660Y-118209
X104660Y-120749
X104660Y-123289
X104660Y-125829
X104660Y-128369
X104660Y-130909
X114396Y-49471
X114396Y-52011
X116936Y-49471
X116936Y-52011
X119476Y-49471
X119476Y-52011
X119900Y-82649
X119900Y-85189
X119900Y-87729
X119900Y-90269
X119900Y-92809
X119900Y-95349
X119900Y-97889
X119900Y-100429
X119900Y-102969
X119900Y-105509
X119900Y-108049
X119900Y-110589
X119900Y-113129
X119900Y-115669
X119900Y-118209
X119900Y-120749
X119900Y-123289
X119900Y-125829
X119900Y-128369
X119900Y-130909
X122016Y-49471
X122016Y-52011
X154660Y-82598
X154660Y-85189
X154660Y-87729
X154660Y-90269
X154660Y-92809
X154660Y-95349
X154660Y-97889
X154660Y-100429
X154660Y-102969
X154660Y-105509
X154660Y-108049
X154660Y-110589
X154660Y-113129
X154660Y-115669
X154660Y-118209
X154660Y-120749
X154660Y-123289
X154660Y-125829
X154660Y-128369
X154660Y-130909
X164396Y-49471
X164396Y-52011
X166936Y-49471
X166936Y-52011
X169476Y-49471
X169476Y-52011
X169900Y-82649
X169900Y-85189
X169900Y-87729
X169900Y-90269
X169900Y-92809
X169900Y-95349
X169900Y-97889
X169900Y-100429
X169900Y-102969
X169900Y-105509
X169900Y-108049
X169900Y-110589
X169900Y-113129
X169900Y-115669
X169900Y-118209
X169900Y-120749
X169900Y-123289
X169900Y-125829
X169900Y-128369
X169900Y-130909
X172016Y-49471
X172016Y-52011
T6
X95885Y-105918
X95885Y-108458
X95885Y-118618
X95885Y-126238
X145885Y-105918
X145885Y-108458
X145885Y-118618
X145885Y-126238
T7
X77439Y-93114
X77439Y-125072
X83439Y-107414
X83439Y-110772
X89439Y-93114
X89439Y-125072
X127439Y-93114
X127439Y-125072
X133439Y-107414
X133439Y-110772
X139439Y-93114
X139439Y-125072
T8
X77971Y-135382
X82971Y-135382
X87971Y-135382
X92971Y-135382
X127971Y-135382
X132971Y-135382
X137971Y-135382
X142971Y-135382
T0
M30
