G04 #@! TF.FileFunction,Soldermask,Top*
%FSLAX46Y46*%
G04 Gerber Fmt 4.6, Leading zero omitted, Abs format (unit mm)*
G04 Created by KiCad (PCBNEW 4.0.2-stable) date 12/1/2017 11:51:07 AM*
%MOMM*%
G01*
G04 APERTURE LIST*
%ADD10C,0.100000*%
%ADD11R,2.250000X1.727200*%
%ADD12O,2.250000X1.727200*%
%ADD13R,1.000000X1.250000*%
%ADD14R,1.500000X1.500000*%
%ADD15C,1.500000*%
%ADD16R,3.657600X2.032000*%
%ADD17R,1.016000X2.032000*%
%ADD18C,1.800000*%
%ADD19C,2.500000*%
%ADD20R,1.300000X0.700000*%
%ADD21R,1.250000X1.000000*%
%ADD22R,0.800100X0.800100*%
%ADD23R,0.599440X1.000760*%
%ADD24C,2.200000*%
%ADD25C,1.400000*%
%ADD26R,1.727200X1.727200*%
%ADD27O,1.727200X1.727200*%
G04 APERTURE END LIST*
D10*
D11*
X169900000Y-82649200D03*
D12*
X169900000Y-85189200D03*
X169900000Y-87729200D03*
X169900000Y-90269200D03*
X169900000Y-92809200D03*
X169900000Y-95349200D03*
X169900000Y-97889200D03*
X169900000Y-100429200D03*
X169900000Y-102969200D03*
X169900000Y-105509200D03*
X169900000Y-108049200D03*
X169900000Y-110589200D03*
X169900000Y-113129200D03*
X169900000Y-115669200D03*
X169900000Y-118209200D03*
X169900000Y-120749200D03*
X169900000Y-123289200D03*
X169900000Y-125829200D03*
X169900000Y-128369200D03*
X169900000Y-130909200D03*
X154660000Y-130909200D03*
X154660000Y-128369200D03*
X154660000Y-125829200D03*
X154660000Y-123289200D03*
X154660000Y-120749200D03*
X154660000Y-118209200D03*
X154660000Y-115669200D03*
X154660000Y-113129200D03*
X154660000Y-110589200D03*
X154660000Y-108049200D03*
X154660000Y-105509200D03*
X154660000Y-102969200D03*
X154660000Y-100429200D03*
X154660000Y-97889200D03*
X154660000Y-95349200D03*
X154660000Y-92809200D03*
X154660000Y-90269200D03*
X154660000Y-87729200D03*
X154660000Y-85189200D03*
X154660000Y-82598400D03*
D13*
X162792000Y-129032000D03*
X164792000Y-129032000D03*
D14*
X152489000Y-136779000D03*
D15*
X154989000Y-136779000D03*
D16*
X162649000Y-138557000D03*
D17*
X162649000Y-131953000D03*
X160363000Y-131953000D03*
X164935000Y-131953000D03*
D18*
X166890800Y-124739400D03*
X157746800Y-124739400D03*
X157746800Y-109499400D03*
X166890800Y-109499400D03*
X145885000Y-105918000D03*
X145885000Y-108458000D03*
X145885000Y-126238000D03*
X145885000Y-118618000D03*
D19*
X127971000Y-135382000D03*
X132971000Y-135382000D03*
X142971000Y-135382000D03*
X137971000Y-135382000D03*
D20*
X135700000Y-79650000D03*
X135700000Y-77750000D03*
D14*
X128500000Y-86200000D03*
D15*
X128500000Y-83700000D03*
D20*
X129000000Y-79750000D03*
X129000000Y-77850000D03*
D21*
X131100000Y-79800000D03*
X131100000Y-77800000D03*
D20*
X148044000Y-95311000D03*
X148044000Y-93411000D03*
X148044000Y-98740000D03*
X148044000Y-96840000D03*
X148044000Y-102296000D03*
X148044000Y-100396000D03*
D22*
X146123760Y-98740000D03*
X146123760Y-96840000D03*
X144124780Y-97790000D03*
X146123760Y-102296000D03*
X146123760Y-100396000D03*
X144124780Y-101346000D03*
D23*
X142329000Y-100500180D03*
X142329000Y-102699820D03*
D22*
X146123760Y-95311000D03*
X146123760Y-93411000D03*
X144124780Y-94361000D03*
D24*
X127439000Y-125072000D03*
X139439000Y-125072000D03*
D25*
X139439000Y-112672000D03*
X127439000Y-112772000D03*
D24*
X133439000Y-110772000D03*
X139439000Y-93114000D03*
X127439000Y-93114000D03*
D25*
X127439000Y-105514000D03*
X139439000Y-105414000D03*
D24*
X133439000Y-107414000D03*
D23*
X142329000Y-96690180D03*
X142329000Y-98889820D03*
D20*
X168033800Y-68178600D03*
X168033800Y-70078600D03*
D21*
X166205000Y-70027800D03*
X166205000Y-68027800D03*
D20*
X164325400Y-68122800D03*
X164325400Y-70022800D03*
X142900000Y-79750000D03*
X142900000Y-77850000D03*
D21*
X137900000Y-79800000D03*
X137900000Y-77800000D03*
X145000000Y-79800000D03*
X145000000Y-77800000D03*
D14*
X142600000Y-86200000D03*
D15*
X142600000Y-83700000D03*
D14*
X135500000Y-86200000D03*
D15*
X135500000Y-83700000D03*
D26*
X164396000Y-52011000D03*
D27*
X164396000Y-49471000D03*
X166936000Y-52011000D03*
X166936000Y-49471000D03*
X169476000Y-52011000D03*
X169476000Y-49471000D03*
X172016000Y-52011000D03*
X172016000Y-49471000D03*
D13*
X164443000Y-46355000D03*
X166443000Y-46355000D03*
D20*
X151727000Y-50988000D03*
X151727000Y-49088000D03*
D14*
X147000000Y-44200000D03*
D15*
X149500000Y-44200000D03*
X152000000Y-44200000D03*
X154500000Y-44200000D03*
D14*
X128312000Y-44196000D03*
D15*
X130812000Y-44196000D03*
X133312000Y-44196000D03*
X135812000Y-44196000D03*
X138312000Y-44196000D03*
X140812000Y-44196000D03*
D20*
X149568000Y-50988000D03*
X149568000Y-49088000D03*
D13*
X164443000Y-44196000D03*
X166443000Y-44196000D03*
X114443000Y-44196000D03*
X116443000Y-44196000D03*
X114443000Y-46355000D03*
X116443000Y-46355000D03*
D21*
X81100000Y-79800000D03*
X81100000Y-77800000D03*
X87900000Y-79800000D03*
X87900000Y-77800000D03*
X95000000Y-79800000D03*
X95000000Y-77800000D03*
D24*
X77439000Y-125072000D03*
X89439000Y-125072000D03*
D25*
X89439000Y-112672000D03*
X77439000Y-112772000D03*
D24*
X83439000Y-110772000D03*
X89439000Y-93114000D03*
X77439000Y-93114000D03*
D25*
X77439000Y-105514000D03*
X89439000Y-105414000D03*
D24*
X83439000Y-107414000D03*
D14*
X102489000Y-136779000D03*
D15*
X104989000Y-136779000D03*
D14*
X97000000Y-44200000D03*
D15*
X99500000Y-44200000D03*
X102000000Y-44200000D03*
X104500000Y-44200000D03*
D19*
X77971000Y-135382000D03*
X82971000Y-135382000D03*
X92971000Y-135382000D03*
X87971000Y-135382000D03*
D14*
X78312000Y-44196000D03*
D15*
X80812000Y-44196000D03*
X83312000Y-44196000D03*
X85812000Y-44196000D03*
X88312000Y-44196000D03*
X90812000Y-44196000D03*
D14*
X78500000Y-86200000D03*
D15*
X78500000Y-83700000D03*
D14*
X85500000Y-86200000D03*
D15*
X85500000Y-83700000D03*
D14*
X92600000Y-86200000D03*
D15*
X92600000Y-83700000D03*
D22*
X96123760Y-102296000D03*
X96123760Y-100396000D03*
X94124780Y-101346000D03*
X96123760Y-98740000D03*
X96123760Y-96840000D03*
X94124780Y-97790000D03*
X96123760Y-95311000D03*
X96123760Y-93411000D03*
X94124780Y-94361000D03*
D20*
X99568000Y-50988000D03*
X99568000Y-49088000D03*
X101727000Y-50988000D03*
X101727000Y-49088000D03*
X79000000Y-79750000D03*
X79000000Y-77850000D03*
X85700000Y-79650000D03*
X85700000Y-77750000D03*
X92900000Y-79750000D03*
X92900000Y-77850000D03*
X98044000Y-102296000D03*
X98044000Y-100396000D03*
X98044000Y-98740000D03*
X98044000Y-96840000D03*
X98044000Y-95311000D03*
X98044000Y-93411000D03*
D18*
X95885000Y-105918000D03*
X95885000Y-108458000D03*
X95885000Y-126238000D03*
X95885000Y-118618000D03*
D11*
X119900000Y-82649200D03*
D12*
X119900000Y-85189200D03*
X119900000Y-87729200D03*
X119900000Y-90269200D03*
X119900000Y-92809200D03*
X119900000Y-95349200D03*
X119900000Y-97889200D03*
X119900000Y-100429200D03*
X119900000Y-102969200D03*
X119900000Y-105509200D03*
X119900000Y-108049200D03*
X119900000Y-110589200D03*
X119900000Y-113129200D03*
X119900000Y-115669200D03*
X119900000Y-118209200D03*
X119900000Y-120749200D03*
X119900000Y-123289200D03*
X119900000Y-125829200D03*
X119900000Y-128369200D03*
X119900000Y-130909200D03*
X104660000Y-130909200D03*
X104660000Y-128369200D03*
X104660000Y-125829200D03*
X104660000Y-123289200D03*
X104660000Y-120749200D03*
X104660000Y-118209200D03*
X104660000Y-115669200D03*
X104660000Y-113129200D03*
X104660000Y-110589200D03*
X104660000Y-108049200D03*
X104660000Y-105509200D03*
X104660000Y-102969200D03*
X104660000Y-100429200D03*
X104660000Y-97889200D03*
X104660000Y-95349200D03*
X104660000Y-92809200D03*
X104660000Y-90269200D03*
X104660000Y-87729200D03*
X104660000Y-85189200D03*
X104660000Y-82598400D03*
D18*
X116890800Y-124739400D03*
X107746800Y-124739400D03*
X107746800Y-109499400D03*
X116890800Y-109499400D03*
D26*
X114396000Y-52011000D03*
D27*
X114396000Y-49471000D03*
X116936000Y-52011000D03*
X116936000Y-49471000D03*
X119476000Y-52011000D03*
X119476000Y-49471000D03*
X122016000Y-52011000D03*
X122016000Y-49471000D03*
D13*
X112792000Y-129032000D03*
X114792000Y-129032000D03*
D16*
X112649000Y-138557000D03*
D17*
X112649000Y-131953000D03*
X110363000Y-131953000D03*
X114935000Y-131953000D03*
D23*
X92329000Y-96690180D03*
X92329000Y-98889820D03*
X92329000Y-100500180D03*
X92329000Y-102699820D03*
D21*
X116205000Y-70027800D03*
X116205000Y-68027800D03*
D20*
X118033800Y-68178600D03*
X118033800Y-70078600D03*
X114325400Y-68122800D03*
X114325400Y-70022800D03*
M02*
