G04 #@! TF.FileFunction,Copper,L2,Bot,Signal*
%FSLAX46Y46*%
G04 Gerber Fmt 4.6, Leading zero omitted, Abs format (unit mm)*
G04 Created by KiCad (PCBNEW 4.0.2-stable) date 12/2/2017 12:12:33 PM*
%MOMM*%
G01*
G04 APERTURE LIST*
%ADD10C,0.100000*%
%ADD11R,2.250000X1.727200*%
%ADD12O,2.250000X1.727200*%
%ADD13O,1.500000X4.000000*%
%ADD14O,3.000000X1.500000*%
%ADD15C,2.200000*%
%ADD16C,1.400000*%
%ADD17R,1.727200X1.727200*%
%ADD18O,1.727200X1.727200*%
%ADD19C,2.500000*%
%ADD20C,1.800000*%
%ADD21R,1.500000X1.500000*%
%ADD22C,1.500000*%
%ADD23C,0.600000*%
%ADD24C,0.500000*%
%ADD25C,0.250000*%
%ADD26C,1.000000*%
%ADD27C,0.254000*%
G04 APERTURE END LIST*
D10*
D11*
X169900000Y-82649200D03*
D12*
X169900000Y-85189200D03*
X169900000Y-87729200D03*
X169900000Y-90269200D03*
X169900000Y-92809200D03*
X169900000Y-95349200D03*
X169900000Y-97889200D03*
X169900000Y-100429200D03*
X169900000Y-102969200D03*
X169900000Y-105509200D03*
X169900000Y-108049200D03*
X169900000Y-110589200D03*
X169900000Y-113129200D03*
X169900000Y-115669200D03*
X169900000Y-118209200D03*
X169900000Y-120749200D03*
X169900000Y-123289200D03*
X169900000Y-125829200D03*
X169900000Y-128369200D03*
X169900000Y-130909200D03*
X154660000Y-130909200D03*
X154660000Y-128369200D03*
X154660000Y-125829200D03*
X154660000Y-123289200D03*
X154660000Y-120749200D03*
X154660000Y-118209200D03*
X154660000Y-115669200D03*
X154660000Y-113129200D03*
X154660000Y-110589200D03*
X154660000Y-108049200D03*
X154660000Y-105509200D03*
X154660000Y-102969200D03*
X154660000Y-100429200D03*
X154660000Y-97889200D03*
X154660000Y-95349200D03*
X154660000Y-92809200D03*
X154660000Y-90269200D03*
X154660000Y-87729200D03*
X154660000Y-85189200D03*
X154660000Y-82598400D03*
D13*
X168313200Y-73837800D03*
X165773200Y-73837800D03*
X170853200Y-73837800D03*
D14*
X130100000Y-71700000D03*
X130100000Y-69160000D03*
X130100000Y-66620000D03*
X130100000Y-64080000D03*
D15*
X139439000Y-93114000D03*
X127439000Y-93114000D03*
D16*
X127439000Y-105514000D03*
X139439000Y-105414000D03*
D15*
X133439000Y-107414000D03*
D17*
X164396000Y-52011000D03*
D18*
X164396000Y-49471000D03*
X166936000Y-52011000D03*
X166936000Y-49471000D03*
X169476000Y-52011000D03*
X169476000Y-49471000D03*
X172016000Y-52011000D03*
X172016000Y-49471000D03*
D19*
X127971000Y-135382000D03*
X132971000Y-135382000D03*
X142971000Y-135382000D03*
X137971000Y-135382000D03*
D15*
X127439000Y-125072000D03*
X139439000Y-125072000D03*
D16*
X139439000Y-112672000D03*
X127439000Y-112772000D03*
D15*
X133439000Y-110772000D03*
D20*
X145885000Y-105918000D03*
X145885000Y-108458000D03*
X145885000Y-126238000D03*
X145885000Y-118618000D03*
D21*
X152489000Y-136779000D03*
D22*
X154989000Y-136779000D03*
D20*
X166890800Y-124739400D03*
X157746800Y-124739400D03*
X157746800Y-109499400D03*
X166890800Y-109499400D03*
D21*
X128500000Y-86200000D03*
D22*
X128500000Y-83700000D03*
D21*
X142600000Y-86200000D03*
D22*
X142600000Y-83700000D03*
D21*
X135500000Y-86200000D03*
D22*
X135500000Y-83700000D03*
D21*
X128312000Y-44196000D03*
D22*
X130812000Y-44196000D03*
X133312000Y-44196000D03*
X135812000Y-44196000D03*
X138312000Y-44196000D03*
X140812000Y-44196000D03*
D21*
X147000000Y-44200000D03*
D22*
X149500000Y-44200000D03*
X152000000Y-44200000D03*
X154500000Y-44200000D03*
D13*
X118313200Y-73837800D03*
X115773200Y-73837800D03*
X120853200Y-73837800D03*
D15*
X77439000Y-125072000D03*
X89439000Y-125072000D03*
D16*
X89439000Y-112672000D03*
X77439000Y-112772000D03*
D15*
X83439000Y-110772000D03*
X89439000Y-93114000D03*
X77439000Y-93114000D03*
D16*
X77439000Y-105514000D03*
X89439000Y-105414000D03*
D15*
X83439000Y-107414000D03*
D21*
X102489000Y-136779000D03*
D22*
X104989000Y-136779000D03*
D21*
X97000000Y-44200000D03*
D22*
X99500000Y-44200000D03*
X102000000Y-44200000D03*
X104500000Y-44200000D03*
D19*
X77971000Y-135382000D03*
X82971000Y-135382000D03*
X92971000Y-135382000D03*
X87971000Y-135382000D03*
D21*
X78312000Y-44196000D03*
D22*
X80812000Y-44196000D03*
X83312000Y-44196000D03*
X85812000Y-44196000D03*
X88312000Y-44196000D03*
X90812000Y-44196000D03*
D21*
X78500000Y-86200000D03*
D22*
X78500000Y-83700000D03*
D21*
X85500000Y-86200000D03*
D22*
X85500000Y-83700000D03*
D21*
X92600000Y-86200000D03*
D22*
X92600000Y-83700000D03*
D20*
X95885000Y-105918000D03*
X95885000Y-108458000D03*
X95885000Y-126238000D03*
X95885000Y-118618000D03*
X116890800Y-124739400D03*
X107746800Y-124739400D03*
X107746800Y-109499400D03*
X116890800Y-109499400D03*
D17*
X114396000Y-52011000D03*
D18*
X114396000Y-49471000D03*
X116936000Y-52011000D03*
X116936000Y-49471000D03*
X119476000Y-52011000D03*
X119476000Y-49471000D03*
X122016000Y-52011000D03*
X122016000Y-49471000D03*
D14*
X80100000Y-71700000D03*
X80100000Y-69160000D03*
X80100000Y-66620000D03*
X80100000Y-64080000D03*
D11*
X119900000Y-82649200D03*
D12*
X119900000Y-85189200D03*
X119900000Y-87729200D03*
X119900000Y-90269200D03*
X119900000Y-92809200D03*
X119900000Y-95349200D03*
X119900000Y-97889200D03*
X119900000Y-100429200D03*
X119900000Y-102969200D03*
X119900000Y-105509200D03*
X119900000Y-108049200D03*
X119900000Y-110589200D03*
X119900000Y-113129200D03*
X119900000Y-115669200D03*
X119900000Y-118209200D03*
X119900000Y-120749200D03*
X119900000Y-123289200D03*
X119900000Y-125829200D03*
X119900000Y-128369200D03*
X119900000Y-130909200D03*
X104660000Y-130909200D03*
X104660000Y-128369200D03*
X104660000Y-125829200D03*
X104660000Y-123289200D03*
X104660000Y-120749200D03*
X104660000Y-118209200D03*
X104660000Y-115669200D03*
X104660000Y-113129200D03*
X104660000Y-110589200D03*
X104660000Y-108049200D03*
X104660000Y-105509200D03*
X104660000Y-102969200D03*
X104660000Y-100429200D03*
X104660000Y-97889200D03*
X104660000Y-95349200D03*
X104660000Y-92809200D03*
X104660000Y-90269200D03*
X104660000Y-87729200D03*
X104660000Y-85189200D03*
X104660000Y-82598400D03*
D23*
X127600000Y-69200000D03*
X164554000Y-114173000D03*
X164808000Y-66268600D03*
X164427000Y-58801000D03*
X77600000Y-69200000D03*
X114808000Y-66268600D03*
X114554000Y-114173000D03*
X114427000Y-58801000D03*
X127851000Y-76581000D03*
X130500000Y-74600000D03*
X163919000Y-125095000D03*
X145000000Y-86500000D03*
X166205000Y-68961000D03*
X80500000Y-74600000D03*
X116205000Y-68961000D03*
X113919000Y-125095000D03*
X77851000Y-76581000D03*
X95000000Y-86500000D03*
X166357400Y-80594200D03*
X116357400Y-80594200D03*
X167652800Y-81051400D03*
X117652800Y-81051400D03*
X167263140Y-81826302D03*
X117263140Y-81826302D03*
X159601000Y-98933000D03*
X109601000Y-98933000D03*
X168033800Y-69088000D03*
X118033800Y-69088000D03*
X149466400Y-57696100D03*
X99466400Y-57696100D03*
X153365300Y-57061100D03*
X103365300Y-57061100D03*
X170650000Y-54991000D03*
X120650000Y-54991000D03*
X164554000Y-73456800D03*
X114554000Y-73456800D03*
D24*
X152374969Y-77675031D02*
X160515432Y-77675031D01*
X163207800Y-67868800D02*
X164808000Y-66268600D01*
X164396000Y-58770000D02*
X164427000Y-58801000D01*
X163207800Y-69265800D02*
X163207800Y-67868800D01*
X164396000Y-52011000D02*
X164396000Y-58770000D01*
X143850000Y-86200000D02*
X152374969Y-77675031D01*
D25*
X130060000Y-69200000D02*
X130100000Y-69160000D01*
X127600000Y-69200000D02*
X130060000Y-69200000D01*
D24*
X142600000Y-86200000D02*
X143850000Y-86200000D01*
X167856000Y-105410000D02*
X164554000Y-108712000D01*
X164554000Y-108712000D02*
X164554000Y-114173000D01*
X160515432Y-77675031D02*
X165489601Y-82649200D01*
X169638600Y-82649200D02*
X167856000Y-84431800D01*
X167856000Y-84431800D02*
X167856000Y-105410000D01*
X167704576Y-77411040D02*
X169900000Y-79606464D01*
X165511040Y-77411040D02*
X165333240Y-77411040D01*
X165511040Y-77411040D02*
X167704576Y-77411040D01*
X165489601Y-82649200D02*
X168275000Y-82649200D01*
X169900000Y-79606464D02*
X169900000Y-82649200D01*
X168275000Y-82649200D02*
X169900000Y-82649200D01*
X169900000Y-82649200D02*
X169638600Y-82649200D01*
X165333240Y-77411040D02*
X163207800Y-75285600D01*
X163207800Y-75285600D02*
X163207800Y-69265800D01*
D25*
X77600000Y-69200000D02*
X80060000Y-69200000D01*
X80060000Y-69200000D02*
X80100000Y-69160000D01*
D24*
X113207800Y-67868800D02*
X114808000Y-66268600D01*
X113207800Y-69265800D02*
X113207800Y-67868800D01*
X113207800Y-75285600D02*
X113207800Y-69265800D01*
X115333240Y-77411040D02*
X113207800Y-75285600D01*
X115511040Y-77411040D02*
X115333240Y-77411040D01*
X118275000Y-82649200D02*
X119900000Y-82649200D01*
X115489601Y-82649200D02*
X118275000Y-82649200D01*
X110515432Y-77675031D02*
X115489601Y-82649200D01*
X93850000Y-86200000D02*
X102374969Y-77675031D01*
X102374969Y-77675031D02*
X110515432Y-77675031D01*
X92600000Y-86200000D02*
X93850000Y-86200000D01*
X114554000Y-108712000D02*
X114554000Y-114173000D01*
X117856000Y-105410000D02*
X114554000Y-108712000D01*
X117856000Y-84431800D02*
X117856000Y-105410000D01*
X119900000Y-82649200D02*
X119638600Y-82649200D01*
X119638600Y-82649200D02*
X117856000Y-84431800D01*
X115511040Y-77411040D02*
X117704576Y-77411040D01*
X119900000Y-79606464D02*
X119900000Y-82649200D01*
X117704576Y-77411040D02*
X119900000Y-79606464D01*
X114396000Y-52011000D02*
X114396000Y-58770000D01*
X114396000Y-58770000D02*
X114427000Y-58801000D01*
D25*
X161150400Y-76200000D02*
X165544600Y-80594200D01*
X160566200Y-76200000D02*
X161150400Y-76200000D01*
X160566200Y-76200000D02*
X136000000Y-76200000D01*
X136000000Y-76200000D02*
X128500000Y-83700000D01*
X165544600Y-80594200D02*
X166357400Y-80594200D01*
X115544600Y-80594200D02*
X116357400Y-80594200D01*
X111150400Y-76200000D02*
X115544600Y-80594200D01*
X110566200Y-76200000D02*
X86000000Y-76200000D01*
X110566200Y-76200000D02*
X111150400Y-76200000D01*
X86000000Y-76200000D02*
X78500000Y-83700000D01*
X160940010Y-76650010D02*
X165544600Y-81254600D01*
X160464600Y-76650010D02*
X160940010Y-76650010D01*
X142549990Y-76650010D02*
X139154000Y-80046000D01*
X160464600Y-76650010D02*
X142549990Y-76650010D01*
X139154000Y-80046000D02*
X135500000Y-83700000D01*
X166789200Y-81254600D02*
X166992400Y-81051400D01*
X165544600Y-81254600D02*
X166789200Y-81254600D01*
X166992400Y-81051400D02*
X167652800Y-81051400D01*
X115544600Y-81254600D02*
X116789200Y-81254600D01*
X116789200Y-81254600D02*
X116992400Y-81051400D01*
X116992400Y-81051400D02*
X117652800Y-81051400D01*
X110464600Y-76650010D02*
X92549990Y-76650010D01*
X110464600Y-76650010D02*
X110940010Y-76650010D01*
X110940010Y-76650010D02*
X115544600Y-81254600D01*
X89154000Y-80046000D02*
X85500000Y-83700000D01*
X92549990Y-76650010D02*
X89154000Y-80046000D01*
X160753609Y-77100020D02*
X165479891Y-81826302D01*
X149199980Y-77100020D02*
X160753609Y-77100020D01*
X142600000Y-83700000D02*
X149199980Y-77100020D01*
X165479891Y-81826302D02*
X166838876Y-81826302D01*
X166838876Y-81826302D02*
X167263140Y-81826302D01*
X116838876Y-81826302D02*
X117263140Y-81826302D01*
X110753609Y-77100020D02*
X115479891Y-81826302D01*
X99199980Y-77100020D02*
X110753609Y-77100020D01*
X92600000Y-83700000D02*
X99199980Y-77100020D01*
X115479891Y-81826302D02*
X116838876Y-81826302D01*
D24*
X149976800Y-87729200D02*
X147917000Y-89789000D01*
X156285000Y-87729200D02*
X157188000Y-88632200D01*
X154660000Y-87729200D02*
X149976800Y-87729200D01*
X154660000Y-87729200D02*
X156285000Y-87729200D01*
X147917000Y-89789000D02*
X147917000Y-99187000D01*
X147917000Y-99187000D02*
X141690000Y-105414000D01*
X157188000Y-96520000D02*
X159601000Y-98933000D01*
X157188000Y-88632200D02*
X157188000Y-96520000D01*
X141690000Y-105414000D02*
X139439000Y-105414000D01*
D25*
X139439000Y-106838000D02*
X141059000Y-108458000D01*
X139439000Y-105414000D02*
X139439000Y-106838000D01*
X141059000Y-108458000D02*
X145885000Y-108458000D01*
D24*
X107188000Y-96520000D02*
X109601000Y-98933000D01*
X107188000Y-88632200D02*
X107188000Y-96520000D01*
X104660000Y-87729200D02*
X106285000Y-87729200D01*
X106285000Y-87729200D02*
X107188000Y-88632200D01*
D25*
X89439000Y-105414000D02*
X89439000Y-106838000D01*
X91059000Y-108458000D02*
X95885000Y-108458000D01*
X89439000Y-106838000D02*
X91059000Y-108458000D01*
D24*
X104660000Y-87729200D02*
X99976800Y-87729200D01*
X91690000Y-105414000D02*
X89439000Y-105414000D01*
X99976800Y-87729200D02*
X97917000Y-89789000D01*
X97917000Y-89789000D02*
X97917000Y-99187000D01*
X97917000Y-99187000D02*
X91690000Y-105414000D01*
D26*
X139439000Y-93114000D02*
X137883366Y-93114000D01*
X137883366Y-93114000D02*
X130391000Y-100606366D01*
X130391000Y-100606366D02*
X130391000Y-120904000D01*
X132971000Y-123484000D02*
X132971000Y-135382000D01*
X130391000Y-120904000D02*
X132971000Y-123484000D01*
X80391000Y-120904000D02*
X82971000Y-123484000D01*
X82971000Y-123484000D02*
X82971000Y-135382000D01*
X80391000Y-100606366D02*
X80391000Y-120904000D01*
X89439000Y-93114000D02*
X87883366Y-93114000D01*
X87883366Y-93114000D02*
X80391000Y-100606366D01*
X137971000Y-131659000D02*
X135852000Y-129540000D01*
X135852000Y-124587000D02*
X135852000Y-129540000D01*
X137971000Y-135382000D02*
X137971000Y-131659000D01*
X133439000Y-110772000D02*
X133439000Y-107414000D01*
X141285000Y-118618000D02*
X145885000Y-118618000D01*
X135852000Y-120269000D02*
X135852000Y-124587000D01*
X141285000Y-118646000D02*
X135852000Y-124079000D01*
X141285000Y-118618000D02*
X141285000Y-118646000D01*
X133439000Y-117856000D02*
X135852000Y-120269000D01*
X133439000Y-110772000D02*
X133439000Y-117856000D01*
X135852000Y-124079000D02*
X135852000Y-124587000D01*
X85852000Y-124079000D02*
X85852000Y-124587000D01*
X85852000Y-124587000D02*
X85852000Y-129540000D01*
X83439000Y-117856000D02*
X85852000Y-120269000D01*
X85852000Y-120269000D02*
X85852000Y-124587000D01*
X83439000Y-110772000D02*
X83439000Y-117856000D01*
X87971000Y-135382000D02*
X87971000Y-131659000D01*
X87971000Y-131659000D02*
X85852000Y-129540000D01*
X91285000Y-118618000D02*
X91285000Y-118646000D01*
X91285000Y-118646000D02*
X85852000Y-124079000D01*
X91285000Y-118618000D02*
X95885000Y-118618000D01*
X83439000Y-110772000D02*
X83439000Y-107414000D01*
X127439000Y-131160000D02*
X127971000Y-131692000D01*
X127439000Y-125072000D02*
X127439000Y-131160000D01*
X127971000Y-131692000D02*
X127971000Y-135382000D01*
X77439000Y-131160000D02*
X77971000Y-131692000D01*
X77971000Y-131692000D02*
X77971000Y-135382000D01*
X77439000Y-125072000D02*
X77439000Y-131160000D01*
D25*
X171350010Y-77978000D02*
X171350010Y-114480590D01*
X171350010Y-114480590D02*
X170161400Y-115669200D01*
X170161400Y-115669200D02*
X169900000Y-115669200D01*
X170853200Y-76087800D02*
X171350010Y-76584610D01*
X171350010Y-76584610D02*
X171350010Y-77978000D01*
X168353400Y-69088000D02*
X168033800Y-69088000D01*
X170853200Y-71587800D02*
X168353400Y-69088000D01*
X170853200Y-73837800D02*
X170853200Y-71587800D01*
X170853200Y-73837800D02*
X170853200Y-76087800D01*
X118353400Y-69088000D02*
X118033800Y-69088000D01*
X120853200Y-73837800D02*
X120853200Y-71587800D01*
X120853200Y-71587800D02*
X118353400Y-69088000D01*
X121350010Y-77978000D02*
X121350010Y-114480590D01*
X121350010Y-76584610D02*
X121350010Y-77978000D01*
X120853200Y-73837800D02*
X120853200Y-76087800D01*
X120853200Y-76087800D02*
X121350010Y-76584610D01*
X121350010Y-114480590D02*
X120161400Y-115669200D01*
X120161400Y-115669200D02*
X119900000Y-115669200D01*
X149500000Y-57662500D02*
X149500000Y-44200000D01*
X149466400Y-57696100D02*
X149500000Y-57662500D01*
X99500000Y-57662500D02*
X99500000Y-44200000D01*
X99466400Y-57696100D02*
X99500000Y-57662500D01*
X152000000Y-55695800D02*
X152000000Y-44200000D01*
X153365300Y-57061100D02*
X152000000Y-55695800D01*
X102000000Y-55695800D02*
X102000000Y-44200000D01*
X103365300Y-57061100D02*
X102000000Y-55695800D01*
D26*
X142971000Y-129152000D02*
X145885000Y-126238000D01*
X142971000Y-135382000D02*
X142971000Y-129152000D01*
X92971000Y-135382000D02*
X92971000Y-129152000D01*
X92971000Y-129152000D02*
X95885000Y-126238000D01*
D25*
X166936000Y-53817000D02*
X168110000Y-54991000D01*
X168110000Y-54991000D02*
X170650000Y-54991000D01*
X166936000Y-52011000D02*
X166936000Y-53817000D01*
X116936000Y-52011000D02*
X116936000Y-53817000D01*
X118110000Y-54991000D02*
X120650000Y-54991000D01*
X116936000Y-53817000D02*
X118110000Y-54991000D01*
D24*
X164935000Y-73837800D02*
X164554000Y-73456800D01*
X165773200Y-73837800D02*
X164935000Y-73837800D01*
X114935000Y-73837800D02*
X114554000Y-73456800D01*
X115773200Y-73837800D02*
X114935000Y-73837800D01*
D27*
G36*
X124373000Y-140373000D02*
X100626894Y-140373000D01*
X100623257Y-136029000D01*
X101350536Y-136029000D01*
X101350536Y-137529000D01*
X101377103Y-137670190D01*
X101460546Y-137799865D01*
X101587866Y-137886859D01*
X101739000Y-137917464D01*
X103239000Y-137917464D01*
X103380190Y-137890897D01*
X103509865Y-137807454D01*
X103596859Y-137680134D01*
X103627464Y-137529000D01*
X103627464Y-137002983D01*
X103857804Y-137002983D01*
X104029625Y-137418823D01*
X104347503Y-137737256D01*
X104763043Y-137909804D01*
X105212983Y-137910196D01*
X105628823Y-137738375D01*
X105947256Y-137420497D01*
X106119804Y-137004957D01*
X106120196Y-136555017D01*
X105948375Y-136139177D01*
X105630497Y-135820744D01*
X105214957Y-135648196D01*
X104765017Y-135647804D01*
X104349177Y-135819625D01*
X104030744Y-136137503D01*
X103858196Y-136553043D01*
X103857804Y-137002983D01*
X103627464Y-137002983D01*
X103627464Y-136029000D01*
X103600897Y-135887810D01*
X103517454Y-135758135D01*
X103390134Y-135671141D01*
X103239000Y-135640536D01*
X101739000Y-135640536D01*
X101597810Y-135667103D01*
X101468135Y-135750546D01*
X101381141Y-135877866D01*
X101350536Y-136029000D01*
X100623257Y-136029000D01*
X100618970Y-130909200D01*
X103124496Y-130909200D01*
X103219236Y-131385488D01*
X103489031Y-131789265D01*
X103892808Y-132059060D01*
X104369096Y-132153800D01*
X104950904Y-132153800D01*
X105427192Y-132059060D01*
X105830969Y-131789265D01*
X106100764Y-131385488D01*
X106156677Y-131104392D01*
X118409401Y-131104392D01*
X118488548Y-131385025D01*
X118758181Y-131788911D01*
X119161850Y-132058869D01*
X119638100Y-132153800D01*
X119899500Y-132153800D01*
X119899500Y-130909700D01*
X119900500Y-130909700D01*
X119900500Y-132153800D01*
X120161900Y-132153800D01*
X120638150Y-132058869D01*
X121041819Y-131788911D01*
X121311452Y-131385025D01*
X121390599Y-131104392D01*
X121310750Y-130909700D01*
X119900500Y-130909700D01*
X119899500Y-130909700D01*
X118489250Y-130909700D01*
X118409401Y-131104392D01*
X106156677Y-131104392D01*
X106195504Y-130909200D01*
X106156678Y-130714008D01*
X118409401Y-130714008D01*
X118489250Y-130908700D01*
X119899500Y-130908700D01*
X119899500Y-129664600D01*
X119900500Y-129664600D01*
X119900500Y-130908700D01*
X121310750Y-130908700D01*
X121390599Y-130714008D01*
X121311452Y-130433375D01*
X121041819Y-130029489D01*
X120638150Y-129759531D01*
X120161900Y-129664600D01*
X119900500Y-129664600D01*
X119899500Y-129664600D01*
X119638100Y-129664600D01*
X119161850Y-129759531D01*
X118758181Y-130029489D01*
X118488548Y-130433375D01*
X118409401Y-130714008D01*
X106156678Y-130714008D01*
X106100764Y-130432912D01*
X105830969Y-130029135D01*
X105427192Y-129759340D01*
X104950904Y-129664600D01*
X104369096Y-129664600D01*
X103892808Y-129759340D01*
X103489031Y-130029135D01*
X103219236Y-130432912D01*
X103124496Y-130909200D01*
X100618970Y-130909200D01*
X100616843Y-128369200D01*
X103124496Y-128369200D01*
X103219236Y-128845488D01*
X103489031Y-129249265D01*
X103892808Y-129519060D01*
X104369096Y-129613800D01*
X104950904Y-129613800D01*
X105427192Y-129519060D01*
X105830969Y-129249265D01*
X106100764Y-128845488D01*
X106156677Y-128564392D01*
X118409401Y-128564392D01*
X118488548Y-128845025D01*
X118758181Y-129248911D01*
X119161850Y-129518869D01*
X119638100Y-129613800D01*
X119899500Y-129613800D01*
X119899500Y-128369700D01*
X119900500Y-128369700D01*
X119900500Y-129613800D01*
X120161900Y-129613800D01*
X120638150Y-129518869D01*
X121041819Y-129248911D01*
X121311452Y-128845025D01*
X121390599Y-128564392D01*
X121310750Y-128369700D01*
X119900500Y-128369700D01*
X119899500Y-128369700D01*
X118489250Y-128369700D01*
X118409401Y-128564392D01*
X106156677Y-128564392D01*
X106195504Y-128369200D01*
X106156678Y-128174008D01*
X118409401Y-128174008D01*
X118489250Y-128368700D01*
X119899500Y-128368700D01*
X119899500Y-127124600D01*
X119900500Y-127124600D01*
X119900500Y-128368700D01*
X121310750Y-128368700D01*
X121390599Y-128174008D01*
X121311452Y-127893375D01*
X121041819Y-127489489D01*
X120638150Y-127219531D01*
X120161900Y-127124600D01*
X119900500Y-127124600D01*
X119899500Y-127124600D01*
X119638100Y-127124600D01*
X119161850Y-127219531D01*
X118758181Y-127489489D01*
X118488548Y-127893375D01*
X118409401Y-128174008D01*
X106156678Y-128174008D01*
X106100764Y-127892912D01*
X105830969Y-127489135D01*
X105427192Y-127219340D01*
X104950904Y-127124600D01*
X104369096Y-127124600D01*
X103892808Y-127219340D01*
X103489031Y-127489135D01*
X103219236Y-127892912D01*
X103124496Y-128369200D01*
X100616843Y-128369200D01*
X100614716Y-125829200D01*
X103124496Y-125829200D01*
X103219236Y-126305488D01*
X103489031Y-126709265D01*
X103892808Y-126979060D01*
X104369096Y-127073800D01*
X104950904Y-127073800D01*
X105427192Y-126979060D01*
X105830969Y-126709265D01*
X106100764Y-126305488D01*
X106195504Y-125829200D01*
X106100764Y-125352912D01*
X105860339Y-124993089D01*
X106465578Y-124993089D01*
X106660188Y-125464080D01*
X107020225Y-125824745D01*
X107490876Y-126020177D01*
X108000489Y-126020622D01*
X108471480Y-125826012D01*
X108832145Y-125465975D01*
X109027577Y-124995324D01*
X109027578Y-124993089D01*
X115609578Y-124993089D01*
X115804188Y-125464080D01*
X116164225Y-125824745D01*
X116634876Y-126020177D01*
X117144489Y-126020622D01*
X117607764Y-125829200D01*
X118364496Y-125829200D01*
X118459236Y-126305488D01*
X118729031Y-126709265D01*
X119132808Y-126979060D01*
X119609096Y-127073800D01*
X120190904Y-127073800D01*
X120667192Y-126979060D01*
X121070969Y-126709265D01*
X121340764Y-126305488D01*
X121435504Y-125829200D01*
X121340764Y-125352912D01*
X121070969Y-124949135D01*
X120667192Y-124679340D01*
X120190904Y-124584600D01*
X119609096Y-124584600D01*
X119132808Y-124679340D01*
X118729031Y-124949135D01*
X118459236Y-125352912D01*
X118364496Y-125829200D01*
X117607764Y-125829200D01*
X117615480Y-125826012D01*
X117976145Y-125465975D01*
X118171577Y-124995324D01*
X118172022Y-124485711D01*
X117977412Y-124014720D01*
X117617375Y-123654055D01*
X117146724Y-123458623D01*
X116637111Y-123458178D01*
X116166120Y-123652788D01*
X115805455Y-124012825D01*
X115610023Y-124483476D01*
X115609578Y-124993089D01*
X109027578Y-124993089D01*
X109028022Y-124485711D01*
X108833412Y-124014720D01*
X108473375Y-123654055D01*
X108002724Y-123458623D01*
X107493111Y-123458178D01*
X107022120Y-123652788D01*
X106661455Y-124012825D01*
X106466023Y-124483476D01*
X106465578Y-124993089D01*
X105860339Y-124993089D01*
X105830969Y-124949135D01*
X105427192Y-124679340D01*
X104950904Y-124584600D01*
X104369096Y-124584600D01*
X103892808Y-124679340D01*
X103489031Y-124949135D01*
X103219236Y-125352912D01*
X103124496Y-125829200D01*
X100614716Y-125829200D01*
X100612589Y-123289200D01*
X103124496Y-123289200D01*
X103219236Y-123765488D01*
X103489031Y-124169265D01*
X103892808Y-124439060D01*
X104369096Y-124533800D01*
X104950904Y-124533800D01*
X105427192Y-124439060D01*
X105830969Y-124169265D01*
X106100764Y-123765488D01*
X106195504Y-123289200D01*
X118364496Y-123289200D01*
X118459236Y-123765488D01*
X118729031Y-124169265D01*
X119132808Y-124439060D01*
X119609096Y-124533800D01*
X120190904Y-124533800D01*
X120667192Y-124439060D01*
X121070969Y-124169265D01*
X121340764Y-123765488D01*
X121435504Y-123289200D01*
X121340764Y-122812912D01*
X121070969Y-122409135D01*
X120667192Y-122139340D01*
X120190904Y-122044600D01*
X119609096Y-122044600D01*
X119132808Y-122139340D01*
X118729031Y-122409135D01*
X118459236Y-122812912D01*
X118364496Y-123289200D01*
X106195504Y-123289200D01*
X106100764Y-122812912D01*
X105830969Y-122409135D01*
X105427192Y-122139340D01*
X104950904Y-122044600D01*
X104369096Y-122044600D01*
X103892808Y-122139340D01*
X103489031Y-122409135D01*
X103219236Y-122812912D01*
X103124496Y-123289200D01*
X100612589Y-123289200D01*
X100610462Y-120749200D01*
X103124496Y-120749200D01*
X103219236Y-121225488D01*
X103489031Y-121629265D01*
X103892808Y-121899060D01*
X104369096Y-121993800D01*
X104950904Y-121993800D01*
X105427192Y-121899060D01*
X105830969Y-121629265D01*
X106100764Y-121225488D01*
X106195504Y-120749200D01*
X118364496Y-120749200D01*
X118459236Y-121225488D01*
X118729031Y-121629265D01*
X119132808Y-121899060D01*
X119609096Y-121993800D01*
X120190904Y-121993800D01*
X120667192Y-121899060D01*
X121070969Y-121629265D01*
X121340764Y-121225488D01*
X121435504Y-120749200D01*
X121340764Y-120272912D01*
X121070969Y-119869135D01*
X120667192Y-119599340D01*
X120190904Y-119504600D01*
X119609096Y-119504600D01*
X119132808Y-119599340D01*
X118729031Y-119869135D01*
X118459236Y-120272912D01*
X118364496Y-120749200D01*
X106195504Y-120749200D01*
X106100764Y-120272912D01*
X105830969Y-119869135D01*
X105427192Y-119599340D01*
X104950904Y-119504600D01*
X104369096Y-119504600D01*
X103892808Y-119599340D01*
X103489031Y-119869135D01*
X103219236Y-120272912D01*
X103124496Y-120749200D01*
X100610462Y-120749200D01*
X100608335Y-118209200D01*
X103124496Y-118209200D01*
X103219236Y-118685488D01*
X103489031Y-119089265D01*
X103892808Y-119359060D01*
X104369096Y-119453800D01*
X104950904Y-119453800D01*
X105427192Y-119359060D01*
X105830969Y-119089265D01*
X106100764Y-118685488D01*
X106195504Y-118209200D01*
X118364496Y-118209200D01*
X118459236Y-118685488D01*
X118729031Y-119089265D01*
X119132808Y-119359060D01*
X119609096Y-119453800D01*
X120190904Y-119453800D01*
X120667192Y-119359060D01*
X121070969Y-119089265D01*
X121340764Y-118685488D01*
X121435504Y-118209200D01*
X121340764Y-117732912D01*
X121070969Y-117329135D01*
X120667192Y-117059340D01*
X120190904Y-116964600D01*
X119609096Y-116964600D01*
X119132808Y-117059340D01*
X118729031Y-117329135D01*
X118459236Y-117732912D01*
X118364496Y-118209200D01*
X106195504Y-118209200D01*
X106100764Y-117732912D01*
X105830969Y-117329135D01*
X105427192Y-117059340D01*
X104950904Y-116964600D01*
X104369096Y-116964600D01*
X103892808Y-117059340D01*
X103489031Y-117329135D01*
X103219236Y-117732912D01*
X103124496Y-118209200D01*
X100608335Y-118209200D01*
X100606208Y-115669200D01*
X103124496Y-115669200D01*
X103219236Y-116145488D01*
X103489031Y-116549265D01*
X103892808Y-116819060D01*
X104369096Y-116913800D01*
X104950904Y-116913800D01*
X105427192Y-116819060D01*
X105830969Y-116549265D01*
X106100764Y-116145488D01*
X106195504Y-115669200D01*
X106100764Y-115192912D01*
X105830969Y-114789135D01*
X105427192Y-114519340D01*
X104950904Y-114424600D01*
X104369096Y-114424600D01*
X103892808Y-114519340D01*
X103489031Y-114789135D01*
X103219236Y-115192912D01*
X103124496Y-115669200D01*
X100606208Y-115669200D01*
X100604081Y-113129200D01*
X103124496Y-113129200D01*
X103219236Y-113605488D01*
X103489031Y-114009265D01*
X103892808Y-114279060D01*
X104369096Y-114373800D01*
X104950904Y-114373800D01*
X105427192Y-114279060D01*
X105830969Y-114009265D01*
X106100764Y-113605488D01*
X106195504Y-113129200D01*
X106100764Y-112652912D01*
X105830969Y-112249135D01*
X105427192Y-111979340D01*
X104950904Y-111884600D01*
X104369096Y-111884600D01*
X103892808Y-111979340D01*
X103489031Y-112249135D01*
X103219236Y-112652912D01*
X103124496Y-113129200D01*
X100604081Y-113129200D01*
X100601954Y-110589200D01*
X103124496Y-110589200D01*
X103219236Y-111065488D01*
X103489031Y-111469265D01*
X103892808Y-111739060D01*
X104369096Y-111833800D01*
X104950904Y-111833800D01*
X105427192Y-111739060D01*
X105830969Y-111469265D01*
X106100764Y-111065488D01*
X106195504Y-110589200D01*
X106149108Y-110355951D01*
X106890956Y-110355951D01*
X106979500Y-110556348D01*
X107442384Y-110769526D01*
X107951612Y-110789338D01*
X108429660Y-110612769D01*
X108514100Y-110556348D01*
X108602644Y-110355951D01*
X107746800Y-109500107D01*
X106890956Y-110355951D01*
X106149108Y-110355951D01*
X106100764Y-110112912D01*
X105830969Y-109709135D01*
X105823602Y-109704212D01*
X106456862Y-109704212D01*
X106633431Y-110182260D01*
X106689852Y-110266700D01*
X106890249Y-110355244D01*
X107746093Y-109499400D01*
X107747507Y-109499400D01*
X108603351Y-110355244D01*
X108803748Y-110266700D01*
X109016926Y-109803816D01*
X109036738Y-109294588D01*
X108860169Y-108816540D01*
X108803748Y-108732100D01*
X108603351Y-108643556D01*
X107747507Y-109499400D01*
X107746093Y-109499400D01*
X106890249Y-108643556D01*
X106689852Y-108732100D01*
X106476674Y-109194984D01*
X106456862Y-109704212D01*
X105823602Y-109704212D01*
X105427192Y-109439340D01*
X104950904Y-109344600D01*
X104369096Y-109344600D01*
X103892808Y-109439340D01*
X103489031Y-109709135D01*
X103219236Y-110112912D01*
X103124496Y-110589200D01*
X100601954Y-110589200D01*
X100599827Y-108049200D01*
X103124496Y-108049200D01*
X103219236Y-108525488D01*
X103489031Y-108929265D01*
X103892808Y-109199060D01*
X104369096Y-109293800D01*
X104950904Y-109293800D01*
X105427192Y-109199060D01*
X105830969Y-108929265D01*
X106022345Y-108642849D01*
X106890956Y-108642849D01*
X107746800Y-109498693D01*
X108602644Y-108642849D01*
X108514100Y-108442452D01*
X108051216Y-108229274D01*
X107541988Y-108209462D01*
X107063940Y-108386031D01*
X106979500Y-108442452D01*
X106890956Y-108642849D01*
X106022345Y-108642849D01*
X106100764Y-108525488D01*
X106195504Y-108049200D01*
X106100764Y-107572912D01*
X105830969Y-107169135D01*
X105427192Y-106899340D01*
X104950904Y-106804600D01*
X104369096Y-106804600D01*
X103892808Y-106899340D01*
X103489031Y-107169135D01*
X103219236Y-107572912D01*
X103124496Y-108049200D01*
X100599827Y-108049200D01*
X100597700Y-105509200D01*
X103124496Y-105509200D01*
X103219236Y-105985488D01*
X103489031Y-106389265D01*
X103892808Y-106659060D01*
X104369096Y-106753800D01*
X104950904Y-106753800D01*
X105427192Y-106659060D01*
X105830969Y-106389265D01*
X106100764Y-105985488D01*
X106195504Y-105509200D01*
X106100764Y-105032912D01*
X105830969Y-104629135D01*
X105427192Y-104359340D01*
X104950904Y-104264600D01*
X104369096Y-104264600D01*
X103892808Y-104359340D01*
X103489031Y-104629135D01*
X103219236Y-105032912D01*
X103124496Y-105509200D01*
X100597700Y-105509200D01*
X100595573Y-102969200D01*
X103124496Y-102969200D01*
X103219236Y-103445488D01*
X103489031Y-103849265D01*
X103892808Y-104119060D01*
X104369096Y-104213800D01*
X104950904Y-104213800D01*
X105427192Y-104119060D01*
X105830969Y-103849265D01*
X106100764Y-103445488D01*
X106195504Y-102969200D01*
X106100764Y-102492912D01*
X105830969Y-102089135D01*
X105427192Y-101819340D01*
X104950904Y-101724600D01*
X104369096Y-101724600D01*
X103892808Y-101819340D01*
X103489031Y-102089135D01*
X103219236Y-102492912D01*
X103124496Y-102969200D01*
X100595573Y-102969200D01*
X100593446Y-100429200D01*
X103124496Y-100429200D01*
X103219236Y-100905488D01*
X103489031Y-101309265D01*
X103892808Y-101579060D01*
X104369096Y-101673800D01*
X104950904Y-101673800D01*
X105427192Y-101579060D01*
X105830969Y-101309265D01*
X106100764Y-100905488D01*
X106195504Y-100429200D01*
X106100764Y-99952912D01*
X105830969Y-99549135D01*
X105427192Y-99279340D01*
X104950904Y-99184600D01*
X104369096Y-99184600D01*
X103892808Y-99279340D01*
X103489031Y-99549135D01*
X103219236Y-99952912D01*
X103124496Y-100429200D01*
X100593446Y-100429200D01*
X100591319Y-97889200D01*
X103124496Y-97889200D01*
X103219236Y-98365488D01*
X103489031Y-98769265D01*
X103892808Y-99039060D01*
X104369096Y-99133800D01*
X104950904Y-99133800D01*
X105427192Y-99039060D01*
X105830969Y-98769265D01*
X106100764Y-98365488D01*
X106195504Y-97889200D01*
X106100764Y-97412912D01*
X105830969Y-97009135D01*
X105427192Y-96739340D01*
X104950904Y-96644600D01*
X104369096Y-96644600D01*
X103892808Y-96739340D01*
X103489031Y-97009135D01*
X103219236Y-97412912D01*
X103124496Y-97889200D01*
X100591319Y-97889200D01*
X100589191Y-95349200D01*
X103124496Y-95349200D01*
X103219236Y-95825488D01*
X103489031Y-96229265D01*
X103892808Y-96499060D01*
X104369096Y-96593800D01*
X104950904Y-96593800D01*
X105427192Y-96499060D01*
X105830969Y-96229265D01*
X106100764Y-95825488D01*
X106195504Y-95349200D01*
X106100764Y-94872912D01*
X105830969Y-94469135D01*
X105427192Y-94199340D01*
X104950904Y-94104600D01*
X104369096Y-94104600D01*
X103892808Y-94199340D01*
X103489031Y-94469135D01*
X103219236Y-94872912D01*
X103124496Y-95349200D01*
X100589191Y-95349200D01*
X100587063Y-92809200D01*
X103124496Y-92809200D01*
X103219236Y-93285488D01*
X103489031Y-93689265D01*
X103892808Y-93959060D01*
X104369096Y-94053800D01*
X104950904Y-94053800D01*
X105427192Y-93959060D01*
X105830969Y-93689265D01*
X106100764Y-93285488D01*
X106195504Y-92809200D01*
X106100764Y-92332912D01*
X105830969Y-91929135D01*
X105427192Y-91659340D01*
X104950904Y-91564600D01*
X104369096Y-91564600D01*
X103892808Y-91659340D01*
X103489031Y-91929135D01*
X103219236Y-92332912D01*
X103124496Y-92809200D01*
X100587063Y-92809200D01*
X100584935Y-90269200D01*
X103124496Y-90269200D01*
X103219236Y-90745488D01*
X103489031Y-91149265D01*
X103892808Y-91419060D01*
X104369096Y-91513800D01*
X104950904Y-91513800D01*
X105427192Y-91419060D01*
X105830969Y-91149265D01*
X106100764Y-90745488D01*
X106195504Y-90269200D01*
X106100764Y-89792912D01*
X105830969Y-89389135D01*
X105427192Y-89119340D01*
X104950904Y-89024600D01*
X104369096Y-89024600D01*
X103892808Y-89119340D01*
X103489031Y-89389135D01*
X103219236Y-89792912D01*
X103124496Y-90269200D01*
X100584935Y-90269200D01*
X100584000Y-89153894D01*
X100573953Y-89104492D01*
X100545477Y-89062891D01*
X100503060Y-89035647D01*
X100457000Y-89027000D01*
X99571368Y-89027000D01*
X100238168Y-88360200D01*
X103322611Y-88360200D01*
X103489031Y-88609265D01*
X103892808Y-88879060D01*
X104369096Y-88973800D01*
X104950904Y-88973800D01*
X105427192Y-88879060D01*
X105830969Y-88609265D01*
X105997389Y-88360200D01*
X106023632Y-88360200D01*
X106557000Y-88893568D01*
X106557000Y-96520000D01*
X106605032Y-96761473D01*
X106741816Y-96966184D01*
X108973667Y-99198036D01*
X109023339Y-99318252D01*
X109214741Y-99509987D01*
X109464946Y-99613882D01*
X109735865Y-99614118D01*
X109986252Y-99510661D01*
X110177987Y-99319259D01*
X110281882Y-99069054D01*
X110282118Y-98798135D01*
X110178661Y-98547748D01*
X109987259Y-98356013D01*
X109866052Y-98305683D01*
X107819000Y-96258632D01*
X107819000Y-88632200D01*
X107770968Y-88390727D01*
X107634184Y-88186016D01*
X106731184Y-87283016D01*
X106526473Y-87146232D01*
X106285000Y-87098200D01*
X105997389Y-87098200D01*
X105830969Y-86849135D01*
X105427192Y-86579340D01*
X104950904Y-86484600D01*
X104369096Y-86484600D01*
X103892808Y-86579340D01*
X103489031Y-86849135D01*
X103322611Y-87098200D01*
X99976800Y-87098200D01*
X99735327Y-87146232D01*
X99530616Y-87283016D01*
X97786632Y-89027000D01*
X75691827Y-89027000D01*
X75686948Y-85450000D01*
X77361536Y-85450000D01*
X77361536Y-86950000D01*
X77388103Y-87091190D01*
X77471546Y-87220865D01*
X77598866Y-87307859D01*
X77750000Y-87338464D01*
X79250000Y-87338464D01*
X79391190Y-87311897D01*
X79520865Y-87228454D01*
X79607859Y-87101134D01*
X79638464Y-86950000D01*
X79638464Y-85450000D01*
X84361536Y-85450000D01*
X84361536Y-86950000D01*
X84388103Y-87091190D01*
X84471546Y-87220865D01*
X84598866Y-87307859D01*
X84750000Y-87338464D01*
X86250000Y-87338464D01*
X86391190Y-87311897D01*
X86520865Y-87228454D01*
X86607859Y-87101134D01*
X86638464Y-86950000D01*
X86638464Y-85450000D01*
X86611897Y-85308810D01*
X86528454Y-85179135D01*
X86401134Y-85092141D01*
X86250000Y-85061536D01*
X84750000Y-85061536D01*
X84608810Y-85088103D01*
X84479135Y-85171546D01*
X84392141Y-85298866D01*
X84361536Y-85450000D01*
X79638464Y-85450000D01*
X79611897Y-85308810D01*
X79528454Y-85179135D01*
X79401134Y-85092141D01*
X79250000Y-85061536D01*
X77750000Y-85061536D01*
X77608810Y-85088103D01*
X77479135Y-85171546D01*
X77392141Y-85298866D01*
X77361536Y-85450000D01*
X75686948Y-85450000D01*
X75668436Y-71877421D01*
X78233003Y-71877421D01*
X78304901Y-72132353D01*
X78549909Y-72499384D01*
X78916723Y-72744716D01*
X79349500Y-72831000D01*
X80099500Y-72831000D01*
X80099500Y-71700500D01*
X78314250Y-71700500D01*
X78233003Y-71877421D01*
X75668436Y-71877421D01*
X75667952Y-71522579D01*
X78233003Y-71522579D01*
X78314250Y-71699500D01*
X80099500Y-71699500D01*
X80099500Y-70569000D01*
X79349500Y-70569000D01*
X78916723Y-70655284D01*
X78549909Y-70900616D01*
X78304901Y-71267647D01*
X78233003Y-71522579D01*
X75667952Y-71522579D01*
X75664967Y-69334865D01*
X76918882Y-69334865D01*
X77022339Y-69585252D01*
X77213741Y-69776987D01*
X77463946Y-69880882D01*
X77734865Y-69881118D01*
X77985252Y-69777661D01*
X78057038Y-69706000D01*
X78343869Y-69706000D01*
X78513411Y-69959738D01*
X78880334Y-70204908D01*
X79313149Y-70291000D01*
X80886851Y-70291000D01*
X81319666Y-70204908D01*
X81686589Y-69959738D01*
X81844000Y-69724156D01*
X81844000Y-71191099D01*
X81650091Y-70900616D01*
X81283277Y-70655284D01*
X80850500Y-70569000D01*
X80100500Y-70569000D01*
X80100500Y-71699500D01*
X80120500Y-71699500D01*
X80120500Y-71700500D01*
X80100500Y-71700500D01*
X80100500Y-72831000D01*
X80850500Y-72831000D01*
X81283277Y-72744716D01*
X81650091Y-72499384D01*
X81844000Y-72208901D01*
X81844000Y-74700000D01*
X81878711Y-74874504D01*
X81977559Y-75022441D01*
X82125496Y-75121289D01*
X82300000Y-75156000D01*
X112576800Y-75156000D01*
X112576800Y-75285600D01*
X112623639Y-75521077D01*
X112624832Y-75527073D01*
X112761616Y-75731784D01*
X114887056Y-77857224D01*
X115091767Y-77994008D01*
X115333240Y-78042040D01*
X117443208Y-78042040D01*
X119269000Y-79867833D01*
X119269000Y-81397136D01*
X118775000Y-81397136D01*
X118633810Y-81423703D01*
X118504135Y-81507146D01*
X118417141Y-81634466D01*
X118386536Y-81785600D01*
X118386536Y-82018200D01*
X117920833Y-82018200D01*
X117944022Y-81962356D01*
X117944258Y-81691437D01*
X117935921Y-81671260D01*
X118038052Y-81629061D01*
X118229787Y-81437659D01*
X118333682Y-81187454D01*
X118333918Y-80916535D01*
X118230461Y-80666148D01*
X118039059Y-80474413D01*
X117788854Y-80370518D01*
X117517935Y-80370282D01*
X117267548Y-80473739D01*
X117195762Y-80545400D01*
X117038443Y-80545400D01*
X117038518Y-80459335D01*
X116935061Y-80208948D01*
X116743659Y-80017213D01*
X116493454Y-79913318D01*
X116222535Y-79913082D01*
X115972148Y-80016539D01*
X115900362Y-80088200D01*
X115754192Y-80088200D01*
X111508196Y-75842204D01*
X111344038Y-75732517D01*
X111150400Y-75694000D01*
X86000000Y-75694000D01*
X85806362Y-75732517D01*
X85642204Y-75842204D01*
X78859684Y-82624724D01*
X78725957Y-82569196D01*
X78276017Y-82568804D01*
X77860177Y-82740625D01*
X77541744Y-83058503D01*
X77369196Y-83474043D01*
X77368804Y-83923983D01*
X77540625Y-84339823D01*
X77858503Y-84658256D01*
X78274043Y-84830804D01*
X78723983Y-84831196D01*
X79139823Y-84659375D01*
X79458256Y-84341497D01*
X79630804Y-83925957D01*
X79631196Y-83476017D01*
X79575170Y-83340422D01*
X86209592Y-76706000D01*
X91778408Y-76706000D01*
X85859684Y-82624724D01*
X85725957Y-82569196D01*
X85276017Y-82568804D01*
X84860177Y-82740625D01*
X84541744Y-83058503D01*
X84369196Y-83474043D01*
X84368804Y-83923983D01*
X84540625Y-84339823D01*
X84858503Y-84658256D01*
X85274043Y-84830804D01*
X85723983Y-84831196D01*
X86139823Y-84659375D01*
X86458256Y-84341497D01*
X86630804Y-83925957D01*
X86631196Y-83476017D01*
X86575170Y-83340422D01*
X92759582Y-77156010D01*
X98428398Y-77156010D01*
X92959684Y-82624724D01*
X92825957Y-82569196D01*
X92376017Y-82568804D01*
X91960177Y-82740625D01*
X91641744Y-83058503D01*
X91469196Y-83474043D01*
X91468804Y-83923983D01*
X91640625Y-84339823D01*
X91958503Y-84658256D01*
X92374043Y-84830804D01*
X92823983Y-84831196D01*
X93239823Y-84659375D01*
X93558256Y-84341497D01*
X93730804Y-83925957D01*
X93731196Y-83476017D01*
X93675170Y-83340422D01*
X99409572Y-77606020D01*
X101551611Y-77606020D01*
X93733581Y-85424051D01*
X93711897Y-85308810D01*
X93628454Y-85179135D01*
X93501134Y-85092141D01*
X93350000Y-85061536D01*
X91850000Y-85061536D01*
X91708810Y-85088103D01*
X91579135Y-85171546D01*
X91492141Y-85298866D01*
X91461536Y-85450000D01*
X91461536Y-86950000D01*
X91488103Y-87091190D01*
X91571546Y-87220865D01*
X91698866Y-87307859D01*
X91850000Y-87338464D01*
X93350000Y-87338464D01*
X93491190Y-87311897D01*
X93620865Y-87228454D01*
X93707859Y-87101134D01*
X93738464Y-86950000D01*
X93738464Y-86831000D01*
X93850000Y-86831000D01*
X94091473Y-86782968D01*
X94296184Y-86646184D01*
X95557976Y-85384392D01*
X103169401Y-85384392D01*
X103248548Y-85665025D01*
X103518181Y-86068911D01*
X103921850Y-86338869D01*
X104398100Y-86433800D01*
X104659500Y-86433800D01*
X104659500Y-85189700D01*
X104660500Y-85189700D01*
X104660500Y-86433800D01*
X104921900Y-86433800D01*
X105398150Y-86338869D01*
X105801819Y-86068911D01*
X106071452Y-85665025D01*
X106150599Y-85384392D01*
X106070750Y-85189700D01*
X104660500Y-85189700D01*
X104659500Y-85189700D01*
X103249250Y-85189700D01*
X103169401Y-85384392D01*
X95557976Y-85384392D01*
X95948360Y-84994008D01*
X103169401Y-84994008D01*
X103249250Y-85188700D01*
X104659500Y-85188700D01*
X104659500Y-83944600D01*
X104660500Y-83944600D01*
X104660500Y-85188700D01*
X106070750Y-85188700D01*
X106150599Y-84994008D01*
X106071452Y-84713375D01*
X105801819Y-84309489D01*
X105398150Y-84039531D01*
X104921900Y-83944600D01*
X104660500Y-83944600D01*
X104659500Y-83944600D01*
X104398100Y-83944600D01*
X103921850Y-84039531D01*
X103518181Y-84309489D01*
X103248548Y-84713375D01*
X103169401Y-84994008D01*
X95948360Y-84994008D01*
X98343968Y-82598400D01*
X103124496Y-82598400D01*
X103219236Y-83074688D01*
X103489031Y-83478465D01*
X103892808Y-83748260D01*
X104369096Y-83843000D01*
X104950904Y-83843000D01*
X105427192Y-83748260D01*
X105830969Y-83478465D01*
X106100764Y-83074688D01*
X106195504Y-82598400D01*
X106100764Y-82122112D01*
X105830969Y-81718335D01*
X105427192Y-81448540D01*
X104950904Y-81353800D01*
X104369096Y-81353800D01*
X103892808Y-81448540D01*
X103489031Y-81718335D01*
X103219236Y-82122112D01*
X103124496Y-82598400D01*
X98343968Y-82598400D01*
X102636338Y-78306031D01*
X110254064Y-78306031D01*
X115043416Y-83095384D01*
X115248127Y-83232168D01*
X115288190Y-83240137D01*
X115489601Y-83280200D01*
X118115232Y-83280200D01*
X117409816Y-83985616D01*
X117273032Y-84190327D01*
X117225000Y-84431800D01*
X117225000Y-105148631D01*
X114107816Y-108265816D01*
X113971032Y-108470527D01*
X113923000Y-108712000D01*
X113923000Y-113916818D01*
X113873118Y-114036946D01*
X113872882Y-114307865D01*
X113976339Y-114558252D01*
X114167741Y-114749987D01*
X114417946Y-114853882D01*
X114688865Y-114854118D01*
X114939252Y-114750661D01*
X115130987Y-114559259D01*
X115234882Y-114309054D01*
X115235118Y-114038135D01*
X115185000Y-113916839D01*
X115185000Y-109753089D01*
X115609578Y-109753089D01*
X115804188Y-110224080D01*
X116164225Y-110584745D01*
X116634876Y-110780177D01*
X117144489Y-110780622D01*
X117615480Y-110586012D01*
X117976145Y-110225975D01*
X118171577Y-109755324D01*
X118172022Y-109245711D01*
X117977412Y-108774720D01*
X117617375Y-108414055D01*
X117146724Y-108218623D01*
X116637111Y-108218178D01*
X116166120Y-108412788D01*
X115805455Y-108772825D01*
X115610023Y-109243476D01*
X115609578Y-109753089D01*
X115185000Y-109753089D01*
X115185000Y-108973368D01*
X118302184Y-105856185D01*
X118403388Y-105704723D01*
X118459236Y-105985488D01*
X118729031Y-106389265D01*
X119132808Y-106659060D01*
X119609096Y-106753800D01*
X120190904Y-106753800D01*
X120667192Y-106659060D01*
X120844010Y-106540914D01*
X120844010Y-107017486D01*
X120667192Y-106899340D01*
X120190904Y-106804600D01*
X119609096Y-106804600D01*
X119132808Y-106899340D01*
X118729031Y-107169135D01*
X118459236Y-107572912D01*
X118364496Y-108049200D01*
X118459236Y-108525488D01*
X118729031Y-108929265D01*
X119132808Y-109199060D01*
X119609096Y-109293800D01*
X120190904Y-109293800D01*
X120667192Y-109199060D01*
X120844010Y-109080914D01*
X120844010Y-109557486D01*
X120667192Y-109439340D01*
X120190904Y-109344600D01*
X119609096Y-109344600D01*
X119132808Y-109439340D01*
X118729031Y-109709135D01*
X118459236Y-110112912D01*
X118364496Y-110589200D01*
X118459236Y-111065488D01*
X118729031Y-111469265D01*
X119132808Y-111739060D01*
X119609096Y-111833800D01*
X120190904Y-111833800D01*
X120667192Y-111739060D01*
X120844010Y-111620914D01*
X120844010Y-112097486D01*
X120667192Y-111979340D01*
X120190904Y-111884600D01*
X119609096Y-111884600D01*
X119132808Y-111979340D01*
X118729031Y-112249135D01*
X118459236Y-112652912D01*
X118364496Y-113129200D01*
X118459236Y-113605488D01*
X118729031Y-114009265D01*
X119132808Y-114279060D01*
X119609096Y-114373800D01*
X120190904Y-114373800D01*
X120667192Y-114279060D01*
X120844010Y-114160914D01*
X120844010Y-114270998D01*
X120607535Y-114507473D01*
X120190904Y-114424600D01*
X119609096Y-114424600D01*
X119132808Y-114519340D01*
X118729031Y-114789135D01*
X118459236Y-115192912D01*
X118364496Y-115669200D01*
X118459236Y-116145488D01*
X118729031Y-116549265D01*
X119132808Y-116819060D01*
X119609096Y-116913800D01*
X120190904Y-116913800D01*
X120667192Y-116819060D01*
X121070969Y-116549265D01*
X121340764Y-116145488D01*
X121435504Y-115669200D01*
X121342841Y-115203351D01*
X121707806Y-114838386D01*
X121817493Y-114674228D01*
X121856010Y-114480590D01*
X121856010Y-76584610D01*
X121817493Y-76390972D01*
X121707806Y-76226814D01*
X121510411Y-76029419D01*
X121652938Y-75934185D01*
X121898108Y-75567262D01*
X121984200Y-75134447D01*
X121984200Y-72541153D01*
X121898108Y-72108338D01*
X121652938Y-71741415D01*
X121349415Y-71538608D01*
X121320683Y-71394162D01*
X121210996Y-71230004D01*
X118711196Y-68730204D01*
X118547038Y-68620517D01*
X118524996Y-68616133D01*
X118420059Y-68511013D01*
X118169854Y-68407118D01*
X117898935Y-68406882D01*
X117648548Y-68510339D01*
X117456813Y-68701741D01*
X117352918Y-68951946D01*
X117352682Y-69222865D01*
X117456139Y-69473252D01*
X117647541Y-69664987D01*
X117897746Y-69768882D01*
X118168665Y-69769118D01*
X118274993Y-69725185D01*
X120195989Y-71646181D01*
X120053462Y-71741415D01*
X119808292Y-72108338D01*
X119722200Y-72541153D01*
X119722200Y-75134447D01*
X119808292Y-75567262D01*
X120053462Y-75934185D01*
X120356985Y-76136992D01*
X120385717Y-76281438D01*
X120495404Y-76445596D01*
X120844010Y-76794202D01*
X120844010Y-81397136D01*
X120531000Y-81397136D01*
X120531000Y-79606464D01*
X120482968Y-79364991D01*
X120482968Y-79364990D01*
X120346184Y-79160279D01*
X118150760Y-76964856D01*
X117946049Y-76828072D01*
X117704576Y-76780040D01*
X115594608Y-76780040D01*
X113838800Y-75024232D01*
X113838800Y-73591665D01*
X113872882Y-73591665D01*
X113976339Y-73842052D01*
X114167741Y-74033787D01*
X114288949Y-74084117D01*
X114488815Y-74283984D01*
X114642200Y-74386473D01*
X114642200Y-75134447D01*
X114728292Y-75567262D01*
X114973462Y-75934185D01*
X115340385Y-76179355D01*
X115773200Y-76265447D01*
X116206015Y-76179355D01*
X116572938Y-75934185D01*
X116818108Y-75567262D01*
X116904200Y-75134447D01*
X116904200Y-73838300D01*
X117182200Y-73838300D01*
X117182200Y-75088300D01*
X117268484Y-75521077D01*
X117513816Y-75887891D01*
X117880847Y-76132899D01*
X118135779Y-76204797D01*
X118312700Y-76123550D01*
X118312700Y-73838300D01*
X118313700Y-73838300D01*
X118313700Y-76123550D01*
X118490621Y-76204797D01*
X118745553Y-76132899D01*
X119112584Y-75887891D01*
X119357916Y-75521077D01*
X119444200Y-75088300D01*
X119444200Y-73838300D01*
X118313700Y-73838300D01*
X118312700Y-73838300D01*
X117182200Y-73838300D01*
X116904200Y-73838300D01*
X116904200Y-72587300D01*
X117182200Y-72587300D01*
X117182200Y-73837300D01*
X118312700Y-73837300D01*
X118312700Y-71552050D01*
X118313700Y-71552050D01*
X118313700Y-73837300D01*
X119444200Y-73837300D01*
X119444200Y-72587300D01*
X119357916Y-72154523D01*
X119112584Y-71787709D01*
X118745553Y-71542701D01*
X118490621Y-71470803D01*
X118313700Y-71552050D01*
X118312700Y-71552050D01*
X118135779Y-71470803D01*
X117880847Y-71542701D01*
X117513816Y-71787709D01*
X117268484Y-72154523D01*
X117182200Y-72587300D01*
X116904200Y-72587300D01*
X116904200Y-72541153D01*
X116818108Y-72108338D01*
X116572938Y-71741415D01*
X116206015Y-71496245D01*
X115773200Y-71410153D01*
X115340385Y-71496245D01*
X114973462Y-71741415D01*
X114728292Y-72108338D01*
X114642200Y-72541153D01*
X114642200Y-72775876D01*
X114419135Y-72775682D01*
X114168748Y-72879139D01*
X113977013Y-73070541D01*
X113873118Y-73320746D01*
X113872882Y-73591665D01*
X113838800Y-73591665D01*
X113838800Y-68130168D01*
X115073036Y-66895933D01*
X115193252Y-66846261D01*
X115384987Y-66654859D01*
X115488882Y-66404654D01*
X115489118Y-66133735D01*
X115385661Y-65883348D01*
X115194259Y-65691613D01*
X114944054Y-65587718D01*
X114673135Y-65587482D01*
X114422748Y-65690939D01*
X114231013Y-65882341D01*
X114180683Y-66003548D01*
X113056000Y-67128232D01*
X113056000Y-60300000D01*
X113021289Y-60125496D01*
X112922441Y-59977559D01*
X112774504Y-59878711D01*
X112600000Y-59844000D01*
X82300000Y-59844000D01*
X82125496Y-59878711D01*
X81977559Y-59977559D01*
X81878711Y-60125496D01*
X81844000Y-60300000D01*
X81844000Y-63515844D01*
X81686589Y-63280262D01*
X81319666Y-63035092D01*
X80886851Y-62949000D01*
X79313149Y-62949000D01*
X78880334Y-63035092D01*
X78513411Y-63280262D01*
X78268241Y-63647185D01*
X78182149Y-64080000D01*
X78268241Y-64512815D01*
X78513411Y-64879738D01*
X78880334Y-65124908D01*
X79313149Y-65211000D01*
X80886851Y-65211000D01*
X81319666Y-65124908D01*
X81686589Y-64879738D01*
X81844000Y-64644156D01*
X81844000Y-66055844D01*
X81686589Y-65820262D01*
X81319666Y-65575092D01*
X80886851Y-65489000D01*
X79313149Y-65489000D01*
X78880334Y-65575092D01*
X78513411Y-65820262D01*
X78268241Y-66187185D01*
X78182149Y-66620000D01*
X78268241Y-67052815D01*
X78513411Y-67419738D01*
X78880334Y-67664908D01*
X79313149Y-67751000D01*
X80886851Y-67751000D01*
X81319666Y-67664908D01*
X81686589Y-67419738D01*
X81844000Y-67184156D01*
X81844000Y-68595844D01*
X81686589Y-68360262D01*
X81319666Y-68115092D01*
X80886851Y-68029000D01*
X79313149Y-68029000D01*
X78880334Y-68115092D01*
X78513411Y-68360262D01*
X78290414Y-68694000D01*
X78057123Y-68694000D01*
X77986259Y-68623013D01*
X77736054Y-68519118D01*
X77465135Y-68518882D01*
X77214748Y-68622339D01*
X77023013Y-68813741D01*
X76919118Y-69063946D01*
X76918882Y-69334865D01*
X75664967Y-69334865D01*
X75629655Y-43446000D01*
X77173536Y-43446000D01*
X77173536Y-44946000D01*
X77200103Y-45087190D01*
X77283546Y-45216865D01*
X77410866Y-45303859D01*
X77562000Y-45334464D01*
X79062000Y-45334464D01*
X79203190Y-45307897D01*
X79332865Y-45224454D01*
X79419859Y-45097134D01*
X79450464Y-44946000D01*
X79450464Y-44419983D01*
X79680804Y-44419983D01*
X79852625Y-44835823D01*
X80170503Y-45154256D01*
X80586043Y-45326804D01*
X81035983Y-45327196D01*
X81451823Y-45155375D01*
X81770256Y-44837497D01*
X81942804Y-44421957D01*
X81942805Y-44419983D01*
X82180804Y-44419983D01*
X82352625Y-44835823D01*
X82670503Y-45154256D01*
X83086043Y-45326804D01*
X83535983Y-45327196D01*
X83951823Y-45155375D01*
X84270256Y-44837497D01*
X84442804Y-44421957D01*
X84442805Y-44419983D01*
X84680804Y-44419983D01*
X84852625Y-44835823D01*
X85170503Y-45154256D01*
X85586043Y-45326804D01*
X86035983Y-45327196D01*
X86451823Y-45155375D01*
X86770256Y-44837497D01*
X86942804Y-44421957D01*
X86942805Y-44419983D01*
X87180804Y-44419983D01*
X87352625Y-44835823D01*
X87670503Y-45154256D01*
X88086043Y-45326804D01*
X88535983Y-45327196D01*
X88951823Y-45155375D01*
X89163159Y-44944407D01*
X90064300Y-44944407D01*
X90134595Y-45129218D01*
X90543287Y-45317412D01*
X90992887Y-45334881D01*
X91414949Y-45178966D01*
X91489405Y-45129218D01*
X91559700Y-44944407D01*
X90812000Y-44196707D01*
X90064300Y-44944407D01*
X89163159Y-44944407D01*
X89270256Y-44837497D01*
X89442804Y-44421957D01*
X89442843Y-44376887D01*
X89673119Y-44376887D01*
X89829034Y-44798949D01*
X89878782Y-44873405D01*
X90063593Y-44943700D01*
X90811293Y-44196000D01*
X90812707Y-44196000D01*
X91560407Y-44943700D01*
X91745218Y-44873405D01*
X91933412Y-44464713D01*
X91950881Y-44015113D01*
X91794966Y-43593051D01*
X91745218Y-43518595D01*
X91564877Y-43450000D01*
X95861536Y-43450000D01*
X95861536Y-44950000D01*
X95888103Y-45091190D01*
X95971546Y-45220865D01*
X96098866Y-45307859D01*
X96250000Y-45338464D01*
X97750000Y-45338464D01*
X97891190Y-45311897D01*
X98020865Y-45228454D01*
X98107859Y-45101134D01*
X98138464Y-44950000D01*
X98138464Y-44423983D01*
X98368804Y-44423983D01*
X98540625Y-44839823D01*
X98858503Y-45158256D01*
X98994000Y-45214520D01*
X98994000Y-57205436D01*
X98889413Y-57309841D01*
X98785518Y-57560046D01*
X98785282Y-57830965D01*
X98888739Y-58081352D01*
X99080141Y-58273087D01*
X99330346Y-58376982D01*
X99601265Y-58377218D01*
X99851652Y-58273761D01*
X100043387Y-58082359D01*
X100147282Y-57832154D01*
X100147518Y-57561235D01*
X100044061Y-57310848D01*
X100006000Y-57272721D01*
X100006000Y-45214669D01*
X100139823Y-45159375D01*
X100458256Y-44841497D01*
X100630804Y-44425957D01*
X100630805Y-44423983D01*
X100868804Y-44423983D01*
X101040625Y-44839823D01*
X101358503Y-45158256D01*
X101494000Y-45214520D01*
X101494000Y-55695800D01*
X101532517Y-55889438D01*
X101642204Y-56053596D01*
X102684269Y-57095661D01*
X102684182Y-57195965D01*
X102787639Y-57446352D01*
X102979041Y-57638087D01*
X103229246Y-57741982D01*
X103500165Y-57742218D01*
X103750552Y-57638761D01*
X103942287Y-57447359D01*
X104046182Y-57197154D01*
X104046418Y-56926235D01*
X103942961Y-56675848D01*
X103751559Y-56484113D01*
X103501354Y-56380218D01*
X103399922Y-56380130D01*
X102506000Y-55486208D01*
X102506000Y-51147400D01*
X113143936Y-51147400D01*
X113143936Y-52874600D01*
X113170503Y-53015790D01*
X113253946Y-53145465D01*
X113381266Y-53232459D01*
X113532400Y-53263064D01*
X113765000Y-53263064D01*
X113765000Y-58619473D01*
X113746118Y-58664946D01*
X113745882Y-58935865D01*
X113849339Y-59186252D01*
X114040741Y-59377987D01*
X114290946Y-59481882D01*
X114561865Y-59482118D01*
X114812252Y-59378661D01*
X115003987Y-59187259D01*
X115107882Y-58937054D01*
X115108118Y-58666135D01*
X115027000Y-58469813D01*
X115027000Y-53263064D01*
X115259600Y-53263064D01*
X115400790Y-53236497D01*
X115530465Y-53153054D01*
X115617459Y-53025734D01*
X115648064Y-52874600D01*
X115648064Y-51986617D01*
X115691400Y-51986617D01*
X115691400Y-52035383D01*
X115786140Y-52511671D01*
X116055935Y-52915448D01*
X116430000Y-53165390D01*
X116430000Y-53817000D01*
X116468517Y-54010638D01*
X116578204Y-54174796D01*
X117752204Y-55348796D01*
X117916362Y-55458483D01*
X118110000Y-55497000D01*
X120192877Y-55497000D01*
X120263741Y-55567987D01*
X120513946Y-55671882D01*
X120784865Y-55672118D01*
X121035252Y-55568661D01*
X121226987Y-55377259D01*
X121330882Y-55127054D01*
X121331118Y-54856135D01*
X121227661Y-54605748D01*
X121036259Y-54414013D01*
X120786054Y-54310118D01*
X120515135Y-54309882D01*
X120264748Y-54413339D01*
X120192962Y-54485000D01*
X118319592Y-54485000D01*
X117442000Y-53607408D01*
X117442000Y-53165390D01*
X117816065Y-52915448D01*
X118085860Y-52511671D01*
X118180600Y-52035383D01*
X118180600Y-51986617D01*
X118231400Y-51986617D01*
X118231400Y-52035383D01*
X118326140Y-52511671D01*
X118595935Y-52915448D01*
X118999712Y-53185243D01*
X119476000Y-53279983D01*
X119952288Y-53185243D01*
X120356065Y-52915448D01*
X120625860Y-52511671D01*
X120720600Y-52035383D01*
X120720600Y-51986617D01*
X120771400Y-51986617D01*
X120771400Y-52035383D01*
X120866140Y-52511671D01*
X121135935Y-52915448D01*
X121539712Y-53185243D01*
X122016000Y-53279983D01*
X122492288Y-53185243D01*
X122896065Y-52915448D01*
X123165860Y-52511671D01*
X123260600Y-52035383D01*
X123260600Y-51986617D01*
X123165860Y-51510329D01*
X122896065Y-51106552D01*
X122492288Y-50836757D01*
X122016000Y-50742017D01*
X121539712Y-50836757D01*
X121135935Y-51106552D01*
X120866140Y-51510329D01*
X120771400Y-51986617D01*
X120720600Y-51986617D01*
X120625860Y-51510329D01*
X120356065Y-51106552D01*
X119952288Y-50836757D01*
X119476000Y-50742017D01*
X118999712Y-50836757D01*
X118595935Y-51106552D01*
X118326140Y-51510329D01*
X118231400Y-51986617D01*
X118180600Y-51986617D01*
X118085860Y-51510329D01*
X117816065Y-51106552D01*
X117412288Y-50836757D01*
X116936000Y-50742017D01*
X116459712Y-50836757D01*
X116055935Y-51106552D01*
X115786140Y-51510329D01*
X115691400Y-51986617D01*
X115648064Y-51986617D01*
X115648064Y-51147400D01*
X115621497Y-51006210D01*
X115538054Y-50876535D01*
X115410734Y-50789541D01*
X115259600Y-50758936D01*
X113532400Y-50758936D01*
X113391210Y-50785503D01*
X113261535Y-50868946D01*
X113174541Y-50996266D01*
X113143936Y-51147400D01*
X102506000Y-51147400D01*
X102506000Y-49446617D01*
X113151400Y-49446617D01*
X113151400Y-49495383D01*
X113246140Y-49971671D01*
X113515935Y-50375448D01*
X113919712Y-50645243D01*
X114396000Y-50739983D01*
X114872288Y-50645243D01*
X115276065Y-50375448D01*
X115545860Y-49971671D01*
X115606623Y-49666192D01*
X115706801Y-49666192D01*
X115875065Y-50121728D01*
X116204847Y-50478197D01*
X116645940Y-50681329D01*
X116740808Y-50700199D01*
X116935500Y-50620350D01*
X116935500Y-49471500D01*
X116936500Y-49471500D01*
X116936500Y-50620350D01*
X117131192Y-50700199D01*
X117226060Y-50681329D01*
X117667153Y-50478197D01*
X117996935Y-50121728D01*
X118165199Y-49666192D01*
X118085350Y-49471500D01*
X116936500Y-49471500D01*
X116935500Y-49471500D01*
X115786650Y-49471500D01*
X115706801Y-49666192D01*
X115606623Y-49666192D01*
X115640600Y-49495383D01*
X115640600Y-49446617D01*
X115606624Y-49275808D01*
X115706801Y-49275808D01*
X115786650Y-49470500D01*
X116935500Y-49470500D01*
X116935500Y-48321650D01*
X116936500Y-48321650D01*
X116936500Y-49470500D01*
X118085350Y-49470500D01*
X118095145Y-49446617D01*
X118231400Y-49446617D01*
X118231400Y-49495383D01*
X118326140Y-49971671D01*
X118595935Y-50375448D01*
X118999712Y-50645243D01*
X119476000Y-50739983D01*
X119952288Y-50645243D01*
X120356065Y-50375448D01*
X120625860Y-49971671D01*
X120720600Y-49495383D01*
X120720600Y-49446617D01*
X120771400Y-49446617D01*
X120771400Y-49495383D01*
X120866140Y-49971671D01*
X121135935Y-50375448D01*
X121539712Y-50645243D01*
X122016000Y-50739983D01*
X122492288Y-50645243D01*
X122896065Y-50375448D01*
X123165860Y-49971671D01*
X123260600Y-49495383D01*
X123260600Y-49446617D01*
X123165860Y-48970329D01*
X122896065Y-48566552D01*
X122492288Y-48296757D01*
X122016000Y-48202017D01*
X121539712Y-48296757D01*
X121135935Y-48566552D01*
X120866140Y-48970329D01*
X120771400Y-49446617D01*
X120720600Y-49446617D01*
X120625860Y-48970329D01*
X120356065Y-48566552D01*
X119952288Y-48296757D01*
X119476000Y-48202017D01*
X118999712Y-48296757D01*
X118595935Y-48566552D01*
X118326140Y-48970329D01*
X118231400Y-49446617D01*
X118095145Y-49446617D01*
X118165199Y-49275808D01*
X117996935Y-48820272D01*
X117667153Y-48463803D01*
X117226060Y-48260671D01*
X117131192Y-48241801D01*
X116936500Y-48321650D01*
X116935500Y-48321650D01*
X116740808Y-48241801D01*
X116645940Y-48260671D01*
X116204847Y-48463803D01*
X115875065Y-48820272D01*
X115706801Y-49275808D01*
X115606624Y-49275808D01*
X115545860Y-48970329D01*
X115276065Y-48566552D01*
X114872288Y-48296757D01*
X114396000Y-48202017D01*
X113919712Y-48296757D01*
X113515935Y-48566552D01*
X113246140Y-48970329D01*
X113151400Y-49446617D01*
X102506000Y-49446617D01*
X102506000Y-45214669D01*
X102639823Y-45159375D01*
X102851159Y-44948407D01*
X103752300Y-44948407D01*
X103822595Y-45133218D01*
X104231287Y-45321412D01*
X104680887Y-45338881D01*
X105102949Y-45182966D01*
X105177405Y-45133218D01*
X105247700Y-44948407D01*
X104500000Y-44200707D01*
X103752300Y-44948407D01*
X102851159Y-44948407D01*
X102958256Y-44841497D01*
X103130804Y-44425957D01*
X103130843Y-44380887D01*
X103361119Y-44380887D01*
X103517034Y-44802949D01*
X103566782Y-44877405D01*
X103751593Y-44947700D01*
X104499293Y-44200000D01*
X104500707Y-44200000D01*
X105248407Y-44947700D01*
X105433218Y-44877405D01*
X105621412Y-44468713D01*
X105638881Y-44019113D01*
X105482966Y-43597051D01*
X105433218Y-43522595D01*
X105248407Y-43452300D01*
X104500707Y-44200000D01*
X104499293Y-44200000D01*
X103751593Y-43452300D01*
X103566782Y-43522595D01*
X103378588Y-43931287D01*
X103361119Y-44380887D01*
X103130843Y-44380887D01*
X103131196Y-43976017D01*
X102959375Y-43560177D01*
X102850981Y-43451593D01*
X103752300Y-43451593D01*
X104500000Y-44199293D01*
X105247700Y-43451593D01*
X105177405Y-43266782D01*
X104768713Y-43078588D01*
X104319113Y-43061119D01*
X103897051Y-43217034D01*
X103822595Y-43266782D01*
X103752300Y-43451593D01*
X102850981Y-43451593D01*
X102641497Y-43241744D01*
X102225957Y-43069196D01*
X101776017Y-43068804D01*
X101360177Y-43240625D01*
X101041744Y-43558503D01*
X100869196Y-43974043D01*
X100868804Y-44423983D01*
X100630805Y-44423983D01*
X100631196Y-43976017D01*
X100459375Y-43560177D01*
X100141497Y-43241744D01*
X99725957Y-43069196D01*
X99276017Y-43068804D01*
X98860177Y-43240625D01*
X98541744Y-43558503D01*
X98369196Y-43974043D01*
X98368804Y-44423983D01*
X98138464Y-44423983D01*
X98138464Y-43450000D01*
X98111897Y-43308810D01*
X98028454Y-43179135D01*
X97901134Y-43092141D01*
X97750000Y-43061536D01*
X96250000Y-43061536D01*
X96108810Y-43088103D01*
X95979135Y-43171546D01*
X95892141Y-43298866D01*
X95861536Y-43450000D01*
X91564877Y-43450000D01*
X91560407Y-43448300D01*
X90812707Y-44196000D01*
X90811293Y-44196000D01*
X90063593Y-43448300D01*
X89878782Y-43518595D01*
X89690588Y-43927287D01*
X89673119Y-44376887D01*
X89442843Y-44376887D01*
X89443196Y-43972017D01*
X89271375Y-43556177D01*
X89162981Y-43447593D01*
X90064300Y-43447593D01*
X90812000Y-44195293D01*
X91559700Y-43447593D01*
X91489405Y-43262782D01*
X91080713Y-43074588D01*
X90631113Y-43057119D01*
X90209051Y-43213034D01*
X90134595Y-43262782D01*
X90064300Y-43447593D01*
X89162981Y-43447593D01*
X88953497Y-43237744D01*
X88537957Y-43065196D01*
X88088017Y-43064804D01*
X87672177Y-43236625D01*
X87353744Y-43554503D01*
X87181196Y-43970043D01*
X87180804Y-44419983D01*
X86942805Y-44419983D01*
X86943196Y-43972017D01*
X86771375Y-43556177D01*
X86453497Y-43237744D01*
X86037957Y-43065196D01*
X85588017Y-43064804D01*
X85172177Y-43236625D01*
X84853744Y-43554503D01*
X84681196Y-43970043D01*
X84680804Y-44419983D01*
X84442805Y-44419983D01*
X84443196Y-43972017D01*
X84271375Y-43556177D01*
X83953497Y-43237744D01*
X83537957Y-43065196D01*
X83088017Y-43064804D01*
X82672177Y-43236625D01*
X82353744Y-43554503D01*
X82181196Y-43970043D01*
X82180804Y-44419983D01*
X81942805Y-44419983D01*
X81943196Y-43972017D01*
X81771375Y-43556177D01*
X81453497Y-43237744D01*
X81037957Y-43065196D01*
X80588017Y-43064804D01*
X80172177Y-43236625D01*
X79853744Y-43554503D01*
X79681196Y-43970043D01*
X79680804Y-44419983D01*
X79450464Y-44419983D01*
X79450464Y-43446000D01*
X79423897Y-43304810D01*
X79340454Y-43175135D01*
X79213134Y-43088141D01*
X79062000Y-43057536D01*
X77562000Y-43057536D01*
X77420810Y-43084103D01*
X77291135Y-43167546D01*
X77204141Y-43294866D01*
X77173536Y-43446000D01*
X75629655Y-43446000D01*
X75627173Y-41627000D01*
X124373000Y-41627000D01*
X124373000Y-140373000D01*
X124373000Y-140373000D01*
G37*
X124373000Y-140373000D02*
X100626894Y-140373000D01*
X100623257Y-136029000D01*
X101350536Y-136029000D01*
X101350536Y-137529000D01*
X101377103Y-137670190D01*
X101460546Y-137799865D01*
X101587866Y-137886859D01*
X101739000Y-137917464D01*
X103239000Y-137917464D01*
X103380190Y-137890897D01*
X103509865Y-137807454D01*
X103596859Y-137680134D01*
X103627464Y-137529000D01*
X103627464Y-137002983D01*
X103857804Y-137002983D01*
X104029625Y-137418823D01*
X104347503Y-137737256D01*
X104763043Y-137909804D01*
X105212983Y-137910196D01*
X105628823Y-137738375D01*
X105947256Y-137420497D01*
X106119804Y-137004957D01*
X106120196Y-136555017D01*
X105948375Y-136139177D01*
X105630497Y-135820744D01*
X105214957Y-135648196D01*
X104765017Y-135647804D01*
X104349177Y-135819625D01*
X104030744Y-136137503D01*
X103858196Y-136553043D01*
X103857804Y-137002983D01*
X103627464Y-137002983D01*
X103627464Y-136029000D01*
X103600897Y-135887810D01*
X103517454Y-135758135D01*
X103390134Y-135671141D01*
X103239000Y-135640536D01*
X101739000Y-135640536D01*
X101597810Y-135667103D01*
X101468135Y-135750546D01*
X101381141Y-135877866D01*
X101350536Y-136029000D01*
X100623257Y-136029000D01*
X100618970Y-130909200D01*
X103124496Y-130909200D01*
X103219236Y-131385488D01*
X103489031Y-131789265D01*
X103892808Y-132059060D01*
X104369096Y-132153800D01*
X104950904Y-132153800D01*
X105427192Y-132059060D01*
X105830969Y-131789265D01*
X106100764Y-131385488D01*
X106156677Y-131104392D01*
X118409401Y-131104392D01*
X118488548Y-131385025D01*
X118758181Y-131788911D01*
X119161850Y-132058869D01*
X119638100Y-132153800D01*
X119899500Y-132153800D01*
X119899500Y-130909700D01*
X119900500Y-130909700D01*
X119900500Y-132153800D01*
X120161900Y-132153800D01*
X120638150Y-132058869D01*
X121041819Y-131788911D01*
X121311452Y-131385025D01*
X121390599Y-131104392D01*
X121310750Y-130909700D01*
X119900500Y-130909700D01*
X119899500Y-130909700D01*
X118489250Y-130909700D01*
X118409401Y-131104392D01*
X106156677Y-131104392D01*
X106195504Y-130909200D01*
X106156678Y-130714008D01*
X118409401Y-130714008D01*
X118489250Y-130908700D01*
X119899500Y-130908700D01*
X119899500Y-129664600D01*
X119900500Y-129664600D01*
X119900500Y-130908700D01*
X121310750Y-130908700D01*
X121390599Y-130714008D01*
X121311452Y-130433375D01*
X121041819Y-130029489D01*
X120638150Y-129759531D01*
X120161900Y-129664600D01*
X119900500Y-129664600D01*
X119899500Y-129664600D01*
X119638100Y-129664600D01*
X119161850Y-129759531D01*
X118758181Y-130029489D01*
X118488548Y-130433375D01*
X118409401Y-130714008D01*
X106156678Y-130714008D01*
X106100764Y-130432912D01*
X105830969Y-130029135D01*
X105427192Y-129759340D01*
X104950904Y-129664600D01*
X104369096Y-129664600D01*
X103892808Y-129759340D01*
X103489031Y-130029135D01*
X103219236Y-130432912D01*
X103124496Y-130909200D01*
X100618970Y-130909200D01*
X100616843Y-128369200D01*
X103124496Y-128369200D01*
X103219236Y-128845488D01*
X103489031Y-129249265D01*
X103892808Y-129519060D01*
X104369096Y-129613800D01*
X104950904Y-129613800D01*
X105427192Y-129519060D01*
X105830969Y-129249265D01*
X106100764Y-128845488D01*
X106156677Y-128564392D01*
X118409401Y-128564392D01*
X118488548Y-128845025D01*
X118758181Y-129248911D01*
X119161850Y-129518869D01*
X119638100Y-129613800D01*
X119899500Y-129613800D01*
X119899500Y-128369700D01*
X119900500Y-128369700D01*
X119900500Y-129613800D01*
X120161900Y-129613800D01*
X120638150Y-129518869D01*
X121041819Y-129248911D01*
X121311452Y-128845025D01*
X121390599Y-128564392D01*
X121310750Y-128369700D01*
X119900500Y-128369700D01*
X119899500Y-128369700D01*
X118489250Y-128369700D01*
X118409401Y-128564392D01*
X106156677Y-128564392D01*
X106195504Y-128369200D01*
X106156678Y-128174008D01*
X118409401Y-128174008D01*
X118489250Y-128368700D01*
X119899500Y-128368700D01*
X119899500Y-127124600D01*
X119900500Y-127124600D01*
X119900500Y-128368700D01*
X121310750Y-128368700D01*
X121390599Y-128174008D01*
X121311452Y-127893375D01*
X121041819Y-127489489D01*
X120638150Y-127219531D01*
X120161900Y-127124600D01*
X119900500Y-127124600D01*
X119899500Y-127124600D01*
X119638100Y-127124600D01*
X119161850Y-127219531D01*
X118758181Y-127489489D01*
X118488548Y-127893375D01*
X118409401Y-128174008D01*
X106156678Y-128174008D01*
X106100764Y-127892912D01*
X105830969Y-127489135D01*
X105427192Y-127219340D01*
X104950904Y-127124600D01*
X104369096Y-127124600D01*
X103892808Y-127219340D01*
X103489031Y-127489135D01*
X103219236Y-127892912D01*
X103124496Y-128369200D01*
X100616843Y-128369200D01*
X100614716Y-125829200D01*
X103124496Y-125829200D01*
X103219236Y-126305488D01*
X103489031Y-126709265D01*
X103892808Y-126979060D01*
X104369096Y-127073800D01*
X104950904Y-127073800D01*
X105427192Y-126979060D01*
X105830969Y-126709265D01*
X106100764Y-126305488D01*
X106195504Y-125829200D01*
X106100764Y-125352912D01*
X105860339Y-124993089D01*
X106465578Y-124993089D01*
X106660188Y-125464080D01*
X107020225Y-125824745D01*
X107490876Y-126020177D01*
X108000489Y-126020622D01*
X108471480Y-125826012D01*
X108832145Y-125465975D01*
X109027577Y-124995324D01*
X109027578Y-124993089D01*
X115609578Y-124993089D01*
X115804188Y-125464080D01*
X116164225Y-125824745D01*
X116634876Y-126020177D01*
X117144489Y-126020622D01*
X117607764Y-125829200D01*
X118364496Y-125829200D01*
X118459236Y-126305488D01*
X118729031Y-126709265D01*
X119132808Y-126979060D01*
X119609096Y-127073800D01*
X120190904Y-127073800D01*
X120667192Y-126979060D01*
X121070969Y-126709265D01*
X121340764Y-126305488D01*
X121435504Y-125829200D01*
X121340764Y-125352912D01*
X121070969Y-124949135D01*
X120667192Y-124679340D01*
X120190904Y-124584600D01*
X119609096Y-124584600D01*
X119132808Y-124679340D01*
X118729031Y-124949135D01*
X118459236Y-125352912D01*
X118364496Y-125829200D01*
X117607764Y-125829200D01*
X117615480Y-125826012D01*
X117976145Y-125465975D01*
X118171577Y-124995324D01*
X118172022Y-124485711D01*
X117977412Y-124014720D01*
X117617375Y-123654055D01*
X117146724Y-123458623D01*
X116637111Y-123458178D01*
X116166120Y-123652788D01*
X115805455Y-124012825D01*
X115610023Y-124483476D01*
X115609578Y-124993089D01*
X109027578Y-124993089D01*
X109028022Y-124485711D01*
X108833412Y-124014720D01*
X108473375Y-123654055D01*
X108002724Y-123458623D01*
X107493111Y-123458178D01*
X107022120Y-123652788D01*
X106661455Y-124012825D01*
X106466023Y-124483476D01*
X106465578Y-124993089D01*
X105860339Y-124993089D01*
X105830969Y-124949135D01*
X105427192Y-124679340D01*
X104950904Y-124584600D01*
X104369096Y-124584600D01*
X103892808Y-124679340D01*
X103489031Y-124949135D01*
X103219236Y-125352912D01*
X103124496Y-125829200D01*
X100614716Y-125829200D01*
X100612589Y-123289200D01*
X103124496Y-123289200D01*
X103219236Y-123765488D01*
X103489031Y-124169265D01*
X103892808Y-124439060D01*
X104369096Y-124533800D01*
X104950904Y-124533800D01*
X105427192Y-124439060D01*
X105830969Y-124169265D01*
X106100764Y-123765488D01*
X106195504Y-123289200D01*
X118364496Y-123289200D01*
X118459236Y-123765488D01*
X118729031Y-124169265D01*
X119132808Y-124439060D01*
X119609096Y-124533800D01*
X120190904Y-124533800D01*
X120667192Y-124439060D01*
X121070969Y-124169265D01*
X121340764Y-123765488D01*
X121435504Y-123289200D01*
X121340764Y-122812912D01*
X121070969Y-122409135D01*
X120667192Y-122139340D01*
X120190904Y-122044600D01*
X119609096Y-122044600D01*
X119132808Y-122139340D01*
X118729031Y-122409135D01*
X118459236Y-122812912D01*
X118364496Y-123289200D01*
X106195504Y-123289200D01*
X106100764Y-122812912D01*
X105830969Y-122409135D01*
X105427192Y-122139340D01*
X104950904Y-122044600D01*
X104369096Y-122044600D01*
X103892808Y-122139340D01*
X103489031Y-122409135D01*
X103219236Y-122812912D01*
X103124496Y-123289200D01*
X100612589Y-123289200D01*
X100610462Y-120749200D01*
X103124496Y-120749200D01*
X103219236Y-121225488D01*
X103489031Y-121629265D01*
X103892808Y-121899060D01*
X104369096Y-121993800D01*
X104950904Y-121993800D01*
X105427192Y-121899060D01*
X105830969Y-121629265D01*
X106100764Y-121225488D01*
X106195504Y-120749200D01*
X118364496Y-120749200D01*
X118459236Y-121225488D01*
X118729031Y-121629265D01*
X119132808Y-121899060D01*
X119609096Y-121993800D01*
X120190904Y-121993800D01*
X120667192Y-121899060D01*
X121070969Y-121629265D01*
X121340764Y-121225488D01*
X121435504Y-120749200D01*
X121340764Y-120272912D01*
X121070969Y-119869135D01*
X120667192Y-119599340D01*
X120190904Y-119504600D01*
X119609096Y-119504600D01*
X119132808Y-119599340D01*
X118729031Y-119869135D01*
X118459236Y-120272912D01*
X118364496Y-120749200D01*
X106195504Y-120749200D01*
X106100764Y-120272912D01*
X105830969Y-119869135D01*
X105427192Y-119599340D01*
X104950904Y-119504600D01*
X104369096Y-119504600D01*
X103892808Y-119599340D01*
X103489031Y-119869135D01*
X103219236Y-120272912D01*
X103124496Y-120749200D01*
X100610462Y-120749200D01*
X100608335Y-118209200D01*
X103124496Y-118209200D01*
X103219236Y-118685488D01*
X103489031Y-119089265D01*
X103892808Y-119359060D01*
X104369096Y-119453800D01*
X104950904Y-119453800D01*
X105427192Y-119359060D01*
X105830969Y-119089265D01*
X106100764Y-118685488D01*
X106195504Y-118209200D01*
X118364496Y-118209200D01*
X118459236Y-118685488D01*
X118729031Y-119089265D01*
X119132808Y-119359060D01*
X119609096Y-119453800D01*
X120190904Y-119453800D01*
X120667192Y-119359060D01*
X121070969Y-119089265D01*
X121340764Y-118685488D01*
X121435504Y-118209200D01*
X121340764Y-117732912D01*
X121070969Y-117329135D01*
X120667192Y-117059340D01*
X120190904Y-116964600D01*
X119609096Y-116964600D01*
X119132808Y-117059340D01*
X118729031Y-117329135D01*
X118459236Y-117732912D01*
X118364496Y-118209200D01*
X106195504Y-118209200D01*
X106100764Y-117732912D01*
X105830969Y-117329135D01*
X105427192Y-117059340D01*
X104950904Y-116964600D01*
X104369096Y-116964600D01*
X103892808Y-117059340D01*
X103489031Y-117329135D01*
X103219236Y-117732912D01*
X103124496Y-118209200D01*
X100608335Y-118209200D01*
X100606208Y-115669200D01*
X103124496Y-115669200D01*
X103219236Y-116145488D01*
X103489031Y-116549265D01*
X103892808Y-116819060D01*
X104369096Y-116913800D01*
X104950904Y-116913800D01*
X105427192Y-116819060D01*
X105830969Y-116549265D01*
X106100764Y-116145488D01*
X106195504Y-115669200D01*
X106100764Y-115192912D01*
X105830969Y-114789135D01*
X105427192Y-114519340D01*
X104950904Y-114424600D01*
X104369096Y-114424600D01*
X103892808Y-114519340D01*
X103489031Y-114789135D01*
X103219236Y-115192912D01*
X103124496Y-115669200D01*
X100606208Y-115669200D01*
X100604081Y-113129200D01*
X103124496Y-113129200D01*
X103219236Y-113605488D01*
X103489031Y-114009265D01*
X103892808Y-114279060D01*
X104369096Y-114373800D01*
X104950904Y-114373800D01*
X105427192Y-114279060D01*
X105830969Y-114009265D01*
X106100764Y-113605488D01*
X106195504Y-113129200D01*
X106100764Y-112652912D01*
X105830969Y-112249135D01*
X105427192Y-111979340D01*
X104950904Y-111884600D01*
X104369096Y-111884600D01*
X103892808Y-111979340D01*
X103489031Y-112249135D01*
X103219236Y-112652912D01*
X103124496Y-113129200D01*
X100604081Y-113129200D01*
X100601954Y-110589200D01*
X103124496Y-110589200D01*
X103219236Y-111065488D01*
X103489031Y-111469265D01*
X103892808Y-111739060D01*
X104369096Y-111833800D01*
X104950904Y-111833800D01*
X105427192Y-111739060D01*
X105830969Y-111469265D01*
X106100764Y-111065488D01*
X106195504Y-110589200D01*
X106149108Y-110355951D01*
X106890956Y-110355951D01*
X106979500Y-110556348D01*
X107442384Y-110769526D01*
X107951612Y-110789338D01*
X108429660Y-110612769D01*
X108514100Y-110556348D01*
X108602644Y-110355951D01*
X107746800Y-109500107D01*
X106890956Y-110355951D01*
X106149108Y-110355951D01*
X106100764Y-110112912D01*
X105830969Y-109709135D01*
X105823602Y-109704212D01*
X106456862Y-109704212D01*
X106633431Y-110182260D01*
X106689852Y-110266700D01*
X106890249Y-110355244D01*
X107746093Y-109499400D01*
X107747507Y-109499400D01*
X108603351Y-110355244D01*
X108803748Y-110266700D01*
X109016926Y-109803816D01*
X109036738Y-109294588D01*
X108860169Y-108816540D01*
X108803748Y-108732100D01*
X108603351Y-108643556D01*
X107747507Y-109499400D01*
X107746093Y-109499400D01*
X106890249Y-108643556D01*
X106689852Y-108732100D01*
X106476674Y-109194984D01*
X106456862Y-109704212D01*
X105823602Y-109704212D01*
X105427192Y-109439340D01*
X104950904Y-109344600D01*
X104369096Y-109344600D01*
X103892808Y-109439340D01*
X103489031Y-109709135D01*
X103219236Y-110112912D01*
X103124496Y-110589200D01*
X100601954Y-110589200D01*
X100599827Y-108049200D01*
X103124496Y-108049200D01*
X103219236Y-108525488D01*
X103489031Y-108929265D01*
X103892808Y-109199060D01*
X104369096Y-109293800D01*
X104950904Y-109293800D01*
X105427192Y-109199060D01*
X105830969Y-108929265D01*
X106022345Y-108642849D01*
X106890956Y-108642849D01*
X107746800Y-109498693D01*
X108602644Y-108642849D01*
X108514100Y-108442452D01*
X108051216Y-108229274D01*
X107541988Y-108209462D01*
X107063940Y-108386031D01*
X106979500Y-108442452D01*
X106890956Y-108642849D01*
X106022345Y-108642849D01*
X106100764Y-108525488D01*
X106195504Y-108049200D01*
X106100764Y-107572912D01*
X105830969Y-107169135D01*
X105427192Y-106899340D01*
X104950904Y-106804600D01*
X104369096Y-106804600D01*
X103892808Y-106899340D01*
X103489031Y-107169135D01*
X103219236Y-107572912D01*
X103124496Y-108049200D01*
X100599827Y-108049200D01*
X100597700Y-105509200D01*
X103124496Y-105509200D01*
X103219236Y-105985488D01*
X103489031Y-106389265D01*
X103892808Y-106659060D01*
X104369096Y-106753800D01*
X104950904Y-106753800D01*
X105427192Y-106659060D01*
X105830969Y-106389265D01*
X106100764Y-105985488D01*
X106195504Y-105509200D01*
X106100764Y-105032912D01*
X105830969Y-104629135D01*
X105427192Y-104359340D01*
X104950904Y-104264600D01*
X104369096Y-104264600D01*
X103892808Y-104359340D01*
X103489031Y-104629135D01*
X103219236Y-105032912D01*
X103124496Y-105509200D01*
X100597700Y-105509200D01*
X100595573Y-102969200D01*
X103124496Y-102969200D01*
X103219236Y-103445488D01*
X103489031Y-103849265D01*
X103892808Y-104119060D01*
X104369096Y-104213800D01*
X104950904Y-104213800D01*
X105427192Y-104119060D01*
X105830969Y-103849265D01*
X106100764Y-103445488D01*
X106195504Y-102969200D01*
X106100764Y-102492912D01*
X105830969Y-102089135D01*
X105427192Y-101819340D01*
X104950904Y-101724600D01*
X104369096Y-101724600D01*
X103892808Y-101819340D01*
X103489031Y-102089135D01*
X103219236Y-102492912D01*
X103124496Y-102969200D01*
X100595573Y-102969200D01*
X100593446Y-100429200D01*
X103124496Y-100429200D01*
X103219236Y-100905488D01*
X103489031Y-101309265D01*
X103892808Y-101579060D01*
X104369096Y-101673800D01*
X104950904Y-101673800D01*
X105427192Y-101579060D01*
X105830969Y-101309265D01*
X106100764Y-100905488D01*
X106195504Y-100429200D01*
X106100764Y-99952912D01*
X105830969Y-99549135D01*
X105427192Y-99279340D01*
X104950904Y-99184600D01*
X104369096Y-99184600D01*
X103892808Y-99279340D01*
X103489031Y-99549135D01*
X103219236Y-99952912D01*
X103124496Y-100429200D01*
X100593446Y-100429200D01*
X100591319Y-97889200D01*
X103124496Y-97889200D01*
X103219236Y-98365488D01*
X103489031Y-98769265D01*
X103892808Y-99039060D01*
X104369096Y-99133800D01*
X104950904Y-99133800D01*
X105427192Y-99039060D01*
X105830969Y-98769265D01*
X106100764Y-98365488D01*
X106195504Y-97889200D01*
X106100764Y-97412912D01*
X105830969Y-97009135D01*
X105427192Y-96739340D01*
X104950904Y-96644600D01*
X104369096Y-96644600D01*
X103892808Y-96739340D01*
X103489031Y-97009135D01*
X103219236Y-97412912D01*
X103124496Y-97889200D01*
X100591319Y-97889200D01*
X100589191Y-95349200D01*
X103124496Y-95349200D01*
X103219236Y-95825488D01*
X103489031Y-96229265D01*
X103892808Y-96499060D01*
X104369096Y-96593800D01*
X104950904Y-96593800D01*
X105427192Y-96499060D01*
X105830969Y-96229265D01*
X106100764Y-95825488D01*
X106195504Y-95349200D01*
X106100764Y-94872912D01*
X105830969Y-94469135D01*
X105427192Y-94199340D01*
X104950904Y-94104600D01*
X104369096Y-94104600D01*
X103892808Y-94199340D01*
X103489031Y-94469135D01*
X103219236Y-94872912D01*
X103124496Y-95349200D01*
X100589191Y-95349200D01*
X100587063Y-92809200D01*
X103124496Y-92809200D01*
X103219236Y-93285488D01*
X103489031Y-93689265D01*
X103892808Y-93959060D01*
X104369096Y-94053800D01*
X104950904Y-94053800D01*
X105427192Y-93959060D01*
X105830969Y-93689265D01*
X106100764Y-93285488D01*
X106195504Y-92809200D01*
X106100764Y-92332912D01*
X105830969Y-91929135D01*
X105427192Y-91659340D01*
X104950904Y-91564600D01*
X104369096Y-91564600D01*
X103892808Y-91659340D01*
X103489031Y-91929135D01*
X103219236Y-92332912D01*
X103124496Y-92809200D01*
X100587063Y-92809200D01*
X100584935Y-90269200D01*
X103124496Y-90269200D01*
X103219236Y-90745488D01*
X103489031Y-91149265D01*
X103892808Y-91419060D01*
X104369096Y-91513800D01*
X104950904Y-91513800D01*
X105427192Y-91419060D01*
X105830969Y-91149265D01*
X106100764Y-90745488D01*
X106195504Y-90269200D01*
X106100764Y-89792912D01*
X105830969Y-89389135D01*
X105427192Y-89119340D01*
X104950904Y-89024600D01*
X104369096Y-89024600D01*
X103892808Y-89119340D01*
X103489031Y-89389135D01*
X103219236Y-89792912D01*
X103124496Y-90269200D01*
X100584935Y-90269200D01*
X100584000Y-89153894D01*
X100573953Y-89104492D01*
X100545477Y-89062891D01*
X100503060Y-89035647D01*
X100457000Y-89027000D01*
X99571368Y-89027000D01*
X100238168Y-88360200D01*
X103322611Y-88360200D01*
X103489031Y-88609265D01*
X103892808Y-88879060D01*
X104369096Y-88973800D01*
X104950904Y-88973800D01*
X105427192Y-88879060D01*
X105830969Y-88609265D01*
X105997389Y-88360200D01*
X106023632Y-88360200D01*
X106557000Y-88893568D01*
X106557000Y-96520000D01*
X106605032Y-96761473D01*
X106741816Y-96966184D01*
X108973667Y-99198036D01*
X109023339Y-99318252D01*
X109214741Y-99509987D01*
X109464946Y-99613882D01*
X109735865Y-99614118D01*
X109986252Y-99510661D01*
X110177987Y-99319259D01*
X110281882Y-99069054D01*
X110282118Y-98798135D01*
X110178661Y-98547748D01*
X109987259Y-98356013D01*
X109866052Y-98305683D01*
X107819000Y-96258632D01*
X107819000Y-88632200D01*
X107770968Y-88390727D01*
X107634184Y-88186016D01*
X106731184Y-87283016D01*
X106526473Y-87146232D01*
X106285000Y-87098200D01*
X105997389Y-87098200D01*
X105830969Y-86849135D01*
X105427192Y-86579340D01*
X104950904Y-86484600D01*
X104369096Y-86484600D01*
X103892808Y-86579340D01*
X103489031Y-86849135D01*
X103322611Y-87098200D01*
X99976800Y-87098200D01*
X99735327Y-87146232D01*
X99530616Y-87283016D01*
X97786632Y-89027000D01*
X75691827Y-89027000D01*
X75686948Y-85450000D01*
X77361536Y-85450000D01*
X77361536Y-86950000D01*
X77388103Y-87091190D01*
X77471546Y-87220865D01*
X77598866Y-87307859D01*
X77750000Y-87338464D01*
X79250000Y-87338464D01*
X79391190Y-87311897D01*
X79520865Y-87228454D01*
X79607859Y-87101134D01*
X79638464Y-86950000D01*
X79638464Y-85450000D01*
X84361536Y-85450000D01*
X84361536Y-86950000D01*
X84388103Y-87091190D01*
X84471546Y-87220865D01*
X84598866Y-87307859D01*
X84750000Y-87338464D01*
X86250000Y-87338464D01*
X86391190Y-87311897D01*
X86520865Y-87228454D01*
X86607859Y-87101134D01*
X86638464Y-86950000D01*
X86638464Y-85450000D01*
X86611897Y-85308810D01*
X86528454Y-85179135D01*
X86401134Y-85092141D01*
X86250000Y-85061536D01*
X84750000Y-85061536D01*
X84608810Y-85088103D01*
X84479135Y-85171546D01*
X84392141Y-85298866D01*
X84361536Y-85450000D01*
X79638464Y-85450000D01*
X79611897Y-85308810D01*
X79528454Y-85179135D01*
X79401134Y-85092141D01*
X79250000Y-85061536D01*
X77750000Y-85061536D01*
X77608810Y-85088103D01*
X77479135Y-85171546D01*
X77392141Y-85298866D01*
X77361536Y-85450000D01*
X75686948Y-85450000D01*
X75668436Y-71877421D01*
X78233003Y-71877421D01*
X78304901Y-72132353D01*
X78549909Y-72499384D01*
X78916723Y-72744716D01*
X79349500Y-72831000D01*
X80099500Y-72831000D01*
X80099500Y-71700500D01*
X78314250Y-71700500D01*
X78233003Y-71877421D01*
X75668436Y-71877421D01*
X75667952Y-71522579D01*
X78233003Y-71522579D01*
X78314250Y-71699500D01*
X80099500Y-71699500D01*
X80099500Y-70569000D01*
X79349500Y-70569000D01*
X78916723Y-70655284D01*
X78549909Y-70900616D01*
X78304901Y-71267647D01*
X78233003Y-71522579D01*
X75667952Y-71522579D01*
X75664967Y-69334865D01*
X76918882Y-69334865D01*
X77022339Y-69585252D01*
X77213741Y-69776987D01*
X77463946Y-69880882D01*
X77734865Y-69881118D01*
X77985252Y-69777661D01*
X78057038Y-69706000D01*
X78343869Y-69706000D01*
X78513411Y-69959738D01*
X78880334Y-70204908D01*
X79313149Y-70291000D01*
X80886851Y-70291000D01*
X81319666Y-70204908D01*
X81686589Y-69959738D01*
X81844000Y-69724156D01*
X81844000Y-71191099D01*
X81650091Y-70900616D01*
X81283277Y-70655284D01*
X80850500Y-70569000D01*
X80100500Y-70569000D01*
X80100500Y-71699500D01*
X80120500Y-71699500D01*
X80120500Y-71700500D01*
X80100500Y-71700500D01*
X80100500Y-72831000D01*
X80850500Y-72831000D01*
X81283277Y-72744716D01*
X81650091Y-72499384D01*
X81844000Y-72208901D01*
X81844000Y-74700000D01*
X81878711Y-74874504D01*
X81977559Y-75022441D01*
X82125496Y-75121289D01*
X82300000Y-75156000D01*
X112576800Y-75156000D01*
X112576800Y-75285600D01*
X112623639Y-75521077D01*
X112624832Y-75527073D01*
X112761616Y-75731784D01*
X114887056Y-77857224D01*
X115091767Y-77994008D01*
X115333240Y-78042040D01*
X117443208Y-78042040D01*
X119269000Y-79867833D01*
X119269000Y-81397136D01*
X118775000Y-81397136D01*
X118633810Y-81423703D01*
X118504135Y-81507146D01*
X118417141Y-81634466D01*
X118386536Y-81785600D01*
X118386536Y-82018200D01*
X117920833Y-82018200D01*
X117944022Y-81962356D01*
X117944258Y-81691437D01*
X117935921Y-81671260D01*
X118038052Y-81629061D01*
X118229787Y-81437659D01*
X118333682Y-81187454D01*
X118333918Y-80916535D01*
X118230461Y-80666148D01*
X118039059Y-80474413D01*
X117788854Y-80370518D01*
X117517935Y-80370282D01*
X117267548Y-80473739D01*
X117195762Y-80545400D01*
X117038443Y-80545400D01*
X117038518Y-80459335D01*
X116935061Y-80208948D01*
X116743659Y-80017213D01*
X116493454Y-79913318D01*
X116222535Y-79913082D01*
X115972148Y-80016539D01*
X115900362Y-80088200D01*
X115754192Y-80088200D01*
X111508196Y-75842204D01*
X111344038Y-75732517D01*
X111150400Y-75694000D01*
X86000000Y-75694000D01*
X85806362Y-75732517D01*
X85642204Y-75842204D01*
X78859684Y-82624724D01*
X78725957Y-82569196D01*
X78276017Y-82568804D01*
X77860177Y-82740625D01*
X77541744Y-83058503D01*
X77369196Y-83474043D01*
X77368804Y-83923983D01*
X77540625Y-84339823D01*
X77858503Y-84658256D01*
X78274043Y-84830804D01*
X78723983Y-84831196D01*
X79139823Y-84659375D01*
X79458256Y-84341497D01*
X79630804Y-83925957D01*
X79631196Y-83476017D01*
X79575170Y-83340422D01*
X86209592Y-76706000D01*
X91778408Y-76706000D01*
X85859684Y-82624724D01*
X85725957Y-82569196D01*
X85276017Y-82568804D01*
X84860177Y-82740625D01*
X84541744Y-83058503D01*
X84369196Y-83474043D01*
X84368804Y-83923983D01*
X84540625Y-84339823D01*
X84858503Y-84658256D01*
X85274043Y-84830804D01*
X85723983Y-84831196D01*
X86139823Y-84659375D01*
X86458256Y-84341497D01*
X86630804Y-83925957D01*
X86631196Y-83476017D01*
X86575170Y-83340422D01*
X92759582Y-77156010D01*
X98428398Y-77156010D01*
X92959684Y-82624724D01*
X92825957Y-82569196D01*
X92376017Y-82568804D01*
X91960177Y-82740625D01*
X91641744Y-83058503D01*
X91469196Y-83474043D01*
X91468804Y-83923983D01*
X91640625Y-84339823D01*
X91958503Y-84658256D01*
X92374043Y-84830804D01*
X92823983Y-84831196D01*
X93239823Y-84659375D01*
X93558256Y-84341497D01*
X93730804Y-83925957D01*
X93731196Y-83476017D01*
X93675170Y-83340422D01*
X99409572Y-77606020D01*
X101551611Y-77606020D01*
X93733581Y-85424051D01*
X93711897Y-85308810D01*
X93628454Y-85179135D01*
X93501134Y-85092141D01*
X93350000Y-85061536D01*
X91850000Y-85061536D01*
X91708810Y-85088103D01*
X91579135Y-85171546D01*
X91492141Y-85298866D01*
X91461536Y-85450000D01*
X91461536Y-86950000D01*
X91488103Y-87091190D01*
X91571546Y-87220865D01*
X91698866Y-87307859D01*
X91850000Y-87338464D01*
X93350000Y-87338464D01*
X93491190Y-87311897D01*
X93620865Y-87228454D01*
X93707859Y-87101134D01*
X93738464Y-86950000D01*
X93738464Y-86831000D01*
X93850000Y-86831000D01*
X94091473Y-86782968D01*
X94296184Y-86646184D01*
X95557976Y-85384392D01*
X103169401Y-85384392D01*
X103248548Y-85665025D01*
X103518181Y-86068911D01*
X103921850Y-86338869D01*
X104398100Y-86433800D01*
X104659500Y-86433800D01*
X104659500Y-85189700D01*
X104660500Y-85189700D01*
X104660500Y-86433800D01*
X104921900Y-86433800D01*
X105398150Y-86338869D01*
X105801819Y-86068911D01*
X106071452Y-85665025D01*
X106150599Y-85384392D01*
X106070750Y-85189700D01*
X104660500Y-85189700D01*
X104659500Y-85189700D01*
X103249250Y-85189700D01*
X103169401Y-85384392D01*
X95557976Y-85384392D01*
X95948360Y-84994008D01*
X103169401Y-84994008D01*
X103249250Y-85188700D01*
X104659500Y-85188700D01*
X104659500Y-83944600D01*
X104660500Y-83944600D01*
X104660500Y-85188700D01*
X106070750Y-85188700D01*
X106150599Y-84994008D01*
X106071452Y-84713375D01*
X105801819Y-84309489D01*
X105398150Y-84039531D01*
X104921900Y-83944600D01*
X104660500Y-83944600D01*
X104659500Y-83944600D01*
X104398100Y-83944600D01*
X103921850Y-84039531D01*
X103518181Y-84309489D01*
X103248548Y-84713375D01*
X103169401Y-84994008D01*
X95948360Y-84994008D01*
X98343968Y-82598400D01*
X103124496Y-82598400D01*
X103219236Y-83074688D01*
X103489031Y-83478465D01*
X103892808Y-83748260D01*
X104369096Y-83843000D01*
X104950904Y-83843000D01*
X105427192Y-83748260D01*
X105830969Y-83478465D01*
X106100764Y-83074688D01*
X106195504Y-82598400D01*
X106100764Y-82122112D01*
X105830969Y-81718335D01*
X105427192Y-81448540D01*
X104950904Y-81353800D01*
X104369096Y-81353800D01*
X103892808Y-81448540D01*
X103489031Y-81718335D01*
X103219236Y-82122112D01*
X103124496Y-82598400D01*
X98343968Y-82598400D01*
X102636338Y-78306031D01*
X110254064Y-78306031D01*
X115043416Y-83095384D01*
X115248127Y-83232168D01*
X115288190Y-83240137D01*
X115489601Y-83280200D01*
X118115232Y-83280200D01*
X117409816Y-83985616D01*
X117273032Y-84190327D01*
X117225000Y-84431800D01*
X117225000Y-105148631D01*
X114107816Y-108265816D01*
X113971032Y-108470527D01*
X113923000Y-108712000D01*
X113923000Y-113916818D01*
X113873118Y-114036946D01*
X113872882Y-114307865D01*
X113976339Y-114558252D01*
X114167741Y-114749987D01*
X114417946Y-114853882D01*
X114688865Y-114854118D01*
X114939252Y-114750661D01*
X115130987Y-114559259D01*
X115234882Y-114309054D01*
X115235118Y-114038135D01*
X115185000Y-113916839D01*
X115185000Y-109753089D01*
X115609578Y-109753089D01*
X115804188Y-110224080D01*
X116164225Y-110584745D01*
X116634876Y-110780177D01*
X117144489Y-110780622D01*
X117615480Y-110586012D01*
X117976145Y-110225975D01*
X118171577Y-109755324D01*
X118172022Y-109245711D01*
X117977412Y-108774720D01*
X117617375Y-108414055D01*
X117146724Y-108218623D01*
X116637111Y-108218178D01*
X116166120Y-108412788D01*
X115805455Y-108772825D01*
X115610023Y-109243476D01*
X115609578Y-109753089D01*
X115185000Y-109753089D01*
X115185000Y-108973368D01*
X118302184Y-105856185D01*
X118403388Y-105704723D01*
X118459236Y-105985488D01*
X118729031Y-106389265D01*
X119132808Y-106659060D01*
X119609096Y-106753800D01*
X120190904Y-106753800D01*
X120667192Y-106659060D01*
X120844010Y-106540914D01*
X120844010Y-107017486D01*
X120667192Y-106899340D01*
X120190904Y-106804600D01*
X119609096Y-106804600D01*
X119132808Y-106899340D01*
X118729031Y-107169135D01*
X118459236Y-107572912D01*
X118364496Y-108049200D01*
X118459236Y-108525488D01*
X118729031Y-108929265D01*
X119132808Y-109199060D01*
X119609096Y-109293800D01*
X120190904Y-109293800D01*
X120667192Y-109199060D01*
X120844010Y-109080914D01*
X120844010Y-109557486D01*
X120667192Y-109439340D01*
X120190904Y-109344600D01*
X119609096Y-109344600D01*
X119132808Y-109439340D01*
X118729031Y-109709135D01*
X118459236Y-110112912D01*
X118364496Y-110589200D01*
X118459236Y-111065488D01*
X118729031Y-111469265D01*
X119132808Y-111739060D01*
X119609096Y-111833800D01*
X120190904Y-111833800D01*
X120667192Y-111739060D01*
X120844010Y-111620914D01*
X120844010Y-112097486D01*
X120667192Y-111979340D01*
X120190904Y-111884600D01*
X119609096Y-111884600D01*
X119132808Y-111979340D01*
X118729031Y-112249135D01*
X118459236Y-112652912D01*
X118364496Y-113129200D01*
X118459236Y-113605488D01*
X118729031Y-114009265D01*
X119132808Y-114279060D01*
X119609096Y-114373800D01*
X120190904Y-114373800D01*
X120667192Y-114279060D01*
X120844010Y-114160914D01*
X120844010Y-114270998D01*
X120607535Y-114507473D01*
X120190904Y-114424600D01*
X119609096Y-114424600D01*
X119132808Y-114519340D01*
X118729031Y-114789135D01*
X118459236Y-115192912D01*
X118364496Y-115669200D01*
X118459236Y-116145488D01*
X118729031Y-116549265D01*
X119132808Y-116819060D01*
X119609096Y-116913800D01*
X120190904Y-116913800D01*
X120667192Y-116819060D01*
X121070969Y-116549265D01*
X121340764Y-116145488D01*
X121435504Y-115669200D01*
X121342841Y-115203351D01*
X121707806Y-114838386D01*
X121817493Y-114674228D01*
X121856010Y-114480590D01*
X121856010Y-76584610D01*
X121817493Y-76390972D01*
X121707806Y-76226814D01*
X121510411Y-76029419D01*
X121652938Y-75934185D01*
X121898108Y-75567262D01*
X121984200Y-75134447D01*
X121984200Y-72541153D01*
X121898108Y-72108338D01*
X121652938Y-71741415D01*
X121349415Y-71538608D01*
X121320683Y-71394162D01*
X121210996Y-71230004D01*
X118711196Y-68730204D01*
X118547038Y-68620517D01*
X118524996Y-68616133D01*
X118420059Y-68511013D01*
X118169854Y-68407118D01*
X117898935Y-68406882D01*
X117648548Y-68510339D01*
X117456813Y-68701741D01*
X117352918Y-68951946D01*
X117352682Y-69222865D01*
X117456139Y-69473252D01*
X117647541Y-69664987D01*
X117897746Y-69768882D01*
X118168665Y-69769118D01*
X118274993Y-69725185D01*
X120195989Y-71646181D01*
X120053462Y-71741415D01*
X119808292Y-72108338D01*
X119722200Y-72541153D01*
X119722200Y-75134447D01*
X119808292Y-75567262D01*
X120053462Y-75934185D01*
X120356985Y-76136992D01*
X120385717Y-76281438D01*
X120495404Y-76445596D01*
X120844010Y-76794202D01*
X120844010Y-81397136D01*
X120531000Y-81397136D01*
X120531000Y-79606464D01*
X120482968Y-79364991D01*
X120482968Y-79364990D01*
X120346184Y-79160279D01*
X118150760Y-76964856D01*
X117946049Y-76828072D01*
X117704576Y-76780040D01*
X115594608Y-76780040D01*
X113838800Y-75024232D01*
X113838800Y-73591665D01*
X113872882Y-73591665D01*
X113976339Y-73842052D01*
X114167741Y-74033787D01*
X114288949Y-74084117D01*
X114488815Y-74283984D01*
X114642200Y-74386473D01*
X114642200Y-75134447D01*
X114728292Y-75567262D01*
X114973462Y-75934185D01*
X115340385Y-76179355D01*
X115773200Y-76265447D01*
X116206015Y-76179355D01*
X116572938Y-75934185D01*
X116818108Y-75567262D01*
X116904200Y-75134447D01*
X116904200Y-73838300D01*
X117182200Y-73838300D01*
X117182200Y-75088300D01*
X117268484Y-75521077D01*
X117513816Y-75887891D01*
X117880847Y-76132899D01*
X118135779Y-76204797D01*
X118312700Y-76123550D01*
X118312700Y-73838300D01*
X118313700Y-73838300D01*
X118313700Y-76123550D01*
X118490621Y-76204797D01*
X118745553Y-76132899D01*
X119112584Y-75887891D01*
X119357916Y-75521077D01*
X119444200Y-75088300D01*
X119444200Y-73838300D01*
X118313700Y-73838300D01*
X118312700Y-73838300D01*
X117182200Y-73838300D01*
X116904200Y-73838300D01*
X116904200Y-72587300D01*
X117182200Y-72587300D01*
X117182200Y-73837300D01*
X118312700Y-73837300D01*
X118312700Y-71552050D01*
X118313700Y-71552050D01*
X118313700Y-73837300D01*
X119444200Y-73837300D01*
X119444200Y-72587300D01*
X119357916Y-72154523D01*
X119112584Y-71787709D01*
X118745553Y-71542701D01*
X118490621Y-71470803D01*
X118313700Y-71552050D01*
X118312700Y-71552050D01*
X118135779Y-71470803D01*
X117880847Y-71542701D01*
X117513816Y-71787709D01*
X117268484Y-72154523D01*
X117182200Y-72587300D01*
X116904200Y-72587300D01*
X116904200Y-72541153D01*
X116818108Y-72108338D01*
X116572938Y-71741415D01*
X116206015Y-71496245D01*
X115773200Y-71410153D01*
X115340385Y-71496245D01*
X114973462Y-71741415D01*
X114728292Y-72108338D01*
X114642200Y-72541153D01*
X114642200Y-72775876D01*
X114419135Y-72775682D01*
X114168748Y-72879139D01*
X113977013Y-73070541D01*
X113873118Y-73320746D01*
X113872882Y-73591665D01*
X113838800Y-73591665D01*
X113838800Y-68130168D01*
X115073036Y-66895933D01*
X115193252Y-66846261D01*
X115384987Y-66654859D01*
X115488882Y-66404654D01*
X115489118Y-66133735D01*
X115385661Y-65883348D01*
X115194259Y-65691613D01*
X114944054Y-65587718D01*
X114673135Y-65587482D01*
X114422748Y-65690939D01*
X114231013Y-65882341D01*
X114180683Y-66003548D01*
X113056000Y-67128232D01*
X113056000Y-60300000D01*
X113021289Y-60125496D01*
X112922441Y-59977559D01*
X112774504Y-59878711D01*
X112600000Y-59844000D01*
X82300000Y-59844000D01*
X82125496Y-59878711D01*
X81977559Y-59977559D01*
X81878711Y-60125496D01*
X81844000Y-60300000D01*
X81844000Y-63515844D01*
X81686589Y-63280262D01*
X81319666Y-63035092D01*
X80886851Y-62949000D01*
X79313149Y-62949000D01*
X78880334Y-63035092D01*
X78513411Y-63280262D01*
X78268241Y-63647185D01*
X78182149Y-64080000D01*
X78268241Y-64512815D01*
X78513411Y-64879738D01*
X78880334Y-65124908D01*
X79313149Y-65211000D01*
X80886851Y-65211000D01*
X81319666Y-65124908D01*
X81686589Y-64879738D01*
X81844000Y-64644156D01*
X81844000Y-66055844D01*
X81686589Y-65820262D01*
X81319666Y-65575092D01*
X80886851Y-65489000D01*
X79313149Y-65489000D01*
X78880334Y-65575092D01*
X78513411Y-65820262D01*
X78268241Y-66187185D01*
X78182149Y-66620000D01*
X78268241Y-67052815D01*
X78513411Y-67419738D01*
X78880334Y-67664908D01*
X79313149Y-67751000D01*
X80886851Y-67751000D01*
X81319666Y-67664908D01*
X81686589Y-67419738D01*
X81844000Y-67184156D01*
X81844000Y-68595844D01*
X81686589Y-68360262D01*
X81319666Y-68115092D01*
X80886851Y-68029000D01*
X79313149Y-68029000D01*
X78880334Y-68115092D01*
X78513411Y-68360262D01*
X78290414Y-68694000D01*
X78057123Y-68694000D01*
X77986259Y-68623013D01*
X77736054Y-68519118D01*
X77465135Y-68518882D01*
X77214748Y-68622339D01*
X77023013Y-68813741D01*
X76919118Y-69063946D01*
X76918882Y-69334865D01*
X75664967Y-69334865D01*
X75629655Y-43446000D01*
X77173536Y-43446000D01*
X77173536Y-44946000D01*
X77200103Y-45087190D01*
X77283546Y-45216865D01*
X77410866Y-45303859D01*
X77562000Y-45334464D01*
X79062000Y-45334464D01*
X79203190Y-45307897D01*
X79332865Y-45224454D01*
X79419859Y-45097134D01*
X79450464Y-44946000D01*
X79450464Y-44419983D01*
X79680804Y-44419983D01*
X79852625Y-44835823D01*
X80170503Y-45154256D01*
X80586043Y-45326804D01*
X81035983Y-45327196D01*
X81451823Y-45155375D01*
X81770256Y-44837497D01*
X81942804Y-44421957D01*
X81942805Y-44419983D01*
X82180804Y-44419983D01*
X82352625Y-44835823D01*
X82670503Y-45154256D01*
X83086043Y-45326804D01*
X83535983Y-45327196D01*
X83951823Y-45155375D01*
X84270256Y-44837497D01*
X84442804Y-44421957D01*
X84442805Y-44419983D01*
X84680804Y-44419983D01*
X84852625Y-44835823D01*
X85170503Y-45154256D01*
X85586043Y-45326804D01*
X86035983Y-45327196D01*
X86451823Y-45155375D01*
X86770256Y-44837497D01*
X86942804Y-44421957D01*
X86942805Y-44419983D01*
X87180804Y-44419983D01*
X87352625Y-44835823D01*
X87670503Y-45154256D01*
X88086043Y-45326804D01*
X88535983Y-45327196D01*
X88951823Y-45155375D01*
X89163159Y-44944407D01*
X90064300Y-44944407D01*
X90134595Y-45129218D01*
X90543287Y-45317412D01*
X90992887Y-45334881D01*
X91414949Y-45178966D01*
X91489405Y-45129218D01*
X91559700Y-44944407D01*
X90812000Y-44196707D01*
X90064300Y-44944407D01*
X89163159Y-44944407D01*
X89270256Y-44837497D01*
X89442804Y-44421957D01*
X89442843Y-44376887D01*
X89673119Y-44376887D01*
X89829034Y-44798949D01*
X89878782Y-44873405D01*
X90063593Y-44943700D01*
X90811293Y-44196000D01*
X90812707Y-44196000D01*
X91560407Y-44943700D01*
X91745218Y-44873405D01*
X91933412Y-44464713D01*
X91950881Y-44015113D01*
X91794966Y-43593051D01*
X91745218Y-43518595D01*
X91564877Y-43450000D01*
X95861536Y-43450000D01*
X95861536Y-44950000D01*
X95888103Y-45091190D01*
X95971546Y-45220865D01*
X96098866Y-45307859D01*
X96250000Y-45338464D01*
X97750000Y-45338464D01*
X97891190Y-45311897D01*
X98020865Y-45228454D01*
X98107859Y-45101134D01*
X98138464Y-44950000D01*
X98138464Y-44423983D01*
X98368804Y-44423983D01*
X98540625Y-44839823D01*
X98858503Y-45158256D01*
X98994000Y-45214520D01*
X98994000Y-57205436D01*
X98889413Y-57309841D01*
X98785518Y-57560046D01*
X98785282Y-57830965D01*
X98888739Y-58081352D01*
X99080141Y-58273087D01*
X99330346Y-58376982D01*
X99601265Y-58377218D01*
X99851652Y-58273761D01*
X100043387Y-58082359D01*
X100147282Y-57832154D01*
X100147518Y-57561235D01*
X100044061Y-57310848D01*
X100006000Y-57272721D01*
X100006000Y-45214669D01*
X100139823Y-45159375D01*
X100458256Y-44841497D01*
X100630804Y-44425957D01*
X100630805Y-44423983D01*
X100868804Y-44423983D01*
X101040625Y-44839823D01*
X101358503Y-45158256D01*
X101494000Y-45214520D01*
X101494000Y-55695800D01*
X101532517Y-55889438D01*
X101642204Y-56053596D01*
X102684269Y-57095661D01*
X102684182Y-57195965D01*
X102787639Y-57446352D01*
X102979041Y-57638087D01*
X103229246Y-57741982D01*
X103500165Y-57742218D01*
X103750552Y-57638761D01*
X103942287Y-57447359D01*
X104046182Y-57197154D01*
X104046418Y-56926235D01*
X103942961Y-56675848D01*
X103751559Y-56484113D01*
X103501354Y-56380218D01*
X103399922Y-56380130D01*
X102506000Y-55486208D01*
X102506000Y-51147400D01*
X113143936Y-51147400D01*
X113143936Y-52874600D01*
X113170503Y-53015790D01*
X113253946Y-53145465D01*
X113381266Y-53232459D01*
X113532400Y-53263064D01*
X113765000Y-53263064D01*
X113765000Y-58619473D01*
X113746118Y-58664946D01*
X113745882Y-58935865D01*
X113849339Y-59186252D01*
X114040741Y-59377987D01*
X114290946Y-59481882D01*
X114561865Y-59482118D01*
X114812252Y-59378661D01*
X115003987Y-59187259D01*
X115107882Y-58937054D01*
X115108118Y-58666135D01*
X115027000Y-58469813D01*
X115027000Y-53263064D01*
X115259600Y-53263064D01*
X115400790Y-53236497D01*
X115530465Y-53153054D01*
X115617459Y-53025734D01*
X115648064Y-52874600D01*
X115648064Y-51986617D01*
X115691400Y-51986617D01*
X115691400Y-52035383D01*
X115786140Y-52511671D01*
X116055935Y-52915448D01*
X116430000Y-53165390D01*
X116430000Y-53817000D01*
X116468517Y-54010638D01*
X116578204Y-54174796D01*
X117752204Y-55348796D01*
X117916362Y-55458483D01*
X118110000Y-55497000D01*
X120192877Y-55497000D01*
X120263741Y-55567987D01*
X120513946Y-55671882D01*
X120784865Y-55672118D01*
X121035252Y-55568661D01*
X121226987Y-55377259D01*
X121330882Y-55127054D01*
X121331118Y-54856135D01*
X121227661Y-54605748D01*
X121036259Y-54414013D01*
X120786054Y-54310118D01*
X120515135Y-54309882D01*
X120264748Y-54413339D01*
X120192962Y-54485000D01*
X118319592Y-54485000D01*
X117442000Y-53607408D01*
X117442000Y-53165390D01*
X117816065Y-52915448D01*
X118085860Y-52511671D01*
X118180600Y-52035383D01*
X118180600Y-51986617D01*
X118231400Y-51986617D01*
X118231400Y-52035383D01*
X118326140Y-52511671D01*
X118595935Y-52915448D01*
X118999712Y-53185243D01*
X119476000Y-53279983D01*
X119952288Y-53185243D01*
X120356065Y-52915448D01*
X120625860Y-52511671D01*
X120720600Y-52035383D01*
X120720600Y-51986617D01*
X120771400Y-51986617D01*
X120771400Y-52035383D01*
X120866140Y-52511671D01*
X121135935Y-52915448D01*
X121539712Y-53185243D01*
X122016000Y-53279983D01*
X122492288Y-53185243D01*
X122896065Y-52915448D01*
X123165860Y-52511671D01*
X123260600Y-52035383D01*
X123260600Y-51986617D01*
X123165860Y-51510329D01*
X122896065Y-51106552D01*
X122492288Y-50836757D01*
X122016000Y-50742017D01*
X121539712Y-50836757D01*
X121135935Y-51106552D01*
X120866140Y-51510329D01*
X120771400Y-51986617D01*
X120720600Y-51986617D01*
X120625860Y-51510329D01*
X120356065Y-51106552D01*
X119952288Y-50836757D01*
X119476000Y-50742017D01*
X118999712Y-50836757D01*
X118595935Y-51106552D01*
X118326140Y-51510329D01*
X118231400Y-51986617D01*
X118180600Y-51986617D01*
X118085860Y-51510329D01*
X117816065Y-51106552D01*
X117412288Y-50836757D01*
X116936000Y-50742017D01*
X116459712Y-50836757D01*
X116055935Y-51106552D01*
X115786140Y-51510329D01*
X115691400Y-51986617D01*
X115648064Y-51986617D01*
X115648064Y-51147400D01*
X115621497Y-51006210D01*
X115538054Y-50876535D01*
X115410734Y-50789541D01*
X115259600Y-50758936D01*
X113532400Y-50758936D01*
X113391210Y-50785503D01*
X113261535Y-50868946D01*
X113174541Y-50996266D01*
X113143936Y-51147400D01*
X102506000Y-51147400D01*
X102506000Y-49446617D01*
X113151400Y-49446617D01*
X113151400Y-49495383D01*
X113246140Y-49971671D01*
X113515935Y-50375448D01*
X113919712Y-50645243D01*
X114396000Y-50739983D01*
X114872288Y-50645243D01*
X115276065Y-50375448D01*
X115545860Y-49971671D01*
X115606623Y-49666192D01*
X115706801Y-49666192D01*
X115875065Y-50121728D01*
X116204847Y-50478197D01*
X116645940Y-50681329D01*
X116740808Y-50700199D01*
X116935500Y-50620350D01*
X116935500Y-49471500D01*
X116936500Y-49471500D01*
X116936500Y-50620350D01*
X117131192Y-50700199D01*
X117226060Y-50681329D01*
X117667153Y-50478197D01*
X117996935Y-50121728D01*
X118165199Y-49666192D01*
X118085350Y-49471500D01*
X116936500Y-49471500D01*
X116935500Y-49471500D01*
X115786650Y-49471500D01*
X115706801Y-49666192D01*
X115606623Y-49666192D01*
X115640600Y-49495383D01*
X115640600Y-49446617D01*
X115606624Y-49275808D01*
X115706801Y-49275808D01*
X115786650Y-49470500D01*
X116935500Y-49470500D01*
X116935500Y-48321650D01*
X116936500Y-48321650D01*
X116936500Y-49470500D01*
X118085350Y-49470500D01*
X118095145Y-49446617D01*
X118231400Y-49446617D01*
X118231400Y-49495383D01*
X118326140Y-49971671D01*
X118595935Y-50375448D01*
X118999712Y-50645243D01*
X119476000Y-50739983D01*
X119952288Y-50645243D01*
X120356065Y-50375448D01*
X120625860Y-49971671D01*
X120720600Y-49495383D01*
X120720600Y-49446617D01*
X120771400Y-49446617D01*
X120771400Y-49495383D01*
X120866140Y-49971671D01*
X121135935Y-50375448D01*
X121539712Y-50645243D01*
X122016000Y-50739983D01*
X122492288Y-50645243D01*
X122896065Y-50375448D01*
X123165860Y-49971671D01*
X123260600Y-49495383D01*
X123260600Y-49446617D01*
X123165860Y-48970329D01*
X122896065Y-48566552D01*
X122492288Y-48296757D01*
X122016000Y-48202017D01*
X121539712Y-48296757D01*
X121135935Y-48566552D01*
X120866140Y-48970329D01*
X120771400Y-49446617D01*
X120720600Y-49446617D01*
X120625860Y-48970329D01*
X120356065Y-48566552D01*
X119952288Y-48296757D01*
X119476000Y-48202017D01*
X118999712Y-48296757D01*
X118595935Y-48566552D01*
X118326140Y-48970329D01*
X118231400Y-49446617D01*
X118095145Y-49446617D01*
X118165199Y-49275808D01*
X117996935Y-48820272D01*
X117667153Y-48463803D01*
X117226060Y-48260671D01*
X117131192Y-48241801D01*
X116936500Y-48321650D01*
X116935500Y-48321650D01*
X116740808Y-48241801D01*
X116645940Y-48260671D01*
X116204847Y-48463803D01*
X115875065Y-48820272D01*
X115706801Y-49275808D01*
X115606624Y-49275808D01*
X115545860Y-48970329D01*
X115276065Y-48566552D01*
X114872288Y-48296757D01*
X114396000Y-48202017D01*
X113919712Y-48296757D01*
X113515935Y-48566552D01*
X113246140Y-48970329D01*
X113151400Y-49446617D01*
X102506000Y-49446617D01*
X102506000Y-45214669D01*
X102639823Y-45159375D01*
X102851159Y-44948407D01*
X103752300Y-44948407D01*
X103822595Y-45133218D01*
X104231287Y-45321412D01*
X104680887Y-45338881D01*
X105102949Y-45182966D01*
X105177405Y-45133218D01*
X105247700Y-44948407D01*
X104500000Y-44200707D01*
X103752300Y-44948407D01*
X102851159Y-44948407D01*
X102958256Y-44841497D01*
X103130804Y-44425957D01*
X103130843Y-44380887D01*
X103361119Y-44380887D01*
X103517034Y-44802949D01*
X103566782Y-44877405D01*
X103751593Y-44947700D01*
X104499293Y-44200000D01*
X104500707Y-44200000D01*
X105248407Y-44947700D01*
X105433218Y-44877405D01*
X105621412Y-44468713D01*
X105638881Y-44019113D01*
X105482966Y-43597051D01*
X105433218Y-43522595D01*
X105248407Y-43452300D01*
X104500707Y-44200000D01*
X104499293Y-44200000D01*
X103751593Y-43452300D01*
X103566782Y-43522595D01*
X103378588Y-43931287D01*
X103361119Y-44380887D01*
X103130843Y-44380887D01*
X103131196Y-43976017D01*
X102959375Y-43560177D01*
X102850981Y-43451593D01*
X103752300Y-43451593D01*
X104500000Y-44199293D01*
X105247700Y-43451593D01*
X105177405Y-43266782D01*
X104768713Y-43078588D01*
X104319113Y-43061119D01*
X103897051Y-43217034D01*
X103822595Y-43266782D01*
X103752300Y-43451593D01*
X102850981Y-43451593D01*
X102641497Y-43241744D01*
X102225957Y-43069196D01*
X101776017Y-43068804D01*
X101360177Y-43240625D01*
X101041744Y-43558503D01*
X100869196Y-43974043D01*
X100868804Y-44423983D01*
X100630805Y-44423983D01*
X100631196Y-43976017D01*
X100459375Y-43560177D01*
X100141497Y-43241744D01*
X99725957Y-43069196D01*
X99276017Y-43068804D01*
X98860177Y-43240625D01*
X98541744Y-43558503D01*
X98369196Y-43974043D01*
X98368804Y-44423983D01*
X98138464Y-44423983D01*
X98138464Y-43450000D01*
X98111897Y-43308810D01*
X98028454Y-43179135D01*
X97901134Y-43092141D01*
X97750000Y-43061536D01*
X96250000Y-43061536D01*
X96108810Y-43088103D01*
X95979135Y-43171546D01*
X95892141Y-43298866D01*
X95861536Y-43450000D01*
X91564877Y-43450000D01*
X91560407Y-43448300D01*
X90812707Y-44196000D01*
X90811293Y-44196000D01*
X90063593Y-43448300D01*
X89878782Y-43518595D01*
X89690588Y-43927287D01*
X89673119Y-44376887D01*
X89442843Y-44376887D01*
X89443196Y-43972017D01*
X89271375Y-43556177D01*
X89162981Y-43447593D01*
X90064300Y-43447593D01*
X90812000Y-44195293D01*
X91559700Y-43447593D01*
X91489405Y-43262782D01*
X91080713Y-43074588D01*
X90631113Y-43057119D01*
X90209051Y-43213034D01*
X90134595Y-43262782D01*
X90064300Y-43447593D01*
X89162981Y-43447593D01*
X88953497Y-43237744D01*
X88537957Y-43065196D01*
X88088017Y-43064804D01*
X87672177Y-43236625D01*
X87353744Y-43554503D01*
X87181196Y-43970043D01*
X87180804Y-44419983D01*
X86942805Y-44419983D01*
X86943196Y-43972017D01*
X86771375Y-43556177D01*
X86453497Y-43237744D01*
X86037957Y-43065196D01*
X85588017Y-43064804D01*
X85172177Y-43236625D01*
X84853744Y-43554503D01*
X84681196Y-43970043D01*
X84680804Y-44419983D01*
X84442805Y-44419983D01*
X84443196Y-43972017D01*
X84271375Y-43556177D01*
X83953497Y-43237744D01*
X83537957Y-43065196D01*
X83088017Y-43064804D01*
X82672177Y-43236625D01*
X82353744Y-43554503D01*
X82181196Y-43970043D01*
X82180804Y-44419983D01*
X81942805Y-44419983D01*
X81943196Y-43972017D01*
X81771375Y-43556177D01*
X81453497Y-43237744D01*
X81037957Y-43065196D01*
X80588017Y-43064804D01*
X80172177Y-43236625D01*
X79853744Y-43554503D01*
X79681196Y-43970043D01*
X79680804Y-44419983D01*
X79450464Y-44419983D01*
X79450464Y-43446000D01*
X79423897Y-43304810D01*
X79340454Y-43175135D01*
X79213134Y-43088141D01*
X79062000Y-43057536D01*
X77562000Y-43057536D01*
X77420810Y-43084103D01*
X77291135Y-43167546D01*
X77204141Y-43294866D01*
X77173536Y-43446000D01*
X75629655Y-43446000D01*
X75627173Y-41627000D01*
X124373000Y-41627000D01*
X124373000Y-140373000D01*
G36*
X174373000Y-140373000D02*
X150626894Y-140373000D01*
X150623257Y-136029000D01*
X151350536Y-136029000D01*
X151350536Y-137529000D01*
X151377103Y-137670190D01*
X151460546Y-137799865D01*
X151587866Y-137886859D01*
X151739000Y-137917464D01*
X153239000Y-137917464D01*
X153380190Y-137890897D01*
X153509865Y-137807454D01*
X153596859Y-137680134D01*
X153627464Y-137529000D01*
X153627464Y-137002983D01*
X153857804Y-137002983D01*
X154029625Y-137418823D01*
X154347503Y-137737256D01*
X154763043Y-137909804D01*
X155212983Y-137910196D01*
X155628823Y-137738375D01*
X155947256Y-137420497D01*
X156119804Y-137004957D01*
X156120196Y-136555017D01*
X155948375Y-136139177D01*
X155630497Y-135820744D01*
X155214957Y-135648196D01*
X154765017Y-135647804D01*
X154349177Y-135819625D01*
X154030744Y-136137503D01*
X153858196Y-136553043D01*
X153857804Y-137002983D01*
X153627464Y-137002983D01*
X153627464Y-136029000D01*
X153600897Y-135887810D01*
X153517454Y-135758135D01*
X153390134Y-135671141D01*
X153239000Y-135640536D01*
X151739000Y-135640536D01*
X151597810Y-135667103D01*
X151468135Y-135750546D01*
X151381141Y-135877866D01*
X151350536Y-136029000D01*
X150623257Y-136029000D01*
X150618970Y-130909200D01*
X153124496Y-130909200D01*
X153219236Y-131385488D01*
X153489031Y-131789265D01*
X153892808Y-132059060D01*
X154369096Y-132153800D01*
X154950904Y-132153800D01*
X155427192Y-132059060D01*
X155830969Y-131789265D01*
X156100764Y-131385488D01*
X156156677Y-131104392D01*
X168409401Y-131104392D01*
X168488548Y-131385025D01*
X168758181Y-131788911D01*
X169161850Y-132058869D01*
X169638100Y-132153800D01*
X169899500Y-132153800D01*
X169899500Y-130909700D01*
X169900500Y-130909700D01*
X169900500Y-132153800D01*
X170161900Y-132153800D01*
X170638150Y-132058869D01*
X171041819Y-131788911D01*
X171311452Y-131385025D01*
X171390599Y-131104392D01*
X171310750Y-130909700D01*
X169900500Y-130909700D01*
X169899500Y-130909700D01*
X168489250Y-130909700D01*
X168409401Y-131104392D01*
X156156677Y-131104392D01*
X156195504Y-130909200D01*
X156156678Y-130714008D01*
X168409401Y-130714008D01*
X168489250Y-130908700D01*
X169899500Y-130908700D01*
X169899500Y-129664600D01*
X169900500Y-129664600D01*
X169900500Y-130908700D01*
X171310750Y-130908700D01*
X171390599Y-130714008D01*
X171311452Y-130433375D01*
X171041819Y-130029489D01*
X170638150Y-129759531D01*
X170161900Y-129664600D01*
X169900500Y-129664600D01*
X169899500Y-129664600D01*
X169638100Y-129664600D01*
X169161850Y-129759531D01*
X168758181Y-130029489D01*
X168488548Y-130433375D01*
X168409401Y-130714008D01*
X156156678Y-130714008D01*
X156100764Y-130432912D01*
X155830969Y-130029135D01*
X155427192Y-129759340D01*
X154950904Y-129664600D01*
X154369096Y-129664600D01*
X153892808Y-129759340D01*
X153489031Y-130029135D01*
X153219236Y-130432912D01*
X153124496Y-130909200D01*
X150618970Y-130909200D01*
X150616843Y-128369200D01*
X153124496Y-128369200D01*
X153219236Y-128845488D01*
X153489031Y-129249265D01*
X153892808Y-129519060D01*
X154369096Y-129613800D01*
X154950904Y-129613800D01*
X155427192Y-129519060D01*
X155830969Y-129249265D01*
X156100764Y-128845488D01*
X156156677Y-128564392D01*
X168409401Y-128564392D01*
X168488548Y-128845025D01*
X168758181Y-129248911D01*
X169161850Y-129518869D01*
X169638100Y-129613800D01*
X169899500Y-129613800D01*
X169899500Y-128369700D01*
X169900500Y-128369700D01*
X169900500Y-129613800D01*
X170161900Y-129613800D01*
X170638150Y-129518869D01*
X171041819Y-129248911D01*
X171311452Y-128845025D01*
X171390599Y-128564392D01*
X171310750Y-128369700D01*
X169900500Y-128369700D01*
X169899500Y-128369700D01*
X168489250Y-128369700D01*
X168409401Y-128564392D01*
X156156677Y-128564392D01*
X156195504Y-128369200D01*
X156156678Y-128174008D01*
X168409401Y-128174008D01*
X168489250Y-128368700D01*
X169899500Y-128368700D01*
X169899500Y-127124600D01*
X169900500Y-127124600D01*
X169900500Y-128368700D01*
X171310750Y-128368700D01*
X171390599Y-128174008D01*
X171311452Y-127893375D01*
X171041819Y-127489489D01*
X170638150Y-127219531D01*
X170161900Y-127124600D01*
X169900500Y-127124600D01*
X169899500Y-127124600D01*
X169638100Y-127124600D01*
X169161850Y-127219531D01*
X168758181Y-127489489D01*
X168488548Y-127893375D01*
X168409401Y-128174008D01*
X156156678Y-128174008D01*
X156100764Y-127892912D01*
X155830969Y-127489135D01*
X155427192Y-127219340D01*
X154950904Y-127124600D01*
X154369096Y-127124600D01*
X153892808Y-127219340D01*
X153489031Y-127489135D01*
X153219236Y-127892912D01*
X153124496Y-128369200D01*
X150616843Y-128369200D01*
X150614716Y-125829200D01*
X153124496Y-125829200D01*
X153219236Y-126305488D01*
X153489031Y-126709265D01*
X153892808Y-126979060D01*
X154369096Y-127073800D01*
X154950904Y-127073800D01*
X155427192Y-126979060D01*
X155830969Y-126709265D01*
X156100764Y-126305488D01*
X156195504Y-125829200D01*
X156100764Y-125352912D01*
X155860339Y-124993089D01*
X156465578Y-124993089D01*
X156660188Y-125464080D01*
X157020225Y-125824745D01*
X157490876Y-126020177D01*
X158000489Y-126020622D01*
X158471480Y-125826012D01*
X158832145Y-125465975D01*
X159027577Y-124995324D01*
X159027578Y-124993089D01*
X165609578Y-124993089D01*
X165804188Y-125464080D01*
X166164225Y-125824745D01*
X166634876Y-126020177D01*
X167144489Y-126020622D01*
X167607764Y-125829200D01*
X168364496Y-125829200D01*
X168459236Y-126305488D01*
X168729031Y-126709265D01*
X169132808Y-126979060D01*
X169609096Y-127073800D01*
X170190904Y-127073800D01*
X170667192Y-126979060D01*
X171070969Y-126709265D01*
X171340764Y-126305488D01*
X171435504Y-125829200D01*
X171340764Y-125352912D01*
X171070969Y-124949135D01*
X170667192Y-124679340D01*
X170190904Y-124584600D01*
X169609096Y-124584600D01*
X169132808Y-124679340D01*
X168729031Y-124949135D01*
X168459236Y-125352912D01*
X168364496Y-125829200D01*
X167607764Y-125829200D01*
X167615480Y-125826012D01*
X167976145Y-125465975D01*
X168171577Y-124995324D01*
X168172022Y-124485711D01*
X167977412Y-124014720D01*
X167617375Y-123654055D01*
X167146724Y-123458623D01*
X166637111Y-123458178D01*
X166166120Y-123652788D01*
X165805455Y-124012825D01*
X165610023Y-124483476D01*
X165609578Y-124993089D01*
X159027578Y-124993089D01*
X159028022Y-124485711D01*
X158833412Y-124014720D01*
X158473375Y-123654055D01*
X158002724Y-123458623D01*
X157493111Y-123458178D01*
X157022120Y-123652788D01*
X156661455Y-124012825D01*
X156466023Y-124483476D01*
X156465578Y-124993089D01*
X155860339Y-124993089D01*
X155830969Y-124949135D01*
X155427192Y-124679340D01*
X154950904Y-124584600D01*
X154369096Y-124584600D01*
X153892808Y-124679340D01*
X153489031Y-124949135D01*
X153219236Y-125352912D01*
X153124496Y-125829200D01*
X150614716Y-125829200D01*
X150612589Y-123289200D01*
X153124496Y-123289200D01*
X153219236Y-123765488D01*
X153489031Y-124169265D01*
X153892808Y-124439060D01*
X154369096Y-124533800D01*
X154950904Y-124533800D01*
X155427192Y-124439060D01*
X155830969Y-124169265D01*
X156100764Y-123765488D01*
X156195504Y-123289200D01*
X168364496Y-123289200D01*
X168459236Y-123765488D01*
X168729031Y-124169265D01*
X169132808Y-124439060D01*
X169609096Y-124533800D01*
X170190904Y-124533800D01*
X170667192Y-124439060D01*
X171070969Y-124169265D01*
X171340764Y-123765488D01*
X171435504Y-123289200D01*
X171340764Y-122812912D01*
X171070969Y-122409135D01*
X170667192Y-122139340D01*
X170190904Y-122044600D01*
X169609096Y-122044600D01*
X169132808Y-122139340D01*
X168729031Y-122409135D01*
X168459236Y-122812912D01*
X168364496Y-123289200D01*
X156195504Y-123289200D01*
X156100764Y-122812912D01*
X155830969Y-122409135D01*
X155427192Y-122139340D01*
X154950904Y-122044600D01*
X154369096Y-122044600D01*
X153892808Y-122139340D01*
X153489031Y-122409135D01*
X153219236Y-122812912D01*
X153124496Y-123289200D01*
X150612589Y-123289200D01*
X150610462Y-120749200D01*
X153124496Y-120749200D01*
X153219236Y-121225488D01*
X153489031Y-121629265D01*
X153892808Y-121899060D01*
X154369096Y-121993800D01*
X154950904Y-121993800D01*
X155427192Y-121899060D01*
X155830969Y-121629265D01*
X156100764Y-121225488D01*
X156195504Y-120749200D01*
X168364496Y-120749200D01*
X168459236Y-121225488D01*
X168729031Y-121629265D01*
X169132808Y-121899060D01*
X169609096Y-121993800D01*
X170190904Y-121993800D01*
X170667192Y-121899060D01*
X171070969Y-121629265D01*
X171340764Y-121225488D01*
X171435504Y-120749200D01*
X171340764Y-120272912D01*
X171070969Y-119869135D01*
X170667192Y-119599340D01*
X170190904Y-119504600D01*
X169609096Y-119504600D01*
X169132808Y-119599340D01*
X168729031Y-119869135D01*
X168459236Y-120272912D01*
X168364496Y-120749200D01*
X156195504Y-120749200D01*
X156100764Y-120272912D01*
X155830969Y-119869135D01*
X155427192Y-119599340D01*
X154950904Y-119504600D01*
X154369096Y-119504600D01*
X153892808Y-119599340D01*
X153489031Y-119869135D01*
X153219236Y-120272912D01*
X153124496Y-120749200D01*
X150610462Y-120749200D01*
X150608335Y-118209200D01*
X153124496Y-118209200D01*
X153219236Y-118685488D01*
X153489031Y-119089265D01*
X153892808Y-119359060D01*
X154369096Y-119453800D01*
X154950904Y-119453800D01*
X155427192Y-119359060D01*
X155830969Y-119089265D01*
X156100764Y-118685488D01*
X156195504Y-118209200D01*
X168364496Y-118209200D01*
X168459236Y-118685488D01*
X168729031Y-119089265D01*
X169132808Y-119359060D01*
X169609096Y-119453800D01*
X170190904Y-119453800D01*
X170667192Y-119359060D01*
X171070969Y-119089265D01*
X171340764Y-118685488D01*
X171435504Y-118209200D01*
X171340764Y-117732912D01*
X171070969Y-117329135D01*
X170667192Y-117059340D01*
X170190904Y-116964600D01*
X169609096Y-116964600D01*
X169132808Y-117059340D01*
X168729031Y-117329135D01*
X168459236Y-117732912D01*
X168364496Y-118209200D01*
X156195504Y-118209200D01*
X156100764Y-117732912D01*
X155830969Y-117329135D01*
X155427192Y-117059340D01*
X154950904Y-116964600D01*
X154369096Y-116964600D01*
X153892808Y-117059340D01*
X153489031Y-117329135D01*
X153219236Y-117732912D01*
X153124496Y-118209200D01*
X150608335Y-118209200D01*
X150606208Y-115669200D01*
X153124496Y-115669200D01*
X153219236Y-116145488D01*
X153489031Y-116549265D01*
X153892808Y-116819060D01*
X154369096Y-116913800D01*
X154950904Y-116913800D01*
X155427192Y-116819060D01*
X155830969Y-116549265D01*
X156100764Y-116145488D01*
X156195504Y-115669200D01*
X156100764Y-115192912D01*
X155830969Y-114789135D01*
X155427192Y-114519340D01*
X154950904Y-114424600D01*
X154369096Y-114424600D01*
X153892808Y-114519340D01*
X153489031Y-114789135D01*
X153219236Y-115192912D01*
X153124496Y-115669200D01*
X150606208Y-115669200D01*
X150604081Y-113129200D01*
X153124496Y-113129200D01*
X153219236Y-113605488D01*
X153489031Y-114009265D01*
X153892808Y-114279060D01*
X154369096Y-114373800D01*
X154950904Y-114373800D01*
X155427192Y-114279060D01*
X155830969Y-114009265D01*
X156100764Y-113605488D01*
X156195504Y-113129200D01*
X156100764Y-112652912D01*
X155830969Y-112249135D01*
X155427192Y-111979340D01*
X154950904Y-111884600D01*
X154369096Y-111884600D01*
X153892808Y-111979340D01*
X153489031Y-112249135D01*
X153219236Y-112652912D01*
X153124496Y-113129200D01*
X150604081Y-113129200D01*
X150601954Y-110589200D01*
X153124496Y-110589200D01*
X153219236Y-111065488D01*
X153489031Y-111469265D01*
X153892808Y-111739060D01*
X154369096Y-111833800D01*
X154950904Y-111833800D01*
X155427192Y-111739060D01*
X155830969Y-111469265D01*
X156100764Y-111065488D01*
X156195504Y-110589200D01*
X156149108Y-110355951D01*
X156890956Y-110355951D01*
X156979500Y-110556348D01*
X157442384Y-110769526D01*
X157951612Y-110789338D01*
X158429660Y-110612769D01*
X158514100Y-110556348D01*
X158602644Y-110355951D01*
X157746800Y-109500107D01*
X156890956Y-110355951D01*
X156149108Y-110355951D01*
X156100764Y-110112912D01*
X155830969Y-109709135D01*
X155823602Y-109704212D01*
X156456862Y-109704212D01*
X156633431Y-110182260D01*
X156689852Y-110266700D01*
X156890249Y-110355244D01*
X157746093Y-109499400D01*
X157747507Y-109499400D01*
X158603351Y-110355244D01*
X158803748Y-110266700D01*
X159016926Y-109803816D01*
X159036738Y-109294588D01*
X158860169Y-108816540D01*
X158803748Y-108732100D01*
X158603351Y-108643556D01*
X157747507Y-109499400D01*
X157746093Y-109499400D01*
X156890249Y-108643556D01*
X156689852Y-108732100D01*
X156476674Y-109194984D01*
X156456862Y-109704212D01*
X155823602Y-109704212D01*
X155427192Y-109439340D01*
X154950904Y-109344600D01*
X154369096Y-109344600D01*
X153892808Y-109439340D01*
X153489031Y-109709135D01*
X153219236Y-110112912D01*
X153124496Y-110589200D01*
X150601954Y-110589200D01*
X150599827Y-108049200D01*
X153124496Y-108049200D01*
X153219236Y-108525488D01*
X153489031Y-108929265D01*
X153892808Y-109199060D01*
X154369096Y-109293800D01*
X154950904Y-109293800D01*
X155427192Y-109199060D01*
X155830969Y-108929265D01*
X156022345Y-108642849D01*
X156890956Y-108642849D01*
X157746800Y-109498693D01*
X158602644Y-108642849D01*
X158514100Y-108442452D01*
X158051216Y-108229274D01*
X157541988Y-108209462D01*
X157063940Y-108386031D01*
X156979500Y-108442452D01*
X156890956Y-108642849D01*
X156022345Y-108642849D01*
X156100764Y-108525488D01*
X156195504Y-108049200D01*
X156100764Y-107572912D01*
X155830969Y-107169135D01*
X155427192Y-106899340D01*
X154950904Y-106804600D01*
X154369096Y-106804600D01*
X153892808Y-106899340D01*
X153489031Y-107169135D01*
X153219236Y-107572912D01*
X153124496Y-108049200D01*
X150599827Y-108049200D01*
X150597700Y-105509200D01*
X153124496Y-105509200D01*
X153219236Y-105985488D01*
X153489031Y-106389265D01*
X153892808Y-106659060D01*
X154369096Y-106753800D01*
X154950904Y-106753800D01*
X155427192Y-106659060D01*
X155830969Y-106389265D01*
X156100764Y-105985488D01*
X156195504Y-105509200D01*
X156100764Y-105032912D01*
X155830969Y-104629135D01*
X155427192Y-104359340D01*
X154950904Y-104264600D01*
X154369096Y-104264600D01*
X153892808Y-104359340D01*
X153489031Y-104629135D01*
X153219236Y-105032912D01*
X153124496Y-105509200D01*
X150597700Y-105509200D01*
X150595573Y-102969200D01*
X153124496Y-102969200D01*
X153219236Y-103445488D01*
X153489031Y-103849265D01*
X153892808Y-104119060D01*
X154369096Y-104213800D01*
X154950904Y-104213800D01*
X155427192Y-104119060D01*
X155830969Y-103849265D01*
X156100764Y-103445488D01*
X156195504Y-102969200D01*
X156100764Y-102492912D01*
X155830969Y-102089135D01*
X155427192Y-101819340D01*
X154950904Y-101724600D01*
X154369096Y-101724600D01*
X153892808Y-101819340D01*
X153489031Y-102089135D01*
X153219236Y-102492912D01*
X153124496Y-102969200D01*
X150595573Y-102969200D01*
X150593446Y-100429200D01*
X153124496Y-100429200D01*
X153219236Y-100905488D01*
X153489031Y-101309265D01*
X153892808Y-101579060D01*
X154369096Y-101673800D01*
X154950904Y-101673800D01*
X155427192Y-101579060D01*
X155830969Y-101309265D01*
X156100764Y-100905488D01*
X156195504Y-100429200D01*
X156100764Y-99952912D01*
X155830969Y-99549135D01*
X155427192Y-99279340D01*
X154950904Y-99184600D01*
X154369096Y-99184600D01*
X153892808Y-99279340D01*
X153489031Y-99549135D01*
X153219236Y-99952912D01*
X153124496Y-100429200D01*
X150593446Y-100429200D01*
X150591319Y-97889200D01*
X153124496Y-97889200D01*
X153219236Y-98365488D01*
X153489031Y-98769265D01*
X153892808Y-99039060D01*
X154369096Y-99133800D01*
X154950904Y-99133800D01*
X155427192Y-99039060D01*
X155830969Y-98769265D01*
X156100764Y-98365488D01*
X156195504Y-97889200D01*
X156100764Y-97412912D01*
X155830969Y-97009135D01*
X155427192Y-96739340D01*
X154950904Y-96644600D01*
X154369096Y-96644600D01*
X153892808Y-96739340D01*
X153489031Y-97009135D01*
X153219236Y-97412912D01*
X153124496Y-97889200D01*
X150591319Y-97889200D01*
X150589191Y-95349200D01*
X153124496Y-95349200D01*
X153219236Y-95825488D01*
X153489031Y-96229265D01*
X153892808Y-96499060D01*
X154369096Y-96593800D01*
X154950904Y-96593800D01*
X155427192Y-96499060D01*
X155830969Y-96229265D01*
X156100764Y-95825488D01*
X156195504Y-95349200D01*
X156100764Y-94872912D01*
X155830969Y-94469135D01*
X155427192Y-94199340D01*
X154950904Y-94104600D01*
X154369096Y-94104600D01*
X153892808Y-94199340D01*
X153489031Y-94469135D01*
X153219236Y-94872912D01*
X153124496Y-95349200D01*
X150589191Y-95349200D01*
X150587063Y-92809200D01*
X153124496Y-92809200D01*
X153219236Y-93285488D01*
X153489031Y-93689265D01*
X153892808Y-93959060D01*
X154369096Y-94053800D01*
X154950904Y-94053800D01*
X155427192Y-93959060D01*
X155830969Y-93689265D01*
X156100764Y-93285488D01*
X156195504Y-92809200D01*
X156100764Y-92332912D01*
X155830969Y-91929135D01*
X155427192Y-91659340D01*
X154950904Y-91564600D01*
X154369096Y-91564600D01*
X153892808Y-91659340D01*
X153489031Y-91929135D01*
X153219236Y-92332912D01*
X153124496Y-92809200D01*
X150587063Y-92809200D01*
X150584935Y-90269200D01*
X153124496Y-90269200D01*
X153219236Y-90745488D01*
X153489031Y-91149265D01*
X153892808Y-91419060D01*
X154369096Y-91513800D01*
X154950904Y-91513800D01*
X155427192Y-91419060D01*
X155830969Y-91149265D01*
X156100764Y-90745488D01*
X156195504Y-90269200D01*
X156100764Y-89792912D01*
X155830969Y-89389135D01*
X155427192Y-89119340D01*
X154950904Y-89024600D01*
X154369096Y-89024600D01*
X153892808Y-89119340D01*
X153489031Y-89389135D01*
X153219236Y-89792912D01*
X153124496Y-90269200D01*
X150584935Y-90269200D01*
X150584000Y-89153894D01*
X150573953Y-89104492D01*
X150545477Y-89062891D01*
X150503060Y-89035647D01*
X150457000Y-89027000D01*
X149571368Y-89027000D01*
X150238168Y-88360200D01*
X153322611Y-88360200D01*
X153489031Y-88609265D01*
X153892808Y-88879060D01*
X154369096Y-88973800D01*
X154950904Y-88973800D01*
X155427192Y-88879060D01*
X155830969Y-88609265D01*
X155997389Y-88360200D01*
X156023632Y-88360200D01*
X156557000Y-88893568D01*
X156557000Y-96520000D01*
X156605032Y-96761473D01*
X156741816Y-96966184D01*
X158973667Y-99198036D01*
X159023339Y-99318252D01*
X159214741Y-99509987D01*
X159464946Y-99613882D01*
X159735865Y-99614118D01*
X159986252Y-99510661D01*
X160177987Y-99319259D01*
X160281882Y-99069054D01*
X160282118Y-98798135D01*
X160178661Y-98547748D01*
X159987259Y-98356013D01*
X159866052Y-98305683D01*
X157819000Y-96258632D01*
X157819000Y-88632200D01*
X157770968Y-88390727D01*
X157634184Y-88186016D01*
X156731184Y-87283016D01*
X156526473Y-87146232D01*
X156285000Y-87098200D01*
X155997389Y-87098200D01*
X155830969Y-86849135D01*
X155427192Y-86579340D01*
X154950904Y-86484600D01*
X154369096Y-86484600D01*
X153892808Y-86579340D01*
X153489031Y-86849135D01*
X153322611Y-87098200D01*
X149976800Y-87098200D01*
X149735327Y-87146232D01*
X149530616Y-87283016D01*
X147786632Y-89027000D01*
X125691827Y-89027000D01*
X125686948Y-85450000D01*
X127361536Y-85450000D01*
X127361536Y-86950000D01*
X127388103Y-87091190D01*
X127471546Y-87220865D01*
X127598866Y-87307859D01*
X127750000Y-87338464D01*
X129250000Y-87338464D01*
X129391190Y-87311897D01*
X129520865Y-87228454D01*
X129607859Y-87101134D01*
X129638464Y-86950000D01*
X129638464Y-85450000D01*
X134361536Y-85450000D01*
X134361536Y-86950000D01*
X134388103Y-87091190D01*
X134471546Y-87220865D01*
X134598866Y-87307859D01*
X134750000Y-87338464D01*
X136250000Y-87338464D01*
X136391190Y-87311897D01*
X136520865Y-87228454D01*
X136607859Y-87101134D01*
X136638464Y-86950000D01*
X136638464Y-85450000D01*
X136611897Y-85308810D01*
X136528454Y-85179135D01*
X136401134Y-85092141D01*
X136250000Y-85061536D01*
X134750000Y-85061536D01*
X134608810Y-85088103D01*
X134479135Y-85171546D01*
X134392141Y-85298866D01*
X134361536Y-85450000D01*
X129638464Y-85450000D01*
X129611897Y-85308810D01*
X129528454Y-85179135D01*
X129401134Y-85092141D01*
X129250000Y-85061536D01*
X127750000Y-85061536D01*
X127608810Y-85088103D01*
X127479135Y-85171546D01*
X127392141Y-85298866D01*
X127361536Y-85450000D01*
X125686948Y-85450000D01*
X125668436Y-71877421D01*
X128233003Y-71877421D01*
X128304901Y-72132353D01*
X128549909Y-72499384D01*
X128916723Y-72744716D01*
X129349500Y-72831000D01*
X130099500Y-72831000D01*
X130099500Y-71700500D01*
X128314250Y-71700500D01*
X128233003Y-71877421D01*
X125668436Y-71877421D01*
X125667952Y-71522579D01*
X128233003Y-71522579D01*
X128314250Y-71699500D01*
X130099500Y-71699500D01*
X130099500Y-70569000D01*
X129349500Y-70569000D01*
X128916723Y-70655284D01*
X128549909Y-70900616D01*
X128304901Y-71267647D01*
X128233003Y-71522579D01*
X125667952Y-71522579D01*
X125664967Y-69334865D01*
X126918882Y-69334865D01*
X127022339Y-69585252D01*
X127213741Y-69776987D01*
X127463946Y-69880882D01*
X127734865Y-69881118D01*
X127985252Y-69777661D01*
X128057038Y-69706000D01*
X128343869Y-69706000D01*
X128513411Y-69959738D01*
X128880334Y-70204908D01*
X129313149Y-70291000D01*
X130886851Y-70291000D01*
X131319666Y-70204908D01*
X131686589Y-69959738D01*
X131844000Y-69724156D01*
X131844000Y-71191099D01*
X131650091Y-70900616D01*
X131283277Y-70655284D01*
X130850500Y-70569000D01*
X130100500Y-70569000D01*
X130100500Y-71699500D01*
X130120500Y-71699500D01*
X130120500Y-71700500D01*
X130100500Y-71700500D01*
X130100500Y-72831000D01*
X130850500Y-72831000D01*
X131283277Y-72744716D01*
X131650091Y-72499384D01*
X131844000Y-72208901D01*
X131844000Y-74700000D01*
X131878711Y-74874504D01*
X131977559Y-75022441D01*
X132125496Y-75121289D01*
X132300000Y-75156000D01*
X162576800Y-75156000D01*
X162576800Y-75285600D01*
X162623639Y-75521077D01*
X162624832Y-75527073D01*
X162761616Y-75731784D01*
X164887056Y-77857224D01*
X165091767Y-77994008D01*
X165333240Y-78042040D01*
X167443208Y-78042040D01*
X169269000Y-79867833D01*
X169269000Y-81397136D01*
X168775000Y-81397136D01*
X168633810Y-81423703D01*
X168504135Y-81507146D01*
X168417141Y-81634466D01*
X168386536Y-81785600D01*
X168386536Y-82018200D01*
X167920833Y-82018200D01*
X167944022Y-81962356D01*
X167944258Y-81691437D01*
X167935921Y-81671260D01*
X168038052Y-81629061D01*
X168229787Y-81437659D01*
X168333682Y-81187454D01*
X168333918Y-80916535D01*
X168230461Y-80666148D01*
X168039059Y-80474413D01*
X167788854Y-80370518D01*
X167517935Y-80370282D01*
X167267548Y-80473739D01*
X167195762Y-80545400D01*
X167038443Y-80545400D01*
X167038518Y-80459335D01*
X166935061Y-80208948D01*
X166743659Y-80017213D01*
X166493454Y-79913318D01*
X166222535Y-79913082D01*
X165972148Y-80016539D01*
X165900362Y-80088200D01*
X165754192Y-80088200D01*
X161508196Y-75842204D01*
X161344038Y-75732517D01*
X161150400Y-75694000D01*
X136000000Y-75694000D01*
X135806362Y-75732517D01*
X135642204Y-75842204D01*
X128859684Y-82624724D01*
X128725957Y-82569196D01*
X128276017Y-82568804D01*
X127860177Y-82740625D01*
X127541744Y-83058503D01*
X127369196Y-83474043D01*
X127368804Y-83923983D01*
X127540625Y-84339823D01*
X127858503Y-84658256D01*
X128274043Y-84830804D01*
X128723983Y-84831196D01*
X129139823Y-84659375D01*
X129458256Y-84341497D01*
X129630804Y-83925957D01*
X129631196Y-83476017D01*
X129575170Y-83340422D01*
X136209592Y-76706000D01*
X141778408Y-76706000D01*
X135859684Y-82624724D01*
X135725957Y-82569196D01*
X135276017Y-82568804D01*
X134860177Y-82740625D01*
X134541744Y-83058503D01*
X134369196Y-83474043D01*
X134368804Y-83923983D01*
X134540625Y-84339823D01*
X134858503Y-84658256D01*
X135274043Y-84830804D01*
X135723983Y-84831196D01*
X136139823Y-84659375D01*
X136458256Y-84341497D01*
X136630804Y-83925957D01*
X136631196Y-83476017D01*
X136575170Y-83340422D01*
X142759582Y-77156010D01*
X148428398Y-77156010D01*
X142959684Y-82624724D01*
X142825957Y-82569196D01*
X142376017Y-82568804D01*
X141960177Y-82740625D01*
X141641744Y-83058503D01*
X141469196Y-83474043D01*
X141468804Y-83923983D01*
X141640625Y-84339823D01*
X141958503Y-84658256D01*
X142374043Y-84830804D01*
X142823983Y-84831196D01*
X143239823Y-84659375D01*
X143558256Y-84341497D01*
X143730804Y-83925957D01*
X143731196Y-83476017D01*
X143675170Y-83340422D01*
X149409572Y-77606020D01*
X151551611Y-77606020D01*
X143733581Y-85424051D01*
X143711897Y-85308810D01*
X143628454Y-85179135D01*
X143501134Y-85092141D01*
X143350000Y-85061536D01*
X141850000Y-85061536D01*
X141708810Y-85088103D01*
X141579135Y-85171546D01*
X141492141Y-85298866D01*
X141461536Y-85450000D01*
X141461536Y-86950000D01*
X141488103Y-87091190D01*
X141571546Y-87220865D01*
X141698866Y-87307859D01*
X141850000Y-87338464D01*
X143350000Y-87338464D01*
X143491190Y-87311897D01*
X143620865Y-87228454D01*
X143707859Y-87101134D01*
X143738464Y-86950000D01*
X143738464Y-86831000D01*
X143850000Y-86831000D01*
X144091473Y-86782968D01*
X144296184Y-86646184D01*
X145557976Y-85384392D01*
X153169401Y-85384392D01*
X153248548Y-85665025D01*
X153518181Y-86068911D01*
X153921850Y-86338869D01*
X154398100Y-86433800D01*
X154659500Y-86433800D01*
X154659500Y-85189700D01*
X154660500Y-85189700D01*
X154660500Y-86433800D01*
X154921900Y-86433800D01*
X155398150Y-86338869D01*
X155801819Y-86068911D01*
X156071452Y-85665025D01*
X156150599Y-85384392D01*
X156070750Y-85189700D01*
X154660500Y-85189700D01*
X154659500Y-85189700D01*
X153249250Y-85189700D01*
X153169401Y-85384392D01*
X145557976Y-85384392D01*
X145948360Y-84994008D01*
X153169401Y-84994008D01*
X153249250Y-85188700D01*
X154659500Y-85188700D01*
X154659500Y-83944600D01*
X154660500Y-83944600D01*
X154660500Y-85188700D01*
X156070750Y-85188700D01*
X156150599Y-84994008D01*
X156071452Y-84713375D01*
X155801819Y-84309489D01*
X155398150Y-84039531D01*
X154921900Y-83944600D01*
X154660500Y-83944600D01*
X154659500Y-83944600D01*
X154398100Y-83944600D01*
X153921850Y-84039531D01*
X153518181Y-84309489D01*
X153248548Y-84713375D01*
X153169401Y-84994008D01*
X145948360Y-84994008D01*
X148343968Y-82598400D01*
X153124496Y-82598400D01*
X153219236Y-83074688D01*
X153489031Y-83478465D01*
X153892808Y-83748260D01*
X154369096Y-83843000D01*
X154950904Y-83843000D01*
X155427192Y-83748260D01*
X155830969Y-83478465D01*
X156100764Y-83074688D01*
X156195504Y-82598400D01*
X156100764Y-82122112D01*
X155830969Y-81718335D01*
X155427192Y-81448540D01*
X154950904Y-81353800D01*
X154369096Y-81353800D01*
X153892808Y-81448540D01*
X153489031Y-81718335D01*
X153219236Y-82122112D01*
X153124496Y-82598400D01*
X148343968Y-82598400D01*
X152636338Y-78306031D01*
X160254064Y-78306031D01*
X165043416Y-83095384D01*
X165248127Y-83232168D01*
X165288190Y-83240137D01*
X165489601Y-83280200D01*
X168115232Y-83280200D01*
X167409816Y-83985616D01*
X167273032Y-84190327D01*
X167225000Y-84431800D01*
X167225000Y-105148631D01*
X164107816Y-108265816D01*
X163971032Y-108470527D01*
X163923000Y-108712000D01*
X163923000Y-113916818D01*
X163873118Y-114036946D01*
X163872882Y-114307865D01*
X163976339Y-114558252D01*
X164167741Y-114749987D01*
X164417946Y-114853882D01*
X164688865Y-114854118D01*
X164939252Y-114750661D01*
X165130987Y-114559259D01*
X165234882Y-114309054D01*
X165235118Y-114038135D01*
X165185000Y-113916839D01*
X165185000Y-109753089D01*
X165609578Y-109753089D01*
X165804188Y-110224080D01*
X166164225Y-110584745D01*
X166634876Y-110780177D01*
X167144489Y-110780622D01*
X167615480Y-110586012D01*
X167976145Y-110225975D01*
X168171577Y-109755324D01*
X168172022Y-109245711D01*
X167977412Y-108774720D01*
X167617375Y-108414055D01*
X167146724Y-108218623D01*
X166637111Y-108218178D01*
X166166120Y-108412788D01*
X165805455Y-108772825D01*
X165610023Y-109243476D01*
X165609578Y-109753089D01*
X165185000Y-109753089D01*
X165185000Y-108973368D01*
X168302184Y-105856185D01*
X168403388Y-105704723D01*
X168459236Y-105985488D01*
X168729031Y-106389265D01*
X169132808Y-106659060D01*
X169609096Y-106753800D01*
X170190904Y-106753800D01*
X170667192Y-106659060D01*
X170844010Y-106540914D01*
X170844010Y-107017486D01*
X170667192Y-106899340D01*
X170190904Y-106804600D01*
X169609096Y-106804600D01*
X169132808Y-106899340D01*
X168729031Y-107169135D01*
X168459236Y-107572912D01*
X168364496Y-108049200D01*
X168459236Y-108525488D01*
X168729031Y-108929265D01*
X169132808Y-109199060D01*
X169609096Y-109293800D01*
X170190904Y-109293800D01*
X170667192Y-109199060D01*
X170844010Y-109080914D01*
X170844010Y-109557486D01*
X170667192Y-109439340D01*
X170190904Y-109344600D01*
X169609096Y-109344600D01*
X169132808Y-109439340D01*
X168729031Y-109709135D01*
X168459236Y-110112912D01*
X168364496Y-110589200D01*
X168459236Y-111065488D01*
X168729031Y-111469265D01*
X169132808Y-111739060D01*
X169609096Y-111833800D01*
X170190904Y-111833800D01*
X170667192Y-111739060D01*
X170844010Y-111620914D01*
X170844010Y-112097486D01*
X170667192Y-111979340D01*
X170190904Y-111884600D01*
X169609096Y-111884600D01*
X169132808Y-111979340D01*
X168729031Y-112249135D01*
X168459236Y-112652912D01*
X168364496Y-113129200D01*
X168459236Y-113605488D01*
X168729031Y-114009265D01*
X169132808Y-114279060D01*
X169609096Y-114373800D01*
X170190904Y-114373800D01*
X170667192Y-114279060D01*
X170844010Y-114160914D01*
X170844010Y-114270998D01*
X170607535Y-114507473D01*
X170190904Y-114424600D01*
X169609096Y-114424600D01*
X169132808Y-114519340D01*
X168729031Y-114789135D01*
X168459236Y-115192912D01*
X168364496Y-115669200D01*
X168459236Y-116145488D01*
X168729031Y-116549265D01*
X169132808Y-116819060D01*
X169609096Y-116913800D01*
X170190904Y-116913800D01*
X170667192Y-116819060D01*
X171070969Y-116549265D01*
X171340764Y-116145488D01*
X171435504Y-115669200D01*
X171342841Y-115203351D01*
X171707806Y-114838386D01*
X171817493Y-114674228D01*
X171856010Y-114480590D01*
X171856010Y-76584610D01*
X171817493Y-76390972D01*
X171707806Y-76226814D01*
X171510411Y-76029419D01*
X171652938Y-75934185D01*
X171898108Y-75567262D01*
X171984200Y-75134447D01*
X171984200Y-72541153D01*
X171898108Y-72108338D01*
X171652938Y-71741415D01*
X171349415Y-71538608D01*
X171320683Y-71394162D01*
X171210996Y-71230004D01*
X168711196Y-68730204D01*
X168547038Y-68620517D01*
X168524996Y-68616133D01*
X168420059Y-68511013D01*
X168169854Y-68407118D01*
X167898935Y-68406882D01*
X167648548Y-68510339D01*
X167456813Y-68701741D01*
X167352918Y-68951946D01*
X167352682Y-69222865D01*
X167456139Y-69473252D01*
X167647541Y-69664987D01*
X167897746Y-69768882D01*
X168168665Y-69769118D01*
X168274993Y-69725185D01*
X170195989Y-71646181D01*
X170053462Y-71741415D01*
X169808292Y-72108338D01*
X169722200Y-72541153D01*
X169722200Y-75134447D01*
X169808292Y-75567262D01*
X170053462Y-75934185D01*
X170356985Y-76136992D01*
X170385717Y-76281438D01*
X170495404Y-76445596D01*
X170844010Y-76794202D01*
X170844010Y-81397136D01*
X170531000Y-81397136D01*
X170531000Y-79606464D01*
X170482968Y-79364991D01*
X170482968Y-79364990D01*
X170346184Y-79160279D01*
X168150760Y-76964856D01*
X167946049Y-76828072D01*
X167704576Y-76780040D01*
X165594608Y-76780040D01*
X163838800Y-75024232D01*
X163838800Y-73591665D01*
X163872882Y-73591665D01*
X163976339Y-73842052D01*
X164167741Y-74033787D01*
X164288949Y-74084117D01*
X164488815Y-74283984D01*
X164642200Y-74386473D01*
X164642200Y-75134447D01*
X164728292Y-75567262D01*
X164973462Y-75934185D01*
X165340385Y-76179355D01*
X165773200Y-76265447D01*
X166206015Y-76179355D01*
X166572938Y-75934185D01*
X166818108Y-75567262D01*
X166904200Y-75134447D01*
X166904200Y-73838300D01*
X167182200Y-73838300D01*
X167182200Y-75088300D01*
X167268484Y-75521077D01*
X167513816Y-75887891D01*
X167880847Y-76132899D01*
X168135779Y-76204797D01*
X168312700Y-76123550D01*
X168312700Y-73838300D01*
X168313700Y-73838300D01*
X168313700Y-76123550D01*
X168490621Y-76204797D01*
X168745553Y-76132899D01*
X169112584Y-75887891D01*
X169357916Y-75521077D01*
X169444200Y-75088300D01*
X169444200Y-73838300D01*
X168313700Y-73838300D01*
X168312700Y-73838300D01*
X167182200Y-73838300D01*
X166904200Y-73838300D01*
X166904200Y-72587300D01*
X167182200Y-72587300D01*
X167182200Y-73837300D01*
X168312700Y-73837300D01*
X168312700Y-71552050D01*
X168313700Y-71552050D01*
X168313700Y-73837300D01*
X169444200Y-73837300D01*
X169444200Y-72587300D01*
X169357916Y-72154523D01*
X169112584Y-71787709D01*
X168745553Y-71542701D01*
X168490621Y-71470803D01*
X168313700Y-71552050D01*
X168312700Y-71552050D01*
X168135779Y-71470803D01*
X167880847Y-71542701D01*
X167513816Y-71787709D01*
X167268484Y-72154523D01*
X167182200Y-72587300D01*
X166904200Y-72587300D01*
X166904200Y-72541153D01*
X166818108Y-72108338D01*
X166572938Y-71741415D01*
X166206015Y-71496245D01*
X165773200Y-71410153D01*
X165340385Y-71496245D01*
X164973462Y-71741415D01*
X164728292Y-72108338D01*
X164642200Y-72541153D01*
X164642200Y-72775876D01*
X164419135Y-72775682D01*
X164168748Y-72879139D01*
X163977013Y-73070541D01*
X163873118Y-73320746D01*
X163872882Y-73591665D01*
X163838800Y-73591665D01*
X163838800Y-68130168D01*
X165073036Y-66895933D01*
X165193252Y-66846261D01*
X165384987Y-66654859D01*
X165488882Y-66404654D01*
X165489118Y-66133735D01*
X165385661Y-65883348D01*
X165194259Y-65691613D01*
X164944054Y-65587718D01*
X164673135Y-65587482D01*
X164422748Y-65690939D01*
X164231013Y-65882341D01*
X164180683Y-66003548D01*
X163056000Y-67128232D01*
X163056000Y-60300000D01*
X163021289Y-60125496D01*
X162922441Y-59977559D01*
X162774504Y-59878711D01*
X162600000Y-59844000D01*
X132300000Y-59844000D01*
X132125496Y-59878711D01*
X131977559Y-59977559D01*
X131878711Y-60125496D01*
X131844000Y-60300000D01*
X131844000Y-63515844D01*
X131686589Y-63280262D01*
X131319666Y-63035092D01*
X130886851Y-62949000D01*
X129313149Y-62949000D01*
X128880334Y-63035092D01*
X128513411Y-63280262D01*
X128268241Y-63647185D01*
X128182149Y-64080000D01*
X128268241Y-64512815D01*
X128513411Y-64879738D01*
X128880334Y-65124908D01*
X129313149Y-65211000D01*
X130886851Y-65211000D01*
X131319666Y-65124908D01*
X131686589Y-64879738D01*
X131844000Y-64644156D01*
X131844000Y-66055844D01*
X131686589Y-65820262D01*
X131319666Y-65575092D01*
X130886851Y-65489000D01*
X129313149Y-65489000D01*
X128880334Y-65575092D01*
X128513411Y-65820262D01*
X128268241Y-66187185D01*
X128182149Y-66620000D01*
X128268241Y-67052815D01*
X128513411Y-67419738D01*
X128880334Y-67664908D01*
X129313149Y-67751000D01*
X130886851Y-67751000D01*
X131319666Y-67664908D01*
X131686589Y-67419738D01*
X131844000Y-67184156D01*
X131844000Y-68595844D01*
X131686589Y-68360262D01*
X131319666Y-68115092D01*
X130886851Y-68029000D01*
X129313149Y-68029000D01*
X128880334Y-68115092D01*
X128513411Y-68360262D01*
X128290414Y-68694000D01*
X128057123Y-68694000D01*
X127986259Y-68623013D01*
X127736054Y-68519118D01*
X127465135Y-68518882D01*
X127214748Y-68622339D01*
X127023013Y-68813741D01*
X126919118Y-69063946D01*
X126918882Y-69334865D01*
X125664967Y-69334865D01*
X125629655Y-43446000D01*
X127173536Y-43446000D01*
X127173536Y-44946000D01*
X127200103Y-45087190D01*
X127283546Y-45216865D01*
X127410866Y-45303859D01*
X127562000Y-45334464D01*
X129062000Y-45334464D01*
X129203190Y-45307897D01*
X129332865Y-45224454D01*
X129419859Y-45097134D01*
X129450464Y-44946000D01*
X129450464Y-44419983D01*
X129680804Y-44419983D01*
X129852625Y-44835823D01*
X130170503Y-45154256D01*
X130586043Y-45326804D01*
X131035983Y-45327196D01*
X131451823Y-45155375D01*
X131770256Y-44837497D01*
X131942804Y-44421957D01*
X131942805Y-44419983D01*
X132180804Y-44419983D01*
X132352625Y-44835823D01*
X132670503Y-45154256D01*
X133086043Y-45326804D01*
X133535983Y-45327196D01*
X133951823Y-45155375D01*
X134270256Y-44837497D01*
X134442804Y-44421957D01*
X134442805Y-44419983D01*
X134680804Y-44419983D01*
X134852625Y-44835823D01*
X135170503Y-45154256D01*
X135586043Y-45326804D01*
X136035983Y-45327196D01*
X136451823Y-45155375D01*
X136770256Y-44837497D01*
X136942804Y-44421957D01*
X136942805Y-44419983D01*
X137180804Y-44419983D01*
X137352625Y-44835823D01*
X137670503Y-45154256D01*
X138086043Y-45326804D01*
X138535983Y-45327196D01*
X138951823Y-45155375D01*
X139163159Y-44944407D01*
X140064300Y-44944407D01*
X140134595Y-45129218D01*
X140543287Y-45317412D01*
X140992887Y-45334881D01*
X141414949Y-45178966D01*
X141489405Y-45129218D01*
X141559700Y-44944407D01*
X140812000Y-44196707D01*
X140064300Y-44944407D01*
X139163159Y-44944407D01*
X139270256Y-44837497D01*
X139442804Y-44421957D01*
X139442843Y-44376887D01*
X139673119Y-44376887D01*
X139829034Y-44798949D01*
X139878782Y-44873405D01*
X140063593Y-44943700D01*
X140811293Y-44196000D01*
X140812707Y-44196000D01*
X141560407Y-44943700D01*
X141745218Y-44873405D01*
X141933412Y-44464713D01*
X141950881Y-44015113D01*
X141794966Y-43593051D01*
X141745218Y-43518595D01*
X141564877Y-43450000D01*
X145861536Y-43450000D01*
X145861536Y-44950000D01*
X145888103Y-45091190D01*
X145971546Y-45220865D01*
X146098866Y-45307859D01*
X146250000Y-45338464D01*
X147750000Y-45338464D01*
X147891190Y-45311897D01*
X148020865Y-45228454D01*
X148107859Y-45101134D01*
X148138464Y-44950000D01*
X148138464Y-44423983D01*
X148368804Y-44423983D01*
X148540625Y-44839823D01*
X148858503Y-45158256D01*
X148994000Y-45214520D01*
X148994000Y-57205436D01*
X148889413Y-57309841D01*
X148785518Y-57560046D01*
X148785282Y-57830965D01*
X148888739Y-58081352D01*
X149080141Y-58273087D01*
X149330346Y-58376982D01*
X149601265Y-58377218D01*
X149851652Y-58273761D01*
X150043387Y-58082359D01*
X150147282Y-57832154D01*
X150147518Y-57561235D01*
X150044061Y-57310848D01*
X150006000Y-57272721D01*
X150006000Y-45214669D01*
X150139823Y-45159375D01*
X150458256Y-44841497D01*
X150630804Y-44425957D01*
X150630805Y-44423983D01*
X150868804Y-44423983D01*
X151040625Y-44839823D01*
X151358503Y-45158256D01*
X151494000Y-45214520D01*
X151494000Y-55695800D01*
X151532517Y-55889438D01*
X151642204Y-56053596D01*
X152684269Y-57095661D01*
X152684182Y-57195965D01*
X152787639Y-57446352D01*
X152979041Y-57638087D01*
X153229246Y-57741982D01*
X153500165Y-57742218D01*
X153750552Y-57638761D01*
X153942287Y-57447359D01*
X154046182Y-57197154D01*
X154046418Y-56926235D01*
X153942961Y-56675848D01*
X153751559Y-56484113D01*
X153501354Y-56380218D01*
X153399922Y-56380130D01*
X152506000Y-55486208D01*
X152506000Y-51147400D01*
X163143936Y-51147400D01*
X163143936Y-52874600D01*
X163170503Y-53015790D01*
X163253946Y-53145465D01*
X163381266Y-53232459D01*
X163532400Y-53263064D01*
X163765000Y-53263064D01*
X163765000Y-58619473D01*
X163746118Y-58664946D01*
X163745882Y-58935865D01*
X163849339Y-59186252D01*
X164040741Y-59377987D01*
X164290946Y-59481882D01*
X164561865Y-59482118D01*
X164812252Y-59378661D01*
X165003987Y-59187259D01*
X165107882Y-58937054D01*
X165108118Y-58666135D01*
X165027000Y-58469813D01*
X165027000Y-53263064D01*
X165259600Y-53263064D01*
X165400790Y-53236497D01*
X165530465Y-53153054D01*
X165617459Y-53025734D01*
X165648064Y-52874600D01*
X165648064Y-51986617D01*
X165691400Y-51986617D01*
X165691400Y-52035383D01*
X165786140Y-52511671D01*
X166055935Y-52915448D01*
X166430000Y-53165390D01*
X166430000Y-53817000D01*
X166468517Y-54010638D01*
X166578204Y-54174796D01*
X167752204Y-55348796D01*
X167916362Y-55458483D01*
X168110000Y-55497000D01*
X170192877Y-55497000D01*
X170263741Y-55567987D01*
X170513946Y-55671882D01*
X170784865Y-55672118D01*
X171035252Y-55568661D01*
X171226987Y-55377259D01*
X171330882Y-55127054D01*
X171331118Y-54856135D01*
X171227661Y-54605748D01*
X171036259Y-54414013D01*
X170786054Y-54310118D01*
X170515135Y-54309882D01*
X170264748Y-54413339D01*
X170192962Y-54485000D01*
X168319592Y-54485000D01*
X167442000Y-53607408D01*
X167442000Y-53165390D01*
X167816065Y-52915448D01*
X168085860Y-52511671D01*
X168180600Y-52035383D01*
X168180600Y-51986617D01*
X168231400Y-51986617D01*
X168231400Y-52035383D01*
X168326140Y-52511671D01*
X168595935Y-52915448D01*
X168999712Y-53185243D01*
X169476000Y-53279983D01*
X169952288Y-53185243D01*
X170356065Y-52915448D01*
X170625860Y-52511671D01*
X170720600Y-52035383D01*
X170720600Y-51986617D01*
X170771400Y-51986617D01*
X170771400Y-52035383D01*
X170866140Y-52511671D01*
X171135935Y-52915448D01*
X171539712Y-53185243D01*
X172016000Y-53279983D01*
X172492288Y-53185243D01*
X172896065Y-52915448D01*
X173165860Y-52511671D01*
X173260600Y-52035383D01*
X173260600Y-51986617D01*
X173165860Y-51510329D01*
X172896065Y-51106552D01*
X172492288Y-50836757D01*
X172016000Y-50742017D01*
X171539712Y-50836757D01*
X171135935Y-51106552D01*
X170866140Y-51510329D01*
X170771400Y-51986617D01*
X170720600Y-51986617D01*
X170625860Y-51510329D01*
X170356065Y-51106552D01*
X169952288Y-50836757D01*
X169476000Y-50742017D01*
X168999712Y-50836757D01*
X168595935Y-51106552D01*
X168326140Y-51510329D01*
X168231400Y-51986617D01*
X168180600Y-51986617D01*
X168085860Y-51510329D01*
X167816065Y-51106552D01*
X167412288Y-50836757D01*
X166936000Y-50742017D01*
X166459712Y-50836757D01*
X166055935Y-51106552D01*
X165786140Y-51510329D01*
X165691400Y-51986617D01*
X165648064Y-51986617D01*
X165648064Y-51147400D01*
X165621497Y-51006210D01*
X165538054Y-50876535D01*
X165410734Y-50789541D01*
X165259600Y-50758936D01*
X163532400Y-50758936D01*
X163391210Y-50785503D01*
X163261535Y-50868946D01*
X163174541Y-50996266D01*
X163143936Y-51147400D01*
X152506000Y-51147400D01*
X152506000Y-49446617D01*
X163151400Y-49446617D01*
X163151400Y-49495383D01*
X163246140Y-49971671D01*
X163515935Y-50375448D01*
X163919712Y-50645243D01*
X164396000Y-50739983D01*
X164872288Y-50645243D01*
X165276065Y-50375448D01*
X165545860Y-49971671D01*
X165606623Y-49666192D01*
X165706801Y-49666192D01*
X165875065Y-50121728D01*
X166204847Y-50478197D01*
X166645940Y-50681329D01*
X166740808Y-50700199D01*
X166935500Y-50620350D01*
X166935500Y-49471500D01*
X166936500Y-49471500D01*
X166936500Y-50620350D01*
X167131192Y-50700199D01*
X167226060Y-50681329D01*
X167667153Y-50478197D01*
X167996935Y-50121728D01*
X168165199Y-49666192D01*
X168085350Y-49471500D01*
X166936500Y-49471500D01*
X166935500Y-49471500D01*
X165786650Y-49471500D01*
X165706801Y-49666192D01*
X165606623Y-49666192D01*
X165640600Y-49495383D01*
X165640600Y-49446617D01*
X165606624Y-49275808D01*
X165706801Y-49275808D01*
X165786650Y-49470500D01*
X166935500Y-49470500D01*
X166935500Y-48321650D01*
X166936500Y-48321650D01*
X166936500Y-49470500D01*
X168085350Y-49470500D01*
X168095145Y-49446617D01*
X168231400Y-49446617D01*
X168231400Y-49495383D01*
X168326140Y-49971671D01*
X168595935Y-50375448D01*
X168999712Y-50645243D01*
X169476000Y-50739983D01*
X169952288Y-50645243D01*
X170356065Y-50375448D01*
X170625860Y-49971671D01*
X170720600Y-49495383D01*
X170720600Y-49446617D01*
X170771400Y-49446617D01*
X170771400Y-49495383D01*
X170866140Y-49971671D01*
X171135935Y-50375448D01*
X171539712Y-50645243D01*
X172016000Y-50739983D01*
X172492288Y-50645243D01*
X172896065Y-50375448D01*
X173165860Y-49971671D01*
X173260600Y-49495383D01*
X173260600Y-49446617D01*
X173165860Y-48970329D01*
X172896065Y-48566552D01*
X172492288Y-48296757D01*
X172016000Y-48202017D01*
X171539712Y-48296757D01*
X171135935Y-48566552D01*
X170866140Y-48970329D01*
X170771400Y-49446617D01*
X170720600Y-49446617D01*
X170625860Y-48970329D01*
X170356065Y-48566552D01*
X169952288Y-48296757D01*
X169476000Y-48202017D01*
X168999712Y-48296757D01*
X168595935Y-48566552D01*
X168326140Y-48970329D01*
X168231400Y-49446617D01*
X168095145Y-49446617D01*
X168165199Y-49275808D01*
X167996935Y-48820272D01*
X167667153Y-48463803D01*
X167226060Y-48260671D01*
X167131192Y-48241801D01*
X166936500Y-48321650D01*
X166935500Y-48321650D01*
X166740808Y-48241801D01*
X166645940Y-48260671D01*
X166204847Y-48463803D01*
X165875065Y-48820272D01*
X165706801Y-49275808D01*
X165606624Y-49275808D01*
X165545860Y-48970329D01*
X165276065Y-48566552D01*
X164872288Y-48296757D01*
X164396000Y-48202017D01*
X163919712Y-48296757D01*
X163515935Y-48566552D01*
X163246140Y-48970329D01*
X163151400Y-49446617D01*
X152506000Y-49446617D01*
X152506000Y-45214669D01*
X152639823Y-45159375D01*
X152851159Y-44948407D01*
X153752300Y-44948407D01*
X153822595Y-45133218D01*
X154231287Y-45321412D01*
X154680887Y-45338881D01*
X155102949Y-45182966D01*
X155177405Y-45133218D01*
X155247700Y-44948407D01*
X154500000Y-44200707D01*
X153752300Y-44948407D01*
X152851159Y-44948407D01*
X152958256Y-44841497D01*
X153130804Y-44425957D01*
X153130843Y-44380887D01*
X153361119Y-44380887D01*
X153517034Y-44802949D01*
X153566782Y-44877405D01*
X153751593Y-44947700D01*
X154499293Y-44200000D01*
X154500707Y-44200000D01*
X155248407Y-44947700D01*
X155433218Y-44877405D01*
X155621412Y-44468713D01*
X155638881Y-44019113D01*
X155482966Y-43597051D01*
X155433218Y-43522595D01*
X155248407Y-43452300D01*
X154500707Y-44200000D01*
X154499293Y-44200000D01*
X153751593Y-43452300D01*
X153566782Y-43522595D01*
X153378588Y-43931287D01*
X153361119Y-44380887D01*
X153130843Y-44380887D01*
X153131196Y-43976017D01*
X152959375Y-43560177D01*
X152850981Y-43451593D01*
X153752300Y-43451593D01*
X154500000Y-44199293D01*
X155247700Y-43451593D01*
X155177405Y-43266782D01*
X154768713Y-43078588D01*
X154319113Y-43061119D01*
X153897051Y-43217034D01*
X153822595Y-43266782D01*
X153752300Y-43451593D01*
X152850981Y-43451593D01*
X152641497Y-43241744D01*
X152225957Y-43069196D01*
X151776017Y-43068804D01*
X151360177Y-43240625D01*
X151041744Y-43558503D01*
X150869196Y-43974043D01*
X150868804Y-44423983D01*
X150630805Y-44423983D01*
X150631196Y-43976017D01*
X150459375Y-43560177D01*
X150141497Y-43241744D01*
X149725957Y-43069196D01*
X149276017Y-43068804D01*
X148860177Y-43240625D01*
X148541744Y-43558503D01*
X148369196Y-43974043D01*
X148368804Y-44423983D01*
X148138464Y-44423983D01*
X148138464Y-43450000D01*
X148111897Y-43308810D01*
X148028454Y-43179135D01*
X147901134Y-43092141D01*
X147750000Y-43061536D01*
X146250000Y-43061536D01*
X146108810Y-43088103D01*
X145979135Y-43171546D01*
X145892141Y-43298866D01*
X145861536Y-43450000D01*
X141564877Y-43450000D01*
X141560407Y-43448300D01*
X140812707Y-44196000D01*
X140811293Y-44196000D01*
X140063593Y-43448300D01*
X139878782Y-43518595D01*
X139690588Y-43927287D01*
X139673119Y-44376887D01*
X139442843Y-44376887D01*
X139443196Y-43972017D01*
X139271375Y-43556177D01*
X139162981Y-43447593D01*
X140064300Y-43447593D01*
X140812000Y-44195293D01*
X141559700Y-43447593D01*
X141489405Y-43262782D01*
X141080713Y-43074588D01*
X140631113Y-43057119D01*
X140209051Y-43213034D01*
X140134595Y-43262782D01*
X140064300Y-43447593D01*
X139162981Y-43447593D01*
X138953497Y-43237744D01*
X138537957Y-43065196D01*
X138088017Y-43064804D01*
X137672177Y-43236625D01*
X137353744Y-43554503D01*
X137181196Y-43970043D01*
X137180804Y-44419983D01*
X136942805Y-44419983D01*
X136943196Y-43972017D01*
X136771375Y-43556177D01*
X136453497Y-43237744D01*
X136037957Y-43065196D01*
X135588017Y-43064804D01*
X135172177Y-43236625D01*
X134853744Y-43554503D01*
X134681196Y-43970043D01*
X134680804Y-44419983D01*
X134442805Y-44419983D01*
X134443196Y-43972017D01*
X134271375Y-43556177D01*
X133953497Y-43237744D01*
X133537957Y-43065196D01*
X133088017Y-43064804D01*
X132672177Y-43236625D01*
X132353744Y-43554503D01*
X132181196Y-43970043D01*
X132180804Y-44419983D01*
X131942805Y-44419983D01*
X131943196Y-43972017D01*
X131771375Y-43556177D01*
X131453497Y-43237744D01*
X131037957Y-43065196D01*
X130588017Y-43064804D01*
X130172177Y-43236625D01*
X129853744Y-43554503D01*
X129681196Y-43970043D01*
X129680804Y-44419983D01*
X129450464Y-44419983D01*
X129450464Y-43446000D01*
X129423897Y-43304810D01*
X129340454Y-43175135D01*
X129213134Y-43088141D01*
X129062000Y-43057536D01*
X127562000Y-43057536D01*
X127420810Y-43084103D01*
X127291135Y-43167546D01*
X127204141Y-43294866D01*
X127173536Y-43446000D01*
X125629655Y-43446000D01*
X125627173Y-41627000D01*
X174373000Y-41627000D01*
X174373000Y-140373000D01*
X174373000Y-140373000D01*
G37*
X174373000Y-140373000D02*
X150626894Y-140373000D01*
X150623257Y-136029000D01*
X151350536Y-136029000D01*
X151350536Y-137529000D01*
X151377103Y-137670190D01*
X151460546Y-137799865D01*
X151587866Y-137886859D01*
X151739000Y-137917464D01*
X153239000Y-137917464D01*
X153380190Y-137890897D01*
X153509865Y-137807454D01*
X153596859Y-137680134D01*
X153627464Y-137529000D01*
X153627464Y-137002983D01*
X153857804Y-137002983D01*
X154029625Y-137418823D01*
X154347503Y-137737256D01*
X154763043Y-137909804D01*
X155212983Y-137910196D01*
X155628823Y-137738375D01*
X155947256Y-137420497D01*
X156119804Y-137004957D01*
X156120196Y-136555017D01*
X155948375Y-136139177D01*
X155630497Y-135820744D01*
X155214957Y-135648196D01*
X154765017Y-135647804D01*
X154349177Y-135819625D01*
X154030744Y-136137503D01*
X153858196Y-136553043D01*
X153857804Y-137002983D01*
X153627464Y-137002983D01*
X153627464Y-136029000D01*
X153600897Y-135887810D01*
X153517454Y-135758135D01*
X153390134Y-135671141D01*
X153239000Y-135640536D01*
X151739000Y-135640536D01*
X151597810Y-135667103D01*
X151468135Y-135750546D01*
X151381141Y-135877866D01*
X151350536Y-136029000D01*
X150623257Y-136029000D01*
X150618970Y-130909200D01*
X153124496Y-130909200D01*
X153219236Y-131385488D01*
X153489031Y-131789265D01*
X153892808Y-132059060D01*
X154369096Y-132153800D01*
X154950904Y-132153800D01*
X155427192Y-132059060D01*
X155830969Y-131789265D01*
X156100764Y-131385488D01*
X156156677Y-131104392D01*
X168409401Y-131104392D01*
X168488548Y-131385025D01*
X168758181Y-131788911D01*
X169161850Y-132058869D01*
X169638100Y-132153800D01*
X169899500Y-132153800D01*
X169899500Y-130909700D01*
X169900500Y-130909700D01*
X169900500Y-132153800D01*
X170161900Y-132153800D01*
X170638150Y-132058869D01*
X171041819Y-131788911D01*
X171311452Y-131385025D01*
X171390599Y-131104392D01*
X171310750Y-130909700D01*
X169900500Y-130909700D01*
X169899500Y-130909700D01*
X168489250Y-130909700D01*
X168409401Y-131104392D01*
X156156677Y-131104392D01*
X156195504Y-130909200D01*
X156156678Y-130714008D01*
X168409401Y-130714008D01*
X168489250Y-130908700D01*
X169899500Y-130908700D01*
X169899500Y-129664600D01*
X169900500Y-129664600D01*
X169900500Y-130908700D01*
X171310750Y-130908700D01*
X171390599Y-130714008D01*
X171311452Y-130433375D01*
X171041819Y-130029489D01*
X170638150Y-129759531D01*
X170161900Y-129664600D01*
X169900500Y-129664600D01*
X169899500Y-129664600D01*
X169638100Y-129664600D01*
X169161850Y-129759531D01*
X168758181Y-130029489D01*
X168488548Y-130433375D01*
X168409401Y-130714008D01*
X156156678Y-130714008D01*
X156100764Y-130432912D01*
X155830969Y-130029135D01*
X155427192Y-129759340D01*
X154950904Y-129664600D01*
X154369096Y-129664600D01*
X153892808Y-129759340D01*
X153489031Y-130029135D01*
X153219236Y-130432912D01*
X153124496Y-130909200D01*
X150618970Y-130909200D01*
X150616843Y-128369200D01*
X153124496Y-128369200D01*
X153219236Y-128845488D01*
X153489031Y-129249265D01*
X153892808Y-129519060D01*
X154369096Y-129613800D01*
X154950904Y-129613800D01*
X155427192Y-129519060D01*
X155830969Y-129249265D01*
X156100764Y-128845488D01*
X156156677Y-128564392D01*
X168409401Y-128564392D01*
X168488548Y-128845025D01*
X168758181Y-129248911D01*
X169161850Y-129518869D01*
X169638100Y-129613800D01*
X169899500Y-129613800D01*
X169899500Y-128369700D01*
X169900500Y-128369700D01*
X169900500Y-129613800D01*
X170161900Y-129613800D01*
X170638150Y-129518869D01*
X171041819Y-129248911D01*
X171311452Y-128845025D01*
X171390599Y-128564392D01*
X171310750Y-128369700D01*
X169900500Y-128369700D01*
X169899500Y-128369700D01*
X168489250Y-128369700D01*
X168409401Y-128564392D01*
X156156677Y-128564392D01*
X156195504Y-128369200D01*
X156156678Y-128174008D01*
X168409401Y-128174008D01*
X168489250Y-128368700D01*
X169899500Y-128368700D01*
X169899500Y-127124600D01*
X169900500Y-127124600D01*
X169900500Y-128368700D01*
X171310750Y-128368700D01*
X171390599Y-128174008D01*
X171311452Y-127893375D01*
X171041819Y-127489489D01*
X170638150Y-127219531D01*
X170161900Y-127124600D01*
X169900500Y-127124600D01*
X169899500Y-127124600D01*
X169638100Y-127124600D01*
X169161850Y-127219531D01*
X168758181Y-127489489D01*
X168488548Y-127893375D01*
X168409401Y-128174008D01*
X156156678Y-128174008D01*
X156100764Y-127892912D01*
X155830969Y-127489135D01*
X155427192Y-127219340D01*
X154950904Y-127124600D01*
X154369096Y-127124600D01*
X153892808Y-127219340D01*
X153489031Y-127489135D01*
X153219236Y-127892912D01*
X153124496Y-128369200D01*
X150616843Y-128369200D01*
X150614716Y-125829200D01*
X153124496Y-125829200D01*
X153219236Y-126305488D01*
X153489031Y-126709265D01*
X153892808Y-126979060D01*
X154369096Y-127073800D01*
X154950904Y-127073800D01*
X155427192Y-126979060D01*
X155830969Y-126709265D01*
X156100764Y-126305488D01*
X156195504Y-125829200D01*
X156100764Y-125352912D01*
X155860339Y-124993089D01*
X156465578Y-124993089D01*
X156660188Y-125464080D01*
X157020225Y-125824745D01*
X157490876Y-126020177D01*
X158000489Y-126020622D01*
X158471480Y-125826012D01*
X158832145Y-125465975D01*
X159027577Y-124995324D01*
X159027578Y-124993089D01*
X165609578Y-124993089D01*
X165804188Y-125464080D01*
X166164225Y-125824745D01*
X166634876Y-126020177D01*
X167144489Y-126020622D01*
X167607764Y-125829200D01*
X168364496Y-125829200D01*
X168459236Y-126305488D01*
X168729031Y-126709265D01*
X169132808Y-126979060D01*
X169609096Y-127073800D01*
X170190904Y-127073800D01*
X170667192Y-126979060D01*
X171070969Y-126709265D01*
X171340764Y-126305488D01*
X171435504Y-125829200D01*
X171340764Y-125352912D01*
X171070969Y-124949135D01*
X170667192Y-124679340D01*
X170190904Y-124584600D01*
X169609096Y-124584600D01*
X169132808Y-124679340D01*
X168729031Y-124949135D01*
X168459236Y-125352912D01*
X168364496Y-125829200D01*
X167607764Y-125829200D01*
X167615480Y-125826012D01*
X167976145Y-125465975D01*
X168171577Y-124995324D01*
X168172022Y-124485711D01*
X167977412Y-124014720D01*
X167617375Y-123654055D01*
X167146724Y-123458623D01*
X166637111Y-123458178D01*
X166166120Y-123652788D01*
X165805455Y-124012825D01*
X165610023Y-124483476D01*
X165609578Y-124993089D01*
X159027578Y-124993089D01*
X159028022Y-124485711D01*
X158833412Y-124014720D01*
X158473375Y-123654055D01*
X158002724Y-123458623D01*
X157493111Y-123458178D01*
X157022120Y-123652788D01*
X156661455Y-124012825D01*
X156466023Y-124483476D01*
X156465578Y-124993089D01*
X155860339Y-124993089D01*
X155830969Y-124949135D01*
X155427192Y-124679340D01*
X154950904Y-124584600D01*
X154369096Y-124584600D01*
X153892808Y-124679340D01*
X153489031Y-124949135D01*
X153219236Y-125352912D01*
X153124496Y-125829200D01*
X150614716Y-125829200D01*
X150612589Y-123289200D01*
X153124496Y-123289200D01*
X153219236Y-123765488D01*
X153489031Y-124169265D01*
X153892808Y-124439060D01*
X154369096Y-124533800D01*
X154950904Y-124533800D01*
X155427192Y-124439060D01*
X155830969Y-124169265D01*
X156100764Y-123765488D01*
X156195504Y-123289200D01*
X168364496Y-123289200D01*
X168459236Y-123765488D01*
X168729031Y-124169265D01*
X169132808Y-124439060D01*
X169609096Y-124533800D01*
X170190904Y-124533800D01*
X170667192Y-124439060D01*
X171070969Y-124169265D01*
X171340764Y-123765488D01*
X171435504Y-123289200D01*
X171340764Y-122812912D01*
X171070969Y-122409135D01*
X170667192Y-122139340D01*
X170190904Y-122044600D01*
X169609096Y-122044600D01*
X169132808Y-122139340D01*
X168729031Y-122409135D01*
X168459236Y-122812912D01*
X168364496Y-123289200D01*
X156195504Y-123289200D01*
X156100764Y-122812912D01*
X155830969Y-122409135D01*
X155427192Y-122139340D01*
X154950904Y-122044600D01*
X154369096Y-122044600D01*
X153892808Y-122139340D01*
X153489031Y-122409135D01*
X153219236Y-122812912D01*
X153124496Y-123289200D01*
X150612589Y-123289200D01*
X150610462Y-120749200D01*
X153124496Y-120749200D01*
X153219236Y-121225488D01*
X153489031Y-121629265D01*
X153892808Y-121899060D01*
X154369096Y-121993800D01*
X154950904Y-121993800D01*
X155427192Y-121899060D01*
X155830969Y-121629265D01*
X156100764Y-121225488D01*
X156195504Y-120749200D01*
X168364496Y-120749200D01*
X168459236Y-121225488D01*
X168729031Y-121629265D01*
X169132808Y-121899060D01*
X169609096Y-121993800D01*
X170190904Y-121993800D01*
X170667192Y-121899060D01*
X171070969Y-121629265D01*
X171340764Y-121225488D01*
X171435504Y-120749200D01*
X171340764Y-120272912D01*
X171070969Y-119869135D01*
X170667192Y-119599340D01*
X170190904Y-119504600D01*
X169609096Y-119504600D01*
X169132808Y-119599340D01*
X168729031Y-119869135D01*
X168459236Y-120272912D01*
X168364496Y-120749200D01*
X156195504Y-120749200D01*
X156100764Y-120272912D01*
X155830969Y-119869135D01*
X155427192Y-119599340D01*
X154950904Y-119504600D01*
X154369096Y-119504600D01*
X153892808Y-119599340D01*
X153489031Y-119869135D01*
X153219236Y-120272912D01*
X153124496Y-120749200D01*
X150610462Y-120749200D01*
X150608335Y-118209200D01*
X153124496Y-118209200D01*
X153219236Y-118685488D01*
X153489031Y-119089265D01*
X153892808Y-119359060D01*
X154369096Y-119453800D01*
X154950904Y-119453800D01*
X155427192Y-119359060D01*
X155830969Y-119089265D01*
X156100764Y-118685488D01*
X156195504Y-118209200D01*
X168364496Y-118209200D01*
X168459236Y-118685488D01*
X168729031Y-119089265D01*
X169132808Y-119359060D01*
X169609096Y-119453800D01*
X170190904Y-119453800D01*
X170667192Y-119359060D01*
X171070969Y-119089265D01*
X171340764Y-118685488D01*
X171435504Y-118209200D01*
X171340764Y-117732912D01*
X171070969Y-117329135D01*
X170667192Y-117059340D01*
X170190904Y-116964600D01*
X169609096Y-116964600D01*
X169132808Y-117059340D01*
X168729031Y-117329135D01*
X168459236Y-117732912D01*
X168364496Y-118209200D01*
X156195504Y-118209200D01*
X156100764Y-117732912D01*
X155830969Y-117329135D01*
X155427192Y-117059340D01*
X154950904Y-116964600D01*
X154369096Y-116964600D01*
X153892808Y-117059340D01*
X153489031Y-117329135D01*
X153219236Y-117732912D01*
X153124496Y-118209200D01*
X150608335Y-118209200D01*
X150606208Y-115669200D01*
X153124496Y-115669200D01*
X153219236Y-116145488D01*
X153489031Y-116549265D01*
X153892808Y-116819060D01*
X154369096Y-116913800D01*
X154950904Y-116913800D01*
X155427192Y-116819060D01*
X155830969Y-116549265D01*
X156100764Y-116145488D01*
X156195504Y-115669200D01*
X156100764Y-115192912D01*
X155830969Y-114789135D01*
X155427192Y-114519340D01*
X154950904Y-114424600D01*
X154369096Y-114424600D01*
X153892808Y-114519340D01*
X153489031Y-114789135D01*
X153219236Y-115192912D01*
X153124496Y-115669200D01*
X150606208Y-115669200D01*
X150604081Y-113129200D01*
X153124496Y-113129200D01*
X153219236Y-113605488D01*
X153489031Y-114009265D01*
X153892808Y-114279060D01*
X154369096Y-114373800D01*
X154950904Y-114373800D01*
X155427192Y-114279060D01*
X155830969Y-114009265D01*
X156100764Y-113605488D01*
X156195504Y-113129200D01*
X156100764Y-112652912D01*
X155830969Y-112249135D01*
X155427192Y-111979340D01*
X154950904Y-111884600D01*
X154369096Y-111884600D01*
X153892808Y-111979340D01*
X153489031Y-112249135D01*
X153219236Y-112652912D01*
X153124496Y-113129200D01*
X150604081Y-113129200D01*
X150601954Y-110589200D01*
X153124496Y-110589200D01*
X153219236Y-111065488D01*
X153489031Y-111469265D01*
X153892808Y-111739060D01*
X154369096Y-111833800D01*
X154950904Y-111833800D01*
X155427192Y-111739060D01*
X155830969Y-111469265D01*
X156100764Y-111065488D01*
X156195504Y-110589200D01*
X156149108Y-110355951D01*
X156890956Y-110355951D01*
X156979500Y-110556348D01*
X157442384Y-110769526D01*
X157951612Y-110789338D01*
X158429660Y-110612769D01*
X158514100Y-110556348D01*
X158602644Y-110355951D01*
X157746800Y-109500107D01*
X156890956Y-110355951D01*
X156149108Y-110355951D01*
X156100764Y-110112912D01*
X155830969Y-109709135D01*
X155823602Y-109704212D01*
X156456862Y-109704212D01*
X156633431Y-110182260D01*
X156689852Y-110266700D01*
X156890249Y-110355244D01*
X157746093Y-109499400D01*
X157747507Y-109499400D01*
X158603351Y-110355244D01*
X158803748Y-110266700D01*
X159016926Y-109803816D01*
X159036738Y-109294588D01*
X158860169Y-108816540D01*
X158803748Y-108732100D01*
X158603351Y-108643556D01*
X157747507Y-109499400D01*
X157746093Y-109499400D01*
X156890249Y-108643556D01*
X156689852Y-108732100D01*
X156476674Y-109194984D01*
X156456862Y-109704212D01*
X155823602Y-109704212D01*
X155427192Y-109439340D01*
X154950904Y-109344600D01*
X154369096Y-109344600D01*
X153892808Y-109439340D01*
X153489031Y-109709135D01*
X153219236Y-110112912D01*
X153124496Y-110589200D01*
X150601954Y-110589200D01*
X150599827Y-108049200D01*
X153124496Y-108049200D01*
X153219236Y-108525488D01*
X153489031Y-108929265D01*
X153892808Y-109199060D01*
X154369096Y-109293800D01*
X154950904Y-109293800D01*
X155427192Y-109199060D01*
X155830969Y-108929265D01*
X156022345Y-108642849D01*
X156890956Y-108642849D01*
X157746800Y-109498693D01*
X158602644Y-108642849D01*
X158514100Y-108442452D01*
X158051216Y-108229274D01*
X157541988Y-108209462D01*
X157063940Y-108386031D01*
X156979500Y-108442452D01*
X156890956Y-108642849D01*
X156022345Y-108642849D01*
X156100764Y-108525488D01*
X156195504Y-108049200D01*
X156100764Y-107572912D01*
X155830969Y-107169135D01*
X155427192Y-106899340D01*
X154950904Y-106804600D01*
X154369096Y-106804600D01*
X153892808Y-106899340D01*
X153489031Y-107169135D01*
X153219236Y-107572912D01*
X153124496Y-108049200D01*
X150599827Y-108049200D01*
X150597700Y-105509200D01*
X153124496Y-105509200D01*
X153219236Y-105985488D01*
X153489031Y-106389265D01*
X153892808Y-106659060D01*
X154369096Y-106753800D01*
X154950904Y-106753800D01*
X155427192Y-106659060D01*
X155830969Y-106389265D01*
X156100764Y-105985488D01*
X156195504Y-105509200D01*
X156100764Y-105032912D01*
X155830969Y-104629135D01*
X155427192Y-104359340D01*
X154950904Y-104264600D01*
X154369096Y-104264600D01*
X153892808Y-104359340D01*
X153489031Y-104629135D01*
X153219236Y-105032912D01*
X153124496Y-105509200D01*
X150597700Y-105509200D01*
X150595573Y-102969200D01*
X153124496Y-102969200D01*
X153219236Y-103445488D01*
X153489031Y-103849265D01*
X153892808Y-104119060D01*
X154369096Y-104213800D01*
X154950904Y-104213800D01*
X155427192Y-104119060D01*
X155830969Y-103849265D01*
X156100764Y-103445488D01*
X156195504Y-102969200D01*
X156100764Y-102492912D01*
X155830969Y-102089135D01*
X155427192Y-101819340D01*
X154950904Y-101724600D01*
X154369096Y-101724600D01*
X153892808Y-101819340D01*
X153489031Y-102089135D01*
X153219236Y-102492912D01*
X153124496Y-102969200D01*
X150595573Y-102969200D01*
X150593446Y-100429200D01*
X153124496Y-100429200D01*
X153219236Y-100905488D01*
X153489031Y-101309265D01*
X153892808Y-101579060D01*
X154369096Y-101673800D01*
X154950904Y-101673800D01*
X155427192Y-101579060D01*
X155830969Y-101309265D01*
X156100764Y-100905488D01*
X156195504Y-100429200D01*
X156100764Y-99952912D01*
X155830969Y-99549135D01*
X155427192Y-99279340D01*
X154950904Y-99184600D01*
X154369096Y-99184600D01*
X153892808Y-99279340D01*
X153489031Y-99549135D01*
X153219236Y-99952912D01*
X153124496Y-100429200D01*
X150593446Y-100429200D01*
X150591319Y-97889200D01*
X153124496Y-97889200D01*
X153219236Y-98365488D01*
X153489031Y-98769265D01*
X153892808Y-99039060D01*
X154369096Y-99133800D01*
X154950904Y-99133800D01*
X155427192Y-99039060D01*
X155830969Y-98769265D01*
X156100764Y-98365488D01*
X156195504Y-97889200D01*
X156100764Y-97412912D01*
X155830969Y-97009135D01*
X155427192Y-96739340D01*
X154950904Y-96644600D01*
X154369096Y-96644600D01*
X153892808Y-96739340D01*
X153489031Y-97009135D01*
X153219236Y-97412912D01*
X153124496Y-97889200D01*
X150591319Y-97889200D01*
X150589191Y-95349200D01*
X153124496Y-95349200D01*
X153219236Y-95825488D01*
X153489031Y-96229265D01*
X153892808Y-96499060D01*
X154369096Y-96593800D01*
X154950904Y-96593800D01*
X155427192Y-96499060D01*
X155830969Y-96229265D01*
X156100764Y-95825488D01*
X156195504Y-95349200D01*
X156100764Y-94872912D01*
X155830969Y-94469135D01*
X155427192Y-94199340D01*
X154950904Y-94104600D01*
X154369096Y-94104600D01*
X153892808Y-94199340D01*
X153489031Y-94469135D01*
X153219236Y-94872912D01*
X153124496Y-95349200D01*
X150589191Y-95349200D01*
X150587063Y-92809200D01*
X153124496Y-92809200D01*
X153219236Y-93285488D01*
X153489031Y-93689265D01*
X153892808Y-93959060D01*
X154369096Y-94053800D01*
X154950904Y-94053800D01*
X155427192Y-93959060D01*
X155830969Y-93689265D01*
X156100764Y-93285488D01*
X156195504Y-92809200D01*
X156100764Y-92332912D01*
X155830969Y-91929135D01*
X155427192Y-91659340D01*
X154950904Y-91564600D01*
X154369096Y-91564600D01*
X153892808Y-91659340D01*
X153489031Y-91929135D01*
X153219236Y-92332912D01*
X153124496Y-92809200D01*
X150587063Y-92809200D01*
X150584935Y-90269200D01*
X153124496Y-90269200D01*
X153219236Y-90745488D01*
X153489031Y-91149265D01*
X153892808Y-91419060D01*
X154369096Y-91513800D01*
X154950904Y-91513800D01*
X155427192Y-91419060D01*
X155830969Y-91149265D01*
X156100764Y-90745488D01*
X156195504Y-90269200D01*
X156100764Y-89792912D01*
X155830969Y-89389135D01*
X155427192Y-89119340D01*
X154950904Y-89024600D01*
X154369096Y-89024600D01*
X153892808Y-89119340D01*
X153489031Y-89389135D01*
X153219236Y-89792912D01*
X153124496Y-90269200D01*
X150584935Y-90269200D01*
X150584000Y-89153894D01*
X150573953Y-89104492D01*
X150545477Y-89062891D01*
X150503060Y-89035647D01*
X150457000Y-89027000D01*
X149571368Y-89027000D01*
X150238168Y-88360200D01*
X153322611Y-88360200D01*
X153489031Y-88609265D01*
X153892808Y-88879060D01*
X154369096Y-88973800D01*
X154950904Y-88973800D01*
X155427192Y-88879060D01*
X155830969Y-88609265D01*
X155997389Y-88360200D01*
X156023632Y-88360200D01*
X156557000Y-88893568D01*
X156557000Y-96520000D01*
X156605032Y-96761473D01*
X156741816Y-96966184D01*
X158973667Y-99198036D01*
X159023339Y-99318252D01*
X159214741Y-99509987D01*
X159464946Y-99613882D01*
X159735865Y-99614118D01*
X159986252Y-99510661D01*
X160177987Y-99319259D01*
X160281882Y-99069054D01*
X160282118Y-98798135D01*
X160178661Y-98547748D01*
X159987259Y-98356013D01*
X159866052Y-98305683D01*
X157819000Y-96258632D01*
X157819000Y-88632200D01*
X157770968Y-88390727D01*
X157634184Y-88186016D01*
X156731184Y-87283016D01*
X156526473Y-87146232D01*
X156285000Y-87098200D01*
X155997389Y-87098200D01*
X155830969Y-86849135D01*
X155427192Y-86579340D01*
X154950904Y-86484600D01*
X154369096Y-86484600D01*
X153892808Y-86579340D01*
X153489031Y-86849135D01*
X153322611Y-87098200D01*
X149976800Y-87098200D01*
X149735327Y-87146232D01*
X149530616Y-87283016D01*
X147786632Y-89027000D01*
X125691827Y-89027000D01*
X125686948Y-85450000D01*
X127361536Y-85450000D01*
X127361536Y-86950000D01*
X127388103Y-87091190D01*
X127471546Y-87220865D01*
X127598866Y-87307859D01*
X127750000Y-87338464D01*
X129250000Y-87338464D01*
X129391190Y-87311897D01*
X129520865Y-87228454D01*
X129607859Y-87101134D01*
X129638464Y-86950000D01*
X129638464Y-85450000D01*
X134361536Y-85450000D01*
X134361536Y-86950000D01*
X134388103Y-87091190D01*
X134471546Y-87220865D01*
X134598866Y-87307859D01*
X134750000Y-87338464D01*
X136250000Y-87338464D01*
X136391190Y-87311897D01*
X136520865Y-87228454D01*
X136607859Y-87101134D01*
X136638464Y-86950000D01*
X136638464Y-85450000D01*
X136611897Y-85308810D01*
X136528454Y-85179135D01*
X136401134Y-85092141D01*
X136250000Y-85061536D01*
X134750000Y-85061536D01*
X134608810Y-85088103D01*
X134479135Y-85171546D01*
X134392141Y-85298866D01*
X134361536Y-85450000D01*
X129638464Y-85450000D01*
X129611897Y-85308810D01*
X129528454Y-85179135D01*
X129401134Y-85092141D01*
X129250000Y-85061536D01*
X127750000Y-85061536D01*
X127608810Y-85088103D01*
X127479135Y-85171546D01*
X127392141Y-85298866D01*
X127361536Y-85450000D01*
X125686948Y-85450000D01*
X125668436Y-71877421D01*
X128233003Y-71877421D01*
X128304901Y-72132353D01*
X128549909Y-72499384D01*
X128916723Y-72744716D01*
X129349500Y-72831000D01*
X130099500Y-72831000D01*
X130099500Y-71700500D01*
X128314250Y-71700500D01*
X128233003Y-71877421D01*
X125668436Y-71877421D01*
X125667952Y-71522579D01*
X128233003Y-71522579D01*
X128314250Y-71699500D01*
X130099500Y-71699500D01*
X130099500Y-70569000D01*
X129349500Y-70569000D01*
X128916723Y-70655284D01*
X128549909Y-70900616D01*
X128304901Y-71267647D01*
X128233003Y-71522579D01*
X125667952Y-71522579D01*
X125664967Y-69334865D01*
X126918882Y-69334865D01*
X127022339Y-69585252D01*
X127213741Y-69776987D01*
X127463946Y-69880882D01*
X127734865Y-69881118D01*
X127985252Y-69777661D01*
X128057038Y-69706000D01*
X128343869Y-69706000D01*
X128513411Y-69959738D01*
X128880334Y-70204908D01*
X129313149Y-70291000D01*
X130886851Y-70291000D01*
X131319666Y-70204908D01*
X131686589Y-69959738D01*
X131844000Y-69724156D01*
X131844000Y-71191099D01*
X131650091Y-70900616D01*
X131283277Y-70655284D01*
X130850500Y-70569000D01*
X130100500Y-70569000D01*
X130100500Y-71699500D01*
X130120500Y-71699500D01*
X130120500Y-71700500D01*
X130100500Y-71700500D01*
X130100500Y-72831000D01*
X130850500Y-72831000D01*
X131283277Y-72744716D01*
X131650091Y-72499384D01*
X131844000Y-72208901D01*
X131844000Y-74700000D01*
X131878711Y-74874504D01*
X131977559Y-75022441D01*
X132125496Y-75121289D01*
X132300000Y-75156000D01*
X162576800Y-75156000D01*
X162576800Y-75285600D01*
X162623639Y-75521077D01*
X162624832Y-75527073D01*
X162761616Y-75731784D01*
X164887056Y-77857224D01*
X165091767Y-77994008D01*
X165333240Y-78042040D01*
X167443208Y-78042040D01*
X169269000Y-79867833D01*
X169269000Y-81397136D01*
X168775000Y-81397136D01*
X168633810Y-81423703D01*
X168504135Y-81507146D01*
X168417141Y-81634466D01*
X168386536Y-81785600D01*
X168386536Y-82018200D01*
X167920833Y-82018200D01*
X167944022Y-81962356D01*
X167944258Y-81691437D01*
X167935921Y-81671260D01*
X168038052Y-81629061D01*
X168229787Y-81437659D01*
X168333682Y-81187454D01*
X168333918Y-80916535D01*
X168230461Y-80666148D01*
X168039059Y-80474413D01*
X167788854Y-80370518D01*
X167517935Y-80370282D01*
X167267548Y-80473739D01*
X167195762Y-80545400D01*
X167038443Y-80545400D01*
X167038518Y-80459335D01*
X166935061Y-80208948D01*
X166743659Y-80017213D01*
X166493454Y-79913318D01*
X166222535Y-79913082D01*
X165972148Y-80016539D01*
X165900362Y-80088200D01*
X165754192Y-80088200D01*
X161508196Y-75842204D01*
X161344038Y-75732517D01*
X161150400Y-75694000D01*
X136000000Y-75694000D01*
X135806362Y-75732517D01*
X135642204Y-75842204D01*
X128859684Y-82624724D01*
X128725957Y-82569196D01*
X128276017Y-82568804D01*
X127860177Y-82740625D01*
X127541744Y-83058503D01*
X127369196Y-83474043D01*
X127368804Y-83923983D01*
X127540625Y-84339823D01*
X127858503Y-84658256D01*
X128274043Y-84830804D01*
X128723983Y-84831196D01*
X129139823Y-84659375D01*
X129458256Y-84341497D01*
X129630804Y-83925957D01*
X129631196Y-83476017D01*
X129575170Y-83340422D01*
X136209592Y-76706000D01*
X141778408Y-76706000D01*
X135859684Y-82624724D01*
X135725957Y-82569196D01*
X135276017Y-82568804D01*
X134860177Y-82740625D01*
X134541744Y-83058503D01*
X134369196Y-83474043D01*
X134368804Y-83923983D01*
X134540625Y-84339823D01*
X134858503Y-84658256D01*
X135274043Y-84830804D01*
X135723983Y-84831196D01*
X136139823Y-84659375D01*
X136458256Y-84341497D01*
X136630804Y-83925957D01*
X136631196Y-83476017D01*
X136575170Y-83340422D01*
X142759582Y-77156010D01*
X148428398Y-77156010D01*
X142959684Y-82624724D01*
X142825957Y-82569196D01*
X142376017Y-82568804D01*
X141960177Y-82740625D01*
X141641744Y-83058503D01*
X141469196Y-83474043D01*
X141468804Y-83923983D01*
X141640625Y-84339823D01*
X141958503Y-84658256D01*
X142374043Y-84830804D01*
X142823983Y-84831196D01*
X143239823Y-84659375D01*
X143558256Y-84341497D01*
X143730804Y-83925957D01*
X143731196Y-83476017D01*
X143675170Y-83340422D01*
X149409572Y-77606020D01*
X151551611Y-77606020D01*
X143733581Y-85424051D01*
X143711897Y-85308810D01*
X143628454Y-85179135D01*
X143501134Y-85092141D01*
X143350000Y-85061536D01*
X141850000Y-85061536D01*
X141708810Y-85088103D01*
X141579135Y-85171546D01*
X141492141Y-85298866D01*
X141461536Y-85450000D01*
X141461536Y-86950000D01*
X141488103Y-87091190D01*
X141571546Y-87220865D01*
X141698866Y-87307859D01*
X141850000Y-87338464D01*
X143350000Y-87338464D01*
X143491190Y-87311897D01*
X143620865Y-87228454D01*
X143707859Y-87101134D01*
X143738464Y-86950000D01*
X143738464Y-86831000D01*
X143850000Y-86831000D01*
X144091473Y-86782968D01*
X144296184Y-86646184D01*
X145557976Y-85384392D01*
X153169401Y-85384392D01*
X153248548Y-85665025D01*
X153518181Y-86068911D01*
X153921850Y-86338869D01*
X154398100Y-86433800D01*
X154659500Y-86433800D01*
X154659500Y-85189700D01*
X154660500Y-85189700D01*
X154660500Y-86433800D01*
X154921900Y-86433800D01*
X155398150Y-86338869D01*
X155801819Y-86068911D01*
X156071452Y-85665025D01*
X156150599Y-85384392D01*
X156070750Y-85189700D01*
X154660500Y-85189700D01*
X154659500Y-85189700D01*
X153249250Y-85189700D01*
X153169401Y-85384392D01*
X145557976Y-85384392D01*
X145948360Y-84994008D01*
X153169401Y-84994008D01*
X153249250Y-85188700D01*
X154659500Y-85188700D01*
X154659500Y-83944600D01*
X154660500Y-83944600D01*
X154660500Y-85188700D01*
X156070750Y-85188700D01*
X156150599Y-84994008D01*
X156071452Y-84713375D01*
X155801819Y-84309489D01*
X155398150Y-84039531D01*
X154921900Y-83944600D01*
X154660500Y-83944600D01*
X154659500Y-83944600D01*
X154398100Y-83944600D01*
X153921850Y-84039531D01*
X153518181Y-84309489D01*
X153248548Y-84713375D01*
X153169401Y-84994008D01*
X145948360Y-84994008D01*
X148343968Y-82598400D01*
X153124496Y-82598400D01*
X153219236Y-83074688D01*
X153489031Y-83478465D01*
X153892808Y-83748260D01*
X154369096Y-83843000D01*
X154950904Y-83843000D01*
X155427192Y-83748260D01*
X155830969Y-83478465D01*
X156100764Y-83074688D01*
X156195504Y-82598400D01*
X156100764Y-82122112D01*
X155830969Y-81718335D01*
X155427192Y-81448540D01*
X154950904Y-81353800D01*
X154369096Y-81353800D01*
X153892808Y-81448540D01*
X153489031Y-81718335D01*
X153219236Y-82122112D01*
X153124496Y-82598400D01*
X148343968Y-82598400D01*
X152636338Y-78306031D01*
X160254064Y-78306031D01*
X165043416Y-83095384D01*
X165248127Y-83232168D01*
X165288190Y-83240137D01*
X165489601Y-83280200D01*
X168115232Y-83280200D01*
X167409816Y-83985616D01*
X167273032Y-84190327D01*
X167225000Y-84431800D01*
X167225000Y-105148631D01*
X164107816Y-108265816D01*
X163971032Y-108470527D01*
X163923000Y-108712000D01*
X163923000Y-113916818D01*
X163873118Y-114036946D01*
X163872882Y-114307865D01*
X163976339Y-114558252D01*
X164167741Y-114749987D01*
X164417946Y-114853882D01*
X164688865Y-114854118D01*
X164939252Y-114750661D01*
X165130987Y-114559259D01*
X165234882Y-114309054D01*
X165235118Y-114038135D01*
X165185000Y-113916839D01*
X165185000Y-109753089D01*
X165609578Y-109753089D01*
X165804188Y-110224080D01*
X166164225Y-110584745D01*
X166634876Y-110780177D01*
X167144489Y-110780622D01*
X167615480Y-110586012D01*
X167976145Y-110225975D01*
X168171577Y-109755324D01*
X168172022Y-109245711D01*
X167977412Y-108774720D01*
X167617375Y-108414055D01*
X167146724Y-108218623D01*
X166637111Y-108218178D01*
X166166120Y-108412788D01*
X165805455Y-108772825D01*
X165610023Y-109243476D01*
X165609578Y-109753089D01*
X165185000Y-109753089D01*
X165185000Y-108973368D01*
X168302184Y-105856185D01*
X168403388Y-105704723D01*
X168459236Y-105985488D01*
X168729031Y-106389265D01*
X169132808Y-106659060D01*
X169609096Y-106753800D01*
X170190904Y-106753800D01*
X170667192Y-106659060D01*
X170844010Y-106540914D01*
X170844010Y-107017486D01*
X170667192Y-106899340D01*
X170190904Y-106804600D01*
X169609096Y-106804600D01*
X169132808Y-106899340D01*
X168729031Y-107169135D01*
X168459236Y-107572912D01*
X168364496Y-108049200D01*
X168459236Y-108525488D01*
X168729031Y-108929265D01*
X169132808Y-109199060D01*
X169609096Y-109293800D01*
X170190904Y-109293800D01*
X170667192Y-109199060D01*
X170844010Y-109080914D01*
X170844010Y-109557486D01*
X170667192Y-109439340D01*
X170190904Y-109344600D01*
X169609096Y-109344600D01*
X169132808Y-109439340D01*
X168729031Y-109709135D01*
X168459236Y-110112912D01*
X168364496Y-110589200D01*
X168459236Y-111065488D01*
X168729031Y-111469265D01*
X169132808Y-111739060D01*
X169609096Y-111833800D01*
X170190904Y-111833800D01*
X170667192Y-111739060D01*
X170844010Y-111620914D01*
X170844010Y-112097486D01*
X170667192Y-111979340D01*
X170190904Y-111884600D01*
X169609096Y-111884600D01*
X169132808Y-111979340D01*
X168729031Y-112249135D01*
X168459236Y-112652912D01*
X168364496Y-113129200D01*
X168459236Y-113605488D01*
X168729031Y-114009265D01*
X169132808Y-114279060D01*
X169609096Y-114373800D01*
X170190904Y-114373800D01*
X170667192Y-114279060D01*
X170844010Y-114160914D01*
X170844010Y-114270998D01*
X170607535Y-114507473D01*
X170190904Y-114424600D01*
X169609096Y-114424600D01*
X169132808Y-114519340D01*
X168729031Y-114789135D01*
X168459236Y-115192912D01*
X168364496Y-115669200D01*
X168459236Y-116145488D01*
X168729031Y-116549265D01*
X169132808Y-116819060D01*
X169609096Y-116913800D01*
X170190904Y-116913800D01*
X170667192Y-116819060D01*
X171070969Y-116549265D01*
X171340764Y-116145488D01*
X171435504Y-115669200D01*
X171342841Y-115203351D01*
X171707806Y-114838386D01*
X171817493Y-114674228D01*
X171856010Y-114480590D01*
X171856010Y-76584610D01*
X171817493Y-76390972D01*
X171707806Y-76226814D01*
X171510411Y-76029419D01*
X171652938Y-75934185D01*
X171898108Y-75567262D01*
X171984200Y-75134447D01*
X171984200Y-72541153D01*
X171898108Y-72108338D01*
X171652938Y-71741415D01*
X171349415Y-71538608D01*
X171320683Y-71394162D01*
X171210996Y-71230004D01*
X168711196Y-68730204D01*
X168547038Y-68620517D01*
X168524996Y-68616133D01*
X168420059Y-68511013D01*
X168169854Y-68407118D01*
X167898935Y-68406882D01*
X167648548Y-68510339D01*
X167456813Y-68701741D01*
X167352918Y-68951946D01*
X167352682Y-69222865D01*
X167456139Y-69473252D01*
X167647541Y-69664987D01*
X167897746Y-69768882D01*
X168168665Y-69769118D01*
X168274993Y-69725185D01*
X170195989Y-71646181D01*
X170053462Y-71741415D01*
X169808292Y-72108338D01*
X169722200Y-72541153D01*
X169722200Y-75134447D01*
X169808292Y-75567262D01*
X170053462Y-75934185D01*
X170356985Y-76136992D01*
X170385717Y-76281438D01*
X170495404Y-76445596D01*
X170844010Y-76794202D01*
X170844010Y-81397136D01*
X170531000Y-81397136D01*
X170531000Y-79606464D01*
X170482968Y-79364991D01*
X170482968Y-79364990D01*
X170346184Y-79160279D01*
X168150760Y-76964856D01*
X167946049Y-76828072D01*
X167704576Y-76780040D01*
X165594608Y-76780040D01*
X163838800Y-75024232D01*
X163838800Y-73591665D01*
X163872882Y-73591665D01*
X163976339Y-73842052D01*
X164167741Y-74033787D01*
X164288949Y-74084117D01*
X164488815Y-74283984D01*
X164642200Y-74386473D01*
X164642200Y-75134447D01*
X164728292Y-75567262D01*
X164973462Y-75934185D01*
X165340385Y-76179355D01*
X165773200Y-76265447D01*
X166206015Y-76179355D01*
X166572938Y-75934185D01*
X166818108Y-75567262D01*
X166904200Y-75134447D01*
X166904200Y-73838300D01*
X167182200Y-73838300D01*
X167182200Y-75088300D01*
X167268484Y-75521077D01*
X167513816Y-75887891D01*
X167880847Y-76132899D01*
X168135779Y-76204797D01*
X168312700Y-76123550D01*
X168312700Y-73838300D01*
X168313700Y-73838300D01*
X168313700Y-76123550D01*
X168490621Y-76204797D01*
X168745553Y-76132899D01*
X169112584Y-75887891D01*
X169357916Y-75521077D01*
X169444200Y-75088300D01*
X169444200Y-73838300D01*
X168313700Y-73838300D01*
X168312700Y-73838300D01*
X167182200Y-73838300D01*
X166904200Y-73838300D01*
X166904200Y-72587300D01*
X167182200Y-72587300D01*
X167182200Y-73837300D01*
X168312700Y-73837300D01*
X168312700Y-71552050D01*
X168313700Y-71552050D01*
X168313700Y-73837300D01*
X169444200Y-73837300D01*
X169444200Y-72587300D01*
X169357916Y-72154523D01*
X169112584Y-71787709D01*
X168745553Y-71542701D01*
X168490621Y-71470803D01*
X168313700Y-71552050D01*
X168312700Y-71552050D01*
X168135779Y-71470803D01*
X167880847Y-71542701D01*
X167513816Y-71787709D01*
X167268484Y-72154523D01*
X167182200Y-72587300D01*
X166904200Y-72587300D01*
X166904200Y-72541153D01*
X166818108Y-72108338D01*
X166572938Y-71741415D01*
X166206015Y-71496245D01*
X165773200Y-71410153D01*
X165340385Y-71496245D01*
X164973462Y-71741415D01*
X164728292Y-72108338D01*
X164642200Y-72541153D01*
X164642200Y-72775876D01*
X164419135Y-72775682D01*
X164168748Y-72879139D01*
X163977013Y-73070541D01*
X163873118Y-73320746D01*
X163872882Y-73591665D01*
X163838800Y-73591665D01*
X163838800Y-68130168D01*
X165073036Y-66895933D01*
X165193252Y-66846261D01*
X165384987Y-66654859D01*
X165488882Y-66404654D01*
X165489118Y-66133735D01*
X165385661Y-65883348D01*
X165194259Y-65691613D01*
X164944054Y-65587718D01*
X164673135Y-65587482D01*
X164422748Y-65690939D01*
X164231013Y-65882341D01*
X164180683Y-66003548D01*
X163056000Y-67128232D01*
X163056000Y-60300000D01*
X163021289Y-60125496D01*
X162922441Y-59977559D01*
X162774504Y-59878711D01*
X162600000Y-59844000D01*
X132300000Y-59844000D01*
X132125496Y-59878711D01*
X131977559Y-59977559D01*
X131878711Y-60125496D01*
X131844000Y-60300000D01*
X131844000Y-63515844D01*
X131686589Y-63280262D01*
X131319666Y-63035092D01*
X130886851Y-62949000D01*
X129313149Y-62949000D01*
X128880334Y-63035092D01*
X128513411Y-63280262D01*
X128268241Y-63647185D01*
X128182149Y-64080000D01*
X128268241Y-64512815D01*
X128513411Y-64879738D01*
X128880334Y-65124908D01*
X129313149Y-65211000D01*
X130886851Y-65211000D01*
X131319666Y-65124908D01*
X131686589Y-64879738D01*
X131844000Y-64644156D01*
X131844000Y-66055844D01*
X131686589Y-65820262D01*
X131319666Y-65575092D01*
X130886851Y-65489000D01*
X129313149Y-65489000D01*
X128880334Y-65575092D01*
X128513411Y-65820262D01*
X128268241Y-66187185D01*
X128182149Y-66620000D01*
X128268241Y-67052815D01*
X128513411Y-67419738D01*
X128880334Y-67664908D01*
X129313149Y-67751000D01*
X130886851Y-67751000D01*
X131319666Y-67664908D01*
X131686589Y-67419738D01*
X131844000Y-67184156D01*
X131844000Y-68595844D01*
X131686589Y-68360262D01*
X131319666Y-68115092D01*
X130886851Y-68029000D01*
X129313149Y-68029000D01*
X128880334Y-68115092D01*
X128513411Y-68360262D01*
X128290414Y-68694000D01*
X128057123Y-68694000D01*
X127986259Y-68623013D01*
X127736054Y-68519118D01*
X127465135Y-68518882D01*
X127214748Y-68622339D01*
X127023013Y-68813741D01*
X126919118Y-69063946D01*
X126918882Y-69334865D01*
X125664967Y-69334865D01*
X125629655Y-43446000D01*
X127173536Y-43446000D01*
X127173536Y-44946000D01*
X127200103Y-45087190D01*
X127283546Y-45216865D01*
X127410866Y-45303859D01*
X127562000Y-45334464D01*
X129062000Y-45334464D01*
X129203190Y-45307897D01*
X129332865Y-45224454D01*
X129419859Y-45097134D01*
X129450464Y-44946000D01*
X129450464Y-44419983D01*
X129680804Y-44419983D01*
X129852625Y-44835823D01*
X130170503Y-45154256D01*
X130586043Y-45326804D01*
X131035983Y-45327196D01*
X131451823Y-45155375D01*
X131770256Y-44837497D01*
X131942804Y-44421957D01*
X131942805Y-44419983D01*
X132180804Y-44419983D01*
X132352625Y-44835823D01*
X132670503Y-45154256D01*
X133086043Y-45326804D01*
X133535983Y-45327196D01*
X133951823Y-45155375D01*
X134270256Y-44837497D01*
X134442804Y-44421957D01*
X134442805Y-44419983D01*
X134680804Y-44419983D01*
X134852625Y-44835823D01*
X135170503Y-45154256D01*
X135586043Y-45326804D01*
X136035983Y-45327196D01*
X136451823Y-45155375D01*
X136770256Y-44837497D01*
X136942804Y-44421957D01*
X136942805Y-44419983D01*
X137180804Y-44419983D01*
X137352625Y-44835823D01*
X137670503Y-45154256D01*
X138086043Y-45326804D01*
X138535983Y-45327196D01*
X138951823Y-45155375D01*
X139163159Y-44944407D01*
X140064300Y-44944407D01*
X140134595Y-45129218D01*
X140543287Y-45317412D01*
X140992887Y-45334881D01*
X141414949Y-45178966D01*
X141489405Y-45129218D01*
X141559700Y-44944407D01*
X140812000Y-44196707D01*
X140064300Y-44944407D01*
X139163159Y-44944407D01*
X139270256Y-44837497D01*
X139442804Y-44421957D01*
X139442843Y-44376887D01*
X139673119Y-44376887D01*
X139829034Y-44798949D01*
X139878782Y-44873405D01*
X140063593Y-44943700D01*
X140811293Y-44196000D01*
X140812707Y-44196000D01*
X141560407Y-44943700D01*
X141745218Y-44873405D01*
X141933412Y-44464713D01*
X141950881Y-44015113D01*
X141794966Y-43593051D01*
X141745218Y-43518595D01*
X141564877Y-43450000D01*
X145861536Y-43450000D01*
X145861536Y-44950000D01*
X145888103Y-45091190D01*
X145971546Y-45220865D01*
X146098866Y-45307859D01*
X146250000Y-45338464D01*
X147750000Y-45338464D01*
X147891190Y-45311897D01*
X148020865Y-45228454D01*
X148107859Y-45101134D01*
X148138464Y-44950000D01*
X148138464Y-44423983D01*
X148368804Y-44423983D01*
X148540625Y-44839823D01*
X148858503Y-45158256D01*
X148994000Y-45214520D01*
X148994000Y-57205436D01*
X148889413Y-57309841D01*
X148785518Y-57560046D01*
X148785282Y-57830965D01*
X148888739Y-58081352D01*
X149080141Y-58273087D01*
X149330346Y-58376982D01*
X149601265Y-58377218D01*
X149851652Y-58273761D01*
X150043387Y-58082359D01*
X150147282Y-57832154D01*
X150147518Y-57561235D01*
X150044061Y-57310848D01*
X150006000Y-57272721D01*
X150006000Y-45214669D01*
X150139823Y-45159375D01*
X150458256Y-44841497D01*
X150630804Y-44425957D01*
X150630805Y-44423983D01*
X150868804Y-44423983D01*
X151040625Y-44839823D01*
X151358503Y-45158256D01*
X151494000Y-45214520D01*
X151494000Y-55695800D01*
X151532517Y-55889438D01*
X151642204Y-56053596D01*
X152684269Y-57095661D01*
X152684182Y-57195965D01*
X152787639Y-57446352D01*
X152979041Y-57638087D01*
X153229246Y-57741982D01*
X153500165Y-57742218D01*
X153750552Y-57638761D01*
X153942287Y-57447359D01*
X154046182Y-57197154D01*
X154046418Y-56926235D01*
X153942961Y-56675848D01*
X153751559Y-56484113D01*
X153501354Y-56380218D01*
X153399922Y-56380130D01*
X152506000Y-55486208D01*
X152506000Y-51147400D01*
X163143936Y-51147400D01*
X163143936Y-52874600D01*
X163170503Y-53015790D01*
X163253946Y-53145465D01*
X163381266Y-53232459D01*
X163532400Y-53263064D01*
X163765000Y-53263064D01*
X163765000Y-58619473D01*
X163746118Y-58664946D01*
X163745882Y-58935865D01*
X163849339Y-59186252D01*
X164040741Y-59377987D01*
X164290946Y-59481882D01*
X164561865Y-59482118D01*
X164812252Y-59378661D01*
X165003987Y-59187259D01*
X165107882Y-58937054D01*
X165108118Y-58666135D01*
X165027000Y-58469813D01*
X165027000Y-53263064D01*
X165259600Y-53263064D01*
X165400790Y-53236497D01*
X165530465Y-53153054D01*
X165617459Y-53025734D01*
X165648064Y-52874600D01*
X165648064Y-51986617D01*
X165691400Y-51986617D01*
X165691400Y-52035383D01*
X165786140Y-52511671D01*
X166055935Y-52915448D01*
X166430000Y-53165390D01*
X166430000Y-53817000D01*
X166468517Y-54010638D01*
X166578204Y-54174796D01*
X167752204Y-55348796D01*
X167916362Y-55458483D01*
X168110000Y-55497000D01*
X170192877Y-55497000D01*
X170263741Y-55567987D01*
X170513946Y-55671882D01*
X170784865Y-55672118D01*
X171035252Y-55568661D01*
X171226987Y-55377259D01*
X171330882Y-55127054D01*
X171331118Y-54856135D01*
X171227661Y-54605748D01*
X171036259Y-54414013D01*
X170786054Y-54310118D01*
X170515135Y-54309882D01*
X170264748Y-54413339D01*
X170192962Y-54485000D01*
X168319592Y-54485000D01*
X167442000Y-53607408D01*
X167442000Y-53165390D01*
X167816065Y-52915448D01*
X168085860Y-52511671D01*
X168180600Y-52035383D01*
X168180600Y-51986617D01*
X168231400Y-51986617D01*
X168231400Y-52035383D01*
X168326140Y-52511671D01*
X168595935Y-52915448D01*
X168999712Y-53185243D01*
X169476000Y-53279983D01*
X169952288Y-53185243D01*
X170356065Y-52915448D01*
X170625860Y-52511671D01*
X170720600Y-52035383D01*
X170720600Y-51986617D01*
X170771400Y-51986617D01*
X170771400Y-52035383D01*
X170866140Y-52511671D01*
X171135935Y-52915448D01*
X171539712Y-53185243D01*
X172016000Y-53279983D01*
X172492288Y-53185243D01*
X172896065Y-52915448D01*
X173165860Y-52511671D01*
X173260600Y-52035383D01*
X173260600Y-51986617D01*
X173165860Y-51510329D01*
X172896065Y-51106552D01*
X172492288Y-50836757D01*
X172016000Y-50742017D01*
X171539712Y-50836757D01*
X171135935Y-51106552D01*
X170866140Y-51510329D01*
X170771400Y-51986617D01*
X170720600Y-51986617D01*
X170625860Y-51510329D01*
X170356065Y-51106552D01*
X169952288Y-50836757D01*
X169476000Y-50742017D01*
X168999712Y-50836757D01*
X168595935Y-51106552D01*
X168326140Y-51510329D01*
X168231400Y-51986617D01*
X168180600Y-51986617D01*
X168085860Y-51510329D01*
X167816065Y-51106552D01*
X167412288Y-50836757D01*
X166936000Y-50742017D01*
X166459712Y-50836757D01*
X166055935Y-51106552D01*
X165786140Y-51510329D01*
X165691400Y-51986617D01*
X165648064Y-51986617D01*
X165648064Y-51147400D01*
X165621497Y-51006210D01*
X165538054Y-50876535D01*
X165410734Y-50789541D01*
X165259600Y-50758936D01*
X163532400Y-50758936D01*
X163391210Y-50785503D01*
X163261535Y-50868946D01*
X163174541Y-50996266D01*
X163143936Y-51147400D01*
X152506000Y-51147400D01*
X152506000Y-49446617D01*
X163151400Y-49446617D01*
X163151400Y-49495383D01*
X163246140Y-49971671D01*
X163515935Y-50375448D01*
X163919712Y-50645243D01*
X164396000Y-50739983D01*
X164872288Y-50645243D01*
X165276065Y-50375448D01*
X165545860Y-49971671D01*
X165606623Y-49666192D01*
X165706801Y-49666192D01*
X165875065Y-50121728D01*
X166204847Y-50478197D01*
X166645940Y-50681329D01*
X166740808Y-50700199D01*
X166935500Y-50620350D01*
X166935500Y-49471500D01*
X166936500Y-49471500D01*
X166936500Y-50620350D01*
X167131192Y-50700199D01*
X167226060Y-50681329D01*
X167667153Y-50478197D01*
X167996935Y-50121728D01*
X168165199Y-49666192D01*
X168085350Y-49471500D01*
X166936500Y-49471500D01*
X166935500Y-49471500D01*
X165786650Y-49471500D01*
X165706801Y-49666192D01*
X165606623Y-49666192D01*
X165640600Y-49495383D01*
X165640600Y-49446617D01*
X165606624Y-49275808D01*
X165706801Y-49275808D01*
X165786650Y-49470500D01*
X166935500Y-49470500D01*
X166935500Y-48321650D01*
X166936500Y-48321650D01*
X166936500Y-49470500D01*
X168085350Y-49470500D01*
X168095145Y-49446617D01*
X168231400Y-49446617D01*
X168231400Y-49495383D01*
X168326140Y-49971671D01*
X168595935Y-50375448D01*
X168999712Y-50645243D01*
X169476000Y-50739983D01*
X169952288Y-50645243D01*
X170356065Y-50375448D01*
X170625860Y-49971671D01*
X170720600Y-49495383D01*
X170720600Y-49446617D01*
X170771400Y-49446617D01*
X170771400Y-49495383D01*
X170866140Y-49971671D01*
X171135935Y-50375448D01*
X171539712Y-50645243D01*
X172016000Y-50739983D01*
X172492288Y-50645243D01*
X172896065Y-50375448D01*
X173165860Y-49971671D01*
X173260600Y-49495383D01*
X173260600Y-49446617D01*
X173165860Y-48970329D01*
X172896065Y-48566552D01*
X172492288Y-48296757D01*
X172016000Y-48202017D01*
X171539712Y-48296757D01*
X171135935Y-48566552D01*
X170866140Y-48970329D01*
X170771400Y-49446617D01*
X170720600Y-49446617D01*
X170625860Y-48970329D01*
X170356065Y-48566552D01*
X169952288Y-48296757D01*
X169476000Y-48202017D01*
X168999712Y-48296757D01*
X168595935Y-48566552D01*
X168326140Y-48970329D01*
X168231400Y-49446617D01*
X168095145Y-49446617D01*
X168165199Y-49275808D01*
X167996935Y-48820272D01*
X167667153Y-48463803D01*
X167226060Y-48260671D01*
X167131192Y-48241801D01*
X166936500Y-48321650D01*
X166935500Y-48321650D01*
X166740808Y-48241801D01*
X166645940Y-48260671D01*
X166204847Y-48463803D01*
X165875065Y-48820272D01*
X165706801Y-49275808D01*
X165606624Y-49275808D01*
X165545860Y-48970329D01*
X165276065Y-48566552D01*
X164872288Y-48296757D01*
X164396000Y-48202017D01*
X163919712Y-48296757D01*
X163515935Y-48566552D01*
X163246140Y-48970329D01*
X163151400Y-49446617D01*
X152506000Y-49446617D01*
X152506000Y-45214669D01*
X152639823Y-45159375D01*
X152851159Y-44948407D01*
X153752300Y-44948407D01*
X153822595Y-45133218D01*
X154231287Y-45321412D01*
X154680887Y-45338881D01*
X155102949Y-45182966D01*
X155177405Y-45133218D01*
X155247700Y-44948407D01*
X154500000Y-44200707D01*
X153752300Y-44948407D01*
X152851159Y-44948407D01*
X152958256Y-44841497D01*
X153130804Y-44425957D01*
X153130843Y-44380887D01*
X153361119Y-44380887D01*
X153517034Y-44802949D01*
X153566782Y-44877405D01*
X153751593Y-44947700D01*
X154499293Y-44200000D01*
X154500707Y-44200000D01*
X155248407Y-44947700D01*
X155433218Y-44877405D01*
X155621412Y-44468713D01*
X155638881Y-44019113D01*
X155482966Y-43597051D01*
X155433218Y-43522595D01*
X155248407Y-43452300D01*
X154500707Y-44200000D01*
X154499293Y-44200000D01*
X153751593Y-43452300D01*
X153566782Y-43522595D01*
X153378588Y-43931287D01*
X153361119Y-44380887D01*
X153130843Y-44380887D01*
X153131196Y-43976017D01*
X152959375Y-43560177D01*
X152850981Y-43451593D01*
X153752300Y-43451593D01*
X154500000Y-44199293D01*
X155247700Y-43451593D01*
X155177405Y-43266782D01*
X154768713Y-43078588D01*
X154319113Y-43061119D01*
X153897051Y-43217034D01*
X153822595Y-43266782D01*
X153752300Y-43451593D01*
X152850981Y-43451593D01*
X152641497Y-43241744D01*
X152225957Y-43069196D01*
X151776017Y-43068804D01*
X151360177Y-43240625D01*
X151041744Y-43558503D01*
X150869196Y-43974043D01*
X150868804Y-44423983D01*
X150630805Y-44423983D01*
X150631196Y-43976017D01*
X150459375Y-43560177D01*
X150141497Y-43241744D01*
X149725957Y-43069196D01*
X149276017Y-43068804D01*
X148860177Y-43240625D01*
X148541744Y-43558503D01*
X148369196Y-43974043D01*
X148368804Y-44423983D01*
X148138464Y-44423983D01*
X148138464Y-43450000D01*
X148111897Y-43308810D01*
X148028454Y-43179135D01*
X147901134Y-43092141D01*
X147750000Y-43061536D01*
X146250000Y-43061536D01*
X146108810Y-43088103D01*
X145979135Y-43171546D01*
X145892141Y-43298866D01*
X145861536Y-43450000D01*
X141564877Y-43450000D01*
X141560407Y-43448300D01*
X140812707Y-44196000D01*
X140811293Y-44196000D01*
X140063593Y-43448300D01*
X139878782Y-43518595D01*
X139690588Y-43927287D01*
X139673119Y-44376887D01*
X139442843Y-44376887D01*
X139443196Y-43972017D01*
X139271375Y-43556177D01*
X139162981Y-43447593D01*
X140064300Y-43447593D01*
X140812000Y-44195293D01*
X141559700Y-43447593D01*
X141489405Y-43262782D01*
X141080713Y-43074588D01*
X140631113Y-43057119D01*
X140209051Y-43213034D01*
X140134595Y-43262782D01*
X140064300Y-43447593D01*
X139162981Y-43447593D01*
X138953497Y-43237744D01*
X138537957Y-43065196D01*
X138088017Y-43064804D01*
X137672177Y-43236625D01*
X137353744Y-43554503D01*
X137181196Y-43970043D01*
X137180804Y-44419983D01*
X136942805Y-44419983D01*
X136943196Y-43972017D01*
X136771375Y-43556177D01*
X136453497Y-43237744D01*
X136037957Y-43065196D01*
X135588017Y-43064804D01*
X135172177Y-43236625D01*
X134853744Y-43554503D01*
X134681196Y-43970043D01*
X134680804Y-44419983D01*
X134442805Y-44419983D01*
X134443196Y-43972017D01*
X134271375Y-43556177D01*
X133953497Y-43237744D01*
X133537957Y-43065196D01*
X133088017Y-43064804D01*
X132672177Y-43236625D01*
X132353744Y-43554503D01*
X132181196Y-43970043D01*
X132180804Y-44419983D01*
X131942805Y-44419983D01*
X131943196Y-43972017D01*
X131771375Y-43556177D01*
X131453497Y-43237744D01*
X131037957Y-43065196D01*
X130588017Y-43064804D01*
X130172177Y-43236625D01*
X129853744Y-43554503D01*
X129681196Y-43970043D01*
X129680804Y-44419983D01*
X129450464Y-44419983D01*
X129450464Y-43446000D01*
X129423897Y-43304810D01*
X129340454Y-43175135D01*
X129213134Y-43088141D01*
X129062000Y-43057536D01*
X127562000Y-43057536D01*
X127420810Y-43084103D01*
X127291135Y-43167546D01*
X127204141Y-43294866D01*
X127173536Y-43446000D01*
X125629655Y-43446000D01*
X125627173Y-41627000D01*
X174373000Y-41627000D01*
X174373000Y-140373000D01*
M02*
