G04 #@! TF.FileFunction,Paste,Top*
%FSLAX46Y46*%
G04 Gerber Fmt 4.6, Leading zero omitted, Abs format (unit mm)*
G04 Created by KiCad (PCBNEW 4.0.2-stable) date 12/2/2017 12:12:33 PM*
%MOMM*%
G01*
G04 APERTURE LIST*
%ADD10C,0.100000*%
%ADD11R,0.800100X0.800100*%
%ADD12R,0.599440X1.000760*%
%ADD13R,1.300000X0.700000*%
%ADD14R,1.000000X1.250000*%
%ADD15R,1.250000X1.000000*%
%ADD16R,3.657600X2.032000*%
%ADD17R,1.016000X2.032000*%
G04 APERTURE END LIST*
D10*
D11*
X146123760Y-102296000D03*
X146123760Y-100396000D03*
X144124780Y-101346000D03*
D12*
X142329000Y-96690180D03*
X142329000Y-98889820D03*
X142329000Y-100500180D03*
X142329000Y-102699820D03*
D11*
X146123760Y-95311000D03*
X146123760Y-93411000D03*
X144124780Y-94361000D03*
D13*
X148044000Y-102296000D03*
X148044000Y-100396000D03*
X148044000Y-95311000D03*
X148044000Y-93411000D03*
D11*
X146123760Y-98740000D03*
X146123760Y-96840000D03*
X144124780Y-97790000D03*
D13*
X148044000Y-98740000D03*
X148044000Y-96840000D03*
X164325400Y-68122800D03*
X164325400Y-70022800D03*
D14*
X164443000Y-44196000D03*
X166443000Y-44196000D03*
D13*
X168033800Y-68178600D03*
X168033800Y-70078600D03*
D15*
X166205000Y-70027800D03*
X166205000Y-68027800D03*
D16*
X162649000Y-138557000D03*
D17*
X162649000Y-131953000D03*
X160363000Y-131953000D03*
X164935000Y-131953000D03*
D14*
X162792000Y-129032000D03*
X164792000Y-129032000D03*
D13*
X129000000Y-79750000D03*
X129000000Y-77850000D03*
D15*
X131100000Y-79800000D03*
X131100000Y-77800000D03*
D13*
X135700000Y-79650000D03*
X135700000Y-77750000D03*
X142900000Y-79750000D03*
X142900000Y-77850000D03*
D15*
X145000000Y-79800000D03*
X145000000Y-77800000D03*
X137900000Y-79800000D03*
X137900000Y-77800000D03*
D13*
X151727000Y-50988000D03*
X151727000Y-49088000D03*
D14*
X164443000Y-46355000D03*
X166443000Y-46355000D03*
D13*
X149568000Y-50988000D03*
X149568000Y-49088000D03*
D14*
X114443000Y-44196000D03*
X116443000Y-44196000D03*
X114443000Y-46355000D03*
X116443000Y-46355000D03*
D15*
X81100000Y-79800000D03*
X81100000Y-77800000D03*
X87900000Y-79800000D03*
X87900000Y-77800000D03*
X95000000Y-79800000D03*
X95000000Y-77800000D03*
D11*
X96123760Y-102296000D03*
X96123760Y-100396000D03*
X94124780Y-101346000D03*
X96123760Y-98740000D03*
X96123760Y-96840000D03*
X94124780Y-97790000D03*
X96123760Y-95311000D03*
X96123760Y-93411000D03*
X94124780Y-94361000D03*
D13*
X99568000Y-50988000D03*
X99568000Y-49088000D03*
X101727000Y-50988000D03*
X101727000Y-49088000D03*
X79000000Y-79750000D03*
X79000000Y-77850000D03*
X85700000Y-79650000D03*
X85700000Y-77750000D03*
X92900000Y-79750000D03*
X92900000Y-77850000D03*
X98044000Y-102296000D03*
X98044000Y-100396000D03*
X98044000Y-98740000D03*
X98044000Y-96840000D03*
X98044000Y-95311000D03*
X98044000Y-93411000D03*
D14*
X112792000Y-129032000D03*
X114792000Y-129032000D03*
D16*
X112649000Y-138557000D03*
D17*
X112649000Y-131953000D03*
X110363000Y-131953000D03*
X114935000Y-131953000D03*
D12*
X92329000Y-96690180D03*
X92329000Y-98889820D03*
X92329000Y-100500180D03*
X92329000Y-102699820D03*
D15*
X116205000Y-70027800D03*
X116205000Y-68027800D03*
D13*
X118033800Y-68178600D03*
X118033800Y-70078600D03*
X114325400Y-68122800D03*
X114325400Y-70022800D03*
M02*
